G04 #@! TF.GenerationSoftware,KiCad,Pcbnew,7.0.1-0*
G04 #@! TF.CreationDate,2023-04-13T17:41:14+02:00*
G04 #@! TF.ProjectId,Remote,52656d6f-7465-42e6-9b69-6361645f7063,rev?*
G04 #@! TF.SameCoordinates,Original*
G04 #@! TF.FileFunction,Legend,Top*
G04 #@! TF.FilePolarity,Positive*
%FSLAX46Y46*%
G04 Gerber Fmt 4.6, Leading zero omitted, Abs format (unit mm)*
G04 Created by KiCad (PCBNEW 7.0.1-0) date 2023-04-13 17:41:14*
%MOMM*%
%LPD*%
G01*
G04 APERTURE LIST*
G04 Aperture macros list*
%AMRoundRect*
0 Rectangle with rounded corners*
0 $1 Rounding radius*
0 $2 $3 $4 $5 $6 $7 $8 $9 X,Y pos of 4 corners*
0 Add a 4 corners polygon primitive as box body*
4,1,4,$2,$3,$4,$5,$6,$7,$8,$9,$2,$3,0*
0 Add four circle primitives for the rounded corners*
1,1,$1+$1,$2,$3*
1,1,$1+$1,$4,$5*
1,1,$1+$1,$6,$7*
1,1,$1+$1,$8,$9*
0 Add four rect primitives between the rounded corners*
20,1,$1+$1,$2,$3,$4,$5,0*
20,1,$1+$1,$4,$5,$6,$7,0*
20,1,$1+$1,$6,$7,$8,$9,0*
20,1,$1+$1,$8,$9,$2,$3,0*%
G04 Aperture macros list end*
%ADD10C,0.150000*%
%ADD11C,0.120000*%
%ADD12RoundRect,0.200000X2.500000X-0.300000X2.500000X0.300000X-2.500000X0.300000X-2.500000X-0.300000X0*%
%ADD13C,2.200000*%
%ADD14RoundRect,0.200000X4.000000X-0.300000X4.000000X0.300000X-4.000000X0.300000X-4.000000X-0.300000X0*%
%ADD15RoundRect,0.200000X-0.650000X0.150000X-0.650000X-0.150000X0.650000X-0.150000X0.650000X0.150000X0*%
%ADD16RoundRect,0.200000X-1.100000X0.900000X-1.100000X-0.900000X1.100000X-0.900000X1.100000X0.900000X0*%
%ADD17RoundRect,0.200000X-1.255000X-0.317500X1.255000X-0.317500X1.255000X0.317500X-1.255000X0.317500X0*%
%ADD18RoundRect,0.200000X0.850000X-0.850000X0.850000X0.850000X-0.850000X0.850000X-0.850000X-0.850000X0*%
%ADD19O,2.100000X2.100000*%
G04 APERTURE END LIST*
D10*
X210599619Y-59138094D02*
X209599619Y-59138094D01*
X209599619Y-59138094D02*
X209599619Y-58899999D01*
X209599619Y-58899999D02*
X209647238Y-58757142D01*
X209647238Y-58757142D02*
X209742476Y-58661904D01*
X209742476Y-58661904D02*
X209837714Y-58614285D01*
X209837714Y-58614285D02*
X210028190Y-58566666D01*
X210028190Y-58566666D02*
X210171047Y-58566666D01*
X210171047Y-58566666D02*
X210361523Y-58614285D01*
X210361523Y-58614285D02*
X210456761Y-58661904D01*
X210456761Y-58661904D02*
X210552000Y-58757142D01*
X210552000Y-58757142D02*
X210599619Y-58899999D01*
X210599619Y-58899999D02*
X210599619Y-59138094D01*
X209694857Y-58185713D02*
X209647238Y-58138094D01*
X209647238Y-58138094D02*
X209599619Y-58042856D01*
X209599619Y-58042856D02*
X209599619Y-57804761D01*
X209599619Y-57804761D02*
X209647238Y-57709523D01*
X209647238Y-57709523D02*
X209694857Y-57661904D01*
X209694857Y-57661904D02*
X209790095Y-57614285D01*
X209790095Y-57614285D02*
X209885333Y-57614285D01*
X209885333Y-57614285D02*
X210028190Y-57661904D01*
X210028190Y-57661904D02*
X210599619Y-58233332D01*
X210599619Y-58233332D02*
X210599619Y-57614285D01*
X210599619Y-54332094D02*
X209599619Y-54332094D01*
X209599619Y-54332094D02*
X209599619Y-54093999D01*
X209599619Y-54093999D02*
X209647238Y-53951142D01*
X209647238Y-53951142D02*
X209742476Y-53855904D01*
X209742476Y-53855904D02*
X209837714Y-53808285D01*
X209837714Y-53808285D02*
X210028190Y-53760666D01*
X210028190Y-53760666D02*
X210171047Y-53760666D01*
X210171047Y-53760666D02*
X210361523Y-53808285D01*
X210361523Y-53808285D02*
X210456761Y-53855904D01*
X210456761Y-53855904D02*
X210552000Y-53951142D01*
X210552000Y-53951142D02*
X210599619Y-54093999D01*
X210599619Y-54093999D02*
X210599619Y-54332094D01*
X210599619Y-52808285D02*
X210599619Y-53379713D01*
X210599619Y-53093999D02*
X209599619Y-53093999D01*
X209599619Y-53093999D02*
X209742476Y-53189237D01*
X209742476Y-53189237D02*
X209837714Y-53284475D01*
X209837714Y-53284475D02*
X209885333Y-53379713D01*
X198055970Y-56340333D02*
X198770255Y-56340333D01*
X198770255Y-56340333D02*
X198913112Y-56387952D01*
X198913112Y-56387952D02*
X199008351Y-56483190D01*
X199008351Y-56483190D02*
X199055970Y-56626047D01*
X199055970Y-56626047D02*
X199055970Y-56721285D01*
X198055970Y-55435571D02*
X198055970Y-55626047D01*
X198055970Y-55626047D02*
X198103589Y-55721285D01*
X198103589Y-55721285D02*
X198151208Y-55768904D01*
X198151208Y-55768904D02*
X198294065Y-55864142D01*
X198294065Y-55864142D02*
X198484541Y-55911761D01*
X198484541Y-55911761D02*
X198865493Y-55911761D01*
X198865493Y-55911761D02*
X198960731Y-55864142D01*
X198960731Y-55864142D02*
X199008351Y-55816523D01*
X199008351Y-55816523D02*
X199055970Y-55721285D01*
X199055970Y-55721285D02*
X199055970Y-55530809D01*
X199055970Y-55530809D02*
X199008351Y-55435571D01*
X199008351Y-55435571D02*
X198960731Y-55387952D01*
X198960731Y-55387952D02*
X198865493Y-55340333D01*
X198865493Y-55340333D02*
X198627398Y-55340333D01*
X198627398Y-55340333D02*
X198532160Y-55387952D01*
X198532160Y-55387952D02*
X198484541Y-55435571D01*
X198484541Y-55435571D02*
X198436922Y-55530809D01*
X198436922Y-55530809D02*
X198436922Y-55721285D01*
X198436922Y-55721285D02*
X198484541Y-55816523D01*
X198484541Y-55816523D02*
X198532160Y-55864142D01*
X198532160Y-55864142D02*
X198627398Y-55911761D01*
X42846666Y-46579619D02*
X42846666Y-47293904D01*
X42846666Y-47293904D02*
X42799047Y-47436761D01*
X42799047Y-47436761D02*
X42703809Y-47532000D01*
X42703809Y-47532000D02*
X42560952Y-47579619D01*
X42560952Y-47579619D02*
X42465714Y-47579619D01*
X43799047Y-46579619D02*
X43322857Y-46579619D01*
X43322857Y-46579619D02*
X43275238Y-47055809D01*
X43275238Y-47055809D02*
X43322857Y-47008190D01*
X43322857Y-47008190D02*
X43418095Y-46960571D01*
X43418095Y-46960571D02*
X43656190Y-46960571D01*
X43656190Y-46960571D02*
X43751428Y-47008190D01*
X43751428Y-47008190D02*
X43799047Y-47055809D01*
X43799047Y-47055809D02*
X43846666Y-47151047D01*
X43846666Y-47151047D02*
X43846666Y-47389142D01*
X43846666Y-47389142D02*
X43799047Y-47484380D01*
X43799047Y-47484380D02*
X43751428Y-47532000D01*
X43751428Y-47532000D02*
X43656190Y-47579619D01*
X43656190Y-47579619D02*
X43418095Y-47579619D01*
X43418095Y-47579619D02*
X43322857Y-47532000D01*
X43322857Y-47532000D02*
X43275238Y-47484380D01*
D11*
X223467000Y-59960000D02*
X227327000Y-59960000D01*
X223467000Y-59960000D02*
X223467000Y-56840000D01*
X218257000Y-59670000D02*
X218257000Y-59670000D01*
X218257000Y-59670000D02*
X223467000Y-59670000D01*
X223467000Y-59670000D02*
X218257000Y-59670000D01*
X223467000Y-59670000D02*
X223467000Y-59670000D01*
X218257000Y-57130000D02*
X218257000Y-57130000D01*
X218257000Y-57130000D02*
X223467000Y-57130000D01*
X223467000Y-57130000D02*
X218257000Y-57130000D01*
X223467000Y-57130000D02*
X223467000Y-57130000D01*
X223467000Y-56840000D02*
X227327000Y-56840000D01*
X223467000Y-56840000D02*
X223467000Y-56440000D01*
X224587000Y-56840000D02*
X223467000Y-56840000D01*
X223467000Y-56440000D02*
X224587000Y-56440000D01*
X224587000Y-56440000D02*
X224587000Y-56840000D01*
X227327000Y-59960000D02*
G75*
G03*
X227327000Y-56840000I0J1560000D01*
G01*
X223467000Y-55154000D02*
X227327000Y-55154000D01*
X223467000Y-55154000D02*
X223467000Y-52034000D01*
X218257000Y-54864000D02*
X218257000Y-54864000D01*
X218257000Y-54864000D02*
X223467000Y-54864000D01*
X223467000Y-54864000D02*
X218257000Y-54864000D01*
X223467000Y-54864000D02*
X223467000Y-54864000D01*
X218257000Y-52324000D02*
X218257000Y-52324000D01*
X218257000Y-52324000D02*
X223467000Y-52324000D01*
X223467000Y-52324000D02*
X218257000Y-52324000D01*
X223467000Y-52324000D02*
X223467000Y-52324000D01*
X223467000Y-52034000D02*
X227327000Y-52034000D01*
X223467000Y-52034000D02*
X223467000Y-51634000D01*
X224587000Y-52034000D02*
X223467000Y-52034000D01*
X223467000Y-51634000D02*
X224587000Y-51634000D01*
X224587000Y-51634000D02*
X224587000Y-52034000D01*
X227327000Y-55154000D02*
G75*
G03*
X227327000Y-52034000I0J1560000D01*
G01*
X196193351Y-48357000D02*
X194853351Y-48357000D01*
X192133351Y-48357000D02*
X190393351Y-48357000D01*
X190393351Y-48357000D02*
X190393351Y-63657000D01*
X196193351Y-49847000D02*
X196193351Y-48357000D01*
X196193351Y-49847000D02*
X197393351Y-49847000D01*
X196193351Y-62167000D02*
X196193351Y-63657000D01*
X196193351Y-63657000D02*
X194853351Y-63657000D01*
X190393351Y-63657000D02*
X192133351Y-63657000D01*
%LPC*%
D12*
X217597000Y-57730000D03*
D13*
X215097000Y-57130000D03*
X215097000Y-57130000D03*
D12*
X217597000Y-56530000D03*
D14*
X216097000Y-60270000D03*
D13*
X212097000Y-59670000D03*
X212097000Y-59670000D03*
D14*
X216097000Y-59070000D03*
D12*
X217597000Y-52924000D03*
D13*
X215097000Y-52324000D03*
X215097000Y-52324000D03*
D12*
X217597000Y-51724000D03*
D14*
X216097000Y-55464000D03*
D13*
X212097000Y-54864000D03*
X212097000Y-54864000D03*
D14*
X216097000Y-54264000D03*
D15*
X196743351Y-50257000D03*
X196743351Y-50757000D03*
X196743351Y-51257000D03*
X196743351Y-51757000D03*
X196743351Y-52257000D03*
X196743351Y-52757000D03*
X196743351Y-53257000D03*
X196743351Y-53757000D03*
X196743351Y-54257000D03*
X196743351Y-54757000D03*
X196743351Y-55257000D03*
X196743351Y-55757000D03*
X196743351Y-56257000D03*
X196743351Y-56757000D03*
X196743351Y-57257000D03*
X196743351Y-57757000D03*
X196743351Y-58257000D03*
X196743351Y-58757000D03*
X196743351Y-59257000D03*
X196743351Y-59757000D03*
X196743351Y-60257000D03*
X196743351Y-60757000D03*
X196743351Y-61257000D03*
X196743351Y-61757000D03*
D16*
X193493351Y-48357000D03*
X193493351Y-63657000D03*
D17*
X43180000Y-49022000D03*
X43180000Y-50292000D03*
X43180000Y-51562000D03*
X43180000Y-52832000D03*
X43180000Y-54102000D03*
X43180000Y-55372000D03*
X43180000Y-56642000D03*
X43180000Y-57912000D03*
X43180000Y-59182000D03*
X43180000Y-60452000D03*
X43180000Y-61722000D03*
X43180000Y-62992000D03*
D18*
X67970400Y-57282000D03*
D19*
X67970400Y-54742000D03*
X65430400Y-57282000D03*
X65430400Y-54742000D03*
X62890400Y-57282000D03*
X62890400Y-54742000D03*
D18*
X91490800Y-56007000D03*
D19*
X88950800Y-56007000D03*
X86410800Y-56007000D03*
X83870800Y-56007000D03*
X81330800Y-56007000D03*
X78790800Y-56007000D03*
M02*
