G04 #@! TF.GenerationSoftware,KiCad,Pcbnew,7.0.1-0*
G04 #@! TF.CreationDate,2023-04-13T17:41:14+02:00*
G04 #@! TF.ProjectId,Remote,52656d6f-7465-42e6-9b69-6361645f7063,rev?*
G04 #@! TF.SameCoordinates,Original*
G04 #@! TF.FileFunction,Copper,L2,Bot*
G04 #@! TF.FilePolarity,Positive*
%FSLAX46Y46*%
G04 Gerber Fmt 4.6, Leading zero omitted, Abs format (unit mm)*
G04 Created by KiCad (PCBNEW 7.0.1-0) date 2023-04-13 17:41:14*
%MOMM*%
%LPD*%
G01*
G04 APERTURE LIST*
G04 Aperture macros list*
%AMRoundRect*
0 Rectangle with rounded corners*
0 $1 Rounding radius*
0 $2 $3 $4 $5 $6 $7 $8 $9 X,Y pos of 4 corners*
0 Add a 4 corners polygon primitive as box body*
4,1,4,$2,$3,$4,$5,$6,$7,$8,$9,$2,$3,0*
0 Add four circle primitives for the rounded corners*
1,1,$1+$1,$2,$3*
1,1,$1+$1,$4,$5*
1,1,$1+$1,$6,$7*
1,1,$1+$1,$8,$9*
0 Add four rect primitives between the rounded corners*
20,1,$1+$1,$2,$3,$4,$5,0*
20,1,$1+$1,$4,$5,$6,$7,0*
20,1,$1+$1,$6,$7,$8,$9,0*
20,1,$1+$1,$8,$9,$2,$3,0*%
G04 Aperture macros list end*
G04 #@! TA.AperFunction,SMDPad,CuDef*
%ADD10R,5.000000X0.600000*%
G04 #@! TD*
G04 #@! TA.AperFunction,ComponentPad*
%ADD11C,1.800000*%
G04 #@! TD*
G04 #@! TA.AperFunction,SMDPad,CuDef*
%ADD12R,8.000000X0.600000*%
G04 #@! TD*
G04 #@! TA.AperFunction,SMDPad,CuDef*
%ADD13RoundRect,0.250000X0.450000X-0.262500X0.450000X0.262500X-0.450000X0.262500X-0.450000X-0.262500X0*%
G04 #@! TD*
G04 #@! TA.AperFunction,SMDPad,CuDef*
%ADD14RoundRect,0.250000X-0.450000X0.262500X-0.450000X-0.262500X0.450000X-0.262500X0.450000X0.262500X0*%
G04 #@! TD*
G04 #@! TA.AperFunction,SMDPad,CuDef*
%ADD15RoundRect,0.250000X0.475000X-0.250000X0.475000X0.250000X-0.475000X0.250000X-0.475000X-0.250000X0*%
G04 #@! TD*
G04 #@! TA.AperFunction,SMDPad,CuDef*
%ADD16RoundRect,0.250000X-0.475000X0.250000X-0.475000X-0.250000X0.475000X-0.250000X0.475000X0.250000X0*%
G04 #@! TD*
G04 #@! TA.AperFunction,SMDPad,CuDef*
%ADD17RoundRect,0.225000X-0.375000X0.225000X-0.375000X-0.225000X0.375000X-0.225000X0.375000X0.225000X0*%
G04 #@! TD*
G04 #@! TA.AperFunction,SMDPad,CuDef*
%ADD18RoundRect,0.225000X0.375000X-0.225000X0.375000X0.225000X-0.375000X0.225000X-0.375000X-0.225000X0*%
G04 #@! TD*
G04 #@! TA.AperFunction,SMDPad,CuDef*
%ADD19RoundRect,0.150000X0.150000X-0.512500X0.150000X0.512500X-0.150000X0.512500X-0.150000X-0.512500X0*%
G04 #@! TD*
G04 #@! TA.AperFunction,SMDPad,CuDef*
%ADD20RoundRect,0.150000X-0.150000X0.875000X-0.150000X-0.875000X0.150000X-0.875000X0.150000X0.875000X0*%
G04 #@! TD*
G04 #@! TA.AperFunction,SMDPad,CuDef*
%ADD21RoundRect,0.250000X-1.075000X0.375000X-1.075000X-0.375000X1.075000X-0.375000X1.075000X0.375000X0*%
G04 #@! TD*
G04 #@! TA.AperFunction,SMDPad,CuDef*
%ADD22R,0.550000X1.600000*%
G04 #@! TD*
G04 #@! TA.AperFunction,SMDPad,CuDef*
%ADD23R,1.600000X0.550000*%
G04 #@! TD*
G04 #@! TA.AperFunction,SMDPad,CuDef*
%ADD24R,4.064000X4.064000*%
G04 #@! TD*
G04 #@! TA.AperFunction,SMDPad,CuDef*
%ADD25R,0.450000X0.700000*%
G04 #@! TD*
G04 #@! TA.AperFunction,ComponentPad*
%ADD26R,1.700000X1.700000*%
G04 #@! TD*
G04 #@! TA.AperFunction,ComponentPad*
%ADD27O,1.700000X1.700000*%
G04 #@! TD*
G04 #@! TA.AperFunction,SMDPad,CuDef*
%ADD28R,1.900000X0.400000*%
G04 #@! TD*
G04 #@! TA.AperFunction,SMDPad,CuDef*
%ADD29RoundRect,0.150000X0.150000X-0.587500X0.150000X0.587500X-0.150000X0.587500X-0.150000X-0.587500X0*%
G04 #@! TD*
G04 #@! TA.AperFunction,ViaPad*
%ADD30C,0.600000*%
G04 #@! TD*
G04 #@! TA.AperFunction,Conductor*
%ADD31C,0.200000*%
G04 #@! TD*
G04 APERTURE END LIST*
D10*
X217597000Y-57730000D03*
D11*
X215097000Y-57130000D03*
X215097000Y-57130000D03*
D10*
X217597000Y-56530000D03*
D12*
X216097000Y-60270000D03*
D11*
X212097000Y-59670000D03*
X212097000Y-59670000D03*
D12*
X216097000Y-59070000D03*
D10*
X217597000Y-52924000D03*
D11*
X215097000Y-52324000D03*
X215097000Y-52324000D03*
D10*
X217597000Y-51724000D03*
D12*
X216097000Y-55464000D03*
D11*
X212097000Y-54864000D03*
X212097000Y-54864000D03*
D12*
X216097000Y-54264000D03*
D13*
X161544000Y-68072000D03*
X161544000Y-66247000D03*
D14*
X169164000Y-66247000D03*
X169164000Y-68072000D03*
D15*
X127000000Y-45588000D03*
X127000000Y-43688000D03*
X120396000Y-45588000D03*
X120396000Y-43688000D03*
X147066000Y-57338000D03*
X147066000Y-55438000D03*
D16*
X133604000Y-43678400D03*
X133604000Y-45578400D03*
D15*
X147828000Y-45568800D03*
X147828000Y-43668800D03*
D16*
X169164000Y-43601600D03*
X169164000Y-45501600D03*
X167005000Y-43611200D03*
X167005000Y-45511200D03*
X162687000Y-43649600D03*
X162687000Y-45549600D03*
X160528000Y-43659200D03*
X160528000Y-45559200D03*
X169164000Y-47835200D03*
X169164000Y-49735200D03*
X167005000Y-47823000D03*
X167005000Y-49723000D03*
X164846000Y-47847400D03*
X164846000Y-49747400D03*
D17*
X145288000Y-43626000D03*
X145288000Y-46926000D03*
D18*
X142748000Y-46926000D03*
X142748000Y-43626000D03*
D14*
X149352000Y-55475500D03*
X149352000Y-57300500D03*
D13*
X119634000Y-56515000D03*
X119634000Y-54690000D03*
X121666000Y-56515000D03*
X121666000Y-54690000D03*
X123698000Y-56515000D03*
X123698000Y-54690000D03*
X125730000Y-56515000D03*
X125730000Y-54690000D03*
D16*
X162687000Y-47859600D03*
X162687000Y-49759600D03*
X160528000Y-47871800D03*
X160528000Y-49771800D03*
X158369000Y-47884000D03*
X158369000Y-49784000D03*
X141859000Y-63124000D03*
X141859000Y-65024000D03*
D19*
X124648000Y-46029500D03*
X123698000Y-46029500D03*
X122748000Y-46029500D03*
X122748000Y-43754500D03*
X124648000Y-43754500D03*
D20*
X119380000Y-59280000D03*
X120650000Y-59280000D03*
X121920000Y-59280000D03*
X123190000Y-59280000D03*
X124460000Y-59280000D03*
X125730000Y-59280000D03*
X127000000Y-59280000D03*
X128270000Y-59280000D03*
X129540000Y-59280000D03*
X130810000Y-59280000D03*
X132080000Y-59280000D03*
X133350000Y-59280000D03*
X134620000Y-59280000D03*
X135890000Y-59280000D03*
X135890000Y-68580000D03*
X134620000Y-68580000D03*
X133350000Y-68580000D03*
X132080000Y-68580000D03*
X130810000Y-68580000D03*
X129540000Y-68580000D03*
X128270000Y-68580000D03*
X127000000Y-68580000D03*
X125730000Y-68580000D03*
X124460000Y-68580000D03*
X123190000Y-68580000D03*
X121920000Y-68580000D03*
X120650000Y-68580000D03*
X119380000Y-68580000D03*
D21*
X136652000Y-43688000D03*
X136652000Y-46488000D03*
D22*
X151644000Y-59680000D03*
X150844000Y-59680000D03*
X150044000Y-59680000D03*
X149244000Y-59680000D03*
X148444000Y-59680000D03*
X147644000Y-59680000D03*
X146844000Y-59680000D03*
X146044000Y-59680000D03*
D23*
X144594000Y-61130000D03*
X144594000Y-61930000D03*
X144594000Y-62730000D03*
X144594000Y-63530000D03*
X144594000Y-64330000D03*
X144594000Y-65130000D03*
X144594000Y-65930000D03*
X144594000Y-66730000D03*
D22*
X146044000Y-68180000D03*
X146844000Y-68180000D03*
X147644000Y-68180000D03*
X148444000Y-68180000D03*
X149244000Y-68180000D03*
X150044000Y-68180000D03*
X150844000Y-68180000D03*
X151644000Y-68180000D03*
D23*
X153094000Y-66730000D03*
X153094000Y-65930000D03*
X153094000Y-65130000D03*
X153094000Y-64330000D03*
X153094000Y-63530000D03*
X153094000Y-62730000D03*
X153094000Y-61930000D03*
X153094000Y-61130000D03*
D17*
X140208000Y-43626000D03*
X140208000Y-46926000D03*
D24*
X43688000Y-69342000D03*
X43688000Y-42672000D03*
D25*
X150226000Y-47401000D03*
X151526000Y-47401000D03*
X150876000Y-49401000D03*
D13*
X127762000Y-56515000D03*
X127762000Y-54690000D03*
X129794000Y-56515000D03*
X129794000Y-54690000D03*
X149860000Y-45492900D03*
X149860000Y-43667900D03*
X164846000Y-45483300D03*
X164846000Y-43658300D03*
D14*
X151892000Y-43677500D03*
X151892000Y-45502500D03*
D26*
X67970400Y-57282000D03*
D27*
X67970400Y-54742000D03*
X65430400Y-57282000D03*
X65430400Y-54742000D03*
X62890400Y-57282000D03*
X62890400Y-54742000D03*
D26*
X91490800Y-56007000D03*
D27*
X88950800Y-56007000D03*
X86410800Y-56007000D03*
X83870800Y-56007000D03*
X81330800Y-56007000D03*
X78790800Y-56007000D03*
D28*
X156464000Y-66478000D03*
X156464000Y-65278000D03*
X156464000Y-64078000D03*
D29*
X163510000Y-64111500D03*
X161610000Y-64111500D03*
X162560000Y-62236500D03*
D13*
X163703000Y-68072000D03*
X163703000Y-66247000D03*
D29*
X169074500Y-64111500D03*
X167174500Y-64111500D03*
X168124500Y-62236500D03*
D13*
X167005000Y-68072000D03*
X167005000Y-66247000D03*
D30*
X154940000Y-65278000D03*
X150876000Y-65913000D03*
X140208000Y-42418000D03*
X142748000Y-42382500D03*
X161452500Y-50927000D03*
X164211000Y-50927000D03*
X195314951Y-57404000D03*
X193366129Y-61637000D03*
X193409951Y-60833000D03*
X194552951Y-60579000D03*
X194552951Y-59690000D03*
X194546240Y-58807711D03*
X194575646Y-57989294D03*
X130810000Y-70231000D03*
X133350000Y-57023000D03*
X135890000Y-57023000D03*
X134620000Y-57023000D03*
X146849503Y-66675000D03*
X146050000Y-66675000D03*
X148336000Y-62230000D03*
X149225000Y-61595000D03*
X150114000Y-61087500D03*
X146050000Y-61976000D03*
X149632911Y-46582089D03*
X152019000Y-50038000D03*
X118110000Y-54610000D03*
X130810000Y-60960000D03*
X118872000Y-45593000D03*
X153416000Y-43688000D03*
X43688000Y-45720000D03*
X132080000Y-45593000D03*
X132080000Y-66929000D03*
X170688000Y-43688000D03*
X170688000Y-47879000D03*
X151765000Y-64262000D03*
X145923000Y-63500000D03*
X160655000Y-64135000D03*
X46863000Y-42672000D03*
X166243000Y-64135000D03*
X198235951Y-57277000D03*
X125730000Y-66929000D03*
X121920000Y-66329500D03*
X127000000Y-66929000D03*
X123190000Y-65278000D03*
X119380000Y-64729500D03*
X128270000Y-66929000D03*
X124450608Y-63130000D03*
X133350000Y-60960000D03*
X136779000Y-60960000D03*
X132080000Y-60960000D03*
X143002000Y-60960000D03*
X120650000Y-64329500D03*
X121920000Y-63929500D03*
X123190000Y-62730000D03*
X124460321Y-62330557D03*
X125730000Y-62357000D03*
X178181000Y-52869503D03*
X178181000Y-53721000D03*
X178181000Y-52070000D03*
D31*
X193366129Y-61637000D02*
X192483564Y-60754436D01*
X192483564Y-60754436D02*
X192435129Y-60706000D01*
X158369000Y-49784000D02*
X161836000Y-53251000D01*
X161836000Y-53251000D02*
X165484570Y-53251000D01*
X165484570Y-53251000D02*
X172939570Y-60706000D01*
X172939570Y-60706000D02*
X192435128Y-60706000D01*
X192435128Y-60706000D02*
X192483564Y-60754436D01*
X193409951Y-60833000D02*
X192882951Y-60306000D01*
X165650256Y-52851000D02*
X162706000Y-52851000D01*
X192882951Y-60306000D02*
X173105256Y-60306000D01*
X162706000Y-52851000D02*
X160782000Y-50927000D01*
X173105256Y-60306000D02*
X165650256Y-52851000D01*
X162687000Y-49759600D02*
X162687000Y-51562000D01*
X165815942Y-52451000D02*
X173270942Y-59906000D01*
X162687000Y-51562000D02*
X163576000Y-52451000D01*
X193879951Y-59906000D02*
X194552951Y-60579000D01*
X163576000Y-52451000D02*
X165815942Y-52451000D01*
X173270942Y-59906000D02*
X193879951Y-59906000D01*
X164846000Y-50915372D02*
X173436628Y-59506000D01*
X173436628Y-59506000D02*
X194368951Y-59506000D01*
X194368951Y-59506000D02*
X194552951Y-59690000D01*
X167005000Y-49723000D02*
X167005000Y-52508686D01*
X167005000Y-52508686D02*
X173602314Y-59106000D01*
X173602314Y-59106000D02*
X194247951Y-59106000D01*
X194247951Y-59106000D02*
X194546240Y-58807711D01*
X194575646Y-57989294D02*
X194516128Y-57989294D01*
X193799422Y-58706000D02*
X173768000Y-58706000D01*
X194516128Y-57989294D02*
X193799422Y-58706000D01*
X173768000Y-58706000D02*
X169164000Y-54102000D01*
X169164000Y-54102000D02*
X169164000Y-49735200D01*
X160528000Y-45559200D02*
X159351200Y-46736000D01*
X159351200Y-46736000D02*
X157607000Y-46736000D01*
X157099000Y-48251908D02*
X157615092Y-48768000D01*
X170688000Y-49530000D02*
X170688000Y-55060314D01*
X157099000Y-47244000D02*
X157099000Y-48251908D01*
X194327117Y-57389294D02*
X195300245Y-57389294D01*
X157615092Y-48768000D02*
X169926000Y-48768000D01*
X169926000Y-48768000D02*
X170688000Y-49530000D01*
X170688000Y-55060314D02*
X173933686Y-58306000D01*
X195300245Y-57389294D02*
X195314951Y-57404000D01*
X173933686Y-58306000D02*
X193410411Y-58306000D01*
X193410411Y-58306000D02*
X194327117Y-57389294D01*
X157607000Y-46736000D02*
X157099000Y-47244000D01*
X120771500Y-48006000D02*
X122748000Y-46029500D01*
X43688000Y-69342000D02*
X43688000Y-68072000D01*
X43688000Y-68072000D02*
X63754000Y-48006000D01*
X63754000Y-48006000D02*
X120771500Y-48006000D01*
X43815000Y-42799000D02*
X43688000Y-42926000D01*
X43688000Y-42926000D02*
X43688000Y-45720000D01*
X43815000Y-42799000D02*
X43942000Y-42672000D01*
X43942000Y-42672000D02*
X46863000Y-42672000D01*
X163703000Y-68072000D02*
X164719000Y-69088000D01*
X168021000Y-67691000D02*
X168529000Y-67183000D01*
X167479317Y-69088000D02*
X168021000Y-68546317D01*
X171958000Y-67183000D02*
X175641000Y-63500000D01*
X168021000Y-68546317D02*
X168021000Y-67691000D01*
X164719000Y-69088000D02*
X167479317Y-69088000D01*
X200151998Y-63500001D02*
X206445728Y-57206272D01*
X168529000Y-67183000D02*
X171958000Y-67183000D01*
X175641000Y-63500000D02*
X200151998Y-63500001D01*
X206445728Y-57206272D02*
X214487200Y-57206272D01*
X169164000Y-66247000D02*
X172328314Y-66247000D01*
X172328314Y-66247000D02*
X175475315Y-63100000D01*
X175475315Y-63100000D02*
X199986312Y-63100001D01*
X199986312Y-63100001D02*
X208222314Y-54864000D01*
X208222314Y-54864000D02*
X211540800Y-54864000D01*
X168124500Y-62236500D02*
X168588001Y-62700001D01*
X168588001Y-62700001D02*
X199820627Y-62700001D01*
X199820627Y-62700001D02*
X210196628Y-52324000D01*
X210196628Y-52324000D02*
X214487200Y-52324000D01*
X161714400Y-44577000D02*
X159258000Y-44577000D01*
X162687000Y-45549600D02*
X161714400Y-44577000D01*
X149352000Y-55118000D02*
X148463000Y-54229000D01*
X149352000Y-55475500D02*
X149352000Y-55118000D01*
X86410800Y-56007000D02*
X86410800Y-55194200D01*
X91440000Y-50165000D02*
X146939000Y-50165000D01*
X146939000Y-50165000D02*
X151295000Y-54521002D01*
X86410800Y-55194200D02*
X91440000Y-50165000D01*
X151295000Y-54521002D02*
X151295000Y-58354000D01*
X151295000Y-58354000D02*
X150844000Y-58805000D01*
X150844000Y-58805000D02*
X150844000Y-59680000D01*
X88950800Y-53219886D02*
X91605687Y-50565000D01*
X91605687Y-50565000D02*
X146773314Y-50565000D01*
X150895000Y-54686687D02*
X150895000Y-57954000D01*
X88950800Y-56007000D02*
X88950800Y-53219886D01*
X146773314Y-50565000D02*
X150895000Y-54686687D01*
X150895000Y-57954000D02*
X150044000Y-58805000D01*
X150044000Y-58805000D02*
X150044000Y-59680000D01*
X91490800Y-56007000D02*
X91490800Y-51245572D01*
X91771372Y-50965000D02*
X146607628Y-50965000D01*
X150495000Y-54852372D02*
X150495000Y-55880000D01*
X146607628Y-50965000D02*
X150495000Y-54852372D01*
X91490800Y-51245572D02*
X91771372Y-50965000D01*
X150495000Y-55880000D02*
X149987000Y-56388000D01*
X149987000Y-56388000D02*
X148016000Y-56388000D01*
X148016000Y-56388000D02*
X147066000Y-55438000D01*
X153094000Y-63530000D02*
X154094000Y-63530000D01*
X154094000Y-63530000D02*
X154305000Y-63741000D01*
X154305000Y-64897000D02*
X154072000Y-65130000D01*
X154305000Y-63741000D02*
X154305000Y-64897000D01*
X154072000Y-65130000D02*
X153094000Y-65130000D01*
X156464000Y-65278000D02*
X154940000Y-65278000D01*
X130810000Y-70231000D02*
X130810000Y-68580000D01*
X140208000Y-42418000D02*
X140208000Y-43626000D01*
X142748000Y-42382500D02*
X142748000Y-43626000D01*
X164211000Y-50927000D02*
X164222628Y-50915372D01*
X164222628Y-50915372D02*
X164846000Y-50915372D01*
X161452500Y-50927000D02*
X160782000Y-50927000D01*
X160528000Y-50673000D02*
X160782000Y-50927000D01*
X160528000Y-49771800D02*
X160528000Y-50673000D01*
X178181000Y-53721000D02*
X171161600Y-46701600D01*
X171161600Y-46701600D02*
X166064300Y-46701600D01*
X166064300Y-46701600D02*
X164846000Y-45483300D01*
X164846000Y-50915372D02*
X164846000Y-49747400D01*
X153094000Y-61930000D02*
X154351000Y-61930000D01*
X154351000Y-61930000D02*
X154751000Y-61530000D01*
X154751000Y-61530000D02*
X161853500Y-61530000D01*
X161853500Y-61530000D02*
X162560000Y-62236500D01*
X163619000Y-61130000D02*
X164973000Y-62484000D01*
X153094000Y-61130000D02*
X163619000Y-61130000D01*
X164973000Y-62484000D02*
X164973000Y-66040000D01*
X164973000Y-66040000D02*
X167005000Y-68072000D01*
X151644000Y-60680000D02*
X150876000Y-61448000D01*
X150876000Y-61448000D02*
X150876000Y-65913000D01*
X151644000Y-59680000D02*
X151644000Y-60680000D01*
X133350000Y-57023000D02*
X133350000Y-59280000D01*
X135890000Y-57023000D02*
X135890000Y-59280000D01*
X134620000Y-59280000D02*
X134620000Y-57023000D01*
X144424000Y-60960000D02*
X144594000Y-61130000D01*
X143002000Y-60960000D02*
X144424000Y-60960000D01*
X143273000Y-65930000D02*
X143256000Y-65913000D01*
X144594000Y-65930000D02*
X143273000Y-65930000D01*
X134620000Y-59280000D02*
X134620000Y-62103000D01*
X146844000Y-68929000D02*
X146844000Y-68180000D01*
X134620000Y-62103000D02*
X142113000Y-69596000D01*
X142113000Y-69596000D02*
X146177000Y-69596000D01*
X146177000Y-69596000D02*
X146844000Y-68929000D01*
X136779000Y-60960000D02*
X136779000Y-63130628D01*
X136779000Y-63130628D02*
X142444372Y-68796000D01*
X144594000Y-68004000D02*
X144594000Y-66730000D01*
X142444372Y-68796000D02*
X143802000Y-68796000D01*
X143802000Y-68796000D02*
X144594000Y-68004000D01*
X135890000Y-59280000D02*
X135890000Y-62807314D01*
X135890000Y-62807314D02*
X142278686Y-69196000D01*
X142278686Y-69196000D02*
X144672000Y-69196000D01*
X144672000Y-69196000D02*
X145688000Y-68180000D01*
X145688000Y-68180000D02*
X146044000Y-68180000D01*
X153094000Y-63530000D02*
X154402000Y-63530000D01*
X153094000Y-62730000D02*
X152219000Y-62730000D01*
X151765000Y-63184000D02*
X151765000Y-64262000D01*
X152219000Y-62730000D02*
X151765000Y-63184000D01*
X150114000Y-61087500D02*
X150114000Y-68110000D01*
X150114000Y-68110000D02*
X150044000Y-68180000D01*
X146849503Y-68174497D02*
X146844000Y-68180000D01*
X146849503Y-66675000D02*
X146849503Y-68174497D01*
X144649000Y-66675000D02*
X144594000Y-66730000D01*
X146050000Y-66675000D02*
X144649000Y-66675000D01*
X149225000Y-61595000D02*
X149244000Y-61614000D01*
X148336000Y-62230000D02*
X148444000Y-62338000D01*
X149244000Y-61614000D02*
X149244000Y-68180000D01*
X148444000Y-62338000D02*
X148444000Y-68180000D01*
X144594000Y-61930000D02*
X146004000Y-61930000D01*
X146004000Y-61930000D02*
X146050000Y-61976000D01*
X144548000Y-61976000D02*
X144594000Y-61930000D01*
X148387994Y-68236006D02*
X148444000Y-68180000D01*
X149187497Y-68236503D02*
X149244000Y-68180000D01*
X149860000Y-45492900D02*
X150226000Y-45858900D01*
X150226000Y-45858900D02*
X150226000Y-47401000D01*
X149860000Y-46355000D02*
X149632911Y-46582089D01*
X149860000Y-45492900D02*
X149860000Y-46355000D01*
X151892000Y-45502500D02*
X151526000Y-45868500D01*
X152019000Y-50038000D02*
X151526000Y-49545000D01*
X151526000Y-45868500D02*
X151526000Y-47401000D01*
X151526000Y-49545000D02*
X151526000Y-47401000D01*
X125730000Y-54690000D02*
X127762000Y-54690000D01*
X166980600Y-47847400D02*
X167005000Y-47823000D01*
X133589400Y-45593000D02*
X133604000Y-45578400D01*
X149869600Y-43677500D02*
X149860000Y-43667900D01*
X123698000Y-45680604D02*
X123698000Y-46029500D01*
X160528000Y-43659200D02*
X162677400Y-43659200D01*
X167005000Y-43611200D02*
X169154400Y-43611200D01*
X151902500Y-43688000D02*
X151892000Y-43677500D01*
X119554000Y-54610000D02*
X119634000Y-54690000D01*
X142265000Y-63530000D02*
X144594000Y-63530000D01*
X160678500Y-64111500D02*
X160655000Y-64135000D01*
X144594000Y-63530000D02*
X145893000Y-63530000D01*
X167005000Y-47823000D02*
X167017200Y-47835200D01*
X160528000Y-47871800D02*
X162674800Y-47871800D01*
X170688000Y-47879000D02*
X169207800Y-47879000D01*
X118110000Y-54610000D02*
X119554000Y-54610000D01*
X119634000Y-54690000D02*
X121666000Y-54690000D01*
X167174500Y-64111500D02*
X166266500Y-64111500D01*
X167017200Y-47835200D02*
X169164000Y-47835200D01*
X164846000Y-47847400D02*
X166980600Y-47847400D01*
X141859000Y-63124000D02*
X142265000Y-63530000D01*
X169154400Y-43611200D02*
X169164000Y-43601600D01*
X166957900Y-43658300D02*
X167005000Y-43611200D01*
X123084396Y-45067000D02*
X123698000Y-45680604D01*
X162687000Y-47859600D02*
X164833800Y-47859600D01*
X120917000Y-45067000D02*
X123084396Y-45067000D01*
X132080000Y-68580000D02*
X132080000Y-66929000D01*
X151833000Y-64330000D02*
X151765000Y-64262000D01*
X130810000Y-59280000D02*
X130810000Y-60960000D01*
X162674800Y-47871800D02*
X162687000Y-47859600D01*
X127000000Y-45588000D02*
X126479000Y-45067000D01*
X162677400Y-43659200D02*
X162687000Y-43649600D01*
X156464000Y-65278000D02*
X155714000Y-65278000D01*
X145288000Y-43626000D02*
X146045200Y-42868800D01*
X120391000Y-45593000D02*
X120396000Y-45588000D01*
X162687000Y-43649600D02*
X164837300Y-43649600D01*
X164833800Y-47859600D02*
X164846000Y-47847400D01*
X127762000Y-54690000D02*
X129794000Y-54690000D01*
X151892000Y-43677500D02*
X149869600Y-43677500D01*
X153416000Y-43688000D02*
X151902500Y-43688000D01*
X158369000Y-47884000D02*
X160515800Y-47884000D01*
X146045200Y-42868800D02*
X149060900Y-42868800D01*
X161610000Y-64111500D02*
X160678500Y-64111500D01*
X124224000Y-45067000D02*
X123698000Y-45593000D01*
X121666000Y-54690000D02*
X123698000Y-54690000D01*
X145893000Y-63530000D02*
X145923000Y-63500000D01*
X169207800Y-47879000D02*
X169164000Y-47835200D01*
X153094000Y-64330000D02*
X151833000Y-64330000D01*
X164846000Y-43658300D02*
X166957900Y-43658300D01*
X132080000Y-45593000D02*
X133589400Y-45593000D01*
X118872000Y-45593000D02*
X120391000Y-45593000D01*
X160515800Y-47884000D02*
X160528000Y-47871800D01*
X164837300Y-43649600D02*
X164846000Y-43658300D01*
X169250400Y-43688000D02*
X169164000Y-43601600D01*
X120396000Y-45588000D02*
X120917000Y-45067000D01*
X149060900Y-42868800D02*
X149860000Y-43667900D01*
X123698000Y-54690000D02*
X125730000Y-54690000D01*
X123698000Y-45593000D02*
X123698000Y-46029500D01*
X126479000Y-45067000D02*
X124224000Y-45067000D01*
X166266500Y-64111500D02*
X166243000Y-64135000D01*
X170688000Y-43688000D02*
X169250400Y-43688000D01*
X122748000Y-46029500D02*
X122748000Y-46421000D01*
X122748000Y-46421000D02*
X123319000Y-46992000D01*
X123319000Y-46992000D02*
X124077000Y-46992000D01*
X124648000Y-46421000D02*
X124648000Y-46029500D01*
X124077000Y-46992000D02*
X124648000Y-46421000D01*
X149314500Y-57338000D02*
X149352000Y-57300500D01*
X97886225Y-59055000D02*
X64663400Y-59055000D01*
X147066000Y-57338000D02*
X149314500Y-57338000D01*
X149244000Y-57408500D02*
X149244000Y-59680000D01*
X142433000Y-52705000D02*
X104236225Y-52705000D01*
X147066000Y-57338000D02*
X142433000Y-52705000D01*
X149352000Y-57300500D02*
X149244000Y-57408500D01*
X64663400Y-59055000D02*
X62890400Y-57282000D01*
X104236225Y-52705000D02*
X97886225Y-59055000D01*
X125730000Y-66929000D02*
X125730000Y-68580000D01*
X121920000Y-66329500D02*
X121920000Y-68580000D01*
X127000000Y-66929000D02*
X127000000Y-68580000D01*
X123190000Y-65278000D02*
X123190000Y-68580000D01*
X119380000Y-59280000D02*
X119380000Y-56769000D01*
X119380000Y-56769000D02*
X119634000Y-56515000D01*
X119380000Y-64729500D02*
X119380000Y-59280000D01*
X128270000Y-68580000D02*
X128270000Y-66929000D01*
X124450608Y-63130000D02*
X124450608Y-68570608D01*
X124450608Y-68570608D02*
X124460000Y-68580000D01*
X133350000Y-59280000D02*
X133350000Y-60960000D01*
X162560000Y-65231000D02*
X161544000Y-66247000D01*
X162560000Y-62236500D02*
X162560000Y-65231000D01*
X149701000Y-48226000D02*
X149701000Y-47498000D01*
X140208000Y-46926000D02*
X137090000Y-46926000D01*
X147828000Y-45568800D02*
X147828000Y-45728462D01*
X137090000Y-46926000D02*
X136652000Y-46488000D01*
X147828000Y-45728462D02*
X145880462Y-47676000D01*
X147828000Y-45625000D02*
X147828000Y-45568800D01*
X150876000Y-49401000D02*
X149701000Y-48226000D01*
X145880462Y-47676000D02*
X140958000Y-47676000D01*
X149701000Y-47498000D02*
X147828000Y-45625000D01*
X140958000Y-47676000D02*
X140208000Y-46926000D01*
X132080000Y-59280000D02*
X132080000Y-60960000D01*
X120650000Y-58166000D02*
X121666000Y-57150000D01*
X120650000Y-64329500D02*
X120650000Y-59280000D01*
X120650000Y-59280000D02*
X120650000Y-58166000D01*
X121666000Y-57150000D02*
X121666000Y-56515000D01*
X123571000Y-56515000D02*
X123698000Y-56515000D01*
X121920000Y-58166000D02*
X123571000Y-56515000D01*
X121920000Y-59280000D02*
X121920000Y-58166000D01*
X121920000Y-63929500D02*
X121920000Y-59280000D01*
X123190000Y-62730000D02*
X123190000Y-59280000D01*
X125349000Y-56515000D02*
X125730000Y-56515000D01*
X123190000Y-59280000D02*
X123190000Y-58674000D01*
X123190000Y-58674000D02*
X125349000Y-56515000D01*
X124460321Y-62330557D02*
X124460000Y-62330236D01*
X126765000Y-57512000D02*
X127762000Y-56515000D01*
X124460000Y-59280000D02*
X124460000Y-58674000D01*
X124460000Y-62330236D02*
X124460000Y-59280000D01*
X125622000Y-57512000D02*
X126765000Y-57512000D01*
X124460000Y-58674000D02*
X125622000Y-57512000D01*
X125730000Y-59280000D02*
X125730000Y-58420000D01*
X125730000Y-58420000D02*
X126238000Y-57912000D01*
X126238000Y-57912000D02*
X128397000Y-57912000D01*
X128397000Y-57912000D02*
X129794000Y-56515000D01*
X125730000Y-59280000D02*
X125730000Y-62357000D01*
X120396000Y-43688000D02*
X122681500Y-43688000D01*
X122681500Y-43688000D02*
X122748000Y-43754500D01*
X142553000Y-64330000D02*
X144594000Y-64330000D01*
X141859000Y-65024000D02*
X142553000Y-64330000D01*
X145288000Y-46926000D02*
X142748000Y-46926000D01*
X145288000Y-46926000D02*
X145288000Y-46605983D01*
X147828000Y-44065983D02*
X147828000Y-43668800D01*
X145288000Y-46605983D02*
X147828000Y-44065983D01*
X178131974Y-52869503D02*
X171564071Y-46301600D01*
X167795400Y-46301600D02*
X167005000Y-45511200D01*
X178181000Y-52869503D02*
X178131974Y-52869503D01*
X171564071Y-46301600D02*
X167795400Y-46301600D01*
X157214000Y-64078000D02*
X157714000Y-64578000D01*
X157562000Y-65930000D02*
X153094000Y-65930000D01*
X157714000Y-64578000D02*
X157714000Y-65778000D01*
X157714000Y-65778000D02*
X157562000Y-65930000D01*
X156464000Y-64078000D02*
X157214000Y-64078000D01*
X156464000Y-66478000D02*
X156212000Y-66730000D01*
X156212000Y-66730000D02*
X153094000Y-66730000D01*
X171612600Y-45501600D02*
X169164000Y-45501600D01*
X178181000Y-52070000D02*
X171612600Y-45501600D01*
X163510000Y-66054000D02*
X163703000Y-66247000D01*
X163510000Y-64111500D02*
X163510000Y-66054000D01*
X167005000Y-66181000D02*
X169074500Y-64111500D01*
X167005000Y-66247000D02*
X167005000Y-66181000D01*
G04 #@! TA.AperFunction,Conductor*
G36*
X230436500Y-40517381D02*
G01*
X230482619Y-40563500D01*
X230499500Y-40626500D01*
X230499500Y-44467143D01*
X230487896Y-44519959D01*
X230455222Y-44563047D01*
X230407495Y-44588470D01*
X230328511Y-44610600D01*
X230077486Y-44719636D01*
X229843656Y-44861830D01*
X229631361Y-45034547D01*
X229444560Y-45234560D01*
X229286741Y-45458140D01*
X229160831Y-45701134D01*
X229069182Y-45959008D01*
X229013500Y-46226966D01*
X228998037Y-46453043D01*
X228994825Y-46500000D01*
X228995729Y-46513216D01*
X229013500Y-46773033D01*
X229069182Y-47040991D01*
X229160831Y-47298865D01*
X229286741Y-47541859D01*
X229444560Y-47765439D01*
X229444563Y-47765442D01*
X229631362Y-47965454D01*
X229787033Y-48092102D01*
X229843656Y-48138169D01*
X229965113Y-48212028D01*
X230077489Y-48280365D01*
X230328508Y-48389398D01*
X230328509Y-48389398D01*
X230328511Y-48389399D01*
X230407495Y-48411530D01*
X230455222Y-48436953D01*
X230487896Y-48480041D01*
X230499500Y-48532857D01*
X230499500Y-50873500D01*
X230482619Y-50936500D01*
X230436500Y-50982619D01*
X230373500Y-50999500D01*
X220420392Y-50999500D01*
X220380601Y-50993052D01*
X220344883Y-50974368D01*
X220343206Y-50973112D01*
X220343204Y-50973111D01*
X220206201Y-50922011D01*
X220206200Y-50922010D01*
X220206198Y-50922010D01*
X220145638Y-50915500D01*
X215213712Y-50915500D01*
X214980288Y-50915500D01*
X214750049Y-50953920D01*
X214750046Y-50953920D01*
X214750046Y-50953921D01*
X214529273Y-51029712D01*
X214323984Y-51140809D01*
X214139779Y-51284182D01*
X213981686Y-51455916D01*
X213849387Y-51658416D01*
X213803873Y-51700314D01*
X213743904Y-51715500D01*
X210244764Y-51715500D01*
X210228318Y-51714422D01*
X210221334Y-51713502D01*
X210196628Y-51710250D01*
X210196627Y-51710250D01*
X210164938Y-51714422D01*
X210164924Y-51714422D01*
X210037778Y-51731161D01*
X209889754Y-51792475D01*
X209852581Y-51811061D01*
X209825106Y-51842079D01*
X209794559Y-51865520D01*
X209794558Y-51865521D01*
X209762639Y-51890014D01*
X209743173Y-51915381D01*
X209732309Y-51927768D01*
X199605483Y-62054596D01*
X199564606Y-62081910D01*
X199516388Y-62091501D01*
X194241240Y-62091501D01*
X194183408Y-62077445D01*
X194138479Y-62038413D01*
X194116477Y-61983114D01*
X194122310Y-61923888D01*
X194159346Y-61818047D01*
X194179745Y-61637000D01*
X194163251Y-61490614D01*
X194172050Y-61428291D01*
X194209899Y-61377998D01*
X194267353Y-61352289D01*
X194330073Y-61357579D01*
X194371904Y-61372217D01*
X194552951Y-61392616D01*
X194733998Y-61372217D01*
X194905966Y-61312043D01*
X195060232Y-61215111D01*
X195189062Y-61086281D01*
X195285994Y-60932015D01*
X195346168Y-60760047D01*
X195366567Y-60579000D01*
X195346168Y-60397953D01*
X195330442Y-60353011D01*
X195285996Y-60225988D01*
X195270631Y-60201535D01*
X195251319Y-60134498D01*
X195270633Y-60067462D01*
X195285993Y-60043016D01*
X195285994Y-60043015D01*
X195346168Y-59871047D01*
X195366567Y-59690000D01*
X195346168Y-59508953D01*
X195285994Y-59336985D01*
X195269384Y-59310551D01*
X195250071Y-59243514D01*
X195269386Y-59176476D01*
X195279283Y-59160726D01*
X195339457Y-58988758D01*
X195359856Y-58807711D01*
X195339457Y-58626664D01*
X195284581Y-58469838D01*
X195278303Y-58414118D01*
X195296826Y-58361188D01*
X195300230Y-58355772D01*
X195308689Y-58342309D01*
X195327705Y-58287960D01*
X195368075Y-58231064D01*
X195432526Y-58204368D01*
X195495998Y-58197217D01*
X195667966Y-58137043D01*
X195822232Y-58040111D01*
X195951062Y-57911281D01*
X196047994Y-57757015D01*
X196108168Y-57585047D01*
X196128567Y-57404000D01*
X196108168Y-57222953D01*
X196047994Y-57050985D01*
X195994720Y-56966200D01*
X195951061Y-56896717D01*
X195822233Y-56767889D01*
X195667965Y-56670956D01*
X195496000Y-56610783D01*
X195375299Y-56597183D01*
X195314951Y-56590384D01*
X195314950Y-56590384D01*
X195133901Y-56610783D01*
X194961936Y-56670956D01*
X194817868Y-56761481D01*
X194750832Y-56780794D01*
X194375253Y-56780794D01*
X194358809Y-56779716D01*
X194327117Y-56775544D01*
X194295424Y-56779716D01*
X194295411Y-56779717D01*
X194187700Y-56793896D01*
X194187679Y-56793899D01*
X194187660Y-56793902D01*
X194173371Y-56795783D01*
X194168264Y-56796456D01*
X194020239Y-56857770D01*
X193928396Y-56928244D01*
X193928368Y-56928267D01*
X193893130Y-56955306D01*
X193873667Y-56980670D01*
X193862803Y-56993057D01*
X193195267Y-57660595D01*
X193154389Y-57687909D01*
X193106171Y-57697500D01*
X177060841Y-57697500D01*
X177002173Y-57683008D01*
X176957001Y-57642867D01*
X176935714Y-57586309D01*
X176943210Y-57526345D01*
X176977764Y-57476768D01*
X177070042Y-57395842D01*
X177129577Y-57327955D01*
X177264591Y-57174001D01*
X177428519Y-56928665D01*
X177559023Y-56664030D01*
X177563510Y-56650814D01*
X177631807Y-56449616D01*
X177653868Y-56384626D01*
X177711432Y-56095232D01*
X177730730Y-55800800D01*
X177711432Y-55506368D01*
X177653868Y-55216974D01*
X177637935Y-55170037D01*
X177559025Y-54937574D01*
X177552496Y-54924335D01*
X177428519Y-54672935D01*
X177264591Y-54427599D01*
X177214286Y-54370237D01*
X177070042Y-54205757D01*
X176848201Y-54011209D01*
X176602867Y-53847282D01*
X176338225Y-53716774D01*
X176058828Y-53621932D01*
X175769431Y-53564367D01*
X175475000Y-53545070D01*
X175180568Y-53564367D01*
X174891171Y-53621932D01*
X174611774Y-53716774D01*
X174347132Y-53847282D01*
X174101798Y-54011209D01*
X173879957Y-54205757D01*
X173685409Y-54427598D01*
X173521482Y-54672932D01*
X173390974Y-54937574D01*
X173296132Y-55216971D01*
X173238567Y-55506368D01*
X173219270Y-55800800D01*
X173238567Y-56095231D01*
X173296132Y-56384628D01*
X173339949Y-56513710D01*
X173343883Y-56580408D01*
X173313160Y-56639740D01*
X173256422Y-56675022D01*
X173189621Y-56676334D01*
X173131541Y-56643306D01*
X171333405Y-54845170D01*
X171306091Y-54804293D01*
X171296500Y-54756075D01*
X171296500Y-49578136D01*
X171297578Y-49561690D01*
X171298403Y-49555422D01*
X171301750Y-49530000D01*
X171297578Y-49498309D01*
X171297578Y-49498303D01*
X171280838Y-49371151D01*
X171276567Y-49360840D01*
X171276566Y-49360837D01*
X171219523Y-49223121D01*
X171141457Y-49121385D01*
X171141443Y-49121369D01*
X171121987Y-49096012D01*
X171096618Y-49076546D01*
X171084228Y-49065679D01*
X170878772Y-48860223D01*
X170846791Y-48806009D01*
X170845026Y-48743090D01*
X170873917Y-48687168D01*
X170926247Y-48652201D01*
X171041015Y-48612043D01*
X171195281Y-48515111D01*
X171324111Y-48386281D01*
X171421043Y-48232015D01*
X171461201Y-48117247D01*
X171496168Y-48064917D01*
X171552090Y-48036026D01*
X171615009Y-48037791D01*
X171669223Y-48069772D01*
X177342166Y-53742715D01*
X177366593Y-53777140D01*
X177378279Y-53817701D01*
X177387783Y-53902049D01*
X177447956Y-54074014D01*
X177544889Y-54228282D01*
X177673717Y-54357110D01*
X177788925Y-54429500D01*
X177827985Y-54454043D01*
X177999953Y-54514217D01*
X178181000Y-54534616D01*
X178362047Y-54514217D01*
X178534015Y-54454043D01*
X178688281Y-54357111D01*
X178817111Y-54228281D01*
X178914043Y-54074015D01*
X178974217Y-53902047D01*
X178994616Y-53721000D01*
X178974217Y-53539953D01*
X178914043Y-53367985D01*
X178910462Y-53362286D01*
X178891149Y-53295248D01*
X178910464Y-53228212D01*
X178914043Y-53222518D01*
X178974217Y-53050550D01*
X178994616Y-52869503D01*
X178974217Y-52688456D01*
X178914043Y-52516488D01*
X178914040Y-52516484D01*
X178912250Y-52511367D01*
X178905179Y-52469751D01*
X178912250Y-52428135D01*
X178914039Y-52423020D01*
X178914043Y-52423015D01*
X178974217Y-52251047D01*
X178994616Y-52070000D01*
X178974217Y-51888953D01*
X178966017Y-51865520D01*
X178914043Y-51716985D01*
X178817110Y-51562717D01*
X178688282Y-51433889D01*
X178534014Y-51336956D01*
X178362049Y-51276783D01*
X178277701Y-51267279D01*
X178237140Y-51255593D01*
X178202715Y-51231166D01*
X173976549Y-47005000D01*
X177470123Y-47005000D01*
X177489193Y-47222977D01*
X177545824Y-47434329D01*
X177638298Y-47632639D01*
X177763804Y-47811880D01*
X177918519Y-47966595D01*
X177918522Y-47966597D01*
X177918523Y-47966598D01*
X178097761Y-48092102D01*
X178296070Y-48184575D01*
X178507423Y-48241207D01*
X178725400Y-48260277D01*
X178943377Y-48241207D01*
X179154730Y-48184575D01*
X179353039Y-48092102D01*
X179532277Y-47966598D01*
X179686998Y-47811877D01*
X179812502Y-47632639D01*
X179904975Y-47434330D01*
X179961607Y-47222977D01*
X179980677Y-47005000D01*
X179961607Y-46787023D01*
X179904975Y-46575670D01*
X179812502Y-46377362D01*
X179812022Y-46376677D01*
X179707415Y-46227282D01*
X179686998Y-46198123D01*
X179686997Y-46198122D01*
X179686995Y-46198119D01*
X179532280Y-46043404D01*
X179353039Y-45917898D01*
X179154729Y-45825424D01*
X178943377Y-45768793D01*
X178725400Y-45749723D01*
X178507423Y-45768793D01*
X178296070Y-45825425D01*
X178296067Y-45825426D01*
X178296068Y-45825426D01*
X178097760Y-45917898D01*
X177918519Y-46043404D01*
X177763804Y-46198119D01*
X177638298Y-46377360D01*
X177571545Y-46520513D01*
X177545825Y-46575670D01*
X177489193Y-46787023D01*
X177478124Y-46913544D01*
X177470123Y-47005000D01*
X173976549Y-47005000D01*
X172076915Y-45105366D01*
X172066048Y-45092975D01*
X172046588Y-45067614D01*
X172019674Y-45046962D01*
X172014674Y-45043125D01*
X172014672Y-45043123D01*
X171942006Y-44987364D01*
X171919475Y-44970075D01*
X171814804Y-44926719D01*
X171771451Y-44908762D01*
X171771450Y-44908761D01*
X171771448Y-44908761D01*
X171752068Y-44906208D01*
X171752056Y-44906208D01*
X171738069Y-44904366D01*
X171644303Y-44892022D01*
X171644291Y-44892022D01*
X171612600Y-44887850D01*
X171580907Y-44892022D01*
X171564464Y-44893100D01*
X170379380Y-44893100D01*
X170317974Y-44877124D01*
X170272140Y-44833247D01*
X170238030Y-44777947D01*
X170102239Y-44642156D01*
X170104593Y-44639801D01*
X170078943Y-44613010D01*
X170062965Y-44551600D01*
X170078943Y-44490190D01*
X170104590Y-44463400D01*
X170102236Y-44461046D01*
X170112652Y-44450630D01*
X170145565Y-44417716D01*
X170193042Y-44387883D01*
X170248766Y-44381604D01*
X170301693Y-44400124D01*
X170327523Y-44416354D01*
X170334985Y-44421043D01*
X170399969Y-44443782D01*
X170506953Y-44481217D01*
X170688000Y-44501616D01*
X170869047Y-44481217D01*
X171041015Y-44421043D01*
X171195281Y-44324111D01*
X171324111Y-44195281D01*
X171421043Y-44041015D01*
X171435115Y-44000799D01*
X173219270Y-44000799D01*
X173238567Y-44295231D01*
X173296132Y-44584628D01*
X173390974Y-44864025D01*
X173521482Y-45128667D01*
X173685409Y-45374001D01*
X173879957Y-45595842D01*
X174055426Y-45749723D01*
X174101799Y-45790391D01*
X174347135Y-45954319D01*
X174578747Y-46068538D01*
X174611774Y-46084825D01*
X174807127Y-46151138D01*
X174891174Y-46179668D01*
X175180568Y-46237232D01*
X175475000Y-46256530D01*
X175769432Y-46237232D01*
X176058826Y-46179668D01*
X176212508Y-46127500D01*
X176338225Y-46084825D01*
X176338226Y-46084824D01*
X176338230Y-46084823D01*
X176602865Y-45954319D01*
X176848201Y-45790391D01*
X177070042Y-45595842D01*
X177264591Y-45374001D01*
X177428519Y-45128665D01*
X177559023Y-44864030D01*
X177559882Y-44861501D01*
X177609034Y-44716703D01*
X177653868Y-44584626D01*
X177711432Y-44295232D01*
X177730730Y-44000800D01*
X177711432Y-43706368D01*
X177653868Y-43416974D01*
X177631856Y-43352128D01*
X177559025Y-43137574D01*
X177535021Y-43088899D01*
X177428519Y-42872935D01*
X177264591Y-42627599D01*
X177208419Y-42563547D01*
X177070042Y-42405757D01*
X176848201Y-42211209D01*
X176602867Y-42047282D01*
X176338225Y-41916774D01*
X176058828Y-41821932D01*
X175769431Y-41764367D01*
X175475000Y-41745070D01*
X175180568Y-41764367D01*
X174891171Y-41821932D01*
X174611774Y-41916774D01*
X174347132Y-42047282D01*
X174101798Y-42211209D01*
X173879957Y-42405757D01*
X173685409Y-42627598D01*
X173521482Y-42872932D01*
X173390974Y-43137574D01*
X173296132Y-43416971D01*
X173238567Y-43706368D01*
X173219270Y-44000799D01*
X171435115Y-44000799D01*
X171481217Y-43869047D01*
X171501616Y-43688000D01*
X171481217Y-43506953D01*
X171421043Y-43334985D01*
X171324111Y-43180719D01*
X171324110Y-43180717D01*
X171195282Y-43051889D01*
X171041014Y-42954956D01*
X170869049Y-42894783D01*
X170688000Y-42874384D01*
X170506952Y-42894783D01*
X170389961Y-42935719D01*
X170333891Y-42941957D01*
X170280719Y-42923102D01*
X170241107Y-42882937D01*
X170238030Y-42877948D01*
X170238026Y-42877944D01*
X170238025Y-42877942D01*
X170112655Y-42752572D01*
X170112652Y-42752570D01*
X169961738Y-42659485D01*
X169793426Y-42603713D01*
X169689545Y-42593100D01*
X169689540Y-42593100D01*
X168638459Y-42593100D01*
X168534573Y-42603713D01*
X168366262Y-42659485D01*
X168215344Y-42752572D01*
X168168795Y-42799122D01*
X168112311Y-42831734D01*
X168047089Y-42831734D01*
X167990605Y-42799122D01*
X167953655Y-42762172D01*
X167953350Y-42761984D01*
X167802738Y-42669085D01*
X167634426Y-42613313D01*
X167530545Y-42602700D01*
X167530540Y-42602700D01*
X166479459Y-42602700D01*
X166375573Y-42613313D01*
X166207262Y-42669085D01*
X166056344Y-42762172D01*
X165984795Y-42833722D01*
X165928311Y-42866334D01*
X165863089Y-42866334D01*
X165806605Y-42833722D01*
X165769655Y-42796772D01*
X165769652Y-42796770D01*
X165618738Y-42703685D01*
X165450426Y-42647913D01*
X165346545Y-42637300D01*
X165346540Y-42637300D01*
X164345459Y-42637300D01*
X164241573Y-42647913D01*
X164073262Y-42703685D01*
X163922344Y-42796772D01*
X163866195Y-42852922D01*
X163809711Y-42885534D01*
X163744489Y-42885534D01*
X163688005Y-42852922D01*
X163635655Y-42800572D01*
X163629491Y-42796770D01*
X163484738Y-42707485D01*
X163316426Y-42651713D01*
X163212545Y-42641100D01*
X163212540Y-42641100D01*
X162161459Y-42641100D01*
X162057573Y-42651713D01*
X161889262Y-42707485D01*
X161738344Y-42800572D01*
X161691795Y-42847122D01*
X161635311Y-42879734D01*
X161570089Y-42879734D01*
X161513605Y-42847122D01*
X161476655Y-42810172D01*
X161470491Y-42806370D01*
X161325738Y-42717085D01*
X161157426Y-42661313D01*
X161053545Y-42650700D01*
X161053540Y-42650700D01*
X160002459Y-42650700D01*
X159898573Y-42661313D01*
X159730262Y-42717085D01*
X159579344Y-42810172D01*
X159453972Y-42935544D01*
X159421214Y-42988654D01*
X159360885Y-43086462D01*
X159305113Y-43254774D01*
X159295167Y-43352132D01*
X159294500Y-43358659D01*
X159294500Y-43959740D01*
X159302803Y-44041014D01*
X159305113Y-44063626D01*
X159360885Y-44231938D01*
X159446557Y-44370833D01*
X159453972Y-44382855D01*
X159589761Y-44518644D01*
X159587408Y-44520996D01*
X159613062Y-44547800D01*
X159629034Y-44609200D01*
X159613062Y-44670600D01*
X159587408Y-44697403D01*
X159589761Y-44699756D01*
X159453972Y-44835544D01*
X159421710Y-44887850D01*
X159360885Y-44986462D01*
X159305113Y-45154774D01*
X159296408Y-45239985D01*
X159294500Y-45258659D01*
X159294500Y-45859749D01*
X159295127Y-45865880D01*
X159288490Y-45920914D01*
X159258875Y-45967774D01*
X159136056Y-46090595D01*
X159095179Y-46117909D01*
X159046960Y-46127500D01*
X157655136Y-46127500D01*
X157638690Y-46126422D01*
X157607000Y-46122250D01*
X157575310Y-46126422D01*
X157575296Y-46126422D01*
X157448152Y-46143161D01*
X157448149Y-46143162D01*
X157448150Y-46143162D01*
X157300125Y-46204476D01*
X157290153Y-46212128D01*
X157290150Y-46212129D01*
X157290150Y-46212130D01*
X157204928Y-46277523D01*
X157204930Y-46277521D01*
X157173011Y-46302014D01*
X157153545Y-46327381D01*
X157142681Y-46339768D01*
X156702767Y-46779682D01*
X156690380Y-46790547D01*
X156665012Y-46810013D01*
X156643209Y-46838427D01*
X156642846Y-46838901D01*
X156637973Y-46845251D01*
X156637950Y-46845279D01*
X156567476Y-46937122D01*
X156506344Y-47084709D01*
X156506161Y-47085151D01*
X156489422Y-47212303D01*
X156489422Y-47212310D01*
X156485250Y-47244000D01*
X156489422Y-47275690D01*
X156490500Y-47292136D01*
X156490500Y-48203772D01*
X156489422Y-48220218D01*
X156485250Y-48251908D01*
X156489422Y-48283598D01*
X156489422Y-48283605D01*
X156496515Y-48337479D01*
X156496515Y-48337480D01*
X156506161Y-48410758D01*
X156567476Y-48558786D01*
X156640521Y-48653980D01*
X156640524Y-48653982D01*
X156665010Y-48685892D01*
X156665011Y-48685893D01*
X156665013Y-48685895D01*
X156690379Y-48705359D01*
X156702769Y-48716226D01*
X157145914Y-49159371D01*
X157179422Y-49219408D01*
X157176424Y-49288097D01*
X157146113Y-49379571D01*
X157135500Y-49483459D01*
X157135500Y-50084540D01*
X157146112Y-50188425D01*
X157146113Y-50188426D01*
X157201885Y-50356738D01*
X157255637Y-50443883D01*
X157294972Y-50507655D01*
X157420344Y-50633027D01*
X157420346Y-50633028D01*
X157420348Y-50633030D01*
X157571262Y-50726115D01*
X157739574Y-50781887D01*
X157843455Y-50792500D01*
X158464760Y-50792499D01*
X158512978Y-50802090D01*
X158553855Y-50829404D01*
X161371681Y-53647230D01*
X161382547Y-53659619D01*
X161389746Y-53669001D01*
X161402013Y-53684987D01*
X161433925Y-53709474D01*
X161433928Y-53709477D01*
X161503318Y-53762721D01*
X161529125Y-53782524D01*
X161677150Y-53843838D01*
X161796115Y-53859500D01*
X161804296Y-53860577D01*
X161804310Y-53860578D01*
X161836000Y-53864750D01*
X161867692Y-53860577D01*
X161884136Y-53859500D01*
X165180331Y-53859500D01*
X165228549Y-53869091D01*
X165269426Y-53896405D01*
X172475251Y-61102230D01*
X172486117Y-61114619D01*
X172505583Y-61139987D01*
X172530948Y-61159450D01*
X172530961Y-61159462D01*
X172632692Y-61237523D01*
X172632693Y-61237523D01*
X172632694Y-61237524D01*
X172780719Y-61298838D01*
X172790416Y-61300114D01*
X172800112Y-61301391D01*
X172800113Y-61301391D01*
X172888405Y-61313015D01*
X172907866Y-61315577D01*
X172907877Y-61315577D01*
X172939570Y-61319750D01*
X172971262Y-61315577D01*
X172987706Y-61314500D01*
X192130889Y-61314500D01*
X192179107Y-61324091D01*
X192219984Y-61351405D01*
X192527295Y-61658716D01*
X192551722Y-61693141D01*
X192563408Y-61733702D01*
X192570310Y-61794953D01*
X192572912Y-61818047D01*
X192609947Y-61923888D01*
X192615781Y-61983114D01*
X192593779Y-62038413D01*
X192548850Y-62077445D01*
X192491018Y-62091501D01*
X169059000Y-62091501D01*
X168996000Y-62074620D01*
X168949881Y-62028501D01*
X168933000Y-61965501D01*
X168933000Y-61582503D01*
X168931031Y-61557487D01*
X168930062Y-61545169D01*
X168883645Y-61385399D01*
X168798953Y-61242193D01*
X168798951Y-61242191D01*
X168798950Y-61242189D01*
X168681310Y-61124549D01*
X168664519Y-61114619D01*
X168538101Y-61039855D01*
X168538100Y-61039854D01*
X168538099Y-61039854D01*
X168378333Y-60993438D01*
X168367665Y-60992598D01*
X168341002Y-60990500D01*
X167907998Y-60990500D01*
X167884667Y-60992336D01*
X167870666Y-60993438D01*
X167710900Y-61039854D01*
X167567689Y-61124549D01*
X167450049Y-61242189D01*
X167365354Y-61385400D01*
X167318938Y-61545166D01*
X167316000Y-61582503D01*
X167316000Y-62739500D01*
X167299119Y-62802500D01*
X167253000Y-62848619D01*
X167190000Y-62865500D01*
X166957998Y-62865500D01*
X166934667Y-62867336D01*
X166920666Y-62868438D01*
X166760900Y-62914854D01*
X166617689Y-62999549D01*
X166500047Y-63117191D01*
X166412289Y-63265581D01*
X166380465Y-63301461D01*
X166337539Y-63322850D01*
X166289730Y-63326649D01*
X166243001Y-63321384D01*
X166243000Y-63321384D01*
X166197738Y-63326483D01*
X166061950Y-63341783D01*
X165889988Y-63401955D01*
X165889984Y-63401957D01*
X165889985Y-63401957D01*
X165774534Y-63474499D01*
X165711033Y-63493761D01*
X165646551Y-63478089D01*
X165598975Y-63431828D01*
X165581500Y-63367811D01*
X165581500Y-62532136D01*
X165582578Y-62515690D01*
X165586750Y-62484000D01*
X165582578Y-62452309D01*
X165582578Y-62452303D01*
X165577147Y-62411049D01*
X165565838Y-62325150D01*
X165548904Y-62284268D01*
X165511973Y-62195108D01*
X165504523Y-62177121D01*
X165426456Y-62075383D01*
X165426443Y-62075369D01*
X165425868Y-62074620D01*
X165419867Y-62066799D01*
X165406987Y-62050012D01*
X165381618Y-62030546D01*
X165369228Y-62019679D01*
X164083315Y-60733766D01*
X164072448Y-60721375D01*
X164052986Y-60696011D01*
X164021074Y-60671524D01*
X164021074Y-60671525D01*
X164021072Y-60671523D01*
X163925876Y-60598476D01*
X163925875Y-60598475D01*
X163821204Y-60555119D01*
X163777851Y-60537162D01*
X163777850Y-60537161D01*
X163777848Y-60537161D01*
X163758468Y-60534608D01*
X163758456Y-60534608D01*
X163744469Y-60532766D01*
X163650703Y-60520422D01*
X163650691Y-60520422D01*
X163619000Y-60516250D01*
X163618999Y-60516250D01*
X163605260Y-60518058D01*
X163587307Y-60520422D01*
X163570864Y-60521500D01*
X154338954Y-60521500D01*
X154299163Y-60515052D01*
X154263445Y-60496368D01*
X154140205Y-60404111D01*
X154071702Y-60378561D01*
X154003201Y-60353011D01*
X153942638Y-60346500D01*
X152553500Y-60346500D01*
X152490500Y-60329619D01*
X152444381Y-60283500D01*
X152427500Y-60220500D01*
X152427500Y-58831362D01*
X152424957Y-58807710D01*
X152420989Y-58770799D01*
X152369889Y-58633796D01*
X152364646Y-58626792D01*
X152282261Y-58516738D01*
X152165205Y-58429111D01*
X152066674Y-58392361D01*
X152028201Y-58378011D01*
X152016030Y-58376702D01*
X151958876Y-58355772D01*
X151918202Y-58310490D01*
X151903500Y-58251425D01*
X151903500Y-54569146D01*
X151904578Y-54552700D01*
X151904815Y-54550900D01*
X151908751Y-54521002D01*
X151887838Y-54362152D01*
X151826524Y-54214126D01*
X151826523Y-54214123D01*
X151748457Y-54112387D01*
X151748443Y-54112371D01*
X151728987Y-54087014D01*
X151703618Y-54067548D01*
X151691228Y-54056681D01*
X147403315Y-49768766D01*
X147392448Y-49756375D01*
X147372986Y-49731011D01*
X147341074Y-49706524D01*
X147341074Y-49706525D01*
X147341072Y-49706523D01*
X147245876Y-49633476D01*
X147245875Y-49633475D01*
X147141204Y-49590119D01*
X147097851Y-49572162D01*
X147097850Y-49572161D01*
X147097848Y-49572161D01*
X147078468Y-49569608D01*
X147078456Y-49569608D01*
X147064469Y-49567766D01*
X146970703Y-49555422D01*
X146970691Y-49555422D01*
X146939000Y-49551250D01*
X146907307Y-49555422D01*
X146890864Y-49556500D01*
X91488136Y-49556500D01*
X91471692Y-49555422D01*
X91440000Y-49551250D01*
X91408307Y-49555422D01*
X91408294Y-49555423D01*
X91300583Y-49569602D01*
X91300562Y-49569605D01*
X91300543Y-49569608D01*
X91286255Y-49571489D01*
X91281147Y-49572162D01*
X91133121Y-49633476D01*
X91038696Y-49705932D01*
X91038476Y-49706102D01*
X91006011Y-49731014D01*
X90986545Y-49756381D01*
X90975681Y-49768768D01*
X86070479Y-54673970D01*
X86022297Y-54704048D01*
X85863225Y-54758658D01*
X85665221Y-54865812D01*
X85487562Y-55004091D01*
X85335078Y-55169731D01*
X85246283Y-55305643D01*
X85200769Y-55347541D01*
X85140800Y-55362727D01*
X85080831Y-55347541D01*
X85035317Y-55305643D01*
X84996422Y-55246110D01*
X84946522Y-55169732D01*
X84794040Y-55004094D01*
X84794039Y-55004093D01*
X84794037Y-55004091D01*
X84616378Y-54865812D01*
X84418373Y-54758657D01*
X84259300Y-54704048D01*
X84205435Y-54685556D01*
X83983369Y-54648500D01*
X83758231Y-54648500D01*
X83536165Y-54685556D01*
X83536162Y-54685556D01*
X83536162Y-54685557D01*
X83323226Y-54758657D01*
X83125221Y-54865812D01*
X82947562Y-55004091D01*
X82795075Y-55169735D01*
X82705982Y-55306101D01*
X82660469Y-55347999D01*
X82600500Y-55363185D01*
X82540531Y-55347999D01*
X82495017Y-55306101D01*
X82406121Y-55170037D01*
X82253703Y-55004466D01*
X82076102Y-54866233D01*
X81878168Y-54759116D01*
X81665314Y-54686044D01*
X81584800Y-54672609D01*
X81584800Y-57341391D01*
X81665314Y-57327955D01*
X81878168Y-57254883D01*
X82076102Y-57147766D01*
X82253703Y-57009533D01*
X82406123Y-56843960D01*
X82495017Y-56707899D01*
X82540530Y-56666000D01*
X82600500Y-56650814D01*
X82660469Y-56666000D01*
X82705983Y-56707898D01*
X82795078Y-56844268D01*
X82907325Y-56966200D01*
X82947562Y-57009908D01*
X83125221Y-57148187D01*
X83125224Y-57148189D01*
X83323226Y-57255342D01*
X83536165Y-57328444D01*
X83758231Y-57365500D01*
X83983366Y-57365500D01*
X83983369Y-57365500D01*
X84205435Y-57328444D01*
X84418374Y-57255342D01*
X84616376Y-57148189D01*
X84794040Y-57009906D01*
X84946522Y-56844268D01*
X85035318Y-56708354D01*
X85080831Y-56666458D01*
X85140800Y-56651272D01*
X85200769Y-56666458D01*
X85246281Y-56708354D01*
X85335078Y-56844268D01*
X85447325Y-56966200D01*
X85487562Y-57009908D01*
X85665221Y-57148187D01*
X85665224Y-57148189D01*
X85863226Y-57255342D01*
X86076165Y-57328444D01*
X86298231Y-57365500D01*
X86523366Y-57365500D01*
X86523369Y-57365500D01*
X86745435Y-57328444D01*
X86958374Y-57255342D01*
X87156376Y-57148189D01*
X87334040Y-57009906D01*
X87486522Y-56844268D01*
X87575318Y-56708354D01*
X87620831Y-56666458D01*
X87680800Y-56651272D01*
X87740769Y-56666458D01*
X87786281Y-56708354D01*
X87875078Y-56844268D01*
X87987325Y-56966200D01*
X88027562Y-57009908D01*
X88205221Y-57148187D01*
X88205224Y-57148189D01*
X88403226Y-57255342D01*
X88616165Y-57328444D01*
X88838231Y-57365500D01*
X89063366Y-57365500D01*
X89063369Y-57365500D01*
X89285435Y-57328444D01*
X89498374Y-57255342D01*
X89696376Y-57148189D01*
X89874040Y-57009906D01*
X89935046Y-56943635D01*
X89988516Y-56909238D01*
X90051977Y-56905327D01*
X90109269Y-56932903D01*
X90145800Y-56984942D01*
X90189909Y-57103203D01*
X90277538Y-57220261D01*
X90394594Y-57307888D01*
X90394595Y-57307888D01*
X90394596Y-57307889D01*
X90531599Y-57358989D01*
X90592162Y-57365500D01*
X92389438Y-57365500D01*
X92450001Y-57358989D01*
X92587004Y-57307889D01*
X92704061Y-57220261D01*
X92791689Y-57103204D01*
X92842789Y-56966201D01*
X92849300Y-56905638D01*
X92849300Y-55108362D01*
X92842789Y-55047799D01*
X92791689Y-54910796D01*
X92791688Y-54910794D01*
X92704061Y-54793738D01*
X92587005Y-54706111D01*
X92518502Y-54680560D01*
X92450001Y-54655011D01*
X92389438Y-54648500D01*
X92225300Y-54648500D01*
X92162300Y-54631619D01*
X92116181Y-54585500D01*
X92099300Y-54522500D01*
X92099300Y-51699500D01*
X92116181Y-51636500D01*
X92162300Y-51590381D01*
X92225300Y-51573500D01*
X146303389Y-51573500D01*
X146351607Y-51583091D01*
X146392484Y-51610405D01*
X149021984Y-54239905D01*
X149052722Y-54290064D01*
X149057338Y-54348711D01*
X149034825Y-54403061D01*
X148990092Y-54441267D01*
X148932889Y-54455000D01*
X148851497Y-54455000D01*
X148747671Y-54465606D01*
X148579477Y-54521340D01*
X148428657Y-54614367D01*
X148323449Y-54719576D01*
X148266965Y-54752188D01*
X148201743Y-54752188D01*
X148145259Y-54719576D01*
X148014655Y-54588972D01*
X148009026Y-54585500D01*
X147863738Y-54495885D01*
X147695426Y-54440113D01*
X147591545Y-54429500D01*
X147591540Y-54429500D01*
X146540459Y-54429500D01*
X146436573Y-54440113D01*
X146268262Y-54495885D01*
X146117344Y-54588972D01*
X145991972Y-54714344D01*
X145991970Y-54714348D01*
X145898885Y-54865262D01*
X145852365Y-55005654D01*
X145817884Y-55058918D01*
X145761818Y-55088625D01*
X145698382Y-55087240D01*
X145643665Y-55055116D01*
X142897315Y-52308766D01*
X142886448Y-52296375D01*
X142866988Y-52271014D01*
X142866987Y-52271013D01*
X142835074Y-52246525D01*
X142835072Y-52246523D01*
X142739876Y-52173476D01*
X142739875Y-52173475D01*
X142635204Y-52130119D01*
X142591851Y-52112162D01*
X142591850Y-52112161D01*
X142591848Y-52112161D01*
X142572468Y-52109608D01*
X142572456Y-52109608D01*
X142558469Y-52107766D01*
X142464703Y-52095422D01*
X142464691Y-52095422D01*
X142433000Y-52091250D01*
X142401307Y-52095422D01*
X142384864Y-52096500D01*
X104284361Y-52096500D01*
X104267917Y-52095422D01*
X104236225Y-52091250D01*
X104204532Y-52095422D01*
X104204519Y-52095423D01*
X104096808Y-52109602D01*
X104096787Y-52109605D01*
X104096768Y-52109608D01*
X104082480Y-52111489D01*
X104077372Y-52112162D01*
X103929347Y-52173476D01*
X103837504Y-52243950D01*
X103837476Y-52243973D01*
X103802235Y-52271014D01*
X103782770Y-52296381D01*
X103771906Y-52308768D01*
X97671081Y-58409595D01*
X97630204Y-58436909D01*
X97581986Y-58446500D01*
X69427291Y-58446500D01*
X69368889Y-58432148D01*
X69323792Y-58392361D01*
X69302273Y-58336203D01*
X69309235Y-58276468D01*
X69310249Y-58273750D01*
X69322389Y-58241201D01*
X69328900Y-58180638D01*
X69328900Y-56383362D01*
X69322389Y-56322799D01*
X69271289Y-56185796D01*
X69267970Y-56181362D01*
X69183661Y-56068738D01*
X69101189Y-56007000D01*
X77427644Y-56007000D01*
X77446236Y-56231368D01*
X77446236Y-56231371D01*
X77446237Y-56231372D01*
X77501502Y-56449611D01*
X77591939Y-56655790D01*
X77665177Y-56767889D01*
X77715078Y-56844268D01*
X77827325Y-56966200D01*
X77867562Y-57009908D01*
X78045221Y-57148187D01*
X78045224Y-57148189D01*
X78243226Y-57255342D01*
X78456165Y-57328444D01*
X78678231Y-57365500D01*
X78903366Y-57365500D01*
X78903369Y-57365500D01*
X79125435Y-57328444D01*
X79338374Y-57255342D01*
X79536376Y-57148189D01*
X79714040Y-57009906D01*
X79866522Y-56844268D01*
X79955618Y-56707896D01*
X80001129Y-56665999D01*
X80061099Y-56650813D01*
X80121068Y-56665999D01*
X80166582Y-56707897D01*
X80255478Y-56843962D01*
X80407896Y-57009533D01*
X80585497Y-57147766D01*
X80783431Y-57254883D01*
X80996285Y-57327955D01*
X81076800Y-57341391D01*
X81076800Y-54672609D01*
X80996285Y-54686044D01*
X80783431Y-54759116D01*
X80585497Y-54866233D01*
X80407896Y-55004466D01*
X80255478Y-55170037D01*
X80166582Y-55306102D01*
X80121068Y-55348000D01*
X80061099Y-55363186D01*
X80001129Y-55348000D01*
X79955616Y-55306101D01*
X79916422Y-55246110D01*
X79866522Y-55169732D01*
X79714040Y-55004094D01*
X79714039Y-55004093D01*
X79714037Y-55004091D01*
X79536378Y-54865812D01*
X79338373Y-54758657D01*
X79179300Y-54704048D01*
X79125435Y-54685556D01*
X78903369Y-54648500D01*
X78678231Y-54648500D01*
X78456165Y-54685556D01*
X78456162Y-54685556D01*
X78456162Y-54685557D01*
X78243226Y-54758657D01*
X78045221Y-54865812D01*
X77867562Y-55004091D01*
X77715078Y-55169731D01*
X77591939Y-55358209D01*
X77501502Y-55564388D01*
X77451372Y-55762350D01*
X77446236Y-55782632D01*
X77427644Y-56007000D01*
X69101189Y-56007000D01*
X69066606Y-55981111D01*
X68976498Y-55947503D01*
X68951084Y-55938024D01*
X68900752Y-55903461D01*
X68872578Y-55849291D01*
X68873181Y-55788235D01*
X68902418Y-55734632D01*
X69045721Y-55578962D01*
X69168819Y-55390548D01*
X69259222Y-55184451D01*
X69306944Y-54996000D01*
X67842400Y-54996000D01*
X67779400Y-54979119D01*
X67733281Y-54933000D01*
X67716400Y-54870000D01*
X67716400Y-53407609D01*
X68224400Y-53407609D01*
X68224400Y-54488000D01*
X69306944Y-54488000D01*
X69306944Y-54487999D01*
X69259222Y-54299548D01*
X69168819Y-54093451D01*
X69045721Y-53905037D01*
X68893303Y-53739466D01*
X68715702Y-53601233D01*
X68517768Y-53494116D01*
X68304914Y-53421044D01*
X68224400Y-53407609D01*
X67716400Y-53407609D01*
X67635885Y-53421044D01*
X67423031Y-53494116D01*
X67225097Y-53601233D01*
X67047496Y-53739466D01*
X66895078Y-53905037D01*
X66806182Y-54041102D01*
X66760668Y-54083000D01*
X66700699Y-54098186D01*
X66640729Y-54083000D01*
X66595216Y-54041101D01*
X66550458Y-53972594D01*
X66506122Y-53904732D01*
X66353640Y-53739094D01*
X66353639Y-53739093D01*
X66353637Y-53739091D01*
X66175978Y-53600812D01*
X65977973Y-53493657D01*
X65807196Y-53435030D01*
X65765035Y-53420556D01*
X65542969Y-53383500D01*
X65317831Y-53383500D01*
X65095765Y-53420556D01*
X65095762Y-53420556D01*
X65095762Y-53420557D01*
X64882826Y-53493657D01*
X64684821Y-53600812D01*
X64507162Y-53739091D01*
X64354678Y-53904731D01*
X64265883Y-54040643D01*
X64220369Y-54082541D01*
X64160400Y-54097727D01*
X64100431Y-54082541D01*
X64054917Y-54040643D01*
X63966121Y-53904731D01*
X63925474Y-53860577D01*
X63813640Y-53739094D01*
X63813639Y-53739093D01*
X63813637Y-53739091D01*
X63635978Y-53600812D01*
X63437973Y-53493657D01*
X63267196Y-53435030D01*
X63225035Y-53420556D01*
X63002969Y-53383500D01*
X62777831Y-53383500D01*
X62555765Y-53420556D01*
X62555762Y-53420556D01*
X62555762Y-53420557D01*
X62342826Y-53493657D01*
X62144821Y-53600812D01*
X61967162Y-53739091D01*
X61814678Y-53904731D01*
X61691539Y-54093209D01*
X61601102Y-54299388D01*
X61551343Y-54495885D01*
X61545836Y-54517632D01*
X61527244Y-54742000D01*
X61545836Y-54966368D01*
X61545836Y-54966371D01*
X61545837Y-54966372D01*
X61601102Y-55184611D01*
X61691539Y-55390790D01*
X61776213Y-55520393D01*
X61814678Y-55579268D01*
X61955355Y-55732083D01*
X61967162Y-55744908D01*
X62144818Y-55883185D01*
X62144820Y-55883186D01*
X62144824Y-55883189D01*
X62178082Y-55901187D01*
X62226352Y-55947503D01*
X62244111Y-56012000D01*
X62226352Y-56076497D01*
X62178082Y-56122812D01*
X62153194Y-56136281D01*
X62144818Y-56140814D01*
X61967162Y-56279091D01*
X61814678Y-56444731D01*
X61691539Y-56633209D01*
X61601102Y-56839388D01*
X61547591Y-57050700D01*
X61545836Y-57057632D01*
X61527244Y-57282000D01*
X61545836Y-57506368D01*
X61545836Y-57506371D01*
X61545837Y-57506372D01*
X61601102Y-57724611D01*
X61691539Y-57930790D01*
X61788133Y-58078638D01*
X61814678Y-58119268D01*
X61926925Y-58241200D01*
X61967162Y-58284908D01*
X62143170Y-58421902D01*
X62144824Y-58423189D01*
X62342826Y-58530342D01*
X62555765Y-58603444D01*
X62777831Y-58640500D01*
X63002966Y-58640500D01*
X63002969Y-58640500D01*
X63225035Y-58603444D01*
X63244636Y-58596714D01*
X63313947Y-58593129D01*
X63374643Y-58626792D01*
X64199081Y-59451230D01*
X64209947Y-59463619D01*
X64229413Y-59488987D01*
X64254777Y-59508450D01*
X64254793Y-59508464D01*
X64356522Y-59586523D01*
X64356523Y-59586523D01*
X64356524Y-59586524D01*
X64504549Y-59647838D01*
X64663400Y-59668751D01*
X64695098Y-59664577D01*
X64711544Y-59663500D01*
X97838089Y-59663500D01*
X97854532Y-59664577D01*
X97886225Y-59668750D01*
X97917918Y-59664577D01*
X97917928Y-59664577D01*
X97926109Y-59663500D01*
X97926110Y-59663500D01*
X98025681Y-59650391D01*
X98045076Y-59647838D01*
X98193101Y-59586524D01*
X98288297Y-59513477D01*
X98288297Y-59513476D01*
X98304854Y-59500772D01*
X98304857Y-59500769D01*
X98305771Y-59500067D01*
X98320212Y-59488987D01*
X98339682Y-59463611D01*
X98350534Y-59451238D01*
X102009206Y-55792566D01*
X102057798Y-55762350D01*
X102114745Y-55756741D01*
X102168301Y-55776898D01*
X102207418Y-55818663D01*
X102224029Y-55873422D01*
X102238567Y-56095230D01*
X102296132Y-56384628D01*
X102390974Y-56664025D01*
X102521482Y-56928667D01*
X102685409Y-57174001D01*
X102879957Y-57395842D01*
X103055779Y-57550033D01*
X103101799Y-57590391D01*
X103347135Y-57754319D01*
X103544557Y-57851677D01*
X103611774Y-57884825D01*
X103829522Y-57958740D01*
X103891174Y-57979668D01*
X104180568Y-58037232D01*
X104475000Y-58056530D01*
X104769432Y-58037232D01*
X105058826Y-57979668D01*
X105210242Y-57928269D01*
X105338225Y-57884825D01*
X105338226Y-57884824D01*
X105338230Y-57884823D01*
X105602865Y-57754319D01*
X105848201Y-57590391D01*
X106070042Y-57395842D01*
X106264591Y-57174001D01*
X106428519Y-56928665D01*
X106559023Y-56664030D01*
X106563510Y-56650814D01*
X106631807Y-56449616D01*
X106653868Y-56384626D01*
X106711432Y-56095232D01*
X106730730Y-55800800D01*
X106711432Y-55506368D01*
X106653868Y-55216974D01*
X106637935Y-55170037D01*
X106559025Y-54937574D01*
X106552496Y-54924335D01*
X106428519Y-54672935D01*
X106264591Y-54427599D01*
X106214286Y-54370237D01*
X106070042Y-54205757D01*
X105848201Y-54011209D01*
X105602867Y-53847282D01*
X105338225Y-53716774D01*
X105058828Y-53621932D01*
X104762952Y-53563079D01*
X104707599Y-53536899D01*
X104671124Y-53487718D01*
X104662140Y-53427150D01*
X104682768Y-53369498D01*
X104728137Y-53328378D01*
X104787533Y-53313500D01*
X142128761Y-53313500D01*
X142176979Y-53323091D01*
X142217856Y-53350405D01*
X145796873Y-56929422D01*
X145826488Y-56976280D01*
X145833127Y-57031313D01*
X145832500Y-57037454D01*
X145832500Y-57638540D01*
X145841293Y-57724611D01*
X145843113Y-57742426D01*
X145898885Y-57910738D01*
X145985192Y-58050663D01*
X145991972Y-58061655D01*
X146086722Y-58156405D01*
X146117460Y-58206564D01*
X146122076Y-58265211D01*
X146099563Y-58319561D01*
X146054830Y-58357767D01*
X145997627Y-58371500D01*
X145720362Y-58371500D01*
X145659799Y-58378011D01*
X145522794Y-58429111D01*
X145405738Y-58516738D01*
X145318111Y-58633794D01*
X145267011Y-58770799D01*
X145260500Y-58831362D01*
X145260500Y-60220500D01*
X145243619Y-60283500D01*
X145197500Y-60329619D01*
X145134500Y-60346500D01*
X144434156Y-60346500D01*
X144424000Y-60345834D01*
X144413844Y-60346500D01*
X143745362Y-60346500D01*
X143705568Y-60350778D01*
X143692102Y-60351500D01*
X143589083Y-60351500D01*
X143540865Y-60341909D01*
X143522454Y-60329607D01*
X143521302Y-60331442D01*
X143355014Y-60226956D01*
X143183049Y-60166783D01*
X143002000Y-60146384D01*
X142820950Y-60166783D01*
X142648985Y-60226956D01*
X142494717Y-60323889D01*
X142365889Y-60452717D01*
X142268956Y-60606985D01*
X142208783Y-60778950D01*
X142188384Y-60960000D01*
X142208783Y-61141049D01*
X142268956Y-61313014D01*
X142365889Y-61467282D01*
X142494717Y-61596110D01*
X142559793Y-61637000D01*
X142648985Y-61693043D01*
X142820953Y-61753217D01*
X143002000Y-61773616D01*
X143145394Y-61757459D01*
X143214169Y-61769145D01*
X143266187Y-61815631D01*
X143285500Y-61882667D01*
X143285500Y-62253640D01*
X143292261Y-62316532D01*
X143292261Y-62343468D01*
X143285500Y-62406360D01*
X143285500Y-62553218D01*
X143265964Y-62620608D01*
X143213413Y-62667101D01*
X143144144Y-62678279D01*
X143079637Y-62650675D01*
X143039896Y-62592851D01*
X143026115Y-62551262D01*
X142933030Y-62400348D01*
X142933028Y-62400346D01*
X142933027Y-62400344D01*
X142807655Y-62274972D01*
X142788448Y-62263125D01*
X142656738Y-62181885D01*
X142488426Y-62126113D01*
X142384545Y-62115500D01*
X142384540Y-62115500D01*
X141333459Y-62115500D01*
X141229573Y-62126113D01*
X141061262Y-62181885D01*
X140910344Y-62274972D01*
X140784972Y-62400344D01*
X140773100Y-62419592D01*
X140691885Y-62551262D01*
X140638005Y-62713864D01*
X140636113Y-62719574D01*
X140625500Y-62823459D01*
X140625500Y-63424540D01*
X140633146Y-63499381D01*
X140636113Y-63528426D01*
X140691885Y-63696738D01*
X140769283Y-63822219D01*
X140784972Y-63847655D01*
X140920761Y-63983444D01*
X140918408Y-63985796D01*
X140944062Y-64012600D01*
X140960034Y-64074000D01*
X140944062Y-64135400D01*
X140918408Y-64162203D01*
X140920761Y-64164556D01*
X140784972Y-64300344D01*
X140775285Y-64316049D01*
X140691885Y-64451262D01*
X140636113Y-64619574D01*
X140625576Y-64722717D01*
X140625500Y-64723459D01*
X140625500Y-65324540D01*
X140632565Y-65393698D01*
X140636113Y-65428426D01*
X140691885Y-65596738D01*
X140779091Y-65738120D01*
X140784972Y-65747655D01*
X140910344Y-65873027D01*
X140910346Y-65873028D01*
X140910348Y-65873030D01*
X141061262Y-65966115D01*
X141229574Y-66021887D01*
X141333455Y-66032500D01*
X142384544Y-66032499D01*
X142488426Y-66021887D01*
X142656738Y-65966115D01*
X142807652Y-65873030D01*
X142933030Y-65747652D01*
X143026115Y-65596738D01*
X143041411Y-65550573D01*
X143073962Y-65499115D01*
X143126847Y-65468929D01*
X143187711Y-65467069D01*
X143242340Y-65493968D01*
X143277976Y-65543345D01*
X143285741Y-65599656D01*
X143286000Y-65599656D01*
X143286000Y-65601535D01*
X143286294Y-65603667D01*
X143286000Y-65606404D01*
X143286000Y-65676000D01*
X143298602Y-65676000D01*
X143355002Y-65689328D01*
X143399471Y-65726492D01*
X143430738Y-65768260D01*
X143512052Y-65829132D01*
X143549215Y-65873601D01*
X143562542Y-65930000D01*
X143549215Y-65986399D01*
X143512052Y-66030868D01*
X143430738Y-66091739D01*
X143399471Y-66133508D01*
X143355002Y-66170672D01*
X143298602Y-66184000D01*
X143286000Y-66184000D01*
X143286000Y-66253589D01*
X143292514Y-66314175D01*
X143292514Y-66341112D01*
X143285500Y-66406359D01*
X143285500Y-66406362D01*
X143285500Y-67053638D01*
X143292011Y-67114201D01*
X143308907Y-67159500D01*
X143343111Y-67251205D01*
X143430738Y-67368261D01*
X143547794Y-67455888D01*
X143547795Y-67455888D01*
X143547796Y-67455889D01*
X143684799Y-67506989D01*
X143745362Y-67513500D01*
X143859500Y-67513500D01*
X143922500Y-67530381D01*
X143968619Y-67576500D01*
X143985500Y-67639500D01*
X143985500Y-67699761D01*
X143975909Y-67747979D01*
X143948595Y-67788856D01*
X143586856Y-68150595D01*
X143545979Y-68177909D01*
X143497761Y-68187500D01*
X142748610Y-68187500D01*
X142700392Y-68177909D01*
X142659515Y-68150595D01*
X137424405Y-62915484D01*
X137397091Y-62874607D01*
X137387500Y-62826389D01*
X137387500Y-61547083D01*
X137397091Y-61498865D01*
X137409392Y-61480454D01*
X137407558Y-61479302D01*
X137487365Y-61352289D01*
X137512043Y-61313015D01*
X137572217Y-61141047D01*
X137592616Y-60960000D01*
X137572217Y-60778953D01*
X137567035Y-60764145D01*
X137512043Y-60606985D01*
X137415110Y-60452717D01*
X137286282Y-60323889D01*
X137132014Y-60226956D01*
X136960049Y-60166783D01*
X136929409Y-60163331D01*
X136810389Y-60149920D01*
X136753522Y-60128820D01*
X136713102Y-60083590D01*
X136698500Y-60024714D01*
X136698500Y-58338503D01*
X136698294Y-58335887D01*
X136695562Y-58301169D01*
X136649145Y-58141399D01*
X136564453Y-57998193D01*
X136535403Y-57969143D01*
X136508091Y-57928269D01*
X136498500Y-57880050D01*
X136498500Y-57610083D01*
X136508091Y-57561865D01*
X136520392Y-57543454D01*
X136518558Y-57542302D01*
X136554832Y-57484572D01*
X136623043Y-57376015D01*
X136683217Y-57204047D01*
X136703616Y-57023000D01*
X136683217Y-56841953D01*
X136682319Y-56839388D01*
X136623043Y-56669985D01*
X136526110Y-56515717D01*
X136397282Y-56386889D01*
X136243014Y-56289956D01*
X136071049Y-56229783D01*
X135890000Y-56209384D01*
X135708950Y-56229783D01*
X135536985Y-56289956D01*
X135382717Y-56386889D01*
X135344095Y-56425512D01*
X135287611Y-56458124D01*
X135222389Y-56458124D01*
X135165905Y-56425512D01*
X135127282Y-56386889D01*
X134973014Y-56289956D01*
X134801049Y-56229783D01*
X134620000Y-56209384D01*
X134438950Y-56229783D01*
X134266985Y-56289956D01*
X134112717Y-56386889D01*
X134074095Y-56425512D01*
X134017611Y-56458124D01*
X133952389Y-56458124D01*
X133895905Y-56425512D01*
X133857282Y-56386889D01*
X133703014Y-56289956D01*
X133531049Y-56229783D01*
X133350000Y-56209384D01*
X133168950Y-56229783D01*
X132996985Y-56289956D01*
X132842717Y-56386889D01*
X132713889Y-56515717D01*
X132616956Y-56669985D01*
X132556783Y-56841950D01*
X132542157Y-56971760D01*
X132536384Y-57023000D01*
X132538013Y-57037454D01*
X132556783Y-57204049D01*
X132616956Y-57376014D01*
X132721442Y-57542302D01*
X132719607Y-57543454D01*
X132731909Y-57561865D01*
X132741500Y-57610083D01*
X132741500Y-57721561D01*
X132724454Y-57784846D01*
X132677928Y-57831009D01*
X132614510Y-57847557D01*
X132551361Y-57830014D01*
X132493602Y-57795855D01*
X132333833Y-57749438D01*
X132323165Y-57748598D01*
X132296502Y-57746500D01*
X131863498Y-57746500D01*
X131840167Y-57748336D01*
X131826166Y-57749438D01*
X131666400Y-57795854D01*
X131608734Y-57829958D01*
X131524034Y-57880050D01*
X131509492Y-57888650D01*
X131507375Y-57885071D01*
X131477611Y-57902256D01*
X131412389Y-57902256D01*
X131382624Y-57885071D01*
X131380508Y-57888650D01*
X131365966Y-57880050D01*
X131223601Y-57795855D01*
X131223600Y-57795854D01*
X131223599Y-57795854D01*
X131063833Y-57749438D01*
X131053165Y-57748598D01*
X131026502Y-57746500D01*
X130593498Y-57746500D01*
X130570167Y-57748336D01*
X130556166Y-57749438D01*
X130396400Y-57795854D01*
X130338734Y-57829958D01*
X130254034Y-57880050D01*
X130239492Y-57888650D01*
X130237443Y-57885186D01*
X130207200Y-57902624D01*
X130142006Y-57902601D01*
X130112322Y-57885457D01*
X130110199Y-57889048D01*
X129953399Y-57796318D01*
X129907545Y-57782996D01*
X129855966Y-57753396D01*
X129823707Y-57703436D01*
X129817956Y-57644245D01*
X129839993Y-57589009D01*
X129884909Y-57550033D01*
X129942699Y-57535999D01*
X130294540Y-57535999D01*
X130294544Y-57535999D01*
X130398426Y-57525387D01*
X130566738Y-57469615D01*
X130717652Y-57376530D01*
X130843030Y-57251152D01*
X130936115Y-57100238D01*
X130991887Y-56931926D01*
X131002500Y-56828045D01*
X131002499Y-56201956D01*
X130991887Y-56098074D01*
X130936115Y-55929762D01*
X130843030Y-55778848D01*
X130755775Y-55691593D01*
X130723165Y-55635111D01*
X130723165Y-55569889D01*
X130755775Y-55513406D01*
X130843030Y-55426152D01*
X130936115Y-55275238D01*
X130991887Y-55106926D01*
X131002500Y-55003045D01*
X131002499Y-54376956D01*
X130991887Y-54273074D01*
X130936115Y-54104762D01*
X130843030Y-53953848D01*
X130843028Y-53953846D01*
X130843027Y-53953844D01*
X130717655Y-53828472D01*
X130710700Y-53824182D01*
X130566738Y-53735385D01*
X130398426Y-53679613D01*
X130294545Y-53669000D01*
X130294540Y-53669000D01*
X129293459Y-53669000D01*
X129189573Y-53679613D01*
X129021262Y-53735385D01*
X128870344Y-53828472D01*
X128867095Y-53831722D01*
X128810611Y-53864334D01*
X128745389Y-53864334D01*
X128688905Y-53831722D01*
X128685655Y-53828472D01*
X128678700Y-53824182D01*
X128534738Y-53735385D01*
X128366426Y-53679613D01*
X128262545Y-53669000D01*
X128262540Y-53669000D01*
X127261459Y-53669000D01*
X127157573Y-53679613D01*
X126989262Y-53735385D01*
X126838344Y-53828472D01*
X126835095Y-53831722D01*
X126778611Y-53864334D01*
X126713389Y-53864334D01*
X126656905Y-53831722D01*
X126653655Y-53828472D01*
X126646700Y-53824182D01*
X126502738Y-53735385D01*
X126334426Y-53679613D01*
X126230545Y-53669000D01*
X126230540Y-53669000D01*
X125229459Y-53669000D01*
X125125573Y-53679613D01*
X124957262Y-53735385D01*
X124806344Y-53828472D01*
X124803095Y-53831722D01*
X124746611Y-53864334D01*
X124681389Y-53864334D01*
X124624905Y-53831722D01*
X124621655Y-53828472D01*
X124614700Y-53824182D01*
X124470738Y-53735385D01*
X124302426Y-53679613D01*
X124198545Y-53669000D01*
X124198540Y-53669000D01*
X123197459Y-53669000D01*
X123093573Y-53679613D01*
X122925262Y-53735385D01*
X122774344Y-53828472D01*
X122771095Y-53831722D01*
X122714611Y-53864334D01*
X122649389Y-53864334D01*
X122592905Y-53831722D01*
X122589655Y-53828472D01*
X122582700Y-53824182D01*
X122438738Y-53735385D01*
X122270426Y-53679613D01*
X122166545Y-53669000D01*
X122166540Y-53669000D01*
X121165459Y-53669000D01*
X121061573Y-53679613D01*
X120893262Y-53735385D01*
X120742344Y-53828472D01*
X120739095Y-53831722D01*
X120682611Y-53864334D01*
X120617389Y-53864334D01*
X120560905Y-53831722D01*
X120557655Y-53828472D01*
X120550700Y-53824182D01*
X120406738Y-53735385D01*
X120238426Y-53679613D01*
X120134545Y-53669000D01*
X120134540Y-53669000D01*
X119133459Y-53669000D01*
X119029573Y-53679613D01*
X118917427Y-53716774D01*
X118861262Y-53735385D01*
X118710348Y-53828470D01*
X118710346Y-53828471D01*
X118710347Y-53828471D01*
X118656180Y-53882637D01*
X118608700Y-53912470D01*
X118552979Y-53918748D01*
X118500051Y-53900228D01*
X118478769Y-53886856D01*
X118463015Y-53876957D01*
X118463014Y-53876956D01*
X118463013Y-53876956D01*
X118291049Y-53816783D01*
X118170349Y-53803183D01*
X118110000Y-53796384D01*
X118109999Y-53796384D01*
X117928950Y-53816783D01*
X117756985Y-53876956D01*
X117602717Y-53973889D01*
X117473889Y-54102717D01*
X117376956Y-54256985D01*
X117316783Y-54428950D01*
X117298753Y-54588972D01*
X117296384Y-54610000D01*
X117303183Y-54670349D01*
X117316783Y-54791049D01*
X117376956Y-54963014D01*
X117473889Y-55117282D01*
X117602717Y-55246110D01*
X117756985Y-55343043D01*
X117893438Y-55390790D01*
X117928953Y-55403217D01*
X118110000Y-55423616D01*
X118291047Y-55403217D01*
X118425507Y-55356167D01*
X118481573Y-55349929D01*
X118534745Y-55368783D01*
X118574360Y-55408950D01*
X118584972Y-55426155D01*
X118672222Y-55513405D01*
X118704834Y-55569889D01*
X118704834Y-55635111D01*
X118672222Y-55691595D01*
X118584972Y-55778844D01*
X118564128Y-55812638D01*
X118491885Y-55929762D01*
X118436113Y-56098074D01*
X118429962Y-56158287D01*
X118425500Y-56201959D01*
X118425500Y-56828040D01*
X118433795Y-56909238D01*
X118436113Y-56931926D01*
X118491885Y-57100238D01*
X118565916Y-57220261D01*
X118584972Y-57251155D01*
X118710347Y-57376530D01*
X118711647Y-57377332D01*
X118755524Y-57423166D01*
X118771500Y-57484572D01*
X118771500Y-57880050D01*
X118761909Y-57928269D01*
X118734596Y-57969143D01*
X118705657Y-57998083D01*
X118705547Y-57998193D01*
X118620854Y-58141400D01*
X118574438Y-58301166D01*
X118574438Y-58301169D01*
X118571500Y-58338498D01*
X118571500Y-60221502D01*
X118573229Y-60243469D01*
X118574438Y-60258833D01*
X118614433Y-60396496D01*
X118620855Y-60418601D01*
X118705547Y-60561807D01*
X118734596Y-60590856D01*
X118761909Y-60631731D01*
X118771500Y-60679950D01*
X118771500Y-64142417D01*
X118761909Y-64190635D01*
X118749607Y-64209045D01*
X118751442Y-64210198D01*
X118646956Y-64376485D01*
X118586783Y-64548450D01*
X118566384Y-64729499D01*
X118566384Y-64729500D01*
X118569764Y-64759500D01*
X118586783Y-64910549D01*
X118646956Y-65082514D01*
X118743889Y-65236782D01*
X118872717Y-65365610D01*
X119026985Y-65462543D01*
X119174615Y-65514201D01*
X119198953Y-65522717D01*
X119380000Y-65543116D01*
X119561047Y-65522717D01*
X119733015Y-65462543D01*
X119887281Y-65365611D01*
X120016111Y-65236781D01*
X120068747Y-65153011D01*
X120107071Y-65092020D01*
X120154882Y-65047657D01*
X120218470Y-65033144D01*
X120280791Y-65052367D01*
X120296985Y-65062543D01*
X120468953Y-65122717D01*
X120650000Y-65143116D01*
X120831047Y-65122717D01*
X121003015Y-65062543D01*
X121157281Y-64965611D01*
X121286111Y-64836781D01*
X121344965Y-64743116D01*
X121377071Y-64692020D01*
X121424882Y-64647657D01*
X121488470Y-64633144D01*
X121550791Y-64652367D01*
X121566985Y-64662543D01*
X121738953Y-64722717D01*
X121920000Y-64743116D01*
X122101047Y-64722717D01*
X122273015Y-64662543D01*
X122382014Y-64594053D01*
X122446223Y-64574773D01*
X122511232Y-64591154D01*
X122558637Y-64638559D01*
X122575018Y-64703568D01*
X122555737Y-64767777D01*
X122456956Y-64924985D01*
X122396783Y-65096950D01*
X122391200Y-65146500D01*
X122376384Y-65278000D01*
X122390774Y-65405719D01*
X122395529Y-65447916D01*
X122386730Y-65510241D01*
X122348881Y-65560534D01*
X122291427Y-65586243D01*
X122228706Y-65580952D01*
X122101049Y-65536283D01*
X121920000Y-65515884D01*
X121738950Y-65536283D01*
X121566985Y-65596456D01*
X121412717Y-65693389D01*
X121283889Y-65822217D01*
X121186956Y-65976485D01*
X121126783Y-66148450D01*
X121106384Y-66329500D01*
X121126783Y-66510549D01*
X121186956Y-66682514D01*
X121291442Y-66848802D01*
X121289607Y-66849954D01*
X121301909Y-66868365D01*
X121311500Y-66916583D01*
X121311500Y-67021561D01*
X121294454Y-67084846D01*
X121247928Y-67131009D01*
X121184510Y-67147557D01*
X121121361Y-67130014D01*
X121063602Y-67095855D01*
X120903833Y-67049438D01*
X120893165Y-67048598D01*
X120866502Y-67046500D01*
X120433498Y-67046500D01*
X120410167Y-67048336D01*
X120396166Y-67049438D01*
X120236400Y-67095854D01*
X120178639Y-67130014D01*
X120094139Y-67179988D01*
X120079492Y-67188650D01*
X120077375Y-67185071D01*
X120047611Y-67202256D01*
X119982389Y-67202256D01*
X119952624Y-67185071D01*
X119950508Y-67188650D01*
X119935861Y-67179988D01*
X119793601Y-67095855D01*
X119793600Y-67095854D01*
X119793599Y-67095854D01*
X119633833Y-67049438D01*
X119623165Y-67048598D01*
X119596502Y-67046500D01*
X119163498Y-67046500D01*
X119140167Y-67048336D01*
X119126166Y-67049438D01*
X118966400Y-67095854D01*
X118823189Y-67180549D01*
X118705549Y-67298189D01*
X118620854Y-67441400D01*
X118574438Y-67601166D01*
X118574438Y-67601169D01*
X118571500Y-67638498D01*
X118571500Y-69521502D01*
X118573071Y-69541462D01*
X118574438Y-69558833D01*
X118611042Y-69684825D01*
X118620855Y-69718601D01*
X118691013Y-69837232D01*
X118705549Y-69861810D01*
X118823189Y-69979450D01*
X118823191Y-69979451D01*
X118823193Y-69979453D01*
X118966399Y-70064145D01*
X119126169Y-70110562D01*
X119163498Y-70113500D01*
X119596497Y-70113500D01*
X119596502Y-70113500D01*
X119633831Y-70110562D01*
X119793601Y-70064145D01*
X119936807Y-69979453D01*
X119936807Y-69979452D01*
X119950508Y-69971350D01*
X119952632Y-69974942D01*
X119982331Y-69957759D01*
X120047669Y-69957759D01*
X120077367Y-69974942D01*
X120079492Y-69971350D01*
X120093192Y-69979452D01*
X120093193Y-69979453D01*
X120236399Y-70064145D01*
X120396169Y-70110562D01*
X120433498Y-70113500D01*
X120866497Y-70113500D01*
X120866502Y-70113500D01*
X120903831Y-70110562D01*
X121063601Y-70064145D01*
X121206807Y-69979453D01*
X121206807Y-69979452D01*
X121220508Y-69971350D01*
X121222632Y-69974942D01*
X121252331Y-69957759D01*
X121317669Y-69957759D01*
X121347367Y-69974942D01*
X121349492Y-69971350D01*
X121363192Y-69979452D01*
X121363193Y-69979453D01*
X121506399Y-70064145D01*
X121666169Y-70110562D01*
X121703498Y-70113500D01*
X122136497Y-70113500D01*
X122136502Y-70113500D01*
X122173831Y-70110562D01*
X122333601Y-70064145D01*
X122476807Y-69979453D01*
X122476807Y-69979452D01*
X122490508Y-69971350D01*
X122492632Y-69974942D01*
X122522331Y-69957759D01*
X122587669Y-69957759D01*
X122617367Y-69974942D01*
X122619492Y-69971350D01*
X122633192Y-69979452D01*
X122633193Y-69979453D01*
X122776399Y-70064145D01*
X122936169Y-70110562D01*
X122973498Y-70113500D01*
X123406497Y-70113500D01*
X123406502Y-70113500D01*
X123443831Y-70110562D01*
X123603601Y-70064145D01*
X123746807Y-69979453D01*
X123746807Y-69979452D01*
X123760508Y-69971350D01*
X123762632Y-69974942D01*
X123792331Y-69957759D01*
X123857669Y-69957759D01*
X123887367Y-69974942D01*
X123889492Y-69971350D01*
X123903192Y-69979452D01*
X123903193Y-69979453D01*
X124046399Y-70064145D01*
X124206169Y-70110562D01*
X124243498Y-70113500D01*
X124676497Y-70113500D01*
X124676502Y-70113500D01*
X124713831Y-70110562D01*
X124873601Y-70064145D01*
X125016807Y-69979453D01*
X125016807Y-69979452D01*
X125030508Y-69971350D01*
X125032632Y-69974942D01*
X125062331Y-69957759D01*
X125127669Y-69957759D01*
X125157367Y-69974942D01*
X125159492Y-69971350D01*
X125173192Y-69979452D01*
X125173193Y-69979453D01*
X125316399Y-70064145D01*
X125476169Y-70110562D01*
X125513498Y-70113500D01*
X125946497Y-70113500D01*
X125946502Y-70113500D01*
X125983831Y-70110562D01*
X126143601Y-70064145D01*
X126286807Y-69979453D01*
X126286807Y-69979452D01*
X126300508Y-69971350D01*
X126302632Y-69974942D01*
X126332331Y-69957759D01*
X126397669Y-69957759D01*
X126427367Y-69974942D01*
X126429492Y-69971350D01*
X126443192Y-69979452D01*
X126443193Y-69979453D01*
X126586399Y-70064145D01*
X126746169Y-70110562D01*
X126783498Y-70113500D01*
X127216497Y-70113500D01*
X127216502Y-70113500D01*
X127253831Y-70110562D01*
X127413601Y-70064145D01*
X127556807Y-69979453D01*
X127556807Y-69979452D01*
X127570508Y-69971350D01*
X127572632Y-69974942D01*
X127602331Y-69957759D01*
X127667669Y-69957759D01*
X127697367Y-69974942D01*
X127699492Y-69971350D01*
X127713192Y-69979452D01*
X127713193Y-69979453D01*
X127856399Y-70064145D01*
X128016169Y-70110562D01*
X128053498Y-70113500D01*
X128486497Y-70113500D01*
X128486502Y-70113500D01*
X128523831Y-70110562D01*
X128683601Y-70064145D01*
X128826807Y-69979453D01*
X128826807Y-69979452D01*
X128840508Y-69971350D01*
X128842632Y-69974942D01*
X128872331Y-69957759D01*
X128937669Y-69957759D01*
X128967367Y-69974942D01*
X128969492Y-69971350D01*
X128983192Y-69979452D01*
X128983193Y-69979453D01*
X129126399Y-70064145D01*
X129286169Y-70110562D01*
X129323498Y-70113500D01*
X129756497Y-70113500D01*
X129756502Y-70113500D01*
X129793831Y-70110562D01*
X129835741Y-70098385D01*
X129896995Y-70096115D01*
X129952073Y-70123018D01*
X129987939Y-70172727D01*
X129993888Y-70216995D01*
X129994795Y-70216893D01*
X130016783Y-70412049D01*
X130076956Y-70584014D01*
X130173889Y-70738282D01*
X130302717Y-70867110D01*
X130302719Y-70867111D01*
X130456985Y-70964043D01*
X130628953Y-71024217D01*
X130810000Y-71044616D01*
X130991047Y-71024217D01*
X131163015Y-70964043D01*
X131317281Y-70867111D01*
X131446111Y-70738281D01*
X131543043Y-70584015D01*
X131603217Y-70412047D01*
X131623616Y-70231000D01*
X131623615Y-70230997D01*
X131625205Y-70216893D01*
X131626111Y-70216995D01*
X131632057Y-70172735D01*
X131667921Y-70123021D01*
X131723001Y-70096116D01*
X131784254Y-70098384D01*
X131826169Y-70110562D01*
X131863498Y-70113500D01*
X132296497Y-70113500D01*
X132296502Y-70113500D01*
X132333831Y-70110562D01*
X132493601Y-70064145D01*
X132636807Y-69979453D01*
X132636807Y-69979452D01*
X132650508Y-69971350D01*
X132652632Y-69974942D01*
X132682331Y-69957759D01*
X132747669Y-69957759D01*
X132777367Y-69974942D01*
X132779492Y-69971350D01*
X132793192Y-69979452D01*
X132793193Y-69979453D01*
X132936399Y-70064145D01*
X133096169Y-70110562D01*
X133133498Y-70113500D01*
X133566497Y-70113500D01*
X133566502Y-70113500D01*
X133603831Y-70110562D01*
X133763601Y-70064145D01*
X133906807Y-69979453D01*
X133906807Y-69979452D01*
X133920508Y-69971350D01*
X133922632Y-69974942D01*
X133952331Y-69957759D01*
X134017669Y-69957759D01*
X134047367Y-69974942D01*
X134049492Y-69971350D01*
X134063192Y-69979452D01*
X134063193Y-69979453D01*
X134206399Y-70064145D01*
X134366169Y-70110562D01*
X134403498Y-70113500D01*
X134836497Y-70113500D01*
X134836502Y-70113500D01*
X134873831Y-70110562D01*
X135033601Y-70064145D01*
X135176807Y-69979453D01*
X135176807Y-69979452D01*
X135190508Y-69971350D01*
X135192632Y-69974942D01*
X135222331Y-69957759D01*
X135287669Y-69957759D01*
X135317367Y-69974942D01*
X135319492Y-69971350D01*
X135333192Y-69979452D01*
X135333193Y-69979453D01*
X135476399Y-70064145D01*
X135636169Y-70110562D01*
X135673498Y-70113500D01*
X136106497Y-70113500D01*
X136106502Y-70113500D01*
X136143831Y-70110562D01*
X136303601Y-70064145D01*
X136446807Y-69979453D01*
X136564453Y-69861807D01*
X136649145Y-69718601D01*
X136695562Y-69558831D01*
X136698500Y-69521502D01*
X136698500Y-67638498D01*
X136695562Y-67601169D01*
X136649145Y-67441399D01*
X136564453Y-67298193D01*
X136564451Y-67298191D01*
X136564450Y-67298189D01*
X136446810Y-67180549D01*
X136445861Y-67179988D01*
X136303601Y-67095855D01*
X136303600Y-67095854D01*
X136303599Y-67095854D01*
X136143833Y-67049438D01*
X136133165Y-67048598D01*
X136106502Y-67046500D01*
X135673498Y-67046500D01*
X135650167Y-67048336D01*
X135636166Y-67049438D01*
X135476400Y-67095854D01*
X135418639Y-67130014D01*
X135334139Y-67179988D01*
X135319492Y-67188650D01*
X135317375Y-67185071D01*
X135287611Y-67202256D01*
X135222389Y-67202256D01*
X135192624Y-67185071D01*
X135190508Y-67188650D01*
X135175861Y-67179988D01*
X135033601Y-67095855D01*
X135033600Y-67095854D01*
X135033599Y-67095854D01*
X134873833Y-67049438D01*
X134863165Y-67048598D01*
X134836502Y-67046500D01*
X134403498Y-67046500D01*
X134380167Y-67048336D01*
X134366166Y-67049438D01*
X134206400Y-67095854D01*
X134148639Y-67130014D01*
X134064139Y-67179988D01*
X134049492Y-67188650D01*
X134047375Y-67185071D01*
X134017611Y-67202256D01*
X133952389Y-67202256D01*
X133922624Y-67185071D01*
X133920508Y-67188650D01*
X133905861Y-67179988D01*
X133763601Y-67095855D01*
X133763600Y-67095854D01*
X133763599Y-67095854D01*
X133603833Y-67049438D01*
X133593165Y-67048598D01*
X133566502Y-67046500D01*
X133133498Y-67046500D01*
X133112759Y-67048132D01*
X133096165Y-67049438D01*
X133054256Y-67061614D01*
X132992999Y-67063883D01*
X132937920Y-67036976D01*
X132902056Y-66987263D01*
X132896111Y-66943004D01*
X132895205Y-66943107D01*
X132893616Y-66929000D01*
X132873217Y-66747953D01*
X132813043Y-66575985D01*
X132771927Y-66510549D01*
X132716110Y-66421717D01*
X132587282Y-66292889D01*
X132433014Y-66195956D01*
X132261049Y-66135783D01*
X132080000Y-66115384D01*
X131898950Y-66135783D01*
X131726985Y-66195956D01*
X131572717Y-66292889D01*
X131443889Y-66421717D01*
X131346956Y-66575985D01*
X131286783Y-66747950D01*
X131283131Y-66780363D01*
X131266925Y-66924205D01*
X131264795Y-66943107D01*
X131263888Y-66943004D01*
X131257940Y-66987270D01*
X131222075Y-67036980D01*
X131166997Y-67063884D01*
X131105742Y-67061614D01*
X131063833Y-67049438D01*
X131053165Y-67048598D01*
X131026502Y-67046500D01*
X130593498Y-67046500D01*
X130570167Y-67048336D01*
X130556166Y-67049438D01*
X130396400Y-67095854D01*
X130338639Y-67130014D01*
X130254139Y-67179988D01*
X130239492Y-67188650D01*
X130237375Y-67185071D01*
X130207611Y-67202256D01*
X130142389Y-67202256D01*
X130112624Y-67185071D01*
X130110508Y-67188650D01*
X130095861Y-67179988D01*
X129953601Y-67095855D01*
X129953600Y-67095854D01*
X129953599Y-67095854D01*
X129793833Y-67049438D01*
X129783165Y-67048598D01*
X129756502Y-67046500D01*
X129323498Y-67046500D01*
X129302759Y-67048132D01*
X129286165Y-67049438D01*
X129244256Y-67061614D01*
X129182999Y-67063883D01*
X129127920Y-67036976D01*
X129092056Y-66987263D01*
X129086111Y-66943004D01*
X129085205Y-66943107D01*
X129083616Y-66929000D01*
X129063217Y-66747953D01*
X129003043Y-66575985D01*
X128961927Y-66510549D01*
X128906110Y-66421717D01*
X128777282Y-66292889D01*
X128623014Y-66195956D01*
X128451049Y-66135783D01*
X128270000Y-66115384D01*
X128088950Y-66135783D01*
X127916985Y-66195956D01*
X127762717Y-66292889D01*
X127724095Y-66331512D01*
X127667611Y-66364124D01*
X127602389Y-66364124D01*
X127545905Y-66331512D01*
X127507282Y-66292889D01*
X127353014Y-66195956D01*
X127181049Y-66135783D01*
X127000000Y-66115384D01*
X126818950Y-66135783D01*
X126646985Y-66195956D01*
X126492717Y-66292889D01*
X126454095Y-66331512D01*
X126397611Y-66364124D01*
X126332389Y-66364124D01*
X126275905Y-66331512D01*
X126237282Y-66292889D01*
X126083014Y-66195956D01*
X125911049Y-66135783D01*
X125730000Y-66115384D01*
X125548950Y-66135783D01*
X125376985Y-66195956D01*
X125252144Y-66274400D01*
X125188642Y-66293663D01*
X125124159Y-66277991D01*
X125076583Y-66231730D01*
X125059108Y-66167713D01*
X125059108Y-63717083D01*
X125068699Y-63668865D01*
X125081000Y-63650454D01*
X125079166Y-63649302D01*
X125140822Y-63551177D01*
X125183651Y-63483015D01*
X125243825Y-63311047D01*
X125255142Y-63210597D01*
X125273661Y-63157674D01*
X125313313Y-63118023D01*
X125366242Y-63099502D01*
X125421960Y-63105780D01*
X125548953Y-63150217D01*
X125730000Y-63170616D01*
X125911047Y-63150217D01*
X126083015Y-63090043D01*
X126237281Y-62993111D01*
X126366111Y-62864281D01*
X126463043Y-62710015D01*
X126523217Y-62538047D01*
X126543616Y-62357000D01*
X126523217Y-62175953D01*
X126480752Y-62054596D01*
X126463043Y-62003985D01*
X126358558Y-61837698D01*
X126360392Y-61836545D01*
X126348091Y-61818135D01*
X126338500Y-61769917D01*
X126338500Y-60838439D01*
X126355546Y-60775154D01*
X126402072Y-60728991D01*
X126465490Y-60712443D01*
X126528639Y-60729986D01*
X126579473Y-60760049D01*
X126586399Y-60764145D01*
X126746169Y-60810562D01*
X126783498Y-60813500D01*
X127216497Y-60813500D01*
X127216502Y-60813500D01*
X127253831Y-60810562D01*
X127413601Y-60764145D01*
X127556807Y-60679453D01*
X127556807Y-60679452D01*
X127570508Y-60671350D01*
X127572632Y-60674942D01*
X127602331Y-60657759D01*
X127667669Y-60657759D01*
X127697367Y-60674942D01*
X127699492Y-60671350D01*
X127713192Y-60679452D01*
X127713193Y-60679453D01*
X127856399Y-60764145D01*
X128016169Y-60810562D01*
X128053498Y-60813500D01*
X128486497Y-60813500D01*
X128486502Y-60813500D01*
X128523831Y-60810562D01*
X128683601Y-60764145D01*
X128826807Y-60679453D01*
X128826807Y-60679452D01*
X128840508Y-60671350D01*
X128842561Y-60674821D01*
X128872684Y-60657406D01*
X128937935Y-60657383D01*
X128967674Y-60674548D01*
X128969801Y-60670952D01*
X129126600Y-60763681D01*
X129286000Y-60809992D01*
X129286000Y-59152000D01*
X129302881Y-59089000D01*
X129349000Y-59042881D01*
X129412000Y-59026000D01*
X129668000Y-59026000D01*
X129731000Y-59042881D01*
X129777119Y-59089000D01*
X129794000Y-59152000D01*
X129794000Y-60809992D01*
X129839180Y-60796866D01*
X129900437Y-60794597D01*
X129955516Y-60821502D01*
X129991381Y-60871215D01*
X129999542Y-60931968D01*
X129996384Y-60960000D01*
X129997844Y-60972960D01*
X130016783Y-61141049D01*
X130076956Y-61313014D01*
X130173889Y-61467282D01*
X130302717Y-61596110D01*
X130367793Y-61637000D01*
X130456985Y-61693043D01*
X130628953Y-61753217D01*
X130810000Y-61773616D01*
X130991047Y-61753217D01*
X131163015Y-61693043D01*
X131317281Y-61596111D01*
X131355906Y-61557485D01*
X131412388Y-61524875D01*
X131477612Y-61524875D01*
X131534093Y-61557485D01*
X131555398Y-61578790D01*
X131572720Y-61596112D01*
X131637793Y-61637000D01*
X131726985Y-61693043D01*
X131898953Y-61753217D01*
X132080000Y-61773616D01*
X132261047Y-61753217D01*
X132433015Y-61693043D01*
X132587281Y-61596111D01*
X132625906Y-61557485D01*
X132682388Y-61524875D01*
X132747612Y-61524875D01*
X132804093Y-61557485D01*
X132825398Y-61578790D01*
X132842720Y-61596112D01*
X132907793Y-61637000D01*
X132996985Y-61693043D01*
X133168953Y-61753217D01*
X133350000Y-61773616D01*
X133531047Y-61753217D01*
X133703015Y-61693043D01*
X133818465Y-61620500D01*
X133881967Y-61601239D01*
X133946449Y-61616911D01*
X133994025Y-61663172D01*
X134011500Y-61727189D01*
X134011500Y-62054864D01*
X134010422Y-62071307D01*
X134009024Y-62081928D01*
X134006250Y-62103000D01*
X134010422Y-62134690D01*
X134010422Y-62134697D01*
X134022010Y-62222719D01*
X134022010Y-62222720D01*
X134027161Y-62261850D01*
X134088476Y-62409878D01*
X134161521Y-62505072D01*
X134161524Y-62505074D01*
X134186010Y-62536984D01*
X134186011Y-62536985D01*
X134186013Y-62536987D01*
X134211379Y-62556451D01*
X134223769Y-62567318D01*
X141648681Y-69992230D01*
X141659547Y-70004619D01*
X141679013Y-70029987D01*
X141704378Y-70049450D01*
X141704391Y-70049462D01*
X141784019Y-70110562D01*
X141806124Y-70127524D01*
X141867437Y-70152920D01*
X141954150Y-70188838D01*
X142073115Y-70204500D01*
X142081296Y-70205577D01*
X142081310Y-70205578D01*
X142113000Y-70209750D01*
X142144692Y-70205577D01*
X142161136Y-70204500D01*
X146128864Y-70204500D01*
X146145307Y-70205577D01*
X146177000Y-70209750D01*
X146208693Y-70205577D01*
X146208703Y-70205577D01*
X146216884Y-70204500D01*
X146216885Y-70204500D01*
X146316456Y-70191391D01*
X146335851Y-70188838D01*
X146483876Y-70127524D01*
X146579072Y-70054477D01*
X146579072Y-70054476D01*
X146595629Y-70041772D01*
X146595632Y-70041769D01*
X146602327Y-70036632D01*
X146610987Y-70029987D01*
X146630454Y-70004616D01*
X146641306Y-69992241D01*
X147110900Y-69522648D01*
X147145613Y-69498086D01*
X147186520Y-69486469D01*
X147228201Y-69481989D01*
X147228202Y-69481988D01*
X147230532Y-69481738D01*
X147257469Y-69481738D01*
X147259797Y-69481988D01*
X147259799Y-69481989D01*
X147320362Y-69488500D01*
X147967638Y-69488500D01*
X148028201Y-69481989D01*
X148028202Y-69481988D01*
X148030531Y-69481738D01*
X148057469Y-69481738D01*
X148059797Y-69481988D01*
X148059799Y-69481989D01*
X148120362Y-69488500D01*
X148767638Y-69488500D01*
X148828201Y-69481989D01*
X148828202Y-69481988D01*
X148830531Y-69481738D01*
X148857469Y-69481738D01*
X148859797Y-69481988D01*
X148859799Y-69481989D01*
X148920362Y-69488500D01*
X149567638Y-69488500D01*
X149628201Y-69481989D01*
X149628202Y-69481988D01*
X149630531Y-69481738D01*
X149657469Y-69481738D01*
X149659797Y-69481988D01*
X149659799Y-69481989D01*
X149720362Y-69488500D01*
X150367638Y-69488500D01*
X150428201Y-69481989D01*
X150428202Y-69481988D01*
X150430531Y-69481738D01*
X150457469Y-69481738D01*
X150459797Y-69481988D01*
X150459799Y-69481989D01*
X150520362Y-69488500D01*
X151167638Y-69488500D01*
X151228201Y-69481989D01*
X151228202Y-69481988D01*
X151230531Y-69481738D01*
X151257469Y-69481738D01*
X151259797Y-69481988D01*
X151259799Y-69481989D01*
X151320362Y-69488500D01*
X151967638Y-69488500D01*
X152028201Y-69481989D01*
X152165204Y-69430889D01*
X152282261Y-69343261D01*
X152369889Y-69226204D01*
X152420989Y-69089201D01*
X152427500Y-69028638D01*
X152427500Y-68326000D01*
X160336000Y-68326000D01*
X160336000Y-68385003D01*
X160346606Y-68488828D01*
X160402340Y-68657022D01*
X160495367Y-68807842D01*
X160620657Y-68933132D01*
X160771477Y-69026159D01*
X160939671Y-69081893D01*
X161043497Y-69092500D01*
X161290000Y-69092500D01*
X161290000Y-68326000D01*
X160336000Y-68326000D01*
X152427500Y-68326000D01*
X152427500Y-67639500D01*
X152444381Y-67576500D01*
X152490500Y-67530381D01*
X152553500Y-67513500D01*
X153942638Y-67513500D01*
X154003201Y-67506989D01*
X154140204Y-67455889D01*
X154257261Y-67368261D01*
X154257260Y-67368261D01*
X154263445Y-67363632D01*
X154299163Y-67344948D01*
X154338954Y-67338500D01*
X156163864Y-67338500D01*
X156180307Y-67339577D01*
X156212000Y-67343750D01*
X156243693Y-67339577D01*
X156243703Y-67339577D01*
X156251884Y-67338500D01*
X156251885Y-67338500D01*
X156351456Y-67325391D01*
X156370851Y-67322838D01*
X156518876Y-67261524D01*
X156582716Y-67212537D01*
X156618918Y-67193187D01*
X156659420Y-67186500D01*
X157462638Y-67186500D01*
X157523201Y-67179989D01*
X157660204Y-67128889D01*
X157777261Y-67041261D01*
X157864889Y-66924204D01*
X157915989Y-66787201D01*
X157922500Y-66726638D01*
X157922500Y-66482513D01*
X157935493Y-66426786D01*
X157971793Y-66382553D01*
X157980627Y-66375774D01*
X157980632Y-66375769D01*
X157995808Y-66364124D01*
X157995987Y-66363987D01*
X158015457Y-66338611D01*
X158026309Y-66326238D01*
X158110235Y-66242312D01*
X158122619Y-66231452D01*
X158127640Y-66227599D01*
X158147987Y-66211987D01*
X158162797Y-66192686D01*
X158172475Y-66180072D01*
X158172477Y-66180072D01*
X158241859Y-66089650D01*
X158249624Y-66080473D01*
X158252099Y-66077815D01*
X158255623Y-66071712D01*
X158261581Y-66063947D01*
X158267371Y-66032131D01*
X158278978Y-66004111D01*
X158292859Y-65970598D01*
X158306838Y-65936851D01*
X158323578Y-65809697D01*
X158323578Y-65809690D01*
X158323727Y-65808553D01*
X158327750Y-65778000D01*
X158323577Y-65746307D01*
X158322500Y-65729864D01*
X158322500Y-64626136D01*
X158323578Y-64609690D01*
X158324607Y-64601875D01*
X158327750Y-64578000D01*
X158323578Y-64546309D01*
X158323578Y-64546303D01*
X158306838Y-64419150D01*
X158306538Y-64418427D01*
X158306517Y-64418375D01*
X158245524Y-64271123D01*
X158167457Y-64169385D01*
X158167443Y-64169369D01*
X158162334Y-64162711D01*
X158152741Y-64150208D01*
X158147987Y-64144012D01*
X158122618Y-64124546D01*
X158110228Y-64113679D01*
X157959405Y-63962856D01*
X157932091Y-63921979D01*
X157922500Y-63873761D01*
X157922500Y-63829362D01*
X157920289Y-63808796D01*
X157915989Y-63768799D01*
X157864889Y-63631796D01*
X157861837Y-63627719D01*
X157777261Y-63514738D01*
X157660205Y-63427111D01*
X157573061Y-63394608D01*
X157523201Y-63376011D01*
X157462638Y-63369500D01*
X155465362Y-63369500D01*
X155404799Y-63376011D01*
X155267794Y-63427111D01*
X155150738Y-63514738D01*
X155063111Y-63631794D01*
X155012011Y-63768799D01*
X155005500Y-63829362D01*
X155005500Y-64326640D01*
X155005948Y-64330809D01*
X154995982Y-64395054D01*
X154955316Y-64445778D01*
X154894777Y-64469479D01*
X154758950Y-64484783D01*
X154573585Y-64549646D01*
X154572508Y-64546570D01*
X154532027Y-64558848D01*
X154467547Y-64543173D01*
X154419973Y-64496913D01*
X154402500Y-64432897D01*
X154402500Y-64006363D01*
X154399870Y-63981903D01*
X154395989Y-63945799D01*
X154395987Y-63945795D01*
X154395485Y-63941119D01*
X154395485Y-63914178D01*
X154402000Y-63853588D01*
X154402000Y-63784000D01*
X154389398Y-63784000D01*
X154332998Y-63770672D01*
X154288529Y-63733508D01*
X154257261Y-63691739D01*
X154175947Y-63630867D01*
X154138784Y-63586398D01*
X154125457Y-63529998D01*
X154138785Y-63473598D01*
X154175947Y-63429131D01*
X154257261Y-63368261D01*
X154288528Y-63326492D01*
X154332998Y-63289328D01*
X154389398Y-63276000D01*
X154402000Y-63276000D01*
X154402000Y-63206412D01*
X154395485Y-63145822D01*
X154395485Y-63118881D01*
X154395987Y-63114204D01*
X154395989Y-63114201D01*
X154402500Y-63053638D01*
X154402500Y-62647470D01*
X154416737Y-62589290D01*
X154456229Y-62544257D01*
X154494587Y-62529340D01*
X154494524Y-62529186D01*
X154509848Y-62522838D01*
X154509851Y-62522838D01*
X154657876Y-62461524D01*
X154753072Y-62388477D01*
X154753072Y-62388476D01*
X154769629Y-62375772D01*
X154769632Y-62375769D01*
X154784984Y-62363989D01*
X154784983Y-62363989D01*
X154784987Y-62363987D01*
X154804464Y-62338603D01*
X154815302Y-62326246D01*
X154966147Y-62175401D01*
X155007021Y-62148091D01*
X155055239Y-62138500D01*
X161549261Y-62138500D01*
X161597479Y-62148091D01*
X161638356Y-62175405D01*
X161714595Y-62251644D01*
X161741909Y-62292521D01*
X161751500Y-62340739D01*
X161751500Y-62739500D01*
X161734619Y-62802500D01*
X161688500Y-62848619D01*
X161625500Y-62865500D01*
X161393498Y-62865500D01*
X161370167Y-62867336D01*
X161356166Y-62868438D01*
X161196400Y-62914854D01*
X161053189Y-62999549D01*
X160935546Y-63117192D01*
X160846322Y-63268062D01*
X160814498Y-63303943D01*
X160771572Y-63325332D01*
X160723763Y-63329131D01*
X160655001Y-63321384D01*
X160655000Y-63321384D01*
X160609738Y-63326483D01*
X160473950Y-63341783D01*
X160301985Y-63401956D01*
X160147717Y-63498889D01*
X160018889Y-63627717D01*
X159921956Y-63781985D01*
X159861783Y-63953950D01*
X159841384Y-64135000D01*
X159861783Y-64316049D01*
X159921956Y-64488014D01*
X160018889Y-64642282D01*
X160147717Y-64771110D01*
X160301985Y-64868043D01*
X160469577Y-64926686D01*
X160473953Y-64928217D01*
X160655000Y-64948616D01*
X160749827Y-64937931D01*
X160797630Y-64941730D01*
X160840557Y-64963119D01*
X160872380Y-64998997D01*
X160891406Y-65031168D01*
X160921306Y-65081727D01*
X160938366Y-65134812D01*
X160930847Y-65190061D01*
X160900221Y-65236655D01*
X160852485Y-65265470D01*
X160771265Y-65292383D01*
X160620344Y-65385472D01*
X160494972Y-65510844D01*
X160470465Y-65550577D01*
X160401885Y-65661762D01*
X160346113Y-65830074D01*
X160335700Y-65932006D01*
X160335500Y-65933959D01*
X160335500Y-66560040D01*
X160344008Y-66643321D01*
X160346113Y-66663926D01*
X160401885Y-66832238D01*
X160470270Y-66943107D01*
X160494972Y-66983155D01*
X160582576Y-67070759D01*
X160615188Y-67127243D01*
X160615188Y-67192465D01*
X160582576Y-67248949D01*
X160495367Y-67336157D01*
X160402340Y-67486977D01*
X160346606Y-67655171D01*
X160336000Y-67758997D01*
X160336000Y-67818000D01*
X161672000Y-67818000D01*
X161735000Y-67834881D01*
X161781119Y-67881000D01*
X161798000Y-67944000D01*
X161798000Y-69092500D01*
X162044503Y-69092500D01*
X162148328Y-69081893D01*
X162316522Y-69026159D01*
X162467342Y-68933132D01*
X162534051Y-68866424D01*
X162590535Y-68833812D01*
X162655757Y-68833812D01*
X162712241Y-68866424D01*
X162779344Y-68933527D01*
X162779346Y-68933528D01*
X162779348Y-68933530D01*
X162930262Y-69026615D01*
X163098574Y-69082387D01*
X163202455Y-69093000D01*
X163811260Y-69092999D01*
X163859478Y-69102590D01*
X163900355Y-69129904D01*
X164254681Y-69484230D01*
X164265547Y-69496619D01*
X164273649Y-69507178D01*
X164285013Y-69521987D01*
X164310378Y-69541450D01*
X164310391Y-69541462D01*
X164412122Y-69619523D01*
X164412123Y-69619523D01*
X164412124Y-69619524D01*
X164560149Y-69680838D01*
X164569845Y-69682114D01*
X164579542Y-69683391D01*
X164579543Y-69683391D01*
X164687296Y-69697577D01*
X164687307Y-69697577D01*
X164719000Y-69701750D01*
X164750692Y-69697577D01*
X164767136Y-69696500D01*
X167431181Y-69696500D01*
X167447624Y-69697577D01*
X167479317Y-69701750D01*
X167511010Y-69697577D01*
X167511020Y-69697577D01*
X167519201Y-69696500D01*
X167519202Y-69696500D01*
X167618773Y-69683391D01*
X167638168Y-69680838D01*
X167786193Y-69619524D01*
X167881389Y-69546477D01*
X167881389Y-69546476D01*
X167897946Y-69533772D01*
X167897949Y-69533769D01*
X167898863Y-69533067D01*
X167913304Y-69521987D01*
X167932771Y-69496616D01*
X167943622Y-69484242D01*
X168344208Y-69083656D01*
X168404243Y-69050150D01*
X168472934Y-69053150D01*
X168559673Y-69081893D01*
X168663497Y-69092500D01*
X168910000Y-69092500D01*
X168910000Y-68326000D01*
X169418000Y-68326000D01*
X169418000Y-69092500D01*
X169664503Y-69092500D01*
X169768328Y-69081893D01*
X169936522Y-69026159D01*
X170087342Y-68933132D01*
X170212632Y-68807842D01*
X170305659Y-68657022D01*
X170361393Y-68488828D01*
X170372000Y-68385003D01*
X170372000Y-68326000D01*
X169418000Y-68326000D01*
X168910000Y-68326000D01*
X168910000Y-67944000D01*
X168926881Y-67881000D01*
X168973000Y-67834881D01*
X169036000Y-67818000D01*
X170377168Y-67818000D01*
X170402473Y-67801091D01*
X170450691Y-67791500D01*
X171909864Y-67791500D01*
X171926307Y-67792577D01*
X171958000Y-67796750D01*
X171989693Y-67792577D01*
X171989703Y-67792577D01*
X171997884Y-67791500D01*
X171997885Y-67791500D01*
X172100975Y-67777928D01*
X172116851Y-67775838D01*
X172264876Y-67714524D01*
X172360072Y-67641477D01*
X172360072Y-67641476D01*
X172376629Y-67628772D01*
X172376632Y-67628769D01*
X172391984Y-67616989D01*
X172391983Y-67616989D01*
X172391987Y-67616987D01*
X172411464Y-67591603D01*
X172422301Y-67579247D01*
X173079788Y-66921759D01*
X173134677Y-66889589D01*
X173198293Y-66888339D01*
X173254408Y-66918333D01*
X173288712Y-66971921D01*
X173292458Y-67035439D01*
X173238567Y-67306368D01*
X173219270Y-67600799D01*
X173238567Y-67895231D01*
X173296132Y-68184628D01*
X173390974Y-68464025D01*
X173521482Y-68728667D01*
X173685409Y-68974001D01*
X173879957Y-69195842D01*
X173914580Y-69226205D01*
X174101799Y-69390391D01*
X174347135Y-69554319D01*
X174598535Y-69678296D01*
X174611774Y-69684825D01*
X174891171Y-69779667D01*
X174891174Y-69779668D01*
X175180568Y-69837232D01*
X175475000Y-69856530D01*
X175769432Y-69837232D01*
X176058826Y-69779668D01*
X176202638Y-69730850D01*
X176338225Y-69684825D01*
X176338226Y-69684824D01*
X176338230Y-69684823D01*
X176602865Y-69554319D01*
X176848201Y-69390391D01*
X177070042Y-69195842D01*
X177264591Y-68974001D01*
X177428519Y-68728665D01*
X177559023Y-68464030D01*
X177653868Y-68184626D01*
X177711432Y-67895232D01*
X177730730Y-67600800D01*
X177711432Y-67306368D01*
X177653868Y-67016974D01*
X177643785Y-66987270D01*
X177559025Y-66737574D01*
X177479338Y-66575985D01*
X177428519Y-66472935D01*
X177264591Y-66227599D01*
X177222911Y-66180072D01*
X177070042Y-66005757D01*
X176848201Y-65811209D01*
X176602867Y-65647282D01*
X176338225Y-65516774D01*
X176058828Y-65421932D01*
X175769431Y-65364367D01*
X175475000Y-65345070D01*
X175180568Y-65364367D01*
X174909639Y-65418258D01*
X174846121Y-65414512D01*
X174792533Y-65380208D01*
X174762539Y-65324093D01*
X174763789Y-65260477D01*
X174795961Y-65205586D01*
X175856142Y-64145405D01*
X175897020Y-64118091D01*
X175945238Y-64108500D01*
X177587314Y-64108500D01*
X177652679Y-64126781D01*
X177699077Y-64176320D01*
X177713044Y-64242741D01*
X177690527Y-64306771D01*
X177638298Y-64381360D01*
X177552381Y-64565611D01*
X177545825Y-64579670D01*
X177489193Y-64791023D01*
X177470123Y-65009000D01*
X177476555Y-65082515D01*
X177489193Y-65226977D01*
X177545824Y-65438329D01*
X177638298Y-65636639D01*
X177763804Y-65815880D01*
X177918519Y-65970595D01*
X177918522Y-65970597D01*
X177918523Y-65970598D01*
X178097761Y-66096102D01*
X178296070Y-66188575D01*
X178507423Y-66245207D01*
X178725400Y-66264277D01*
X178943377Y-66245207D01*
X179154730Y-66188575D01*
X179353039Y-66096102D01*
X179532277Y-65970598D01*
X179686998Y-65815877D01*
X179812502Y-65636639D01*
X179904975Y-65438330D01*
X179961607Y-65226977D01*
X179980677Y-65009000D01*
X179961607Y-64791023D01*
X179904975Y-64579670D01*
X179812502Y-64381362D01*
X179804301Y-64369650D01*
X179760273Y-64306771D01*
X179737756Y-64242741D01*
X179751723Y-64176320D01*
X179798121Y-64126781D01*
X179863486Y-64108500D01*
X200103857Y-64108500D01*
X200120304Y-64109577D01*
X200151998Y-64113751D01*
X200151998Y-64113750D01*
X200151999Y-64113751D01*
X200173248Y-64110953D01*
X200173256Y-64110953D01*
X200191881Y-64108500D01*
X200191883Y-64108501D01*
X200291454Y-64095392D01*
X200310849Y-64092839D01*
X200458874Y-64031525D01*
X200539855Y-63969385D01*
X200585985Y-63933988D01*
X200605452Y-63908616D01*
X200616310Y-63896235D01*
X206660871Y-57851677D01*
X206701749Y-57824363D01*
X206749967Y-57814772D01*
X213793736Y-57814772D01*
X213853705Y-57829958D01*
X213899217Y-57871855D01*
X213969655Y-57979668D01*
X213981687Y-57998084D01*
X214030089Y-58050663D01*
X214058443Y-58101047D01*
X214061310Y-58158791D01*
X214038086Y-58211736D01*
X213993661Y-58248736D01*
X213937388Y-58262000D01*
X211980332Y-58262000D01*
X211750169Y-58300407D01*
X211529474Y-58376171D01*
X211324255Y-58487230D01*
X211295681Y-58509469D01*
X211295680Y-58509470D01*
X211666448Y-58880238D01*
X211698249Y-58933833D01*
X211700474Y-58996113D01*
X211672581Y-59051841D01*
X211664623Y-59061025D01*
X211653341Y-59085727D01*
X211644732Y-59101493D01*
X211630046Y-59124347D01*
X211622393Y-59150407D01*
X211616114Y-59167242D01*
X211604834Y-59191941D01*
X211600968Y-59218829D01*
X211597148Y-59236388D01*
X211590480Y-59259099D01*
X211557076Y-59314273D01*
X211500745Y-59345689D01*
X211436249Y-59345114D01*
X211380488Y-59312698D01*
X210937796Y-58870006D01*
X210854456Y-58997571D01*
X210760723Y-59211260D01*
X210703444Y-59437451D01*
X210684174Y-59669999D01*
X210703444Y-59902548D01*
X210760723Y-60128739D01*
X210854458Y-60342434D01*
X210937795Y-60469991D01*
X210937796Y-60469991D01*
X211382940Y-60024849D01*
X211438701Y-59992434D01*
X211503197Y-59991859D01*
X211559528Y-60023275D01*
X211592932Y-60078449D01*
X211597149Y-60092812D01*
X211600969Y-60110374D01*
X211604834Y-60137254D01*
X211604834Y-60137255D01*
X211604835Y-60137257D01*
X211613145Y-60155454D01*
X211616115Y-60161956D01*
X211622395Y-60178795D01*
X211630047Y-60204853D01*
X211640102Y-60220500D01*
X211644727Y-60227696D01*
X211653340Y-60243469D01*
X211664622Y-60268172D01*
X211677592Y-60283140D01*
X211705488Y-60338869D01*
X211703263Y-60401151D01*
X211671462Y-60454747D01*
X211295680Y-60830528D01*
X211295681Y-60830529D01*
X211324254Y-60852768D01*
X211529474Y-60963828D01*
X211750169Y-61039592D01*
X211980332Y-61078000D01*
X215843000Y-61078000D01*
X215843000Y-60621300D01*
X215859881Y-60558300D01*
X215906000Y-60512181D01*
X215969000Y-60495300D01*
X216225000Y-60495300D01*
X216288000Y-60512181D01*
X216334119Y-60558300D01*
X216351000Y-60621300D01*
X216351000Y-61078000D01*
X220145589Y-61078000D01*
X220206093Y-61071494D01*
X220358794Y-61014540D01*
X220368110Y-61009666D01*
X220407885Y-61003211D01*
X230373469Y-61000660D01*
X230436481Y-61017530D01*
X230482614Y-61063651D01*
X230499500Y-61126660D01*
X230499500Y-62967143D01*
X230487896Y-63019959D01*
X230455222Y-63063047D01*
X230407495Y-63088470D01*
X230328511Y-63110600D01*
X230077486Y-63219636D01*
X229843656Y-63361830D01*
X229665234Y-63506989D01*
X229638885Y-63528426D01*
X229631361Y-63534547D01*
X229444560Y-63734560D01*
X229286741Y-63958140D01*
X229160831Y-64201134D01*
X229069182Y-64459008D01*
X229013500Y-64726966D01*
X228994825Y-65000000D01*
X229013500Y-65273033D01*
X229069182Y-65540991D01*
X229160831Y-65798865D01*
X229286741Y-66041859D01*
X229444560Y-66265439D01*
X229479286Y-66302621D01*
X229631362Y-66465454D01*
X229814826Y-66614714D01*
X229843656Y-66638169D01*
X229989102Y-66726616D01*
X230077489Y-66780365D01*
X230328508Y-66889398D01*
X230328509Y-66889398D01*
X230328511Y-66889399D01*
X230407495Y-66911530D01*
X230455222Y-66936953D01*
X230487896Y-66980041D01*
X230499500Y-67032857D01*
X230499500Y-71373500D01*
X230482619Y-71436500D01*
X230436500Y-71482619D01*
X230373500Y-71499500D01*
X46354500Y-71499500D01*
X46291500Y-71482619D01*
X46245381Y-71436500D01*
X46228500Y-71373500D01*
X46228500Y-67600799D01*
X47719270Y-67600799D01*
X47738567Y-67895231D01*
X47796132Y-68184628D01*
X47890974Y-68464025D01*
X48021482Y-68728667D01*
X48185409Y-68974001D01*
X48379957Y-69195842D01*
X48414580Y-69226205D01*
X48601799Y-69390391D01*
X48847135Y-69554319D01*
X49098535Y-69678296D01*
X49111774Y-69684825D01*
X49391171Y-69779667D01*
X49391174Y-69779668D01*
X49680568Y-69837232D01*
X49975000Y-69856530D01*
X50269432Y-69837232D01*
X50558826Y-69779668D01*
X50702638Y-69730850D01*
X50838225Y-69684825D01*
X50838226Y-69684824D01*
X50838230Y-69684823D01*
X51102865Y-69554319D01*
X51348201Y-69390391D01*
X51570042Y-69195842D01*
X51764591Y-68974001D01*
X51928519Y-68728665D01*
X52059023Y-68464030D01*
X52153868Y-68184626D01*
X52211432Y-67895232D01*
X52230730Y-67600800D01*
X102219270Y-67600800D01*
X102238567Y-67895231D01*
X102296132Y-68184628D01*
X102390974Y-68464025D01*
X102521482Y-68728667D01*
X102685409Y-68974001D01*
X102879957Y-69195842D01*
X102914580Y-69226205D01*
X103101799Y-69390391D01*
X103347135Y-69554319D01*
X103598535Y-69678296D01*
X103611774Y-69684825D01*
X103891171Y-69779667D01*
X103891174Y-69779668D01*
X104180568Y-69837232D01*
X104475000Y-69856530D01*
X104769432Y-69837232D01*
X105058826Y-69779668D01*
X105202638Y-69730850D01*
X105338225Y-69684825D01*
X105338226Y-69684824D01*
X105338230Y-69684823D01*
X105602865Y-69554319D01*
X105848201Y-69390391D01*
X106070042Y-69195842D01*
X106264591Y-68974001D01*
X106428519Y-68728665D01*
X106559023Y-68464030D01*
X106653868Y-68184626D01*
X106711432Y-67895232D01*
X106730730Y-67600800D01*
X106711432Y-67306368D01*
X106653868Y-67016974D01*
X106643785Y-66987270D01*
X106559025Y-66737574D01*
X106479338Y-66575985D01*
X106428519Y-66472935D01*
X106264591Y-66227599D01*
X106222911Y-66180072D01*
X106070042Y-66005757D01*
X105848201Y-65811209D01*
X105602867Y-65647282D01*
X105338225Y-65516774D01*
X105058828Y-65421932D01*
X104769431Y-65364367D01*
X104475000Y-65345070D01*
X104180568Y-65364367D01*
X103891171Y-65421932D01*
X103611774Y-65516774D01*
X103347132Y-65647282D01*
X103101798Y-65811209D01*
X102879957Y-66005757D01*
X102685409Y-66227598D01*
X102521482Y-66472932D01*
X102390974Y-66737574D01*
X102296132Y-67016971D01*
X102238567Y-67306368D01*
X102219270Y-67600800D01*
X52230730Y-67600800D01*
X52211432Y-67306368D01*
X52153868Y-67016974D01*
X52143785Y-66987270D01*
X52059025Y-66737574D01*
X51979338Y-66575985D01*
X51928519Y-66472935D01*
X51764591Y-66227599D01*
X51722911Y-66180072D01*
X51570042Y-66005757D01*
X51348201Y-65811209D01*
X51102867Y-65647282D01*
X50838225Y-65516774D01*
X50558828Y-65421932D01*
X50269431Y-65364367D01*
X49975000Y-65345070D01*
X49680568Y-65364367D01*
X49391171Y-65421932D01*
X49111774Y-65516774D01*
X48847132Y-65647282D01*
X48601798Y-65811209D01*
X48379957Y-66005757D01*
X48185409Y-66227598D01*
X48021482Y-66472932D01*
X47890974Y-66737574D01*
X47796132Y-67016971D01*
X47738567Y-67306368D01*
X47719270Y-67600799D01*
X46228500Y-67600799D01*
X46228500Y-67261362D01*
X46227408Y-67251204D01*
X46221989Y-67200799D01*
X46170889Y-67063796D01*
X46160141Y-67049438D01*
X46083261Y-66946738D01*
X45965507Y-66858589D01*
X45930429Y-66818107D01*
X45915337Y-66766710D01*
X45922960Y-66713689D01*
X45951919Y-66668628D01*
X63969143Y-48651405D01*
X64010021Y-48624091D01*
X64058239Y-48614500D01*
X120723364Y-48614500D01*
X120739807Y-48615577D01*
X120771500Y-48619750D01*
X120803193Y-48615577D01*
X120803203Y-48615577D01*
X120811384Y-48614500D01*
X120811385Y-48614500D01*
X120920681Y-48600111D01*
X120930351Y-48598838D01*
X121078376Y-48537524D01*
X121173572Y-48464477D01*
X121173572Y-48464476D01*
X121190129Y-48451772D01*
X121190132Y-48451769D01*
X121205484Y-48439989D01*
X121205483Y-48439989D01*
X121205487Y-48439987D01*
X121224964Y-48414604D01*
X121235809Y-48402239D01*
X122403330Y-47234717D01*
X122448813Y-47205602D01*
X122502310Y-47198203D01*
X122531492Y-47200500D01*
X122531498Y-47200500D01*
X122614762Y-47200500D01*
X122662980Y-47210091D01*
X122703857Y-47237405D01*
X122854681Y-47388229D01*
X122865548Y-47400620D01*
X122885013Y-47425988D01*
X122916930Y-47450479D01*
X122916930Y-47450478D01*
X122974012Y-47494279D01*
X123012124Y-47523524D01*
X123160149Y-47584838D01*
X123169845Y-47586114D01*
X123179542Y-47587391D01*
X123179543Y-47587391D01*
X123271519Y-47599500D01*
X123287296Y-47601577D01*
X123287307Y-47601577D01*
X123319000Y-47605750D01*
X123350692Y-47601577D01*
X123367136Y-47600500D01*
X124028864Y-47600500D01*
X124045307Y-47601577D01*
X124077000Y-47605750D01*
X124108693Y-47601577D01*
X124108703Y-47601577D01*
X124116884Y-47600500D01*
X124116885Y-47600500D01*
X124216456Y-47587391D01*
X124235851Y-47584838D01*
X124383876Y-47523524D01*
X124479072Y-47450477D01*
X124479072Y-47450476D01*
X124495629Y-47437772D01*
X124495632Y-47437769D01*
X124500115Y-47434329D01*
X124510987Y-47425987D01*
X124530454Y-47400616D01*
X124541306Y-47388241D01*
X124692144Y-47237404D01*
X124733022Y-47210091D01*
X124781240Y-47200500D01*
X124864497Y-47200500D01*
X124864502Y-47200500D01*
X124901831Y-47197562D01*
X125061601Y-47151145D01*
X125204807Y-47066453D01*
X125322453Y-46948807D01*
X125407145Y-46805601D01*
X125453562Y-46645831D01*
X125456500Y-46608502D01*
X125456500Y-45801500D01*
X125473381Y-45738500D01*
X125519500Y-45692381D01*
X125582500Y-45675500D01*
X125640501Y-45675500D01*
X125703501Y-45692381D01*
X125749620Y-45738500D01*
X125766501Y-45801500D01*
X125766501Y-45888544D01*
X125777113Y-45992426D01*
X125832885Y-46160738D01*
X125925970Y-46311652D01*
X125925972Y-46311655D01*
X126051344Y-46437027D01*
X126051346Y-46437028D01*
X126051348Y-46437030D01*
X126202262Y-46530115D01*
X126370574Y-46585887D01*
X126474455Y-46596500D01*
X127525544Y-46596499D01*
X127629426Y-46585887D01*
X127797738Y-46530115D01*
X127948652Y-46437030D01*
X128074030Y-46311652D01*
X128167115Y-46160738D01*
X128222887Y-45992426D01*
X128233500Y-45888545D01*
X128233500Y-45593000D01*
X131266384Y-45593000D01*
X131286783Y-45774049D01*
X131346956Y-45946014D01*
X131443889Y-46100282D01*
X131572717Y-46229110D01*
X131726985Y-46326043D01*
X131834991Y-46363836D01*
X131898953Y-46386217D01*
X132080000Y-46406616D01*
X132261047Y-46386217D01*
X132410487Y-46333926D01*
X132446416Y-46321354D01*
X132447354Y-46324035D01*
X132475111Y-46314314D01*
X132530848Y-46320585D01*
X132578341Y-46350424D01*
X132655344Y-46427427D01*
X132655346Y-46427428D01*
X132655348Y-46427430D01*
X132806262Y-46520515D01*
X132974574Y-46576287D01*
X133078455Y-46586900D01*
X134129544Y-46586899D01*
X134233426Y-46576287D01*
X134401738Y-46520515D01*
X134552652Y-46427430D01*
X134603406Y-46376675D01*
X134653563Y-46345939D01*
X134712210Y-46341323D01*
X134766560Y-46363836D01*
X134804767Y-46408569D01*
X134818500Y-46465772D01*
X134818500Y-46913540D01*
X134827844Y-47005000D01*
X134829113Y-47017426D01*
X134884885Y-47185738D01*
X134927298Y-47254500D01*
X134977972Y-47336655D01*
X135103344Y-47462027D01*
X135103346Y-47462028D01*
X135103348Y-47462030D01*
X135254262Y-47555115D01*
X135422574Y-47610887D01*
X135526455Y-47621500D01*
X137777544Y-47621499D01*
X137881426Y-47610887D01*
X138049738Y-47555115D01*
X138052747Y-47553258D01*
X138118893Y-47534500D01*
X139137415Y-47534500D01*
X139198821Y-47550476D01*
X139244655Y-47594352D01*
X139253716Y-47609042D01*
X139374956Y-47730282D01*
X139374958Y-47730283D01*
X139374960Y-47730285D01*
X139520899Y-47820302D01*
X139683664Y-47874236D01*
X139784128Y-47884500D01*
X140253761Y-47884500D01*
X140301979Y-47894091D01*
X140342856Y-47921405D01*
X140493681Y-48072230D01*
X140504547Y-48084619D01*
X140510288Y-48092101D01*
X140524013Y-48109987D01*
X140549378Y-48129450D01*
X140549391Y-48129462D01*
X140651121Y-48207523D01*
X140681770Y-48220218D01*
X140710251Y-48232015D01*
X140799150Y-48268838D01*
X140918115Y-48284500D01*
X140926296Y-48285577D01*
X140926310Y-48285578D01*
X140958000Y-48289750D01*
X140989692Y-48285577D01*
X141006136Y-48284500D01*
X145832326Y-48284500D01*
X145848769Y-48285577D01*
X145880462Y-48289750D01*
X145912155Y-48285577D01*
X145912165Y-48285577D01*
X145920346Y-48284500D01*
X145920347Y-48284500D01*
X146019918Y-48271391D01*
X146039313Y-48268838D01*
X146187338Y-48207524D01*
X146282534Y-48134477D01*
X146282534Y-48134476D01*
X146299091Y-48121772D01*
X146299094Y-48121769D01*
X146304979Y-48117253D01*
X146314449Y-48109987D01*
X146333919Y-48084611D01*
X146344771Y-48072238D01*
X147790637Y-46626372D01*
X147847119Y-46593762D01*
X147912341Y-46593762D01*
X147968825Y-46626374D01*
X149055595Y-47713144D01*
X149082909Y-47754021D01*
X149092500Y-47802239D01*
X149092500Y-48177864D01*
X149091422Y-48194307D01*
X149089682Y-48207524D01*
X149087250Y-48226000D01*
X149091422Y-48257690D01*
X149091422Y-48257697D01*
X149102584Y-48342477D01*
X149102584Y-48342479D01*
X149108161Y-48384849D01*
X149169476Y-48532878D01*
X149242521Y-48628072D01*
X149242524Y-48628074D01*
X149267010Y-48659984D01*
X149267011Y-48659985D01*
X149267013Y-48659987D01*
X149292375Y-48679448D01*
X149304765Y-48690314D01*
X149710464Y-49096013D01*
X150105595Y-49491143D01*
X150132909Y-49532021D01*
X150142500Y-49580239D01*
X150142500Y-49799638D01*
X150148661Y-49856950D01*
X150149011Y-49860200D01*
X150200111Y-49997205D01*
X150287738Y-50114261D01*
X150404794Y-50201888D01*
X150404795Y-50201888D01*
X150404796Y-50201889D01*
X150541799Y-50252989D01*
X150602362Y-50259500D01*
X151150536Y-50259500D01*
X151200922Y-50270013D01*
X151242900Y-50299798D01*
X151269465Y-50343884D01*
X151285957Y-50391015D01*
X151382889Y-50545282D01*
X151511717Y-50674110D01*
X151665985Y-50771043D01*
X151754712Y-50802090D01*
X151837953Y-50831217D01*
X152019000Y-50851616D01*
X152200047Y-50831217D01*
X152372015Y-50771043D01*
X152526281Y-50674111D01*
X152655111Y-50545281D01*
X152752043Y-50391015D01*
X152812217Y-50219047D01*
X152832616Y-50038000D01*
X152812217Y-49856953D01*
X152752043Y-49684985D01*
X152684905Y-49578136D01*
X152655110Y-49530717D01*
X152526282Y-49401889D01*
X152449148Y-49353423D01*
X152372015Y-49304957D01*
X152218883Y-49251374D01*
X152174798Y-49224811D01*
X152145013Y-49182832D01*
X152134500Y-49132446D01*
X152134500Y-48129162D01*
X152140948Y-48089371D01*
X152159632Y-48053652D01*
X152201889Y-47997204D01*
X152252989Y-47860201D01*
X152259500Y-47799638D01*
X152259500Y-47002362D01*
X152252989Y-46941799D01*
X152201889Y-46804796D01*
X152159630Y-46748345D01*
X152140948Y-46712629D01*
X152134500Y-46672838D01*
X152134500Y-46649499D01*
X152151381Y-46586499D01*
X152197500Y-46540380D01*
X152260500Y-46523499D01*
X152392540Y-46523499D01*
X152392544Y-46523499D01*
X152496426Y-46512887D01*
X152664738Y-46457115D01*
X152815652Y-46364030D01*
X152941030Y-46238652D01*
X153034115Y-46087738D01*
X153089887Y-45919426D01*
X153100500Y-45815545D01*
X153100499Y-45189456D01*
X153089887Y-45085574D01*
X153034115Y-44917262D01*
X152941030Y-44766348D01*
X152941028Y-44766346D01*
X152941027Y-44766344D01*
X152853777Y-44679094D01*
X152821165Y-44622610D01*
X152821165Y-44557388D01*
X152853775Y-44500906D01*
X152912501Y-44442180D01*
X152959980Y-44412347D01*
X153015705Y-44406070D01*
X153049094Y-44417754D01*
X153049584Y-44416354D01*
X153207492Y-44471608D01*
X153234953Y-44481217D01*
X153416000Y-44501616D01*
X153597047Y-44481217D01*
X153769015Y-44421043D01*
X153923281Y-44324111D01*
X154052111Y-44195281D01*
X154149043Y-44041015D01*
X154209217Y-43869047D01*
X154229616Y-43688000D01*
X154209217Y-43506953D01*
X154149043Y-43334985D01*
X154052111Y-43180719D01*
X154052110Y-43180717D01*
X153923282Y-43051889D01*
X153769014Y-42954956D01*
X153597049Y-42894783D01*
X153416000Y-42874384D01*
X153234952Y-42894783D01*
X153057450Y-42956893D01*
X152987798Y-42960804D01*
X152926741Y-42927058D01*
X152815655Y-42815972D01*
X152814379Y-42815185D01*
X152664738Y-42722885D01*
X152496426Y-42667113D01*
X152392545Y-42656500D01*
X152392540Y-42656500D01*
X151391459Y-42656500D01*
X151287573Y-42667113D01*
X151135371Y-42717547D01*
X151119262Y-42722885D01*
X150969623Y-42815184D01*
X150955813Y-42823702D01*
X150955290Y-42822854D01*
X150913405Y-42847035D01*
X150848183Y-42847032D01*
X150791703Y-42814421D01*
X150783652Y-42806370D01*
X150783651Y-42806369D01*
X150741842Y-42780581D01*
X150632738Y-42713285D01*
X150464426Y-42657513D01*
X150360545Y-42646900D01*
X150360541Y-42646900D01*
X149751739Y-42646900D01*
X149703521Y-42637309D01*
X149662644Y-42609995D01*
X149525215Y-42472566D01*
X149514348Y-42460175D01*
X149494886Y-42434811D01*
X149462974Y-42410324D01*
X149462974Y-42410325D01*
X149462972Y-42410323D01*
X149367776Y-42337276D01*
X149367775Y-42337275D01*
X149237406Y-42283275D01*
X149219751Y-42275962D01*
X149219750Y-42275961D01*
X149219748Y-42275961D01*
X149200368Y-42273408D01*
X149200356Y-42273408D01*
X149186369Y-42271566D01*
X149092603Y-42259222D01*
X149092591Y-42259222D01*
X149060900Y-42255050D01*
X149029207Y-42259222D01*
X149012764Y-42260300D01*
X146093344Y-42260300D01*
X146076898Y-42259222D01*
X146045200Y-42255049D01*
X145886351Y-42275961D01*
X145738321Y-42337276D01*
X145643896Y-42409732D01*
X145643676Y-42409902D01*
X145611210Y-42434814D01*
X145591748Y-42460177D01*
X145580885Y-42472564D01*
X145422856Y-42630595D01*
X145381978Y-42657909D01*
X145333760Y-42667500D01*
X144864128Y-42667500D01*
X144763664Y-42677764D01*
X144600899Y-42731698D01*
X144539991Y-42769267D01*
X144454956Y-42821717D01*
X144333717Y-42942956D01*
X144311856Y-42978399D01*
X144243698Y-43088899D01*
X144189764Y-43251664D01*
X144179500Y-43352128D01*
X144179500Y-43899872D01*
X144189764Y-44000336D01*
X144243698Y-44163101D01*
X144325198Y-44295232D01*
X144333717Y-44309043D01*
X144454956Y-44430282D01*
X144454958Y-44430283D01*
X144454960Y-44430285D01*
X144600899Y-44520302D01*
X144763664Y-44574236D01*
X144864128Y-44584500D01*
X145711868Y-44584500D01*
X145711872Y-44584500D01*
X145812336Y-44574236D01*
X145975101Y-44520302D01*
X146121040Y-44430285D01*
X146242285Y-44309040D01*
X146332302Y-44163101D01*
X146363994Y-44067457D01*
X146397666Y-44014942D01*
X146452405Y-43985014D01*
X146514791Y-43985014D01*
X146569530Y-44014942D01*
X146603203Y-44067460D01*
X146605112Y-44073223D01*
X146605113Y-44073226D01*
X146660885Y-44241538D01*
X146660886Y-44241540D01*
X146665518Y-44255518D01*
X146664724Y-44255780D01*
X146676606Y-44290509D01*
X146670135Y-44345866D01*
X146640417Y-44393015D01*
X145102836Y-45930597D01*
X145061962Y-45957909D01*
X145013744Y-45967500D01*
X144864128Y-45967500D01*
X144763664Y-45977764D01*
X144600899Y-46031698D01*
X144541173Y-46068538D01*
X144454956Y-46121717D01*
X144333716Y-46242957D01*
X144324655Y-46257648D01*
X144278821Y-46301524D01*
X144217415Y-46317500D01*
X143818585Y-46317500D01*
X143757179Y-46301524D01*
X143711345Y-46257648D01*
X143702283Y-46242957D01*
X143581043Y-46121717D01*
X143581040Y-46121715D01*
X143435101Y-46031698D01*
X143272336Y-45977764D01*
X143171872Y-45967500D01*
X142324128Y-45967500D01*
X142223664Y-45977764D01*
X142060899Y-46031698D01*
X142001173Y-46068538D01*
X141914956Y-46121717D01*
X141793717Y-46242956D01*
X141751345Y-46311652D01*
X141703698Y-46388899D01*
X141649764Y-46551664D01*
X141640144Y-46645833D01*
X141639500Y-46652132D01*
X141639500Y-46941500D01*
X141622619Y-47004500D01*
X141576500Y-47050619D01*
X141513500Y-47067500D01*
X141442500Y-47067500D01*
X141379500Y-47050619D01*
X141333381Y-47004500D01*
X141316500Y-46941500D01*
X141316500Y-46652132D01*
X141316099Y-46648205D01*
X141306236Y-46551664D01*
X141252302Y-46388899D01*
X141162285Y-46242960D01*
X141162283Y-46242958D01*
X141162282Y-46242956D01*
X141041043Y-46121717D01*
X141041040Y-46121715D01*
X140895101Y-46031698D01*
X140732336Y-45977764D01*
X140631872Y-45967500D01*
X139784128Y-45967500D01*
X139683664Y-45977764D01*
X139520899Y-46031698D01*
X139461173Y-46068538D01*
X139374956Y-46121717D01*
X139253716Y-46242957D01*
X139244655Y-46257648D01*
X139198821Y-46301524D01*
X139137415Y-46317500D01*
X138611499Y-46317500D01*
X138548499Y-46300619D01*
X138502380Y-46254500D01*
X138485499Y-46191500D01*
X138485499Y-46062460D01*
X138485499Y-46062456D01*
X138474887Y-45958574D01*
X138419115Y-45790262D01*
X138326030Y-45639348D01*
X138326028Y-45639346D01*
X138326027Y-45639344D01*
X138200655Y-45513972D01*
X138200652Y-45513970D01*
X138049738Y-45420885D01*
X137881426Y-45365113D01*
X137777545Y-45354500D01*
X137777540Y-45354500D01*
X135526459Y-45354500D01*
X135422573Y-45365113D01*
X135254262Y-45420885D01*
X135103346Y-45513971D01*
X135052594Y-45564723D01*
X135002434Y-45595460D01*
X134943788Y-45600076D01*
X134889438Y-45577563D01*
X134851232Y-45532830D01*
X134837499Y-45475627D01*
X134837499Y-45277860D01*
X134837041Y-45273373D01*
X134826887Y-45173974D01*
X134771115Y-45005662D01*
X134678030Y-44854748D01*
X134678028Y-44854746D01*
X134678027Y-44854744D01*
X134542239Y-44718956D01*
X134544493Y-44716701D01*
X134518451Y-44689489D01*
X134502488Y-44628071D01*
X134518484Y-44566662D01*
X134544246Y-44539769D01*
X134541926Y-44537449D01*
X134677631Y-44401743D01*
X134679247Y-44399124D01*
X134725082Y-44355247D01*
X134786488Y-44339270D01*
X134847895Y-44355246D01*
X134893730Y-44399123D01*
X134978367Y-44536342D01*
X135103657Y-44661632D01*
X135254477Y-44754659D01*
X135422671Y-44810393D01*
X135526497Y-44821000D01*
X136398000Y-44821000D01*
X136398000Y-43942000D01*
X136906000Y-43942000D01*
X136906000Y-44821000D01*
X137777503Y-44821000D01*
X137881328Y-44810393D01*
X138049522Y-44754659D01*
X138200342Y-44661632D01*
X138325632Y-44536342D01*
X138418659Y-44385522D01*
X138474393Y-44217328D01*
X138485000Y-44113503D01*
X138485000Y-43942000D01*
X136906000Y-43942000D01*
X136398000Y-43942000D01*
X134840791Y-43942000D01*
X134792573Y-43932409D01*
X134792560Y-43932400D01*
X132371000Y-43932400D01*
X132371000Y-43978903D01*
X132381606Y-44082728D01*
X132437340Y-44250922D01*
X132530367Y-44401742D01*
X132666074Y-44537449D01*
X132663754Y-44539768D01*
X132689520Y-44566672D01*
X132705511Y-44628072D01*
X132689552Y-44689481D01*
X132663507Y-44716703D01*
X132665761Y-44718957D01*
X132556961Y-44827756D01*
X132495904Y-44861501D01*
X132426252Y-44857590D01*
X132261047Y-44799783D01*
X132080000Y-44779384D01*
X131898950Y-44799783D01*
X131726985Y-44859956D01*
X131572717Y-44956889D01*
X131443889Y-45085717D01*
X131346956Y-45239985D01*
X131286783Y-45411950D01*
X131266384Y-45593000D01*
X128233500Y-45593000D01*
X128233499Y-45287456D01*
X128222887Y-45183574D01*
X128167115Y-45015262D01*
X128074030Y-44864348D01*
X128074028Y-44864346D01*
X128074027Y-44864344D01*
X127938239Y-44728556D01*
X127940493Y-44726301D01*
X127914451Y-44699089D01*
X127898488Y-44637671D01*
X127914484Y-44576262D01*
X127940246Y-44549369D01*
X127937926Y-44547049D01*
X128073632Y-44411342D01*
X128166659Y-44260522D01*
X128222393Y-44092328D01*
X128233000Y-43988503D01*
X128233000Y-43942000D01*
X125767000Y-43942000D01*
X125767000Y-43988503D01*
X125777606Y-44092328D01*
X125833341Y-44260523D01*
X125836938Y-44266355D01*
X125855666Y-44329753D01*
X125839719Y-44393907D01*
X125793487Y-44441158D01*
X125729696Y-44458500D01*
X125582000Y-44458500D01*
X125519000Y-44441619D01*
X125472881Y-44395500D01*
X125456000Y-44332500D01*
X125456000Y-44008500D01*
X123840001Y-44008500D01*
X123840001Y-44333454D01*
X123842935Y-44370750D01*
X123871568Y-44469303D01*
X123875711Y-44519157D01*
X123860127Y-44566693D01*
X123828954Y-44602491D01*
X123829214Y-44602803D01*
X123829208Y-44602808D01*
X123827464Y-44604202D01*
X123827275Y-44604420D01*
X123825255Y-44605970D01*
X123825251Y-44605973D01*
X123790010Y-44633014D01*
X123770548Y-44658377D01*
X123759687Y-44670762D01*
X123743295Y-44687155D01*
X123686811Y-44719768D01*
X123621587Y-44719769D01*
X123565102Y-44687157D01*
X123548711Y-44670766D01*
X123537846Y-44658378D01*
X123527479Y-44644867D01*
X123503612Y-44591452D01*
X123506444Y-44533011D01*
X123507143Y-44530603D01*
X123507145Y-44530601D01*
X123553562Y-44370831D01*
X123556500Y-44333502D01*
X123556500Y-43899872D01*
X139099500Y-43899872D01*
X139109764Y-44000336D01*
X139163698Y-44163101D01*
X139245198Y-44295232D01*
X139253717Y-44309043D01*
X139374956Y-44430282D01*
X139374958Y-44430283D01*
X139374960Y-44430285D01*
X139520899Y-44520302D01*
X139683664Y-44574236D01*
X139784128Y-44584500D01*
X140631868Y-44584500D01*
X140631872Y-44584500D01*
X140732336Y-44574236D01*
X140895101Y-44520302D01*
X141041040Y-44430285D01*
X141162285Y-44309040D01*
X141252302Y-44163101D01*
X141306236Y-44000336D01*
X141316500Y-43899872D01*
X141639500Y-43899872D01*
X141649764Y-44000336D01*
X141703698Y-44163101D01*
X141785198Y-44295232D01*
X141793717Y-44309043D01*
X141914956Y-44430282D01*
X141914958Y-44430283D01*
X141914960Y-44430285D01*
X142060899Y-44520302D01*
X142223664Y-44574236D01*
X142324128Y-44584500D01*
X143171868Y-44584500D01*
X143171872Y-44584500D01*
X143272336Y-44574236D01*
X143435101Y-44520302D01*
X143581040Y-44430285D01*
X143702285Y-44309040D01*
X143792302Y-44163101D01*
X143846236Y-44000336D01*
X143856500Y-43899872D01*
X143856500Y-43352128D01*
X143846236Y-43251664D01*
X143792302Y-43088899D01*
X143702285Y-42942960D01*
X143702283Y-42942958D01*
X143702282Y-42942956D01*
X143581040Y-42821714D01*
X143560237Y-42808882D01*
X143520071Y-42769268D01*
X143501218Y-42716096D01*
X143507457Y-42660028D01*
X143516965Y-42632855D01*
X143541217Y-42563547D01*
X143561616Y-42382500D01*
X143541217Y-42201453D01*
X143481043Y-42029485D01*
X143470700Y-42013024D01*
X143384110Y-41875217D01*
X143255282Y-41746389D01*
X143101014Y-41649456D01*
X142929049Y-41589283D01*
X142748000Y-41568884D01*
X142566950Y-41589283D01*
X142394985Y-41649456D01*
X142240717Y-41746389D01*
X142111889Y-41875217D01*
X142014956Y-42029485D01*
X141954783Y-42201450D01*
X141934384Y-42382500D01*
X141954783Y-42563547D01*
X141988543Y-42660029D01*
X141994781Y-42716097D01*
X141975929Y-42769267D01*
X141935764Y-42808881D01*
X141914959Y-42821714D01*
X141793717Y-42942956D01*
X141771856Y-42978399D01*
X141703698Y-43088899D01*
X141649764Y-43251664D01*
X141639500Y-43352128D01*
X141639500Y-43899872D01*
X141316500Y-43899872D01*
X141316500Y-43352128D01*
X141306236Y-43251664D01*
X141252302Y-43088899D01*
X141162285Y-42942960D01*
X141162283Y-42942958D01*
X141162282Y-42942956D01*
X141041041Y-42821715D01*
X141030454Y-42815185D01*
X140990287Y-42775570D01*
X140971434Y-42722398D01*
X140977673Y-42666330D01*
X141001217Y-42599047D01*
X141021616Y-42418000D01*
X141001217Y-42236953D01*
X140941043Y-42064985D01*
X140844111Y-41910719D01*
X140844110Y-41910717D01*
X140715282Y-41781889D01*
X140561014Y-41684956D01*
X140389049Y-41624783D01*
X140208000Y-41604384D01*
X140026950Y-41624783D01*
X139854985Y-41684956D01*
X139700717Y-41781889D01*
X139571889Y-41910717D01*
X139474956Y-42064985D01*
X139414783Y-42236950D01*
X139394384Y-42418000D01*
X139414783Y-42599049D01*
X139438326Y-42666330D01*
X139444565Y-42722398D01*
X139425713Y-42775569D01*
X139385547Y-42815184D01*
X139374958Y-42821715D01*
X139253717Y-42942956D01*
X139231856Y-42978399D01*
X139163698Y-43088899D01*
X139109764Y-43251664D01*
X139099500Y-43352128D01*
X139099500Y-43899872D01*
X123556500Y-43899872D01*
X123556500Y-43500500D01*
X123840000Y-43500500D01*
X124394000Y-43500500D01*
X124394000Y-42587007D01*
X124902000Y-42587007D01*
X124902000Y-43500500D01*
X125455999Y-43500500D01*
X125455999Y-43434000D01*
X125767000Y-43434000D01*
X126746000Y-43434000D01*
X126746000Y-42680000D01*
X127254000Y-42680000D01*
X127254000Y-43434000D01*
X128233000Y-43434000D01*
X128233000Y-43424400D01*
X132371000Y-43424400D01*
X133350000Y-43424400D01*
X133858000Y-43424400D01*
X134815209Y-43424400D01*
X134863427Y-43433991D01*
X134863440Y-43434000D01*
X136398000Y-43434000D01*
X136398000Y-42555000D01*
X136906000Y-42555000D01*
X136906000Y-43434000D01*
X138485000Y-43434000D01*
X138485000Y-43262497D01*
X138474393Y-43158671D01*
X138418659Y-42990477D01*
X138325632Y-42839657D01*
X138200342Y-42714367D01*
X138049522Y-42621340D01*
X137881328Y-42565606D01*
X137777503Y-42555000D01*
X136906000Y-42555000D01*
X136398000Y-42555000D01*
X135526497Y-42555000D01*
X135422671Y-42565606D01*
X135254477Y-42621340D01*
X135103657Y-42714367D01*
X134978367Y-42839657D01*
X134899651Y-42967276D01*
X134853816Y-43011153D01*
X134792410Y-43027129D01*
X134731004Y-43011153D01*
X134685169Y-42967276D01*
X134677632Y-42955057D01*
X134552342Y-42829767D01*
X134401522Y-42736740D01*
X134233328Y-42681006D01*
X134129503Y-42670400D01*
X133858000Y-42670400D01*
X133858000Y-43424400D01*
X133350000Y-43424400D01*
X133350000Y-42670400D01*
X133078497Y-42670400D01*
X132974671Y-42681006D01*
X132806477Y-42736740D01*
X132655657Y-42829767D01*
X132530367Y-42955057D01*
X132437340Y-43105877D01*
X132381606Y-43274071D01*
X132371000Y-43377897D01*
X132371000Y-43424400D01*
X128233000Y-43424400D01*
X128233000Y-43387496D01*
X128222393Y-43283671D01*
X128166659Y-43115477D01*
X128073632Y-42964657D01*
X127948342Y-42839367D01*
X127797522Y-42746340D01*
X127629328Y-42690606D01*
X127525503Y-42680000D01*
X127254000Y-42680000D01*
X126746000Y-42680000D01*
X126474497Y-42680000D01*
X126370671Y-42690606D01*
X126202477Y-42746340D01*
X126051657Y-42839367D01*
X125926367Y-42964657D01*
X125833340Y-43115477D01*
X125777606Y-43283671D01*
X125767000Y-43387496D01*
X125767000Y-43434000D01*
X125455999Y-43434000D01*
X125455999Y-43175546D01*
X125453064Y-43138247D01*
X125406682Y-42978601D01*
X125322052Y-42835498D01*
X125204501Y-42717947D01*
X125061399Y-42633318D01*
X124902000Y-42587007D01*
X124394000Y-42587007D01*
X124234600Y-42633318D01*
X124091498Y-42717947D01*
X123973947Y-42835498D01*
X123889318Y-42978600D01*
X123842935Y-43138247D01*
X123840000Y-43175547D01*
X123840000Y-43500500D01*
X123556500Y-43500500D01*
X123556500Y-43175498D01*
X123553562Y-43138169D01*
X123507145Y-42978399D01*
X123422453Y-42835193D01*
X123422451Y-42835191D01*
X123422450Y-42835189D01*
X123304810Y-42717549D01*
X123304025Y-42717085D01*
X123161601Y-42632855D01*
X123161600Y-42632854D01*
X123161599Y-42632854D01*
X123001833Y-42586438D01*
X122991165Y-42585598D01*
X122964502Y-42583500D01*
X122531498Y-42583500D01*
X122508167Y-42585336D01*
X122494166Y-42586438D01*
X122334400Y-42632854D01*
X122191189Y-42717549D01*
X122073549Y-42835189D01*
X121988855Y-42978399D01*
X121985876Y-42988654D01*
X121960260Y-43035832D01*
X121917330Y-43068064D01*
X121864879Y-43079500D01*
X121611380Y-43079500D01*
X121549974Y-43063524D01*
X121504140Y-43019647D01*
X121470030Y-42964347D01*
X121344655Y-42838972D01*
X121339023Y-42835498D01*
X121193738Y-42745885D01*
X121025426Y-42690113D01*
X120921545Y-42679500D01*
X120921540Y-42679500D01*
X119870459Y-42679500D01*
X119766573Y-42690113D01*
X119598262Y-42745885D01*
X119447344Y-42838972D01*
X119321972Y-42964344D01*
X119293100Y-43011153D01*
X119228885Y-43115262D01*
X119173113Y-43283574D01*
X119163477Y-43377897D01*
X119162500Y-43387459D01*
X119162500Y-43988540D01*
X119171152Y-44073226D01*
X119173113Y-44092426D01*
X119228885Y-44260738D01*
X119315858Y-44401743D01*
X119321972Y-44411655D01*
X119457761Y-44547444D01*
X119455408Y-44549796D01*
X119481062Y-44576600D01*
X119497034Y-44638000D01*
X119481062Y-44699400D01*
X119455407Y-44726203D01*
X119457761Y-44728557D01*
X119356072Y-44830245D01*
X119295014Y-44863990D01*
X119225362Y-44860078D01*
X119053049Y-44799783D01*
X118872000Y-44779384D01*
X118690950Y-44799783D01*
X118518985Y-44859956D01*
X118364717Y-44956889D01*
X118235889Y-45085717D01*
X118138956Y-45239985D01*
X118078783Y-45411950D01*
X118058384Y-45592999D01*
X118078783Y-45774049D01*
X118138956Y-45946014D01*
X118235889Y-46100282D01*
X118364717Y-46229110D01*
X118518985Y-46326043D01*
X118626991Y-46363836D01*
X118690953Y-46386217D01*
X118872000Y-46406616D01*
X119053047Y-46386217D01*
X119225015Y-46326043D01*
X119225016Y-46326042D01*
X119232770Y-46323329D01*
X119302423Y-46319417D01*
X119363480Y-46353163D01*
X119447344Y-46437027D01*
X119447346Y-46437028D01*
X119447348Y-46437030D01*
X119598262Y-46530115D01*
X119766574Y-46585887D01*
X119870455Y-46596500D01*
X120921544Y-46596499D01*
X121013506Y-46587104D01*
X121074188Y-46595904D01*
X121123533Y-46632306D01*
X121149851Y-46687691D01*
X121146909Y-46748940D01*
X121115403Y-46801547D01*
X120556353Y-47360597D01*
X120515479Y-47387909D01*
X120467261Y-47397500D01*
X63802136Y-47397500D01*
X63785690Y-47396422D01*
X63754000Y-47392250D01*
X63722310Y-47396422D01*
X63722296Y-47396422D01*
X63595150Y-47413161D01*
X63447124Y-47474476D01*
X63421318Y-47494278D01*
X63421317Y-47494279D01*
X63355272Y-47544955D01*
X63355251Y-47544973D01*
X63320010Y-47572014D01*
X63300545Y-47597381D01*
X63289681Y-47609768D01*
X44134856Y-66764595D01*
X44093979Y-66791909D01*
X44045761Y-66801500D01*
X41626500Y-66801500D01*
X41563500Y-66784619D01*
X41517381Y-66738500D01*
X41500500Y-66675500D01*
X41500500Y-55800799D01*
X47719270Y-55800799D01*
X47738567Y-56095231D01*
X47796132Y-56384628D01*
X47890974Y-56664025D01*
X48021482Y-56928667D01*
X48185409Y-57174001D01*
X48379957Y-57395842D01*
X48555779Y-57550033D01*
X48601799Y-57590391D01*
X48847135Y-57754319D01*
X49044557Y-57851677D01*
X49111774Y-57884825D01*
X49329522Y-57958740D01*
X49391174Y-57979668D01*
X49680568Y-58037232D01*
X49975000Y-58056530D01*
X50269432Y-58037232D01*
X50558826Y-57979668D01*
X50710242Y-57928269D01*
X50838225Y-57884825D01*
X50838226Y-57884824D01*
X50838230Y-57884823D01*
X51102865Y-57754319D01*
X51348201Y-57590391D01*
X51570042Y-57395842D01*
X51764591Y-57174001D01*
X51928519Y-56928665D01*
X52059023Y-56664030D01*
X52063510Y-56650814D01*
X52131807Y-56449616D01*
X52153868Y-56384626D01*
X52211432Y-56095232D01*
X52230730Y-55800800D01*
X52211432Y-55506368D01*
X52153868Y-55216974D01*
X52137935Y-55170037D01*
X52059025Y-54937574D01*
X52052496Y-54924335D01*
X51928519Y-54672935D01*
X51764591Y-54427599D01*
X51714286Y-54370237D01*
X51570042Y-54205757D01*
X51348201Y-54011209D01*
X51102867Y-53847282D01*
X50838225Y-53716774D01*
X50558828Y-53621932D01*
X50269431Y-53564367D01*
X49975000Y-53545070D01*
X49680568Y-53564367D01*
X49391171Y-53621932D01*
X49111774Y-53716774D01*
X48847132Y-53847282D01*
X48601798Y-54011209D01*
X48379957Y-54205757D01*
X48185409Y-54427598D01*
X48021482Y-54672932D01*
X47890974Y-54937574D01*
X47796132Y-55216971D01*
X47738567Y-55506368D01*
X47719270Y-55800799D01*
X41500500Y-55800799D01*
X41500500Y-45338500D01*
X41517381Y-45275500D01*
X41563500Y-45229381D01*
X41626500Y-45212500D01*
X42831434Y-45212500D01*
X42889266Y-45226556D01*
X42934195Y-45265588D01*
X42956197Y-45320887D01*
X42950363Y-45380115D01*
X42894783Y-45538950D01*
X42874384Y-45720000D01*
X42894783Y-45901049D01*
X42954956Y-46073014D01*
X43051889Y-46227282D01*
X43180717Y-46356110D01*
X43334985Y-46453043D01*
X43481469Y-46504300D01*
X43506953Y-46513217D01*
X43688000Y-46533616D01*
X43869047Y-46513217D01*
X44041015Y-46453043D01*
X44195281Y-46356111D01*
X44324111Y-46227281D01*
X44421043Y-46073015D01*
X44481217Y-45901047D01*
X44501616Y-45720000D01*
X44481217Y-45538953D01*
X44479074Y-45532830D01*
X44442213Y-45427487D01*
X44425636Y-45380113D01*
X44419803Y-45320887D01*
X44441805Y-45265588D01*
X44486734Y-45226556D01*
X44544566Y-45212500D01*
X45768638Y-45212500D01*
X45829201Y-45205989D01*
X45966204Y-45154889D01*
X46083261Y-45067261D01*
X46170889Y-44950204D01*
X46221989Y-44813201D01*
X46228500Y-44752638D01*
X46228500Y-44000799D01*
X47719270Y-44000799D01*
X47738567Y-44295231D01*
X47796132Y-44584628D01*
X47890974Y-44864025D01*
X48021482Y-45128667D01*
X48185409Y-45374001D01*
X48379957Y-45595842D01*
X48555426Y-45749723D01*
X48601799Y-45790391D01*
X48847135Y-45954319D01*
X49078747Y-46068538D01*
X49111774Y-46084825D01*
X49307127Y-46151138D01*
X49391174Y-46179668D01*
X49680568Y-46237232D01*
X49975000Y-46256530D01*
X50269432Y-46237232D01*
X50558826Y-46179668D01*
X50712508Y-46127500D01*
X50838225Y-46084825D01*
X50838226Y-46084824D01*
X50838230Y-46084823D01*
X51102865Y-45954319D01*
X51348201Y-45790391D01*
X51570042Y-45595842D01*
X51764591Y-45374001D01*
X51928519Y-45128665D01*
X52059023Y-44864030D01*
X52059882Y-44861501D01*
X52109034Y-44716703D01*
X52153868Y-44584626D01*
X52211432Y-44295232D01*
X52230730Y-44000800D01*
X52230730Y-44000799D01*
X102219270Y-44000799D01*
X102238567Y-44295231D01*
X102296132Y-44584628D01*
X102390974Y-44864025D01*
X102521482Y-45128667D01*
X102685409Y-45374001D01*
X102879957Y-45595842D01*
X103055426Y-45749723D01*
X103101799Y-45790391D01*
X103347135Y-45954319D01*
X103578747Y-46068538D01*
X103611774Y-46084825D01*
X103807127Y-46151138D01*
X103891174Y-46179668D01*
X104180568Y-46237232D01*
X104475000Y-46256530D01*
X104769432Y-46237232D01*
X105058826Y-46179668D01*
X105212508Y-46127500D01*
X105338225Y-46084825D01*
X105338226Y-46084824D01*
X105338230Y-46084823D01*
X105602865Y-45954319D01*
X105848201Y-45790391D01*
X106070042Y-45595842D01*
X106264591Y-45374001D01*
X106428519Y-45128665D01*
X106559023Y-44864030D01*
X106559882Y-44861501D01*
X106609034Y-44716703D01*
X106653868Y-44584626D01*
X106711432Y-44295232D01*
X106730730Y-44000800D01*
X106711432Y-43706368D01*
X106653868Y-43416974D01*
X106631856Y-43352128D01*
X106559025Y-43137574D01*
X106535021Y-43088899D01*
X106428519Y-42872935D01*
X106264591Y-42627599D01*
X106208419Y-42563547D01*
X106070042Y-42405757D01*
X105848201Y-42211209D01*
X105602867Y-42047282D01*
X105338225Y-41916774D01*
X105058828Y-41821932D01*
X104769431Y-41764367D01*
X104475000Y-41745070D01*
X104180568Y-41764367D01*
X103891171Y-41821932D01*
X103611774Y-41916774D01*
X103347132Y-42047282D01*
X103101798Y-42211209D01*
X102879957Y-42405757D01*
X102685409Y-42627598D01*
X102521482Y-42872932D01*
X102390974Y-43137574D01*
X102296132Y-43416971D01*
X102238567Y-43706368D01*
X102219270Y-44000799D01*
X52230730Y-44000799D01*
X52211432Y-43706368D01*
X52153868Y-43416974D01*
X52131856Y-43352128D01*
X52059025Y-43137574D01*
X52035021Y-43088899D01*
X51928519Y-42872935D01*
X51764591Y-42627599D01*
X51708419Y-42563547D01*
X51570042Y-42405757D01*
X51348201Y-42211209D01*
X51102867Y-42047282D01*
X50838225Y-41916774D01*
X50558828Y-41821932D01*
X50269431Y-41764367D01*
X49975000Y-41745070D01*
X49680568Y-41764367D01*
X49391171Y-41821932D01*
X49111774Y-41916774D01*
X48847132Y-42047282D01*
X48601798Y-42211209D01*
X48379957Y-42405757D01*
X48185409Y-42627598D01*
X48021482Y-42872932D01*
X47890974Y-43137574D01*
X47796132Y-43416971D01*
X47738567Y-43706368D01*
X47719270Y-44000799D01*
X46228500Y-44000799D01*
X46228500Y-43456154D01*
X46245975Y-43392137D01*
X46293551Y-43345876D01*
X46358034Y-43330204D01*
X46421536Y-43349467D01*
X46436159Y-43358655D01*
X46509985Y-43405043D01*
X46681953Y-43465217D01*
X46863000Y-43485616D01*
X47044047Y-43465217D01*
X47216015Y-43405043D01*
X47370281Y-43308111D01*
X47499111Y-43179281D01*
X47596043Y-43025015D01*
X47656217Y-42853047D01*
X47676616Y-42672000D01*
X47656217Y-42490953D01*
X47596043Y-42318985D01*
X47499111Y-42164719D01*
X47499110Y-42164717D01*
X47370282Y-42035889D01*
X47216014Y-41938956D01*
X47044049Y-41878783D01*
X46863000Y-41858384D01*
X46681950Y-41878783D01*
X46509985Y-41938957D01*
X46421536Y-41994533D01*
X46358034Y-42013796D01*
X46293551Y-41998124D01*
X46245975Y-41951863D01*
X46228500Y-41887846D01*
X46228500Y-40626500D01*
X46245381Y-40563500D01*
X46291500Y-40517381D01*
X46354500Y-40500500D01*
X230373500Y-40500500D01*
X230436500Y-40517381D01*
G37*
G04 #@! TD.AperFunction*
G04 #@! TA.AperFunction,Conductor*
G36*
X162878000Y-45312481D02*
G01*
X162924119Y-45358600D01*
X162941000Y-45421600D01*
X162941000Y-46557600D01*
X163212503Y-46557600D01*
X163316328Y-46546993D01*
X163484522Y-46491259D01*
X163635341Y-46398232D01*
X163716449Y-46317124D01*
X163772933Y-46284512D01*
X163838156Y-46284511D01*
X163894640Y-46317123D01*
X163922344Y-46344827D01*
X163922346Y-46344828D01*
X163922348Y-46344830D01*
X164073262Y-46437915D01*
X164241574Y-46493687D01*
X164345455Y-46504300D01*
X164954260Y-46504299D01*
X165002478Y-46513890D01*
X165043355Y-46541204D01*
X165125956Y-46623805D01*
X165156694Y-46673964D01*
X165161310Y-46732611D01*
X165138797Y-46786961D01*
X165094064Y-46825167D01*
X165036861Y-46838900D01*
X164320459Y-46838900D01*
X164216573Y-46849513D01*
X164048262Y-46905285D01*
X163897344Y-46998372D01*
X163849495Y-47046222D01*
X163793011Y-47078834D01*
X163727789Y-47078834D01*
X163671305Y-47046222D01*
X163635655Y-47010572D01*
X163635652Y-47010570D01*
X163484738Y-46917485D01*
X163316426Y-46861713D01*
X163212545Y-46851100D01*
X163212540Y-46851100D01*
X162161459Y-46851100D01*
X162057573Y-46861713D01*
X161889262Y-46917485D01*
X161738344Y-47010572D01*
X161690495Y-47058422D01*
X161634011Y-47091034D01*
X161568789Y-47091034D01*
X161512305Y-47058422D01*
X161476655Y-47022772D01*
X161456876Y-47010572D01*
X161325738Y-46929685D01*
X161157426Y-46873913D01*
X161053545Y-46863300D01*
X161053541Y-46863300D01*
X160388638Y-46863300D01*
X160331435Y-46849567D01*
X160286702Y-46811361D01*
X160264189Y-46757011D01*
X160268805Y-46698364D01*
X160299543Y-46648205D01*
X160343144Y-46604604D01*
X160384021Y-46577290D01*
X160432239Y-46567699D01*
X161053540Y-46567699D01*
X161053544Y-46567699D01*
X161157426Y-46557087D01*
X161325738Y-46501315D01*
X161476652Y-46408230D01*
X161498666Y-46386216D01*
X161523559Y-46361324D01*
X161580043Y-46328712D01*
X161645265Y-46328712D01*
X161701749Y-46361324D01*
X161738657Y-46398232D01*
X161889477Y-46491259D01*
X162057671Y-46546993D01*
X162161497Y-46557600D01*
X162433000Y-46557600D01*
X162433000Y-45421600D01*
X162449881Y-45358600D01*
X162496000Y-45312481D01*
X162559000Y-45295600D01*
X162815000Y-45295600D01*
X162878000Y-45312481D01*
G37*
G04 #@! TD.AperFunction*
M02*
