G04 #@! TF.GenerationSoftware,KiCad,Pcbnew,7.0.1-0*
G04 #@! TF.CreationDate,2023-04-13T17:41:14+02:00*
G04 #@! TF.ProjectId,Remote,52656d6f-7465-42e6-9b69-6361645f7063,rev?*
G04 #@! TF.SameCoordinates,Original*
G04 #@! TF.FileFunction,Copper,L1,Top*
G04 #@! TF.FilePolarity,Positive*
%FSLAX46Y46*%
G04 Gerber Fmt 4.6, Leading zero omitted, Abs format (unit mm)*
G04 Created by KiCad (PCBNEW 7.0.1-0) date 2023-04-13 17:41:14*
%MOMM*%
%LPD*%
G01*
G04 APERTURE LIST*
G04 #@! TA.AperFunction,SMDPad,CuDef*
%ADD10R,5.000000X0.600000*%
G04 #@! TD*
G04 #@! TA.AperFunction,ComponentPad*
%ADD11C,1.800000*%
G04 #@! TD*
G04 #@! TA.AperFunction,SMDPad,CuDef*
%ADD12R,8.000000X0.600000*%
G04 #@! TD*
G04 #@! TA.AperFunction,SMDPad,CuDef*
%ADD13R,1.300000X0.300000*%
G04 #@! TD*
G04 #@! TA.AperFunction,SMDPad,CuDef*
%ADD14R,2.200000X1.800000*%
G04 #@! TD*
G04 #@! TA.AperFunction,SMDPad,CuDef*
%ADD15R,2.510000X0.635000*%
G04 #@! TD*
G04 #@! TA.AperFunction,ComponentPad*
%ADD16R,1.700000X1.700000*%
G04 #@! TD*
G04 #@! TA.AperFunction,ComponentPad*
%ADD17O,1.700000X1.700000*%
G04 #@! TD*
G04 #@! TA.AperFunction,ViaPad*
%ADD18C,0.600000*%
G04 #@! TD*
G04 #@! TA.AperFunction,Conductor*
%ADD19C,0.200000*%
G04 #@! TD*
G04 APERTURE END LIST*
D10*
X217597000Y-57730000D03*
D11*
X215097000Y-57130000D03*
X215097000Y-57130000D03*
D10*
X217597000Y-56530000D03*
D12*
X216097000Y-60270000D03*
D11*
X212097000Y-59670000D03*
X212097000Y-59670000D03*
D12*
X216097000Y-59070000D03*
D10*
X217597000Y-52924000D03*
D11*
X215097000Y-52324000D03*
X215097000Y-52324000D03*
D10*
X217597000Y-51724000D03*
D12*
X216097000Y-55464000D03*
D11*
X212097000Y-54864000D03*
X212097000Y-54864000D03*
D12*
X216097000Y-54264000D03*
D13*
X196743351Y-50257000D03*
X196743351Y-50757000D03*
X196743351Y-51257000D03*
X196743351Y-51757000D03*
X196743351Y-52257000D03*
X196743351Y-52757000D03*
X196743351Y-53257000D03*
X196743351Y-53757000D03*
X196743351Y-54257000D03*
X196743351Y-54757000D03*
X196743351Y-55257000D03*
X196743351Y-55757000D03*
X196743351Y-56257000D03*
X196743351Y-56757000D03*
X196743351Y-57257000D03*
X196743351Y-57757000D03*
X196743351Y-58257000D03*
X196743351Y-58757000D03*
X196743351Y-59257000D03*
X196743351Y-59757000D03*
X196743351Y-60257000D03*
X196743351Y-60757000D03*
X196743351Y-61257000D03*
X196743351Y-61757000D03*
D14*
X193493351Y-48357000D03*
X193493351Y-63657000D03*
D15*
X43180000Y-49022000D03*
X43180000Y-50292000D03*
X43180000Y-51562000D03*
X43180000Y-52832000D03*
X43180000Y-54102000D03*
X43180000Y-55372000D03*
X43180000Y-56642000D03*
X43180000Y-57912000D03*
X43180000Y-59182000D03*
X43180000Y-60452000D03*
X43180000Y-61722000D03*
X43180000Y-62992000D03*
D16*
X67970400Y-57282000D03*
D17*
X67970400Y-54742000D03*
X65430400Y-57282000D03*
X65430400Y-54742000D03*
X62890400Y-57282000D03*
X62890400Y-54742000D03*
D16*
X91490800Y-56007000D03*
D17*
X88950800Y-56007000D03*
X86410800Y-56007000D03*
X83870800Y-56007000D03*
X81330800Y-56007000D03*
X78790800Y-56007000D03*
D18*
X154940000Y-65278000D03*
X150876000Y-65913000D03*
X140208000Y-42418000D03*
X142748000Y-42382500D03*
X161452500Y-50927000D03*
X164211000Y-50927000D03*
X195314951Y-57404000D03*
X193366129Y-61637000D03*
X193409951Y-60833000D03*
X194552951Y-60579000D03*
X194552951Y-59690000D03*
X194546240Y-58807711D03*
X194575646Y-57989294D03*
X130810000Y-70231000D03*
X133350000Y-57023000D03*
X135890000Y-57023000D03*
X134620000Y-57023000D03*
X146849503Y-66675000D03*
X146050000Y-66675000D03*
X148336000Y-62230000D03*
X149225000Y-61595000D03*
X150114000Y-61087500D03*
X146050000Y-61976000D03*
X149632911Y-46582089D03*
X152019000Y-50038000D03*
X118110000Y-54610000D03*
X130810000Y-60960000D03*
X118872000Y-45593000D03*
X153416000Y-43688000D03*
X43688000Y-45720000D03*
X132080000Y-45593000D03*
X132080000Y-66929000D03*
X170688000Y-43688000D03*
X170688000Y-47879000D03*
X151765000Y-64262000D03*
X145923000Y-63500000D03*
X160655000Y-64135000D03*
X46863000Y-42672000D03*
X166243000Y-64135000D03*
X198235951Y-57277000D03*
X125730000Y-66929000D03*
X121920000Y-66329500D03*
X127000000Y-66929000D03*
X123190000Y-65278000D03*
X119380000Y-64729500D03*
X128270000Y-66929000D03*
X124450608Y-63130000D03*
X133350000Y-60960000D03*
X136779000Y-60960000D03*
X132080000Y-60960000D03*
X143002000Y-60960000D03*
X120650000Y-64329500D03*
X121920000Y-63929500D03*
X123190000Y-62730000D03*
X124460321Y-62330557D03*
X125730000Y-62357000D03*
X178181000Y-52869503D03*
X178181000Y-53721000D03*
X178181000Y-52070000D03*
D19*
X196743351Y-50757000D02*
X195646293Y-50757000D01*
X195646293Y-50757000D02*
X194390293Y-52013000D01*
X178595215Y-51070000D02*
X173592999Y-51070000D01*
X194390293Y-52013000D02*
X179538215Y-52013000D01*
X179538215Y-52013000D02*
X178595215Y-51070000D01*
X171831000Y-52832000D02*
X155882822Y-52832000D01*
X173592999Y-51070000D02*
X171831000Y-52832000D01*
X155882822Y-52832000D02*
X149632911Y-46582089D01*
X152400000Y-50038000D02*
X155594000Y-53232000D01*
X171996685Y-53232000D02*
X173758685Y-51470000D01*
X155594000Y-53232000D02*
X171996685Y-53232000D01*
X152019000Y-50038000D02*
X152400000Y-50038000D01*
X173758685Y-51470000D02*
X178429529Y-51470000D01*
X178429529Y-51470000D02*
X179372529Y-52413000D01*
X195711979Y-51257000D02*
X196743351Y-51257000D01*
X179372529Y-52413000D02*
X194555979Y-52413000D01*
X194555979Y-52413000D02*
X195711979Y-51257000D01*
X178181000Y-52070000D02*
X178230026Y-52070000D01*
X178230026Y-52070000D02*
X178973026Y-52813000D01*
X178973026Y-52813000D02*
X194721665Y-52813000D01*
X194721665Y-52813000D02*
X195777665Y-51757000D01*
X195777665Y-51757000D02*
X196743351Y-51757000D01*
X178181000Y-52869503D02*
X178230026Y-52869503D01*
X194887351Y-53213000D02*
X195843351Y-52257000D01*
X178230026Y-52869503D02*
X178573523Y-53213000D01*
X178573523Y-53213000D02*
X194887351Y-53213000D01*
X195843351Y-52257000D02*
X196743351Y-52257000D01*
X178181000Y-53721000D02*
X178217000Y-53757000D01*
X178217000Y-53757000D02*
X196743351Y-53757000D01*
X146849503Y-66675000D02*
X146849503Y-65552183D01*
X146849503Y-65552183D02*
X148771686Y-63630000D01*
X148771686Y-63630000D02*
X150722743Y-63630000D01*
X150722743Y-63630000D02*
X153170743Y-61182000D01*
X153170743Y-61182000D02*
X179148058Y-61182000D01*
X179148058Y-61182000D02*
X183573058Y-56757000D01*
X183573058Y-56757000D02*
X196743351Y-56757000D01*
X148606000Y-63230000D02*
X150557058Y-63230000D01*
X146050000Y-65786000D02*
X148606000Y-63230000D01*
X150557058Y-63230000D02*
X153005058Y-60782000D01*
X153005058Y-60782000D02*
X178982369Y-60782000D01*
X146050000Y-66675000D02*
X146050000Y-65786000D01*
X178982369Y-60782000D02*
X183507372Y-56257000D01*
X183507372Y-56257000D02*
X196743351Y-56257000D01*
X146050000Y-61976000D02*
X146904000Y-62830000D01*
X150391372Y-62830000D02*
X152839372Y-60382000D01*
X152839372Y-60382000D02*
X178816684Y-60382000D01*
X178816684Y-60382000D02*
X183441686Y-55757000D01*
X146904000Y-62830000D02*
X150391372Y-62830000D01*
X183441686Y-55757000D02*
X196743351Y-55757000D01*
X148336000Y-62230000D02*
X150425686Y-62230000D01*
X152673686Y-59982000D02*
X178650999Y-59982000D01*
X183376000Y-55257000D02*
X196743351Y-55257000D01*
X150425686Y-62230000D02*
X152673686Y-59982000D01*
X178650999Y-59982000D02*
X183376000Y-55257000D01*
X149225000Y-61595000D02*
X149317000Y-61687000D01*
X150403000Y-61687000D02*
X152508000Y-59582000D01*
X149317000Y-61687000D02*
X150403000Y-61687000D01*
X152508000Y-59582000D02*
X178485313Y-59582000D01*
X178485313Y-59582000D02*
X183310314Y-54757000D01*
X183310314Y-54757000D02*
X196743351Y-54757000D01*
X150114000Y-61087500D02*
X152019500Y-59182000D01*
X152019500Y-59182000D02*
X178319628Y-59182000D01*
X178319628Y-59182000D02*
X183244628Y-54257000D01*
X183244628Y-54257000D02*
X196743351Y-54257000D01*
X122941471Y-63330000D02*
X122541471Y-62930000D01*
X110453002Y-66130000D02*
X109093002Y-64770000D01*
X119380000Y-64729500D02*
X119180500Y-64530000D01*
X122541471Y-62930000D02*
X111778488Y-62930000D01*
X118400599Y-65730000D02*
X110618688Y-65730000D01*
X110749860Y-60770000D02*
X56948372Y-60770000D01*
X110618688Y-65730000D02*
X109258686Y-64370000D01*
X124259764Y-62130000D02*
X112109860Y-62130000D01*
X118965785Y-65729500D02*
X118566285Y-65330000D01*
X45739000Y-51562000D02*
X43180000Y-51562000D01*
X56948372Y-60770000D02*
X55683686Y-59505314D01*
X55683686Y-59505314D02*
X55683686Y-54806316D01*
X45623628Y-56642000D02*
X43180000Y-56642000D01*
X126327000Y-66129000D02*
X122733014Y-66129000D01*
X122733014Y-66129000D02*
X122333514Y-65729500D01*
X122333514Y-65729500D02*
X118965785Y-65729500D01*
X125730500Y-66929500D02*
X119034413Y-66929500D01*
X119034413Y-66929500D02*
X118234913Y-66130000D01*
X46774343Y-52031657D02*
X45034686Y-50292000D01*
X45034686Y-50292000D02*
X43180000Y-50292000D01*
X110950059Y-64930000D02*
X109590058Y-63570000D01*
X125730000Y-66929000D02*
X125730500Y-66929500D01*
X118234913Y-66130000D02*
X110453002Y-66130000D01*
X56782686Y-61170000D02*
X55137000Y-59524314D01*
X55137000Y-59524314D02*
X55137000Y-54825315D01*
X48440884Y-61722000D02*
X43180000Y-61722000D01*
X127000000Y-66929000D02*
X127000000Y-66802000D01*
X127000000Y-66802000D02*
X126327000Y-66129000D01*
X55683686Y-54806316D02*
X52909027Y-52031657D01*
X52909027Y-52031657D02*
X46774343Y-52031657D01*
X118566285Y-65330000D02*
X110784373Y-65330000D01*
X110784373Y-65330000D02*
X109424372Y-63970000D01*
X121920000Y-66329500D02*
X119000099Y-66329500D01*
X119000099Y-66329500D02*
X118400599Y-65730000D01*
X51254570Y-63970000D02*
X47736570Y-60452000D01*
X57114058Y-60370000D02*
X110915546Y-60370000D01*
X110915546Y-60370000D02*
X112275546Y-61730000D01*
X109424372Y-63970000D02*
X51254570Y-63970000D01*
X128270000Y-66929000D02*
X128270000Y-65151000D01*
X123190000Y-65278000D02*
X123138500Y-65329500D01*
X47736570Y-60452000D02*
X43180000Y-60452000D01*
X123138500Y-65329500D02*
X119131471Y-65329500D01*
X55137000Y-54825315D02*
X52743686Y-52432000D01*
X119131471Y-65329500D02*
X118731971Y-64930000D01*
X50923198Y-64770000D02*
X49145198Y-62992000D01*
X49145198Y-62992000D02*
X43180000Y-62992000D01*
X46327942Y-57912000D02*
X43180000Y-57912000D01*
X109590058Y-63570000D02*
X51420256Y-63570000D01*
X109258686Y-64370000D02*
X51088884Y-64370000D01*
X51088884Y-64370000D02*
X48440884Y-61722000D01*
X120650000Y-64329500D02*
X120450500Y-64130000D01*
X51420256Y-63570000D02*
X47032256Y-59182000D01*
X47032256Y-59182000D02*
X43180000Y-59182000D01*
X119180500Y-64530000D02*
X111115745Y-64530000D01*
X111115745Y-64530000D02*
X109755744Y-63170000D01*
X47244000Y-51631657D02*
X53074713Y-51631657D01*
X109755744Y-63170000D02*
X51585942Y-63170000D01*
X118731971Y-64930000D02*
X110950059Y-64930000D01*
X51585942Y-63170000D02*
X46327942Y-57912000D01*
X120450500Y-64130000D02*
X111281431Y-64130000D01*
X111281431Y-64130000D02*
X109921430Y-62770000D01*
X109921430Y-62770000D02*
X51751628Y-62770000D01*
X51751628Y-62770000D02*
X45623628Y-56642000D01*
X121920000Y-63929500D02*
X121720500Y-63730000D01*
X121720500Y-63730000D02*
X111447117Y-63730000D01*
X111447117Y-63730000D02*
X110087116Y-62370000D01*
X110087116Y-62370000D02*
X51917314Y-62370000D01*
X126849000Y-63730000D02*
X122775785Y-63730000D01*
X44919314Y-55372000D02*
X43180000Y-55372000D01*
X51917314Y-62370000D02*
X44919314Y-55372000D01*
X109093002Y-64770000D02*
X50923198Y-64770000D01*
X128270000Y-65151000D02*
X126849000Y-63730000D01*
X122775785Y-63730000D02*
X122375785Y-63330000D01*
X124250608Y-63330000D02*
X122941471Y-63330000D01*
X124450608Y-63130000D02*
X124250608Y-63330000D01*
X122375785Y-63330000D02*
X111612802Y-63330000D01*
X111612802Y-63330000D02*
X110252802Y-61970000D01*
X110252802Y-61970000D02*
X52083000Y-61970000D01*
X52083000Y-61970000D02*
X44215000Y-54102000D01*
X44215000Y-54102000D02*
X43180000Y-54102000D01*
X111778488Y-62930000D02*
X110418488Y-61570000D01*
X110418488Y-61570000D02*
X56617000Y-61570000D01*
X54737000Y-59690000D02*
X54737000Y-54991000D01*
X56617000Y-61570000D02*
X54737000Y-59690000D01*
X54737000Y-54991000D02*
X52578000Y-52832000D01*
X52578000Y-52832000D02*
X43180000Y-52832000D01*
X123190000Y-62730000D02*
X122990000Y-62530000D01*
X111944174Y-62530000D02*
X110584174Y-61170000D01*
X122990000Y-62530000D02*
X111944174Y-62530000D01*
X110584174Y-61170000D02*
X56782686Y-61170000D01*
X52743686Y-52432000D02*
X46609000Y-52432000D01*
X46609000Y-52432000D02*
X45739000Y-51562000D01*
X124460321Y-62330557D02*
X124259764Y-62130000D01*
X112109860Y-62130000D02*
X110749860Y-60770000D01*
X43180000Y-49022000D02*
X44634343Y-49022000D01*
X44634343Y-49022000D02*
X47244000Y-51631657D01*
X53074713Y-51631657D02*
X56083686Y-54640631D01*
X56083686Y-54640631D02*
X56083686Y-59339628D01*
X56083686Y-59339628D02*
X57114058Y-60370000D01*
X112275546Y-61730000D02*
X125103000Y-61730000D01*
X125103000Y-61730000D02*
X125730000Y-62357000D01*
X150876000Y-66821000D02*
X150876000Y-65913000D01*
X130810000Y-70231000D02*
X147466000Y-70231000D01*
X147466000Y-70231000D02*
X150876000Y-66821000D01*
X140208000Y-42418000D02*
X141859000Y-42418000D01*
X142494000Y-41783000D02*
X150662471Y-41783000D01*
X159171471Y-50292000D02*
X161925000Y-50292000D01*
X150662471Y-41783000D02*
X159171471Y-50292000D01*
X141859000Y-42418000D02*
X142494000Y-41783000D01*
X161925000Y-50292000D02*
X162560000Y-50927000D01*
X162560000Y-50927000D02*
X164211000Y-50927000D01*
X161452500Y-50927000D02*
X159240785Y-50927000D01*
X159240785Y-50927000D02*
X150496785Y-42183000D01*
X150496785Y-42183000D02*
X142947500Y-42183000D01*
X142947500Y-42183000D02*
X142748000Y-42382500D01*
X196743351Y-58757000D02*
X195909038Y-58757000D01*
X195314951Y-58162913D02*
X195314951Y-57404000D01*
X195909038Y-58757000D02*
X195314951Y-58162913D01*
X194575646Y-57989294D02*
X195843352Y-59257000D01*
X195843352Y-59257000D02*
X196743351Y-59257000D01*
X193366129Y-61637000D02*
X193506480Y-61777351D01*
X193506480Y-61777351D02*
X196723000Y-61777351D01*
X196723000Y-61777351D02*
X196743351Y-61757000D01*
X193833951Y-61257000D02*
X196743351Y-61257000D01*
X193409951Y-60833000D02*
X193833951Y-61257000D01*
X194552951Y-60579000D02*
X194730951Y-60757000D01*
X194730951Y-60757000D02*
X196743351Y-60757000D01*
X195119951Y-60257000D02*
X196743351Y-60257000D01*
X194552951Y-59690000D02*
X195119951Y-60257000D01*
X194546240Y-58807711D02*
X195495529Y-59757000D01*
X195495529Y-59757000D02*
X196743351Y-59757000D01*
X65430400Y-54742000D02*
X65430400Y-54711600D01*
X130625314Y-51054000D02*
X134620000Y-55048686D01*
X65430400Y-54711600D02*
X69088000Y-51054000D01*
X134620000Y-55048686D02*
X134620000Y-57023000D01*
X69088000Y-51054000D02*
X130625314Y-51054000D01*
X65430400Y-57282000D02*
X66580400Y-58432000D01*
X130459628Y-51454000D02*
X133350000Y-54344372D01*
X66580400Y-58432000D02*
X68949000Y-58432000D01*
X68949000Y-58432000D02*
X69596000Y-57785000D01*
X69596000Y-57785000D02*
X69596000Y-52324000D01*
X69596000Y-52324000D02*
X70466000Y-51454000D01*
X70466000Y-51454000D02*
X130459628Y-51454000D01*
X133350000Y-54344372D02*
X133350000Y-57023000D01*
X67970400Y-57282000D02*
X66820400Y-56132000D01*
X66820400Y-56132000D02*
X65194054Y-56132000D01*
X65194054Y-56132000D02*
X64280400Y-55218346D01*
X64280400Y-55218346D02*
X64280400Y-54265654D01*
X64280400Y-54265654D02*
X67892054Y-50654000D01*
X67892054Y-50654000D02*
X130791000Y-50654000D01*
X130791000Y-50654000D02*
X135890000Y-55753000D01*
X135890000Y-55753000D02*
X135890000Y-57023000D01*
X143002000Y-60960000D02*
X137627529Y-60960000D01*
X137627529Y-60960000D02*
X137027529Y-61560000D01*
X137027529Y-61560000D02*
X132680000Y-61560000D01*
X132680000Y-61560000D02*
X132080000Y-60960000D01*
X196743351Y-58257000D02*
X198072951Y-58257000D01*
X198072951Y-58257000D02*
X198108951Y-58293000D01*
X196743351Y-57257000D02*
X196743351Y-57757000D01*
X196743351Y-57257000D02*
X198215951Y-57257000D01*
X198215951Y-57257000D02*
X198235951Y-57277000D01*
X133350000Y-60960000D02*
X136779000Y-60960000D01*
G04 #@! TA.AperFunction,Conductor*
G36*
X230436500Y-40517381D02*
G01*
X230482619Y-40563500D01*
X230499500Y-40626500D01*
X230499500Y-44467143D01*
X230487896Y-44519959D01*
X230455222Y-44563047D01*
X230407495Y-44588470D01*
X230328511Y-44610600D01*
X230077486Y-44719636D01*
X229843656Y-44861830D01*
X229631361Y-45034547D01*
X229444560Y-45234560D01*
X229286741Y-45458140D01*
X229160831Y-45701134D01*
X229069182Y-45959008D01*
X229013500Y-46226966D01*
X228994825Y-46499999D01*
X229013500Y-46773033D01*
X229069182Y-47040991D01*
X229160831Y-47298865D01*
X229286741Y-47541859D01*
X229444560Y-47765439D01*
X229444563Y-47765442D01*
X229631362Y-47965454D01*
X229787033Y-48092102D01*
X229843656Y-48138169D01*
X229949463Y-48202511D01*
X230077489Y-48280365D01*
X230328508Y-48389398D01*
X230328509Y-48389398D01*
X230328511Y-48389399D01*
X230407495Y-48411530D01*
X230455222Y-48436953D01*
X230487896Y-48480041D01*
X230499500Y-48532857D01*
X230499500Y-50873500D01*
X230482619Y-50936500D01*
X230436500Y-50982619D01*
X230373500Y-50999500D01*
X220420392Y-50999500D01*
X220380601Y-50993052D01*
X220344883Y-50974368D01*
X220343206Y-50973112D01*
X220343204Y-50973111D01*
X220206201Y-50922011D01*
X220206200Y-50922010D01*
X220206198Y-50922010D01*
X220145638Y-50915500D01*
X215213712Y-50915500D01*
X214980288Y-50915500D01*
X214750049Y-50953920D01*
X214750046Y-50953920D01*
X214750046Y-50953921D01*
X214529273Y-51029712D01*
X214323984Y-51140809D01*
X214139779Y-51284182D01*
X213981684Y-51455919D01*
X213854016Y-51651330D01*
X213760250Y-51865094D01*
X213706209Y-52078500D01*
X213702949Y-52091374D01*
X213683673Y-52324000D01*
X213702949Y-52556626D01*
X213702949Y-52556629D01*
X213702950Y-52556630D01*
X213736332Y-52688455D01*
X213760251Y-52782907D01*
X213854016Y-52996669D01*
X213981686Y-53192083D01*
X214029630Y-53244163D01*
X214057983Y-53294547D01*
X214060850Y-53352291D01*
X214037626Y-53405236D01*
X213993201Y-53442236D01*
X213936928Y-53455500D01*
X212213712Y-53455500D01*
X211980288Y-53455500D01*
X211750049Y-53493920D01*
X211750046Y-53493920D01*
X211750046Y-53493921D01*
X211529273Y-53569712D01*
X211323984Y-53680809D01*
X211139779Y-53824182D01*
X210981684Y-53995919D01*
X210854016Y-54191330D01*
X210760250Y-54405094D01*
X210704239Y-54626278D01*
X210702949Y-54631374D01*
X210683673Y-54864000D01*
X210702949Y-55096626D01*
X210702949Y-55096629D01*
X210702950Y-55096630D01*
X210760250Y-55322905D01*
X210771257Y-55347999D01*
X210854016Y-55536669D01*
X210981686Y-55732083D01*
X211139780Y-55903818D01*
X211323983Y-56047190D01*
X211529273Y-56158287D01*
X211750049Y-56234080D01*
X211980288Y-56272500D01*
X212048362Y-56272500D01*
X212213712Y-56272500D01*
X213742233Y-56272500D01*
X213802202Y-56287686D01*
X213847716Y-56329584D01*
X213867803Y-56388095D01*
X213857620Y-56449113D01*
X213760251Y-56671091D01*
X213706527Y-56883245D01*
X213702949Y-56897374D01*
X213683673Y-57130000D01*
X213702949Y-57362626D01*
X213702949Y-57362629D01*
X213702950Y-57362630D01*
X213760250Y-57588905D01*
X213854016Y-57802669D01*
X213926170Y-57913110D01*
X213981686Y-57998083D01*
X214029630Y-58050163D01*
X214057983Y-58100547D01*
X214060850Y-58158291D01*
X214037626Y-58211236D01*
X213993201Y-58248236D01*
X213936928Y-58261500D01*
X212213712Y-58261500D01*
X211980288Y-58261500D01*
X211750049Y-58299920D01*
X211750046Y-58299920D01*
X211750046Y-58299921D01*
X211529273Y-58375712D01*
X211323984Y-58486809D01*
X211139779Y-58630182D01*
X210981684Y-58801919D01*
X210854016Y-58997330D01*
X210760250Y-59211094D01*
X210702950Y-59437369D01*
X210702949Y-59437374D01*
X210683673Y-59670000D01*
X210702949Y-59902626D01*
X210702949Y-59902629D01*
X210702950Y-59902630D01*
X210760250Y-60128905D01*
X210776865Y-60166783D01*
X210854016Y-60342669D01*
X210981686Y-60538083D01*
X211139780Y-60709818D01*
X211323983Y-60853190D01*
X211529273Y-60964287D01*
X211750049Y-61040080D01*
X211980288Y-61078500D01*
X212048362Y-61078500D01*
X212213712Y-61078500D01*
X220145638Y-61078500D01*
X220206201Y-61071989D01*
X220343204Y-61020889D01*
X220343208Y-61020885D01*
X220358147Y-61015314D01*
X220368939Y-61009667D01*
X220408721Y-61003211D01*
X230373468Y-61000660D01*
X230436481Y-61017530D01*
X230482614Y-61063651D01*
X230499500Y-61126660D01*
X230499500Y-62967143D01*
X230487896Y-63019959D01*
X230455222Y-63063047D01*
X230407495Y-63088470D01*
X230328511Y-63110600D01*
X230077486Y-63219636D01*
X229843656Y-63361830D01*
X229631361Y-63534547D01*
X229444560Y-63734560D01*
X229286741Y-63958140D01*
X229160831Y-64201134D01*
X229069182Y-64459008D01*
X229013500Y-64726966D01*
X228994825Y-65000000D01*
X229013500Y-65273033D01*
X229069182Y-65540991D01*
X229160831Y-65798865D01*
X229286741Y-66041859D01*
X229444560Y-66265439D01*
X229444563Y-66265442D01*
X229631362Y-66465454D01*
X229776410Y-66583460D01*
X229843656Y-66638169D01*
X229982889Y-66722838D01*
X230077489Y-66780365D01*
X230328508Y-66889398D01*
X230328509Y-66889398D01*
X230328511Y-66889399D01*
X230407495Y-66911530D01*
X230455222Y-66936953D01*
X230487896Y-66980041D01*
X230499500Y-67032857D01*
X230499500Y-71373500D01*
X230482619Y-71436500D01*
X230436500Y-71482619D01*
X230373500Y-71499500D01*
X40626500Y-71499500D01*
X40563500Y-71482619D01*
X40517381Y-71436500D01*
X40500500Y-71373500D01*
X40500500Y-71001972D01*
X40509526Y-70955143D01*
X40535310Y-70915022D01*
X40574155Y-70887359D01*
X40720950Y-70820321D01*
X40901513Y-70704281D01*
X41063724Y-70563724D01*
X41204281Y-70401513D01*
X41313863Y-70230999D01*
X129996384Y-70230999D01*
X130016783Y-70412049D01*
X130076956Y-70584014D01*
X130173889Y-70738282D01*
X130302717Y-70867110D01*
X130302719Y-70867111D01*
X130456985Y-70964043D01*
X130628953Y-71024217D01*
X130810000Y-71044616D01*
X130991047Y-71024217D01*
X131163015Y-70964043D01*
X131317281Y-70867111D01*
X131317280Y-70867111D01*
X131329302Y-70859558D01*
X131330454Y-70861392D01*
X131348865Y-70849091D01*
X131397083Y-70839500D01*
X147417864Y-70839500D01*
X147434307Y-70840577D01*
X147466000Y-70844750D01*
X147497693Y-70840577D01*
X147497703Y-70840577D01*
X147505884Y-70839500D01*
X147505885Y-70839500D01*
X147605456Y-70826391D01*
X147624851Y-70823838D01*
X147772876Y-70762524D01*
X147868072Y-70689477D01*
X147868072Y-70689476D01*
X147884629Y-70676772D01*
X147884632Y-70676769D01*
X147885546Y-70676067D01*
X147899987Y-70664987D01*
X147919457Y-70639611D01*
X147930309Y-70627238D01*
X150956748Y-67600799D01*
X173219270Y-67600799D01*
X173238567Y-67895231D01*
X173296132Y-68184628D01*
X173390974Y-68464025D01*
X173521482Y-68728667D01*
X173685409Y-68974001D01*
X173879957Y-69195842D01*
X174074505Y-69366455D01*
X174101799Y-69390391D01*
X174347135Y-69554319D01*
X174485392Y-69622500D01*
X174611774Y-69684825D01*
X174891171Y-69779667D01*
X174891174Y-69779668D01*
X175180568Y-69837232D01*
X175475000Y-69856530D01*
X175769432Y-69837232D01*
X176058826Y-69779668D01*
X176244250Y-69716725D01*
X176338225Y-69684825D01*
X176338226Y-69684824D01*
X176338230Y-69684823D01*
X176602865Y-69554319D01*
X176848201Y-69390391D01*
X177070042Y-69195842D01*
X177264591Y-68974001D01*
X177428519Y-68728665D01*
X177559023Y-68464030D01*
X177653868Y-68184626D01*
X177711432Y-67895232D01*
X177730730Y-67600800D01*
X177711432Y-67306368D01*
X177653868Y-67016974D01*
X177626825Y-66937308D01*
X177559025Y-66737574D01*
X177501405Y-66620733D01*
X177428519Y-66472935D01*
X177264591Y-66227599D01*
X177206897Y-66161811D01*
X177070042Y-66005757D01*
X176848201Y-65811209D01*
X176602867Y-65647282D01*
X176338225Y-65516774D01*
X176058828Y-65421932D01*
X175769431Y-65364367D01*
X175475000Y-65345070D01*
X175180568Y-65364367D01*
X174891171Y-65421932D01*
X174611774Y-65516774D01*
X174347132Y-65647282D01*
X174101798Y-65811209D01*
X173879957Y-66005757D01*
X173685409Y-66227598D01*
X173521482Y-66472932D01*
X173390974Y-66737574D01*
X173296132Y-67016971D01*
X173238567Y-67306368D01*
X173219270Y-67600799D01*
X150956748Y-67600799D01*
X151272235Y-67285312D01*
X151284619Y-67274452D01*
X151285098Y-67274083D01*
X151309987Y-67254987D01*
X151321772Y-67239627D01*
X151321775Y-67239625D01*
X151365777Y-67182281D01*
X151407524Y-67127876D01*
X151448887Y-67028015D01*
X151468838Y-66979850D01*
X151484500Y-66860885D01*
X151485578Y-66852697D01*
X151485578Y-66852690D01*
X151485727Y-66851553D01*
X151489750Y-66821000D01*
X151485577Y-66789307D01*
X151484500Y-66772864D01*
X151484500Y-66500083D01*
X151494091Y-66451865D01*
X151506392Y-66433454D01*
X151504558Y-66432302D01*
X151568778Y-66330096D01*
X151609043Y-66266015D01*
X151669217Y-66094047D01*
X151689616Y-65913000D01*
X151669217Y-65731953D01*
X151656290Y-65695011D01*
X151609043Y-65559985D01*
X151512110Y-65405717D01*
X151383282Y-65276889D01*
X151229014Y-65179956D01*
X151057049Y-65119783D01*
X150876000Y-65099384D01*
X150694950Y-65119783D01*
X150522985Y-65179956D01*
X150368717Y-65276889D01*
X150239889Y-65405717D01*
X150142956Y-65559985D01*
X150082783Y-65731950D01*
X150062384Y-65913000D01*
X150082783Y-66094049D01*
X150142956Y-66266014D01*
X150247442Y-66432302D01*
X150245607Y-66433454D01*
X150257909Y-66451865D01*
X150267500Y-66500083D01*
X150267500Y-66516761D01*
X150257909Y-66564979D01*
X150230595Y-66605856D01*
X147250856Y-69585595D01*
X147209979Y-69612909D01*
X147161761Y-69622500D01*
X131397083Y-69622500D01*
X131348865Y-69612909D01*
X131330454Y-69600607D01*
X131329302Y-69602442D01*
X131163014Y-69497956D01*
X130991049Y-69437783D01*
X130810000Y-69417384D01*
X130628950Y-69437783D01*
X130456985Y-69497956D01*
X130302717Y-69594889D01*
X130173889Y-69723717D01*
X130076956Y-69877985D01*
X130016783Y-70049950D01*
X129996384Y-70230999D01*
X41313863Y-70230999D01*
X41320321Y-70220950D01*
X41409484Y-70025710D01*
X41469954Y-69819769D01*
X41483764Y-69723719D01*
X41500500Y-69607321D01*
X41500500Y-63875363D01*
X41514852Y-63816961D01*
X41554639Y-63771864D01*
X41610797Y-63750345D01*
X41670532Y-63757307D01*
X41707728Y-63771180D01*
X41815799Y-63811489D01*
X41876362Y-63818000D01*
X44483638Y-63818000D01*
X44544201Y-63811489D01*
X44681204Y-63760389D01*
X44739732Y-63716575D01*
X44798260Y-63672762D01*
X44814557Y-63650992D01*
X44859026Y-63613828D01*
X44915426Y-63600500D01*
X48840959Y-63600500D01*
X48889177Y-63610091D01*
X48930054Y-63637405D01*
X50458879Y-65166230D01*
X50469743Y-65178616D01*
X50470228Y-65179248D01*
X50494448Y-65234614D01*
X50490103Y-65294889D01*
X50458193Y-65346209D01*
X50406056Y-65376768D01*
X50345688Y-65379536D01*
X50269431Y-65364367D01*
X49975000Y-65345070D01*
X49680568Y-65364367D01*
X49391171Y-65421932D01*
X49111774Y-65516774D01*
X48847132Y-65647282D01*
X48601798Y-65811209D01*
X48379957Y-66005757D01*
X48185409Y-66227598D01*
X48021482Y-66472932D01*
X47890974Y-66737574D01*
X47796132Y-67016971D01*
X47738567Y-67306368D01*
X47719270Y-67600799D01*
X47738567Y-67895231D01*
X47796132Y-68184628D01*
X47890974Y-68464025D01*
X48021482Y-68728667D01*
X48185409Y-68974001D01*
X48379957Y-69195842D01*
X48574505Y-69366455D01*
X48601799Y-69390391D01*
X48847135Y-69554319D01*
X48985392Y-69622500D01*
X49111774Y-69684825D01*
X49391171Y-69779667D01*
X49391174Y-69779668D01*
X49680568Y-69837232D01*
X49975000Y-69856530D01*
X50269432Y-69837232D01*
X50558826Y-69779668D01*
X50744250Y-69716725D01*
X50838225Y-69684825D01*
X50838226Y-69684824D01*
X50838230Y-69684823D01*
X51102865Y-69554319D01*
X51348201Y-69390391D01*
X51570042Y-69195842D01*
X51764591Y-68974001D01*
X51928519Y-68728665D01*
X52059023Y-68464030D01*
X52153868Y-68184626D01*
X52211432Y-67895232D01*
X52230730Y-67600800D01*
X52211432Y-67306368D01*
X52153868Y-67016974D01*
X52126825Y-66937308D01*
X52059025Y-66737574D01*
X52001405Y-66620733D01*
X51928519Y-66472935D01*
X51764591Y-66227599D01*
X51706897Y-66161811D01*
X51570042Y-66005757D01*
X51348201Y-65811209D01*
X51102867Y-65647282D01*
X51081285Y-65636639D01*
X51042484Y-65617504D01*
X50992542Y-65573124D01*
X50972312Y-65509447D01*
X50987484Y-65444378D01*
X51033792Y-65396215D01*
X51098215Y-65378500D01*
X103351785Y-65378500D01*
X103416208Y-65396215D01*
X103462516Y-65444378D01*
X103477688Y-65509447D01*
X103457458Y-65573124D01*
X103407515Y-65617504D01*
X103387963Y-65627147D01*
X103347132Y-65647282D01*
X103101798Y-65811209D01*
X102879957Y-66005757D01*
X102685409Y-66227598D01*
X102521482Y-66472932D01*
X102390974Y-66737574D01*
X102296132Y-67016971D01*
X102238567Y-67306368D01*
X102219270Y-67600800D01*
X102238567Y-67895231D01*
X102296132Y-68184628D01*
X102390974Y-68464025D01*
X102521482Y-68728667D01*
X102685409Y-68974001D01*
X102879957Y-69195842D01*
X103074505Y-69366455D01*
X103101799Y-69390391D01*
X103347135Y-69554319D01*
X103485392Y-69622500D01*
X103611774Y-69684825D01*
X103891171Y-69779667D01*
X103891174Y-69779668D01*
X104180568Y-69837232D01*
X104475000Y-69856530D01*
X104769432Y-69837232D01*
X105058826Y-69779668D01*
X105244250Y-69716725D01*
X105338225Y-69684825D01*
X105338226Y-69684824D01*
X105338230Y-69684823D01*
X105602865Y-69554319D01*
X105848201Y-69390391D01*
X106070042Y-69195842D01*
X106264591Y-68974001D01*
X106428519Y-68728665D01*
X106559023Y-68464030D01*
X106653868Y-68184626D01*
X106711432Y-67895232D01*
X106730730Y-67600800D01*
X106711432Y-67306368D01*
X106653868Y-67016974D01*
X106626825Y-66937308D01*
X106559025Y-66737574D01*
X106501405Y-66620733D01*
X106428519Y-66472935D01*
X106264591Y-66227599D01*
X106206897Y-66161811D01*
X106070042Y-66005757D01*
X105848201Y-65811209D01*
X105602867Y-65647282D01*
X105581285Y-65636639D01*
X105542484Y-65617504D01*
X105492542Y-65573124D01*
X105472312Y-65509447D01*
X105487484Y-65444378D01*
X105533792Y-65396215D01*
X105598215Y-65378500D01*
X108788763Y-65378500D01*
X108836981Y-65388091D01*
X108877858Y-65415405D01*
X109988683Y-66526230D01*
X109999549Y-66538619D01*
X110019015Y-66563987D01*
X110044381Y-66583451D01*
X110044391Y-66583460D01*
X110073579Y-66605856D01*
X110092966Y-66620732D01*
X110146127Y-66661524D01*
X110294152Y-66722838D01*
X110406083Y-66737574D01*
X110421298Y-66739577D01*
X110421312Y-66739578D01*
X110453002Y-66743750D01*
X110484694Y-66739577D01*
X110501138Y-66738500D01*
X117930674Y-66738500D01*
X117978892Y-66748091D01*
X118019769Y-66775405D01*
X118570094Y-67325730D01*
X118580960Y-67338119D01*
X118600426Y-67363487D01*
X118625790Y-67382950D01*
X118625806Y-67382964D01*
X118727535Y-67461023D01*
X118727536Y-67461023D01*
X118727537Y-67461024D01*
X118875562Y-67522338D01*
X118885258Y-67523614D01*
X118894955Y-67524891D01*
X118894956Y-67524891D01*
X119002709Y-67539077D01*
X119002720Y-67539077D01*
X119034413Y-67543250D01*
X119066106Y-67539078D01*
X119082551Y-67538000D01*
X125143417Y-67538000D01*
X125191635Y-67547591D01*
X125209471Y-67559509D01*
X125210698Y-67557558D01*
X125376984Y-67662042D01*
X125376985Y-67662043D01*
X125548953Y-67722217D01*
X125730000Y-67742616D01*
X125911047Y-67722217D01*
X126083015Y-67662043D01*
X126237281Y-67565111D01*
X126275906Y-67526485D01*
X126332386Y-67493876D01*
X126397609Y-67493875D01*
X126454094Y-67526487D01*
X126492717Y-67565110D01*
X126646984Y-67662042D01*
X126646985Y-67662043D01*
X126818953Y-67722217D01*
X127000000Y-67742616D01*
X127181047Y-67722217D01*
X127353015Y-67662043D01*
X127507281Y-67565111D01*
X127545906Y-67526485D01*
X127602386Y-67493876D01*
X127667609Y-67493875D01*
X127724094Y-67526487D01*
X127762717Y-67565110D01*
X127916984Y-67662042D01*
X127916985Y-67662043D01*
X128088953Y-67722217D01*
X128270000Y-67742616D01*
X128451047Y-67722217D01*
X128623015Y-67662043D01*
X128777281Y-67565111D01*
X128906111Y-67436281D01*
X129003043Y-67282015D01*
X129063217Y-67110047D01*
X129083616Y-66929000D01*
X129063217Y-66747953D01*
X129060286Y-66739578D01*
X129037689Y-66674999D01*
X145236384Y-66674999D01*
X145256783Y-66856049D01*
X145316956Y-67028014D01*
X145413889Y-67182282D01*
X145542717Y-67311110D01*
X145696985Y-67408043D01*
X145848396Y-67461024D01*
X145868953Y-67468217D01*
X146050000Y-67488616D01*
X146231047Y-67468217D01*
X146403015Y-67408043D01*
X146403020Y-67408039D01*
X146408135Y-67406250D01*
X146449751Y-67399179D01*
X146491367Y-67406250D01*
X146496484Y-67408040D01*
X146496488Y-67408043D01*
X146668456Y-67468217D01*
X146849503Y-67488616D01*
X147030550Y-67468217D01*
X147202518Y-67408043D01*
X147356784Y-67311111D01*
X147485614Y-67182281D01*
X147582546Y-67028015D01*
X147642720Y-66856047D01*
X147663119Y-66675000D01*
X147642720Y-66493953D01*
X147635364Y-66472932D01*
X147582546Y-66321985D01*
X147478061Y-66155698D01*
X147479895Y-66154545D01*
X147467594Y-66136135D01*
X147458003Y-66087917D01*
X147458003Y-65856422D01*
X147467594Y-65808204D01*
X147494908Y-65767327D01*
X148253235Y-65009000D01*
X177470123Y-65009000D01*
X177485558Y-65185423D01*
X177489193Y-65226977D01*
X177545824Y-65438329D01*
X177638298Y-65636639D01*
X177763804Y-65815880D01*
X177918519Y-65970595D01*
X177918522Y-65970597D01*
X177918523Y-65970598D01*
X178097761Y-66096102D01*
X178296070Y-66188575D01*
X178507423Y-66245207D01*
X178725400Y-66264277D01*
X178943377Y-66245207D01*
X179154730Y-66188575D01*
X179353039Y-66096102D01*
X179532277Y-65970598D01*
X179686998Y-65815877D01*
X179812502Y-65636639D01*
X179904975Y-65438330D01*
X179961607Y-65226977D01*
X179980677Y-65009000D01*
X179961607Y-64791023D01*
X179904975Y-64579670D01*
X179812502Y-64381362D01*
X179793982Y-64354913D01*
X179686995Y-64202119D01*
X179532280Y-64047404D01*
X179353039Y-63921898D01*
X179154729Y-63829424D01*
X178943377Y-63772793D01*
X178725400Y-63753723D01*
X178507423Y-63772793D01*
X178296070Y-63829425D01*
X178296067Y-63829426D01*
X178296068Y-63829426D01*
X178097760Y-63921898D01*
X177918519Y-64047404D01*
X177763804Y-64202119D01*
X177638298Y-64381360D01*
X177571688Y-64524207D01*
X177545825Y-64579670D01*
X177489193Y-64791023D01*
X177470123Y-65009000D01*
X148253235Y-65009000D01*
X148986830Y-64275405D01*
X149027707Y-64248091D01*
X149075925Y-64238500D01*
X150674607Y-64238500D01*
X150691050Y-64239577D01*
X150722743Y-64243750D01*
X150754436Y-64239577D01*
X150754446Y-64239577D01*
X150762627Y-64238500D01*
X150762628Y-64238500D01*
X150862199Y-64225391D01*
X150881594Y-64222838D01*
X151029619Y-64161524D01*
X151124815Y-64088477D01*
X151124815Y-64088476D01*
X151141372Y-64075772D01*
X151141375Y-64075769D01*
X151156727Y-64063989D01*
X151156726Y-64063989D01*
X151156730Y-64063987D01*
X151176207Y-64038604D01*
X151187052Y-64026239D01*
X153385887Y-61827405D01*
X153426764Y-61800091D01*
X153474982Y-61790500D01*
X179099922Y-61790500D01*
X179116365Y-61791577D01*
X179148058Y-61795750D01*
X179179751Y-61791577D01*
X179179761Y-61791577D01*
X179187942Y-61790500D01*
X179187943Y-61790500D01*
X179287820Y-61777351D01*
X179287821Y-61777351D01*
X179294182Y-61776513D01*
X179306909Y-61774838D01*
X179454934Y-61713524D01*
X179550130Y-61640477D01*
X179550130Y-61640476D01*
X179566687Y-61627772D01*
X179566690Y-61627769D01*
X179572925Y-61622985D01*
X179582045Y-61615987D01*
X179601515Y-61590611D01*
X179612367Y-61578238D01*
X183788201Y-57402405D01*
X183829079Y-57375091D01*
X183877297Y-57365500D01*
X193784765Y-57365500D01*
X193848782Y-57382975D01*
X193895043Y-57430551D01*
X193910715Y-57495033D01*
X193891452Y-57558536D01*
X193842603Y-57636279D01*
X193782429Y-57808244D01*
X193762030Y-57989294D01*
X193782429Y-58170343D01*
X193837302Y-58327162D01*
X193843581Y-58382883D01*
X193825062Y-58435810D01*
X193813196Y-58454694D01*
X193753023Y-58626661D01*
X193732624Y-58807710D01*
X193753023Y-58988760D01*
X193813195Y-59160722D01*
X193813196Y-59160724D01*
X193813197Y-59160726D01*
X193829806Y-59187160D01*
X193849119Y-59254192D01*
X193829808Y-59321228D01*
X193819906Y-59336986D01*
X193759734Y-59508950D01*
X193754167Y-59558361D01*
X193739335Y-59690000D01*
X193759734Y-59871047D01*
X193764144Y-59883650D01*
X193768055Y-59953301D01*
X193734309Y-60014358D01*
X193673252Y-60048104D01*
X193603601Y-60044193D01*
X193590998Y-60039783D01*
X193409951Y-60019384D01*
X193409950Y-60019384D01*
X193228901Y-60039783D01*
X193056936Y-60099956D01*
X192902668Y-60196889D01*
X192773840Y-60325717D01*
X192676907Y-60479985D01*
X192616734Y-60651950D01*
X192596335Y-60833000D01*
X192616734Y-61014049D01*
X192663211Y-61146871D01*
X192669490Y-61202593D01*
X192650970Y-61255521D01*
X192633084Y-61283985D01*
X192572912Y-61455950D01*
X192553553Y-61627769D01*
X192552513Y-61637000D01*
X192559312Y-61697348D01*
X192572912Y-61818049D01*
X192628182Y-61976000D01*
X192633086Y-61990015D01*
X192641864Y-62003985D01*
X192674211Y-62055465D01*
X192693473Y-62118967D01*
X192677801Y-62183449D01*
X192631540Y-62231025D01*
X192567523Y-62248500D01*
X192344713Y-62248500D01*
X192284150Y-62255011D01*
X192147145Y-62306111D01*
X192030089Y-62393738D01*
X191942462Y-62510794D01*
X191891362Y-62647799D01*
X191884851Y-62708362D01*
X191884851Y-64605638D01*
X191891362Y-64666200D01*
X191942462Y-64803205D01*
X192030089Y-64920261D01*
X192147145Y-65007888D01*
X192147146Y-65007888D01*
X192147147Y-65007889D01*
X192284150Y-65058989D01*
X192344713Y-65065500D01*
X194641989Y-65065500D01*
X194702552Y-65058989D01*
X194839555Y-65007889D01*
X194956612Y-64920261D01*
X195044240Y-64803204D01*
X195095340Y-64666201D01*
X195101851Y-64605638D01*
X195101851Y-62708362D01*
X195095340Y-62647799D01*
X195061057Y-62555883D01*
X195054095Y-62496148D01*
X195075614Y-62439990D01*
X195120711Y-62400203D01*
X195179113Y-62385851D01*
X195899381Y-62385851D01*
X195943412Y-62393795D01*
X195971758Y-62404367D01*
X195984150Y-62408989D01*
X196044713Y-62415500D01*
X197441989Y-62415500D01*
X197502552Y-62408989D01*
X197639555Y-62357889D01*
X197756612Y-62270261D01*
X197844240Y-62153204D01*
X197895340Y-62016201D01*
X197901851Y-61955638D01*
X197901851Y-61558362D01*
X197897777Y-61520468D01*
X197897777Y-61493530D01*
X197901851Y-61455638D01*
X197901851Y-61058361D01*
X197897777Y-61020468D01*
X197897777Y-60993530D01*
X197901851Y-60955638D01*
X197901851Y-60558361D01*
X197897777Y-60520468D01*
X197897777Y-60493530D01*
X197901851Y-60455638D01*
X197901851Y-60058361D01*
X197897777Y-60020468D01*
X197897777Y-59993530D01*
X197901851Y-59955638D01*
X197901851Y-59558361D01*
X197897777Y-59520468D01*
X197897777Y-59493530D01*
X197901851Y-59455638D01*
X197901851Y-59058361D01*
X197897777Y-59020468D01*
X197897777Y-58993530D01*
X197901851Y-58955638D01*
X197901851Y-58558363D01*
X197899511Y-58536595D01*
X197897524Y-58518114D01*
X197897524Y-58491178D01*
X197901351Y-58455588D01*
X197901351Y-58406999D01*
X197888806Y-58394454D01*
X197885500Y-58393673D01*
X197841032Y-58356511D01*
X197823063Y-58332507D01*
X197800812Y-58283784D01*
X197800812Y-58230216D01*
X197823063Y-58181492D01*
X197841032Y-58157488D01*
X197885500Y-58120327D01*
X197888804Y-58119546D01*
X197912419Y-58095931D01*
X197973477Y-58062185D01*
X198043129Y-58066096D01*
X198054904Y-58070217D01*
X198235951Y-58090616D01*
X198416998Y-58070217D01*
X198588966Y-58010043D01*
X198743232Y-57913111D01*
X198872062Y-57784281D01*
X198968994Y-57630015D01*
X199029168Y-57458047D01*
X199049567Y-57277000D01*
X199029168Y-57095953D01*
X198968994Y-56923985D01*
X198872062Y-56769719D01*
X198872061Y-56769717D01*
X198743233Y-56640889D01*
X198588965Y-56543956D01*
X198417000Y-56483783D01*
X198296299Y-56470183D01*
X198235951Y-56463384D01*
X198235950Y-56463384D01*
X198187993Y-56468787D01*
X198054904Y-56483783D01*
X198054902Y-56483783D01*
X198041958Y-56485242D01*
X197973182Y-56473556D01*
X197921164Y-56427070D01*
X197901851Y-56360034D01*
X197901851Y-56058361D01*
X197897777Y-56020468D01*
X197897777Y-55993530D01*
X197901851Y-55955638D01*
X197901851Y-55558361D01*
X197897777Y-55520468D01*
X197897777Y-55493530D01*
X197901851Y-55455638D01*
X197901851Y-55058362D01*
X197897777Y-55020469D01*
X197897777Y-54993531D01*
X197899327Y-54979119D01*
X197901851Y-54955638D01*
X197901851Y-54558362D01*
X197897777Y-54520468D01*
X197897777Y-54493531D01*
X197899041Y-54481779D01*
X197901851Y-54455638D01*
X197901851Y-54058362D01*
X197897777Y-54020468D01*
X197897777Y-53993530D01*
X197901851Y-53955638D01*
X197901851Y-53558362D01*
X197899872Y-53539953D01*
X197897777Y-53520468D01*
X197897777Y-53493531D01*
X197901851Y-53455638D01*
X197901851Y-53058361D01*
X197897777Y-53020468D01*
X197897777Y-52993530D01*
X197901851Y-52955638D01*
X197901851Y-52558361D01*
X197897777Y-52520468D01*
X197897777Y-52493530D01*
X197901851Y-52455638D01*
X197901851Y-52058361D01*
X197897777Y-52020468D01*
X197897777Y-51993530D01*
X197901851Y-51955638D01*
X197901851Y-51558362D01*
X197899958Y-51540751D01*
X197897777Y-51520468D01*
X197897777Y-51493531D01*
X197901851Y-51455638D01*
X197901851Y-51058361D01*
X197897777Y-51020468D01*
X197897777Y-50993530D01*
X197901851Y-50955638D01*
X197901851Y-50558361D01*
X197897777Y-50520468D01*
X197897777Y-50493530D01*
X197901851Y-50455638D01*
X197901851Y-50058362D01*
X197899662Y-50038000D01*
X197895340Y-49997799D01*
X197844240Y-49860796D01*
X197842157Y-49858013D01*
X197756612Y-49743738D01*
X197639556Y-49656111D01*
X197543438Y-49620261D01*
X197502552Y-49605011D01*
X197441989Y-49598500D01*
X196044713Y-49598500D01*
X195984150Y-49605011D01*
X195847145Y-49656111D01*
X195730089Y-49743738D01*
X195642462Y-49860794D01*
X195591362Y-49997799D01*
X195585303Y-50054154D01*
X195567353Y-50106689D01*
X195528568Y-50146409D01*
X195502086Y-50156167D01*
X195502769Y-50157814D01*
X195487444Y-50164161D01*
X195487443Y-50164162D01*
X195415512Y-50193956D01*
X195415512Y-50193957D01*
X195339415Y-50225476D01*
X195247572Y-50295950D01*
X195247544Y-50295973D01*
X195212303Y-50323014D01*
X195192838Y-50348381D01*
X195181974Y-50360768D01*
X194175146Y-51367597D01*
X194134272Y-51394909D01*
X194086054Y-51404500D01*
X179842454Y-51404500D01*
X179794236Y-51394909D01*
X179753359Y-51367595D01*
X179059530Y-50673766D01*
X179048663Y-50661375D01*
X179029201Y-50636011D01*
X178997289Y-50611524D01*
X178997289Y-50611525D01*
X178997287Y-50611523D01*
X178928007Y-50558362D01*
X178902090Y-50538475D01*
X178793582Y-50493530D01*
X178754066Y-50477162D01*
X178754065Y-50477161D01*
X178754063Y-50477161D01*
X178734683Y-50474608D01*
X178734671Y-50474608D01*
X178720684Y-50472766D01*
X178626918Y-50460422D01*
X178626906Y-50460422D01*
X178595215Y-50456250D01*
X178563522Y-50460422D01*
X178547079Y-50461500D01*
X173641143Y-50461500D01*
X173624697Y-50460422D01*
X173592999Y-50456249D01*
X173434148Y-50477161D01*
X173286120Y-50538476D01*
X173191695Y-50610932D01*
X173191475Y-50611102D01*
X173159012Y-50636012D01*
X173139549Y-50661376D01*
X173128685Y-50673763D01*
X171615856Y-52186595D01*
X171574978Y-52213909D01*
X171526760Y-52223500D01*
X156187061Y-52223500D01*
X156138843Y-52213909D01*
X156097966Y-52186595D01*
X150471743Y-46560372D01*
X150447316Y-46525946D01*
X150435631Y-46485388D01*
X150426128Y-46401042D01*
X150365954Y-46229074D01*
X150334910Y-46179668D01*
X150269021Y-46074806D01*
X150140193Y-45945978D01*
X149985925Y-45849045D01*
X149813960Y-45788872D01*
X149632911Y-45768473D01*
X149451861Y-45788872D01*
X149279896Y-45849045D01*
X149125628Y-45945978D01*
X148996800Y-46074806D01*
X148899867Y-46229074D01*
X148839694Y-46401039D01*
X148819295Y-46582088D01*
X148839694Y-46763138D01*
X148899867Y-46935103D01*
X148996800Y-47089371D01*
X149125628Y-47218199D01*
X149153175Y-47235508D01*
X149279896Y-47315132D01*
X149451864Y-47375306D01*
X149536210Y-47384809D01*
X149576768Y-47396494D01*
X149611194Y-47420921D01*
X151462845Y-49272572D01*
X151495457Y-49329056D01*
X151495457Y-49394278D01*
X151462845Y-49450762D01*
X151382889Y-49530717D01*
X151285956Y-49684985D01*
X151225783Y-49856950D01*
X151205384Y-50038000D01*
X151225783Y-50219049D01*
X151285956Y-50391014D01*
X151382889Y-50545282D01*
X151511717Y-50674110D01*
X151665984Y-50771042D01*
X151665985Y-50771043D01*
X151837953Y-50831217D01*
X152019000Y-50851616D01*
X152200047Y-50831217D01*
X152223564Y-50822987D01*
X152293215Y-50819076D01*
X152354273Y-50852822D01*
X155129681Y-53628230D01*
X155140547Y-53640619D01*
X155160013Y-53665987D01*
X155185378Y-53685450D01*
X155185391Y-53685462D01*
X155287122Y-53763523D01*
X155287123Y-53763523D01*
X155287124Y-53763524D01*
X155435149Y-53824838D01*
X155449673Y-53826750D01*
X155487021Y-53831667D01*
X155562296Y-53841577D01*
X155562307Y-53841577D01*
X155594000Y-53845750D01*
X155625692Y-53841577D01*
X155642136Y-53840500D01*
X171948549Y-53840500D01*
X171964992Y-53841577D01*
X171996685Y-53845750D01*
X172028378Y-53841577D01*
X172028388Y-53841577D01*
X172036569Y-53840500D01*
X172036570Y-53840500D01*
X172141012Y-53826750D01*
X172155536Y-53824838D01*
X172303561Y-53763524D01*
X172398757Y-53690477D01*
X172398757Y-53690476D01*
X172415314Y-53677772D01*
X172415317Y-53677769D01*
X172418536Y-53675299D01*
X172430672Y-53665987D01*
X172450142Y-53640611D01*
X172460987Y-53628245D01*
X173973831Y-52115402D01*
X174014706Y-52088091D01*
X174062924Y-52078500D01*
X177255741Y-52078500D01*
X177314617Y-52093101D01*
X177359847Y-52133521D01*
X177380949Y-52190392D01*
X177387783Y-52251049D01*
X177449748Y-52428135D01*
X177456819Y-52469750D01*
X177449749Y-52511364D01*
X177387783Y-52688455D01*
X177367384Y-52869503D01*
X177387783Y-53050552D01*
X177447956Y-53222516D01*
X177451537Y-53228215D01*
X177470849Y-53295248D01*
X177451540Y-53362281D01*
X177447956Y-53367985D01*
X177387783Y-53539950D01*
X177367384Y-53720999D01*
X177387783Y-53902049D01*
X177447956Y-54074014D01*
X177544889Y-54228282D01*
X177673717Y-54357110D01*
X177673719Y-54357111D01*
X177827985Y-54454043D01*
X177999953Y-54514217D01*
X178181000Y-54534616D01*
X178362047Y-54514217D01*
X178534015Y-54454043D01*
X178644193Y-54384813D01*
X178711230Y-54365500D01*
X181971389Y-54365500D01*
X182028592Y-54379233D01*
X182073325Y-54417439D01*
X182095838Y-54471789D01*
X182091222Y-54530436D01*
X182060484Y-54580595D01*
X178104484Y-58536595D01*
X178063607Y-58563909D01*
X178015389Y-58573500D01*
X152067636Y-58573500D01*
X152051192Y-58572422D01*
X152019500Y-58568250D01*
X151987807Y-58572422D01*
X151987794Y-58572423D01*
X151880083Y-58586602D01*
X151880062Y-58586605D01*
X151880043Y-58586608D01*
X151865754Y-58588489D01*
X151860647Y-58589162D01*
X151712624Y-58650475D01*
X151655334Y-58694437D01*
X151585512Y-58748013D01*
X151566042Y-58773385D01*
X151555178Y-58785772D01*
X150092283Y-60248666D01*
X150057858Y-60273093D01*
X150017297Y-60284779D01*
X149932950Y-60294283D01*
X149760985Y-60354456D01*
X149606717Y-60451389D01*
X149477891Y-60580215D01*
X149385246Y-60727658D01*
X149333229Y-60774143D01*
X149264453Y-60785829D01*
X149225001Y-60781384D01*
X149225000Y-60781384D01*
X149185549Y-60785829D01*
X149043950Y-60801783D01*
X148871985Y-60861956D01*
X148717717Y-60958889D01*
X148588889Y-61087717D01*
X148491957Y-61241984D01*
X148460518Y-61331832D01*
X148430688Y-61379308D01*
X148383214Y-61409142D01*
X148349893Y-61412900D01*
X148350107Y-61414795D01*
X148336001Y-61416384D01*
X148241691Y-61427010D01*
X148154950Y-61436783D01*
X147982985Y-61496956D01*
X147828717Y-61593889D01*
X147699889Y-61722717D01*
X147602956Y-61876985D01*
X147542783Y-62048950D01*
X147535949Y-62109608D01*
X147514847Y-62166479D01*
X147469617Y-62206899D01*
X147410741Y-62221500D01*
X147208239Y-62221500D01*
X147160021Y-62211909D01*
X147119144Y-62184595D01*
X146888832Y-61954283D01*
X146864405Y-61919857D01*
X146852720Y-61879299D01*
X146843217Y-61794953D01*
X146836178Y-61774838D01*
X146783043Y-61622985D01*
X146686110Y-61468717D01*
X146557282Y-61339889D01*
X146403014Y-61242956D01*
X146231049Y-61182783D01*
X146050000Y-61162384D01*
X145868950Y-61182783D01*
X145696985Y-61242956D01*
X145542717Y-61339889D01*
X145413889Y-61468717D01*
X145316956Y-61622985D01*
X145256783Y-61794950D01*
X145236384Y-61975999D01*
X145236384Y-61976000D01*
X145240603Y-62013443D01*
X145256783Y-62157049D01*
X145316956Y-62329014D01*
X145413889Y-62483282D01*
X145542717Y-62612110D01*
X145542719Y-62612111D01*
X145696985Y-62709043D01*
X145868953Y-62769217D01*
X145953299Y-62778720D01*
X145993857Y-62790405D01*
X146028283Y-62814832D01*
X146439681Y-63226230D01*
X146450547Y-63238619D01*
X146470013Y-63263987D01*
X146501925Y-63288474D01*
X146501928Y-63288477D01*
X146571318Y-63341721D01*
X146597125Y-63361524D01*
X146745150Y-63422838D01*
X146864115Y-63438500D01*
X146872296Y-63439577D01*
X146872310Y-63439578D01*
X146904000Y-63443750D01*
X146935692Y-63439577D01*
X146952136Y-63438500D01*
X147232761Y-63438500D01*
X147289964Y-63452233D01*
X147334697Y-63490439D01*
X147357210Y-63544789D01*
X147352594Y-63603436D01*
X147321857Y-63653593D01*
X146067672Y-64907778D01*
X145653767Y-65321683D01*
X145641380Y-65332547D01*
X145616012Y-65352013D01*
X145588973Y-65387251D01*
X145588950Y-65387279D01*
X145518476Y-65479122D01*
X145457162Y-65627147D01*
X145457161Y-65627149D01*
X145457162Y-65627149D01*
X145454608Y-65646543D01*
X145454605Y-65646562D01*
X145454602Y-65646583D01*
X145440423Y-65754294D01*
X145440422Y-65754307D01*
X145436250Y-65786000D01*
X145437943Y-65798864D01*
X145440422Y-65817690D01*
X145441500Y-65834136D01*
X145441500Y-66087917D01*
X145431909Y-66136135D01*
X145419607Y-66154545D01*
X145421442Y-66155698D01*
X145316956Y-66321985D01*
X145256783Y-66493950D01*
X145236384Y-66674999D01*
X129037689Y-66674999D01*
X129003043Y-66575985D01*
X128898558Y-66409698D01*
X128900392Y-66408545D01*
X128888091Y-66390135D01*
X128878500Y-66341917D01*
X128878500Y-65199136D01*
X128879578Y-65182690D01*
X128880114Y-65178616D01*
X128883750Y-65151000D01*
X128879578Y-65119310D01*
X128879578Y-65119303D01*
X128862838Y-64992150D01*
X128801524Y-64844125D01*
X128792663Y-64832577D01*
X128766496Y-64798476D01*
X128745196Y-64770717D01*
X128723454Y-64742381D01*
X128723443Y-64742369D01*
X128703987Y-64717012D01*
X128678618Y-64697546D01*
X128666228Y-64686679D01*
X127313315Y-63333766D01*
X127302448Y-63321375D01*
X127282986Y-63296011D01*
X127251074Y-63271524D01*
X127251074Y-63271525D01*
X127251072Y-63271523D01*
X127155876Y-63198476D01*
X127155875Y-63198475D01*
X127051204Y-63155119D01*
X127007851Y-63137162D01*
X127007850Y-63137161D01*
X127007848Y-63137161D01*
X126988468Y-63134608D01*
X126988456Y-63134608D01*
X126974469Y-63132766D01*
X126880703Y-63120422D01*
X126880691Y-63120422D01*
X126849000Y-63116250D01*
X126848999Y-63116250D01*
X126835260Y-63118058D01*
X126817307Y-63120422D01*
X126800864Y-63121500D01*
X126413083Y-63121500D01*
X126355880Y-63107767D01*
X126311147Y-63069561D01*
X126288634Y-63015211D01*
X126293250Y-62956564D01*
X126323988Y-62906405D01*
X126366110Y-62864282D01*
X126366111Y-62864281D01*
X126463043Y-62710015D01*
X126523217Y-62538047D01*
X126543616Y-62357000D01*
X126523217Y-62175953D01*
X126463043Y-62003985D01*
X126433038Y-61956233D01*
X126366110Y-61849717D01*
X126237282Y-61720889D01*
X126083014Y-61623956D01*
X125911049Y-61563783D01*
X125826701Y-61554279D01*
X125786140Y-61542593D01*
X125751715Y-61518166D01*
X125567315Y-61333766D01*
X125556448Y-61321375D01*
X125536986Y-61296011D01*
X125505074Y-61271524D01*
X125505074Y-61271525D01*
X125505072Y-61271523D01*
X125441607Y-61222824D01*
X125409875Y-61198475D01*
X125305204Y-61155119D01*
X125261851Y-61137162D01*
X125261850Y-61137161D01*
X125261848Y-61137161D01*
X125242468Y-61134608D01*
X125242456Y-61134608D01*
X125228469Y-61132766D01*
X125134703Y-61120422D01*
X125134691Y-61120422D01*
X125103000Y-61116250D01*
X125071307Y-61120422D01*
X125054864Y-61121500D01*
X112579785Y-61121500D01*
X112531567Y-61111909D01*
X112490690Y-61084595D01*
X112366095Y-60960000D01*
X131266384Y-60960000D01*
X131271980Y-61009667D01*
X131286783Y-61141049D01*
X131346956Y-61313014D01*
X131443889Y-61467282D01*
X131572717Y-61596110D01*
X131726985Y-61693043D01*
X131785516Y-61713524D01*
X131898953Y-61753217D01*
X131983299Y-61762720D01*
X132023857Y-61774405D01*
X132058283Y-61798832D01*
X132215681Y-61956230D01*
X132226547Y-61968619D01*
X132246013Y-61993987D01*
X132271378Y-62013450D01*
X132271391Y-62013462D01*
X132373122Y-62091523D01*
X132373123Y-62091523D01*
X132373124Y-62091524D01*
X132521149Y-62152838D01*
X132530846Y-62154114D01*
X132540542Y-62155391D01*
X132540543Y-62155391D01*
X132553121Y-62157047D01*
X132648296Y-62169577D01*
X132648307Y-62169577D01*
X132680000Y-62173750D01*
X132711692Y-62169577D01*
X132728136Y-62168500D01*
X136979393Y-62168500D01*
X136995836Y-62169577D01*
X137027529Y-62173750D01*
X137059222Y-62169577D01*
X137059232Y-62169577D01*
X137067413Y-62168500D01*
X137067414Y-62168500D01*
X137166985Y-62155391D01*
X137186380Y-62152838D01*
X137334405Y-62091524D01*
X137429601Y-62018477D01*
X137429601Y-62018476D01*
X137446158Y-62005772D01*
X137446161Y-62005769D01*
X137448486Y-62003985D01*
X137461516Y-61993987D01*
X137480983Y-61968616D01*
X137491835Y-61956241D01*
X137842673Y-61605404D01*
X137883551Y-61578091D01*
X137931769Y-61568500D01*
X142414917Y-61568500D01*
X142463135Y-61578091D01*
X142481545Y-61590392D01*
X142482698Y-61588558D01*
X142648985Y-61693043D01*
X142707516Y-61713524D01*
X142820953Y-61753217D01*
X143002000Y-61773616D01*
X143183047Y-61753217D01*
X143355015Y-61693043D01*
X143509281Y-61596111D01*
X143638111Y-61467281D01*
X143735043Y-61313015D01*
X143795217Y-61141047D01*
X143815616Y-60960000D01*
X143795217Y-60778953D01*
X143735043Y-60606985D01*
X143712994Y-60571894D01*
X143638110Y-60452717D01*
X143509282Y-60323889D01*
X143355014Y-60226956D01*
X143183049Y-60166783D01*
X143002000Y-60146384D01*
X142820950Y-60166783D01*
X142648985Y-60226956D01*
X142482698Y-60331442D01*
X142481545Y-60329607D01*
X142463135Y-60341909D01*
X142414917Y-60351500D01*
X137675665Y-60351500D01*
X137659221Y-60350422D01*
X137627529Y-60346250D01*
X137595836Y-60350422D01*
X137595823Y-60350423D01*
X137488120Y-60364601D01*
X137488098Y-60364604D01*
X137488072Y-60364608D01*
X137473189Y-60366567D01*
X137468676Y-60367162D01*
X137448082Y-60375693D01*
X137399865Y-60385283D01*
X137351647Y-60375692D01*
X137310771Y-60348378D01*
X137286282Y-60323889D01*
X137132014Y-60226956D01*
X136960049Y-60166783D01*
X136779000Y-60146384D01*
X136597950Y-60166783D01*
X136425985Y-60226956D01*
X136259698Y-60331442D01*
X136258545Y-60329607D01*
X136240135Y-60341909D01*
X136191917Y-60351500D01*
X133937083Y-60351500D01*
X133888865Y-60341909D01*
X133870454Y-60329607D01*
X133869302Y-60331442D01*
X133703014Y-60226956D01*
X133531049Y-60166783D01*
X133350000Y-60146384D01*
X133168950Y-60166783D01*
X132996985Y-60226956D01*
X132842717Y-60323889D01*
X132804095Y-60362512D01*
X132747611Y-60395124D01*
X132682389Y-60395124D01*
X132625905Y-60362512D01*
X132587282Y-60323889D01*
X132433014Y-60226956D01*
X132261049Y-60166783D01*
X132080000Y-60146384D01*
X131898950Y-60166783D01*
X131726985Y-60226956D01*
X131572717Y-60323889D01*
X131443889Y-60452717D01*
X131346956Y-60606985D01*
X131286783Y-60778950D01*
X131277431Y-60861956D01*
X131266384Y-60960000D01*
X112366095Y-60960000D01*
X111379861Y-59973766D01*
X111368994Y-59961375D01*
X111349532Y-59936011D01*
X111317620Y-59911524D01*
X111317620Y-59911525D01*
X111317618Y-59911523D01*
X111235940Y-59848849D01*
X111222421Y-59838475D01*
X111083554Y-59780955D01*
X111074397Y-59777162D01*
X111074396Y-59777161D01*
X111074394Y-59777161D01*
X111055014Y-59774608D01*
X111055002Y-59774608D01*
X111041015Y-59772766D01*
X110947249Y-59760422D01*
X110947237Y-59760422D01*
X110915546Y-59756250D01*
X110883853Y-59760422D01*
X110867410Y-59761500D01*
X57418297Y-59761500D01*
X57370079Y-59751909D01*
X57329202Y-59724595D01*
X56729091Y-59124484D01*
X56701777Y-59083607D01*
X56692186Y-59035389D01*
X56692186Y-57282000D01*
X61527244Y-57282000D01*
X61545836Y-57506368D01*
X61545836Y-57506371D01*
X61545837Y-57506372D01*
X61601102Y-57724611D01*
X61601103Y-57724614D01*
X61601104Y-57724616D01*
X61610098Y-57745120D01*
X61691539Y-57930790D01*
X61788133Y-58078638D01*
X61814678Y-58119268D01*
X61941470Y-58257000D01*
X61967162Y-58284908D01*
X62124023Y-58406999D01*
X62144824Y-58423189D01*
X62342826Y-58530342D01*
X62555765Y-58603444D01*
X62777831Y-58640500D01*
X63002966Y-58640500D01*
X63002969Y-58640500D01*
X63225035Y-58603444D01*
X63437974Y-58530342D01*
X63635976Y-58423189D01*
X63813640Y-58284906D01*
X63966122Y-58119268D01*
X64054918Y-57983354D01*
X64100431Y-57941458D01*
X64160400Y-57926272D01*
X64220369Y-57941458D01*
X64265881Y-57983354D01*
X64354678Y-58119268D01*
X64481470Y-58257000D01*
X64507162Y-58284908D01*
X64664023Y-58406999D01*
X64684824Y-58423189D01*
X64882826Y-58530342D01*
X65095765Y-58603444D01*
X65317831Y-58640500D01*
X65542966Y-58640500D01*
X65542969Y-58640500D01*
X65765035Y-58603444D01*
X65784636Y-58596714D01*
X65853947Y-58593129D01*
X65914643Y-58626792D01*
X66116081Y-58828230D01*
X66126947Y-58840619D01*
X66146413Y-58865987D01*
X66171777Y-58885450D01*
X66171793Y-58885464D01*
X66273522Y-58963523D01*
X66273523Y-58963523D01*
X66273524Y-58963524D01*
X66421549Y-59024838D01*
X66580400Y-59045751D01*
X66612098Y-59041577D01*
X66628544Y-59040500D01*
X68900864Y-59040500D01*
X68917307Y-59041577D01*
X68949000Y-59045750D01*
X68980693Y-59041577D01*
X68980703Y-59041577D01*
X68988884Y-59040500D01*
X68988885Y-59040500D01*
X69088456Y-59027391D01*
X69107851Y-59024838D01*
X69255876Y-58963524D01*
X69351072Y-58890477D01*
X69351072Y-58890476D01*
X69367629Y-58877772D01*
X69367632Y-58877769D01*
X69368546Y-58877067D01*
X69382987Y-58865987D01*
X69402457Y-58840611D01*
X69413309Y-58828238D01*
X69992235Y-58249312D01*
X70004619Y-58238452D01*
X70005098Y-58238083D01*
X70029987Y-58218987D01*
X70041772Y-58203627D01*
X70041775Y-58203625D01*
X70058761Y-58181489D01*
X70127524Y-58091876D01*
X70170014Y-57989294D01*
X70188838Y-57943850D01*
X70204500Y-57824885D01*
X70205578Y-57816697D01*
X70205578Y-57816690D01*
X70206690Y-57808244D01*
X70209750Y-57785000D01*
X70205577Y-57753307D01*
X70204500Y-57736864D01*
X70204500Y-56261000D01*
X77454255Y-56261000D01*
X77501977Y-56449451D01*
X77592380Y-56655548D01*
X77715478Y-56843962D01*
X77867896Y-57009533D01*
X78045497Y-57147766D01*
X78243431Y-57254883D01*
X78456285Y-57327955D01*
X78536800Y-57341391D01*
X79044800Y-57341391D01*
X79125314Y-57327955D01*
X79338168Y-57254883D01*
X79536102Y-57147766D01*
X79713703Y-57009533D01*
X79866123Y-56843960D01*
X79955017Y-56707899D01*
X80000530Y-56666000D01*
X80060500Y-56650814D01*
X80120469Y-56666000D01*
X80165983Y-56707898D01*
X80255078Y-56844268D01*
X80367325Y-56966200D01*
X80407562Y-57009908D01*
X80585221Y-57148187D01*
X80585224Y-57148189D01*
X80783226Y-57255342D01*
X80996165Y-57328444D01*
X81218231Y-57365500D01*
X81443366Y-57365500D01*
X81443369Y-57365500D01*
X81665435Y-57328444D01*
X81878374Y-57255342D01*
X82076376Y-57148189D01*
X82254040Y-57009906D01*
X82406522Y-56844268D01*
X82495318Y-56708354D01*
X82540831Y-56666458D01*
X82600800Y-56651272D01*
X82660769Y-56666458D01*
X82706281Y-56708354D01*
X82795078Y-56844268D01*
X82907325Y-56966200D01*
X82947562Y-57009908D01*
X83125221Y-57148187D01*
X83125224Y-57148189D01*
X83323226Y-57255342D01*
X83536165Y-57328444D01*
X83758231Y-57365500D01*
X83983366Y-57365500D01*
X83983369Y-57365500D01*
X84205435Y-57328444D01*
X84418374Y-57255342D01*
X84616376Y-57148189D01*
X84794040Y-57009906D01*
X84946522Y-56844268D01*
X85035318Y-56708354D01*
X85080831Y-56666458D01*
X85140800Y-56651272D01*
X85200769Y-56666458D01*
X85246281Y-56708354D01*
X85335078Y-56844268D01*
X85447325Y-56966200D01*
X85487562Y-57009908D01*
X85665221Y-57148187D01*
X85665224Y-57148189D01*
X85863226Y-57255342D01*
X86076165Y-57328444D01*
X86298231Y-57365500D01*
X86523366Y-57365500D01*
X86523369Y-57365500D01*
X86745435Y-57328444D01*
X86958374Y-57255342D01*
X87156376Y-57148189D01*
X87334040Y-57009906D01*
X87486522Y-56844268D01*
X87575318Y-56708354D01*
X87620831Y-56666458D01*
X87680800Y-56651272D01*
X87740769Y-56666458D01*
X87786281Y-56708354D01*
X87875078Y-56844268D01*
X87987325Y-56966200D01*
X88027562Y-57009908D01*
X88205221Y-57148187D01*
X88205224Y-57148189D01*
X88403226Y-57255342D01*
X88616165Y-57328444D01*
X88838231Y-57365500D01*
X89063366Y-57365500D01*
X89063369Y-57365500D01*
X89285435Y-57328444D01*
X89498374Y-57255342D01*
X89696376Y-57148189D01*
X89874040Y-57009906D01*
X89935046Y-56943635D01*
X89988516Y-56909238D01*
X90051977Y-56905327D01*
X90109269Y-56932903D01*
X90145800Y-56984942D01*
X90189909Y-57103203D01*
X90277538Y-57220261D01*
X90394594Y-57307888D01*
X90394595Y-57307888D01*
X90394596Y-57307889D01*
X90531599Y-57358989D01*
X90592162Y-57365500D01*
X92389438Y-57365500D01*
X92450001Y-57358989D01*
X92587004Y-57307889D01*
X92704061Y-57220261D01*
X92791689Y-57103204D01*
X92842789Y-56966201D01*
X92849300Y-56905638D01*
X92849300Y-55800799D01*
X102219270Y-55800799D01*
X102238567Y-56095231D01*
X102296132Y-56384628D01*
X102390974Y-56664025D01*
X102521482Y-56928667D01*
X102685409Y-57174001D01*
X102879957Y-57395842D01*
X103034523Y-57531392D01*
X103101799Y-57590391D01*
X103347135Y-57754319D01*
X103598535Y-57878296D01*
X103611774Y-57884825D01*
X103891171Y-57979667D01*
X103891174Y-57979668D01*
X104180568Y-58037232D01*
X104475000Y-58056530D01*
X104769432Y-58037232D01*
X105058826Y-57979668D01*
X105216125Y-57926272D01*
X105338225Y-57884825D01*
X105338226Y-57884824D01*
X105338230Y-57884823D01*
X105602865Y-57754319D01*
X105848201Y-57590391D01*
X106070042Y-57395842D01*
X106264591Y-57174001D01*
X106428519Y-56928665D01*
X106559023Y-56664030D01*
X106559722Y-56661973D01*
X106616874Y-56493606D01*
X106653868Y-56384626D01*
X106711432Y-56095232D01*
X106730730Y-55800800D01*
X106711432Y-55506368D01*
X106653868Y-55216974D01*
X106637935Y-55170037D01*
X106559025Y-54937574D01*
X106552496Y-54924335D01*
X106428519Y-54672935D01*
X106264591Y-54427599D01*
X106157543Y-54305534D01*
X106070042Y-54205757D01*
X105848201Y-54011209D01*
X105602867Y-53847282D01*
X105338225Y-53716774D01*
X105058828Y-53621932D01*
X104769431Y-53564367D01*
X104475000Y-53545070D01*
X104180568Y-53564367D01*
X103891171Y-53621932D01*
X103611774Y-53716774D01*
X103347132Y-53847282D01*
X103101798Y-54011209D01*
X102879957Y-54205757D01*
X102685409Y-54427598D01*
X102521482Y-54672932D01*
X102390974Y-54937574D01*
X102296132Y-55216971D01*
X102238567Y-55506368D01*
X102219270Y-55800799D01*
X92849300Y-55800799D01*
X92849300Y-55108362D01*
X92842789Y-55047799D01*
X92791689Y-54910796D01*
X92791688Y-54910794D01*
X92704061Y-54793738D01*
X92587005Y-54706111D01*
X92518363Y-54680509D01*
X92450001Y-54655011D01*
X92389438Y-54648500D01*
X90592162Y-54648500D01*
X90531599Y-54655011D01*
X90394594Y-54706111D01*
X90277538Y-54793738D01*
X90189909Y-54910796D01*
X90145800Y-55029057D01*
X90109269Y-55081096D01*
X90051978Y-55108672D01*
X89988516Y-55104762D01*
X89935045Y-55070362D01*
X89874040Y-55004094D01*
X89874039Y-55004093D01*
X89874037Y-55004091D01*
X89696378Y-54865812D01*
X89498373Y-54758657D01*
X89345310Y-54706111D01*
X89285435Y-54685556D01*
X89063369Y-54648500D01*
X88838231Y-54648500D01*
X88616165Y-54685556D01*
X88616162Y-54685556D01*
X88616162Y-54685557D01*
X88403226Y-54758657D01*
X88205221Y-54865812D01*
X88027562Y-55004091D01*
X87875078Y-55169731D01*
X87786283Y-55305643D01*
X87740769Y-55347541D01*
X87680800Y-55362727D01*
X87620831Y-55347541D01*
X87575317Y-55305643D01*
X87518283Y-55218346D01*
X87486522Y-55169732D01*
X87334040Y-55004094D01*
X87334039Y-55004093D01*
X87334037Y-55004091D01*
X87156378Y-54865812D01*
X86958373Y-54758657D01*
X86805310Y-54706111D01*
X86745435Y-54685556D01*
X86523369Y-54648500D01*
X86298231Y-54648500D01*
X86076165Y-54685556D01*
X86076162Y-54685556D01*
X86076162Y-54685557D01*
X85863226Y-54758657D01*
X85665221Y-54865812D01*
X85487562Y-55004091D01*
X85335078Y-55169731D01*
X85246283Y-55305643D01*
X85200769Y-55347541D01*
X85140800Y-55362727D01*
X85080831Y-55347541D01*
X85035317Y-55305643D01*
X84978283Y-55218346D01*
X84946522Y-55169732D01*
X84794040Y-55004094D01*
X84794039Y-55004093D01*
X84794037Y-55004091D01*
X84616378Y-54865812D01*
X84418373Y-54758657D01*
X84265310Y-54706111D01*
X84205435Y-54685556D01*
X83983369Y-54648500D01*
X83758231Y-54648500D01*
X83536165Y-54685556D01*
X83536162Y-54685556D01*
X83536162Y-54685557D01*
X83323226Y-54758657D01*
X83125221Y-54865812D01*
X82947562Y-55004091D01*
X82795078Y-55169731D01*
X82706283Y-55305643D01*
X82660769Y-55347541D01*
X82600800Y-55362727D01*
X82540831Y-55347541D01*
X82495317Y-55305643D01*
X82438283Y-55218346D01*
X82406522Y-55169732D01*
X82254040Y-55004094D01*
X82254039Y-55004093D01*
X82254037Y-55004091D01*
X82076378Y-54865812D01*
X81878373Y-54758657D01*
X81725310Y-54706111D01*
X81665435Y-54685556D01*
X81443369Y-54648500D01*
X81218231Y-54648500D01*
X80996165Y-54685556D01*
X80996162Y-54685556D01*
X80996162Y-54685557D01*
X80783226Y-54758657D01*
X80585221Y-54865812D01*
X80407562Y-55004091D01*
X80255075Y-55169735D01*
X80165982Y-55306101D01*
X80120469Y-55347999D01*
X80060500Y-55363185D01*
X80000531Y-55347999D01*
X79955017Y-55306101D01*
X79866121Y-55170037D01*
X79713703Y-55004466D01*
X79536102Y-54866233D01*
X79338168Y-54759116D01*
X79125314Y-54686044D01*
X79044800Y-54672609D01*
X79044800Y-57341391D01*
X78536800Y-57341391D01*
X78536800Y-56261000D01*
X77454255Y-56261000D01*
X70204500Y-56261000D01*
X70204500Y-55752999D01*
X77454255Y-55752999D01*
X77454256Y-55753000D01*
X78536800Y-55753000D01*
X78536800Y-54672609D01*
X78456285Y-54686044D01*
X78243431Y-54759116D01*
X78045497Y-54866233D01*
X77867896Y-55004466D01*
X77715478Y-55170037D01*
X77592380Y-55358451D01*
X77501977Y-55564548D01*
X77454255Y-55752999D01*
X70204500Y-55752999D01*
X70204500Y-52628239D01*
X70214091Y-52580021D01*
X70241405Y-52539144D01*
X70681144Y-52099405D01*
X70722021Y-52072091D01*
X70770239Y-52062500D01*
X130155389Y-52062500D01*
X130203607Y-52072091D01*
X130244484Y-52099405D01*
X132704595Y-54559516D01*
X132731909Y-54600393D01*
X132741500Y-54648611D01*
X132741500Y-56435917D01*
X132731909Y-56484135D01*
X132719607Y-56502545D01*
X132721442Y-56503698D01*
X132616956Y-56669985D01*
X132556783Y-56841950D01*
X132541756Y-56975322D01*
X132536384Y-57023000D01*
X132539505Y-57050700D01*
X132556783Y-57204049D01*
X132616956Y-57376014D01*
X132713889Y-57530282D01*
X132842717Y-57659110D01*
X132946961Y-57724611D01*
X132996985Y-57756043D01*
X133168953Y-57816217D01*
X133350000Y-57836616D01*
X133531047Y-57816217D01*
X133703015Y-57756043D01*
X133857281Y-57659111D01*
X133895906Y-57620485D01*
X133952388Y-57587875D01*
X134017612Y-57587875D01*
X134074093Y-57620485D01*
X134112718Y-57659110D01*
X134112720Y-57659112D01*
X134216961Y-57724611D01*
X134266985Y-57756043D01*
X134438953Y-57816217D01*
X134620000Y-57836616D01*
X134801047Y-57816217D01*
X134973015Y-57756043D01*
X135127281Y-57659111D01*
X135165906Y-57620485D01*
X135222388Y-57587875D01*
X135287612Y-57587875D01*
X135344093Y-57620485D01*
X135382718Y-57659110D01*
X135382720Y-57659112D01*
X135486961Y-57724611D01*
X135536985Y-57756043D01*
X135708953Y-57816217D01*
X135890000Y-57836616D01*
X136071047Y-57816217D01*
X136243015Y-57756043D01*
X136397281Y-57659111D01*
X136526111Y-57530281D01*
X136623043Y-57376015D01*
X136683217Y-57204047D01*
X136703616Y-57023000D01*
X136683217Y-56841953D01*
X136682319Y-56839388D01*
X136623043Y-56669985D01*
X136518558Y-56503698D01*
X136520392Y-56502545D01*
X136508091Y-56484135D01*
X136498500Y-56435917D01*
X136498500Y-55801136D01*
X136498522Y-55800800D01*
X173219270Y-55800800D01*
X173238567Y-56095231D01*
X173296132Y-56384628D01*
X173390974Y-56664025D01*
X173521482Y-56928667D01*
X173685409Y-57174001D01*
X173879957Y-57395842D01*
X174034523Y-57531392D01*
X174101799Y-57590391D01*
X174347135Y-57754319D01*
X174598535Y-57878296D01*
X174611774Y-57884825D01*
X174891171Y-57979667D01*
X174891174Y-57979668D01*
X175180568Y-58037232D01*
X175475000Y-58056530D01*
X175769432Y-58037232D01*
X176058826Y-57979668D01*
X176216125Y-57926272D01*
X176338225Y-57884825D01*
X176338226Y-57884824D01*
X176338230Y-57884823D01*
X176602865Y-57754319D01*
X176848201Y-57590391D01*
X177070042Y-57395842D01*
X177264591Y-57174001D01*
X177428519Y-56928665D01*
X177559023Y-56664030D01*
X177559722Y-56661973D01*
X177616874Y-56493606D01*
X177653868Y-56384626D01*
X177711432Y-56095232D01*
X177730730Y-55800800D01*
X177711432Y-55506368D01*
X177653868Y-55216974D01*
X177637935Y-55170037D01*
X177559025Y-54937574D01*
X177552496Y-54924335D01*
X177428519Y-54672935D01*
X177264591Y-54427599D01*
X177157543Y-54305534D01*
X177070042Y-54205757D01*
X176848201Y-54011209D01*
X176602867Y-53847282D01*
X176338225Y-53716774D01*
X176058828Y-53621932D01*
X175769431Y-53564367D01*
X175475000Y-53545070D01*
X175180568Y-53564367D01*
X174891171Y-53621932D01*
X174611774Y-53716774D01*
X174347132Y-53847282D01*
X174101798Y-54011209D01*
X173879957Y-54205757D01*
X173685409Y-54427598D01*
X173521482Y-54672932D01*
X173390974Y-54937574D01*
X173296132Y-55216971D01*
X173238567Y-55506368D01*
X173219270Y-55800800D01*
X136498522Y-55800800D01*
X136499578Y-55784690D01*
X136499849Y-55782632D01*
X136503750Y-55753000D01*
X136499578Y-55721309D01*
X136499578Y-55721303D01*
X136489262Y-55642948D01*
X136482838Y-55594150D01*
X136478880Y-55584595D01*
X136421524Y-55446124D01*
X136348477Y-55350929D01*
X136323987Y-55319013D01*
X136307160Y-55306101D01*
X136298614Y-55299543D01*
X136286224Y-55288676D01*
X131255315Y-50257766D01*
X131244448Y-50245375D01*
X131224986Y-50220011D01*
X131193074Y-50195524D01*
X131193074Y-50195525D01*
X131193072Y-50195523D01*
X131129066Y-50146409D01*
X131097875Y-50122475D01*
X130949849Y-50061161D01*
X130928583Y-50058362D01*
X130928582Y-50058362D01*
X130822703Y-50044422D01*
X130822691Y-50044422D01*
X130791000Y-50040250D01*
X130759307Y-50044422D01*
X130742864Y-50045500D01*
X67940190Y-50045500D01*
X67923746Y-50044422D01*
X67892054Y-50040250D01*
X67860363Y-50044422D01*
X67860350Y-50044422D01*
X67754472Y-50058362D01*
X67754471Y-50058362D01*
X67733204Y-50061161D01*
X67585175Y-50122476D01*
X67493333Y-50192950D01*
X67493305Y-50192973D01*
X67458064Y-50220014D01*
X67438599Y-50245381D01*
X67427735Y-50257768D01*
X63966622Y-53718881D01*
X63915140Y-53750041D01*
X63855078Y-53753770D01*
X63800136Y-53729218D01*
X63635701Y-53601233D01*
X63437768Y-53494116D01*
X63224914Y-53421044D01*
X63144400Y-53407609D01*
X63144400Y-54870000D01*
X63127519Y-54933000D01*
X63081400Y-54979119D01*
X63018400Y-54996000D01*
X61553855Y-54996000D01*
X61601577Y-55184451D01*
X61691980Y-55390548D01*
X61815078Y-55578962D01*
X61967496Y-55744533D01*
X62145102Y-55882769D01*
X62178607Y-55900902D01*
X62226878Y-55947218D01*
X62244637Y-56011715D01*
X62226878Y-56076212D01*
X62178607Y-56122528D01*
X62144823Y-56140811D01*
X61967162Y-56279091D01*
X61814678Y-56444731D01*
X61691539Y-56633209D01*
X61601102Y-56839388D01*
X61557921Y-57009908D01*
X61545836Y-57057632D01*
X61527244Y-57282000D01*
X56692186Y-57282000D01*
X56692186Y-54688767D01*
X56693264Y-54672321D01*
X56693396Y-54671312D01*
X56697436Y-54640631D01*
X56693264Y-54608940D01*
X56693264Y-54608934D01*
X56677343Y-54487999D01*
X61553855Y-54487999D01*
X61553856Y-54488000D01*
X62636400Y-54488000D01*
X62636400Y-53407609D01*
X62555885Y-53421044D01*
X62343031Y-53494116D01*
X62145097Y-53601233D01*
X61967496Y-53739466D01*
X61815078Y-53905037D01*
X61691980Y-54093451D01*
X61601577Y-54299548D01*
X61553855Y-54487999D01*
X56677343Y-54487999D01*
X56676524Y-54481779D01*
X56665783Y-54455849D01*
X56665782Y-54455848D01*
X56615209Y-54333752D01*
X56537142Y-54232014D01*
X56537129Y-54232000D01*
X56534275Y-54228281D01*
X56530553Y-54223430D01*
X56517673Y-54206643D01*
X56492304Y-54187177D01*
X56479914Y-54176310D01*
X53539028Y-51235423D01*
X53528161Y-51223032D01*
X53508699Y-51197668D01*
X53476787Y-51173181D01*
X53476787Y-51173182D01*
X53476785Y-51173180D01*
X53381589Y-51100133D01*
X53381588Y-51100132D01*
X53233562Y-51038818D01*
X53212249Y-51036013D01*
X53106416Y-51022079D01*
X53106404Y-51022079D01*
X53074713Y-51017907D01*
X53043020Y-51022079D01*
X53026577Y-51023157D01*
X47548239Y-51023157D01*
X47500021Y-51013566D01*
X47459144Y-50986252D01*
X45098658Y-48625766D01*
X45087791Y-48613375D01*
X45068329Y-48588011D01*
X45036418Y-48563525D01*
X44941218Y-48490475D01*
X44927870Y-48484946D01*
X44875224Y-48444048D01*
X44798261Y-48341238D01*
X44681205Y-48253611D01*
X44612702Y-48228061D01*
X44544201Y-48202511D01*
X44483638Y-48196000D01*
X41876362Y-48196000D01*
X41815799Y-48202511D01*
X41670532Y-48256693D01*
X41610797Y-48263655D01*
X41554639Y-48242136D01*
X41514852Y-48197039D01*
X41500500Y-48138637D01*
X41500500Y-44000799D01*
X47719270Y-44000799D01*
X47738567Y-44295231D01*
X47796132Y-44584628D01*
X47890974Y-44864025D01*
X48021482Y-45128667D01*
X48185409Y-45374001D01*
X48379957Y-45595842D01*
X48500023Y-45701136D01*
X48601799Y-45790391D01*
X48847135Y-45954319D01*
X49027777Y-46043402D01*
X49111774Y-46084825D01*
X49391171Y-46179667D01*
X49391174Y-46179668D01*
X49680568Y-46237232D01*
X49975000Y-46256530D01*
X50269432Y-46237232D01*
X50558826Y-46179668D01*
X50702638Y-46130850D01*
X50838225Y-46084825D01*
X50838226Y-46084824D01*
X50838230Y-46084823D01*
X51102865Y-45954319D01*
X51348201Y-45790391D01*
X51570042Y-45595842D01*
X51764591Y-45374001D01*
X51928519Y-45128665D01*
X52059023Y-44864030D01*
X52153868Y-44584626D01*
X52211432Y-44295232D01*
X52230730Y-44000800D01*
X52230730Y-44000799D01*
X102219270Y-44000799D01*
X102238567Y-44295231D01*
X102296132Y-44584628D01*
X102390974Y-44864025D01*
X102521482Y-45128667D01*
X102685409Y-45374001D01*
X102879957Y-45595842D01*
X103000023Y-45701136D01*
X103101799Y-45790391D01*
X103347135Y-45954319D01*
X103527777Y-46043402D01*
X103611774Y-46084825D01*
X103891171Y-46179667D01*
X103891174Y-46179668D01*
X104180568Y-46237232D01*
X104475000Y-46256530D01*
X104769432Y-46237232D01*
X105058826Y-46179668D01*
X105202638Y-46130850D01*
X105338225Y-46084825D01*
X105338226Y-46084824D01*
X105338230Y-46084823D01*
X105602865Y-45954319D01*
X105848201Y-45790391D01*
X106070042Y-45595842D01*
X106264591Y-45374001D01*
X106428519Y-45128665D01*
X106559023Y-44864030D01*
X106653868Y-44584626D01*
X106711432Y-44295232D01*
X106730730Y-44000800D01*
X106711432Y-43706368D01*
X106653868Y-43416974D01*
X106639908Y-43375850D01*
X106559025Y-43137574D01*
X106506838Y-43031750D01*
X106428519Y-42872935D01*
X106264591Y-42627599D01*
X106152690Y-42500000D01*
X106080779Y-42418000D01*
X139394384Y-42418000D01*
X139414783Y-42599049D01*
X139474956Y-42771014D01*
X139571889Y-42925282D01*
X139700717Y-43054110D01*
X139700719Y-43054111D01*
X139854985Y-43151043D01*
X140026953Y-43211217D01*
X140208000Y-43231616D01*
X140389047Y-43211217D01*
X140561015Y-43151043D01*
X140715281Y-43054111D01*
X140715280Y-43054111D01*
X140727302Y-43046558D01*
X140728454Y-43048392D01*
X140746865Y-43036091D01*
X140795083Y-43026500D01*
X141810864Y-43026500D01*
X141827307Y-43027577D01*
X141859000Y-43031750D01*
X141890693Y-43027577D01*
X141890703Y-43027577D01*
X141898884Y-43026500D01*
X141898885Y-43026500D01*
X141998456Y-43013391D01*
X142017851Y-43010838D01*
X142092167Y-42980055D01*
X142140382Y-42970464D01*
X142188602Y-42980056D01*
X142229476Y-43007368D01*
X142240719Y-43018611D01*
X142288115Y-43048392D01*
X142394985Y-43115543D01*
X142496438Y-43151043D01*
X142566953Y-43175717D01*
X142748000Y-43196116D01*
X142929047Y-43175717D01*
X143101015Y-43115543D01*
X143255281Y-43018611D01*
X143384111Y-42889781D01*
X143394698Y-42872932D01*
X143408816Y-42850464D01*
X143454555Y-42807222D01*
X143515503Y-42791500D01*
X150192546Y-42791500D01*
X150240764Y-42801091D01*
X150281641Y-42828405D01*
X158776466Y-51323230D01*
X158787332Y-51335619D01*
X158806798Y-51360987D01*
X158832164Y-51380451D01*
X158832174Y-51380460D01*
X158838714Y-51385478D01*
X158880977Y-51417907D01*
X158930515Y-51455919D01*
X158933910Y-51458524D01*
X159081935Y-51519838D01*
X159209081Y-51536577D01*
X159209095Y-51536578D01*
X159240785Y-51540750D01*
X159272477Y-51536577D01*
X159288921Y-51535500D01*
X160865417Y-51535500D01*
X160913635Y-51545091D01*
X160932045Y-51557392D01*
X160933198Y-51555558D01*
X161014523Y-51606658D01*
X161099485Y-51660043D01*
X161271453Y-51720217D01*
X161452500Y-51740616D01*
X161633547Y-51720217D01*
X161805515Y-51660043D01*
X161959781Y-51563111D01*
X162068187Y-51454704D01*
X162119392Y-51423633D01*
X162179161Y-51419715D01*
X162233985Y-51443839D01*
X162253122Y-51458523D01*
X162253123Y-51458523D01*
X162253124Y-51458524D01*
X162401149Y-51519838D01*
X162560000Y-51540751D01*
X162591698Y-51536577D01*
X162608144Y-51535500D01*
X163623917Y-51535500D01*
X163672135Y-51545091D01*
X163690545Y-51557392D01*
X163691698Y-51555558D01*
X163773023Y-51606658D01*
X163857985Y-51660043D01*
X164029953Y-51720217D01*
X164211000Y-51740616D01*
X164392047Y-51720217D01*
X164564015Y-51660043D01*
X164718281Y-51563111D01*
X164847111Y-51434281D01*
X164944043Y-51280015D01*
X165004217Y-51108047D01*
X165024616Y-50927000D01*
X165004217Y-50745953D01*
X164979078Y-50674111D01*
X164944043Y-50573985D01*
X164847110Y-50419717D01*
X164718282Y-50290889D01*
X164564014Y-50193956D01*
X164392049Y-50133783D01*
X164211000Y-50113384D01*
X164029950Y-50133783D01*
X163857985Y-50193956D01*
X163691698Y-50298442D01*
X163690545Y-50296607D01*
X163672135Y-50308909D01*
X163623917Y-50318500D01*
X162864239Y-50318500D01*
X162816021Y-50308909D01*
X162775144Y-50281595D01*
X162389315Y-49895766D01*
X162378448Y-49883375D01*
X162358986Y-49858011D01*
X162327074Y-49833524D01*
X162327074Y-49833525D01*
X162327072Y-49833523D01*
X162263608Y-49784825D01*
X162231875Y-49760475D01*
X162104917Y-49707888D01*
X162083851Y-49699162D01*
X162083850Y-49699161D01*
X162083848Y-49699161D01*
X162064468Y-49696608D01*
X162064456Y-49696608D01*
X162050469Y-49694766D01*
X161956703Y-49682422D01*
X161956691Y-49682422D01*
X161925000Y-49678250D01*
X161924999Y-49678250D01*
X161911260Y-49680058D01*
X161893307Y-49682422D01*
X161876864Y-49683500D01*
X159475710Y-49683500D01*
X159427492Y-49673909D01*
X159386615Y-49646595D01*
X159045658Y-49305638D01*
X191884851Y-49305638D01*
X191891362Y-49366201D01*
X191904673Y-49401889D01*
X191942462Y-49503205D01*
X192030089Y-49620261D01*
X192147145Y-49707888D01*
X192147146Y-49707888D01*
X192147147Y-49707889D01*
X192284150Y-49758989D01*
X192344713Y-49765500D01*
X194641989Y-49765500D01*
X194702552Y-49758989D01*
X194839555Y-49707889D01*
X194956612Y-49620261D01*
X195044240Y-49503204D01*
X195095340Y-49366201D01*
X195101851Y-49305638D01*
X195101851Y-47408362D01*
X195095340Y-47347799D01*
X195044240Y-47210796D01*
X195022252Y-47181423D01*
X194956612Y-47093738D01*
X194839556Y-47006111D01*
X194771053Y-46980560D01*
X194702552Y-46955011D01*
X194641989Y-46948500D01*
X192344713Y-46948500D01*
X192284150Y-46955011D01*
X192147145Y-47006111D01*
X192030089Y-47093738D01*
X191942462Y-47210794D01*
X191903546Y-47315132D01*
X191891362Y-47347799D01*
X191884851Y-47408362D01*
X191884851Y-49305638D01*
X159045658Y-49305638D01*
X156745020Y-47005000D01*
X177470123Y-47005000D01*
X177489193Y-47222977D01*
X177545824Y-47434329D01*
X177638298Y-47632639D01*
X177763804Y-47811880D01*
X177918519Y-47966595D01*
X177918522Y-47966597D01*
X177918523Y-47966598D01*
X178097761Y-48092102D01*
X178296070Y-48184575D01*
X178507423Y-48241207D01*
X178725400Y-48260277D01*
X178943377Y-48241207D01*
X179154730Y-48184575D01*
X179353039Y-48092102D01*
X179532277Y-47966598D01*
X179686998Y-47811877D01*
X179812502Y-47632639D01*
X179904975Y-47434330D01*
X179961607Y-47222977D01*
X179980677Y-47005000D01*
X179961607Y-46787023D01*
X179904975Y-46575670D01*
X179812502Y-46377362D01*
X179686998Y-46198123D01*
X179686997Y-46198122D01*
X179686995Y-46198119D01*
X179532280Y-46043404D01*
X179353039Y-45917898D01*
X179154729Y-45825424D01*
X178943377Y-45768793D01*
X178725400Y-45749723D01*
X178507423Y-45768793D01*
X178296070Y-45825425D01*
X178296067Y-45825426D01*
X178296068Y-45825426D01*
X178097760Y-45917898D01*
X177918519Y-46043404D01*
X177763804Y-46198119D01*
X177638298Y-46377360D01*
X177569012Y-46525946D01*
X177545825Y-46575670D01*
X177492810Y-46773526D01*
X177489193Y-46787024D01*
X177470123Y-47005000D01*
X156745020Y-47005000D01*
X153740819Y-44000799D01*
X173219270Y-44000799D01*
X173238567Y-44295231D01*
X173296132Y-44584628D01*
X173390974Y-44864025D01*
X173521482Y-45128667D01*
X173685409Y-45374001D01*
X173879957Y-45595842D01*
X174000023Y-45701136D01*
X174101799Y-45790391D01*
X174347135Y-45954319D01*
X174527777Y-46043402D01*
X174611774Y-46084825D01*
X174891171Y-46179667D01*
X174891174Y-46179668D01*
X175180568Y-46237232D01*
X175475000Y-46256530D01*
X175769432Y-46237232D01*
X176058826Y-46179668D01*
X176202638Y-46130850D01*
X176338225Y-46084825D01*
X176338226Y-46084824D01*
X176338230Y-46084823D01*
X176602865Y-45954319D01*
X176848201Y-45790391D01*
X177070042Y-45595842D01*
X177264591Y-45374001D01*
X177428519Y-45128665D01*
X177559023Y-44864030D01*
X177653868Y-44584626D01*
X177711432Y-44295232D01*
X177730730Y-44000800D01*
X177711432Y-43706368D01*
X177653868Y-43416974D01*
X177639908Y-43375850D01*
X177559025Y-43137574D01*
X177506838Y-43031750D01*
X177428519Y-42872935D01*
X177264591Y-42627599D01*
X177152690Y-42500000D01*
X177070042Y-42405757D01*
X176848201Y-42211209D01*
X176602867Y-42047282D01*
X176338225Y-41916774D01*
X176058828Y-41821932D01*
X175769431Y-41764367D01*
X175475000Y-41745070D01*
X175180568Y-41764367D01*
X174891171Y-41821932D01*
X174611774Y-41916774D01*
X174347132Y-42047282D01*
X174101798Y-42211209D01*
X173879957Y-42405757D01*
X173685409Y-42627598D01*
X173521482Y-42872932D01*
X173390974Y-43137574D01*
X173296132Y-43416971D01*
X173238567Y-43706368D01*
X173219270Y-44000799D01*
X153740819Y-44000799D01*
X151126786Y-41386766D01*
X151115919Y-41374375D01*
X151096457Y-41349011D01*
X151064545Y-41324524D01*
X151064545Y-41324525D01*
X151064543Y-41324523D01*
X150969347Y-41251476D01*
X150969346Y-41251475D01*
X150864675Y-41208119D01*
X150821322Y-41190162D01*
X150821321Y-41190161D01*
X150821319Y-41190161D01*
X150801939Y-41187608D01*
X150801927Y-41187608D01*
X150787940Y-41185766D01*
X150694174Y-41173422D01*
X150694162Y-41173422D01*
X150662471Y-41169250D01*
X150630778Y-41173422D01*
X150614335Y-41174500D01*
X142542144Y-41174500D01*
X142525698Y-41173422D01*
X142494000Y-41169249D01*
X142335149Y-41190161D01*
X142187121Y-41251476D01*
X142092696Y-41323932D01*
X142092476Y-41324102D01*
X142060013Y-41349012D01*
X142040550Y-41374376D01*
X142029686Y-41386763D01*
X141643856Y-41772595D01*
X141602978Y-41799909D01*
X141554760Y-41809500D01*
X140795083Y-41809500D01*
X140746865Y-41799909D01*
X140728454Y-41787607D01*
X140727302Y-41789442D01*
X140561014Y-41684956D01*
X140389049Y-41624783D01*
X140208000Y-41604384D01*
X140026950Y-41624783D01*
X139854985Y-41684956D01*
X139700717Y-41781889D01*
X139571889Y-41910717D01*
X139474956Y-42064985D01*
X139414783Y-42236950D01*
X139394384Y-42418000D01*
X106080779Y-42418000D01*
X106070042Y-42405757D01*
X105848201Y-42211209D01*
X105602867Y-42047282D01*
X105338225Y-41916774D01*
X105058828Y-41821932D01*
X104769431Y-41764367D01*
X104475000Y-41745070D01*
X104180568Y-41764367D01*
X103891171Y-41821932D01*
X103611774Y-41916774D01*
X103347132Y-42047282D01*
X103101798Y-42211209D01*
X102879957Y-42405757D01*
X102685409Y-42627598D01*
X102521482Y-42872932D01*
X102390974Y-43137574D01*
X102296132Y-43416971D01*
X102238567Y-43706368D01*
X102219270Y-44000799D01*
X52230730Y-44000799D01*
X52211432Y-43706368D01*
X52153868Y-43416974D01*
X52139908Y-43375850D01*
X52059025Y-43137574D01*
X52006838Y-43031750D01*
X51928519Y-42872935D01*
X51764591Y-42627599D01*
X51652690Y-42500000D01*
X51570042Y-42405757D01*
X51348201Y-42211209D01*
X51102867Y-42047282D01*
X50838225Y-41916774D01*
X50558828Y-41821932D01*
X50269431Y-41764367D01*
X49975000Y-41745070D01*
X49680568Y-41764367D01*
X49391171Y-41821932D01*
X49111774Y-41916774D01*
X48847132Y-42047282D01*
X48601798Y-42211209D01*
X48379957Y-42405757D01*
X48185409Y-42627598D01*
X48021482Y-42872932D01*
X47890974Y-43137574D01*
X47796132Y-43416971D01*
X47738567Y-43706368D01*
X47719270Y-44000799D01*
X41500500Y-44000799D01*
X41500500Y-42392679D01*
X41469955Y-42180234D01*
X41409484Y-41974290D01*
X41404496Y-41963367D01*
X41320321Y-41779050D01*
X41232539Y-41642457D01*
X41204282Y-41598488D01*
X41176037Y-41565892D01*
X41063724Y-41436276D01*
X40901513Y-41295719D01*
X40901514Y-41295719D01*
X40901511Y-41295717D01*
X40720953Y-41179681D01*
X40720950Y-41179679D01*
X40574155Y-41112640D01*
X40535310Y-41084978D01*
X40509526Y-41044857D01*
X40500500Y-40998028D01*
X40500500Y-40626500D01*
X40517381Y-40563500D01*
X40563500Y-40517381D01*
X40626500Y-40500500D01*
X230373500Y-40500500D01*
X230436500Y-40517381D01*
G37*
G04 #@! TD.AperFunction*
M02*
