M48
; DRILL file {KiCad 7.0.1-0} date 2023 April 13, Thursday 17:41:17
; FORMAT={-:-/ absolute / metric / decimal}
; #@! TF.CreationDate,2023-04-13T17:41:17+02:00
; #@! TF.GenerationSoftware,Kicad,Pcbnew,7.0.1-0
; #@! TF.FileFunction,Plated,1,2,PTH
FMAT,2
METRIC
; #@! TA.AperFunction,Plated,PTH,ViaDrill
T1C0.300
; #@! TA.AperFunction,Plated,PTH,ComponentDrill
T2C0.600
; #@! TA.AperFunction,Plated,PTH,ComponentDrill
T3C1.000
%
G90
G05
T1
X43.688Y-45.72
X46.863Y-42.672
X118.11Y-54.61
X118.872Y-45.593
X119.38Y-64.73
X120.65Y-64.329
X121.92Y-63.929
X121.92Y-66.329
X123.19Y-62.73
X123.19Y-65.278
X124.451Y-63.13
X124.46Y-62.331
X125.73Y-62.357
X125.73Y-66.929
X127.0Y-66.929
X128.27Y-66.929
X130.81Y-60.96
X130.81Y-70.231
X132.08Y-45.593
X132.08Y-60.96
X132.08Y-66.929
X133.35Y-57.023
X133.35Y-60.96
X134.62Y-57.023
X135.89Y-57.023
X136.779Y-60.96
X140.208Y-42.418
X142.748Y-42.383
X143.002Y-60.96
X145.923Y-63.5
X146.05Y-61.976
X146.05Y-66.675
X146.85Y-66.675
X148.336Y-62.23
X149.225Y-61.595
X149.633Y-46.582
X150.114Y-61.087
X150.876Y-65.913
X151.765Y-64.262
X152.019Y-50.038
X153.416Y-43.688
X154.94Y-65.278
X160.655Y-64.135
X161.452Y-50.927
X164.211Y-50.927
X166.243Y-64.135
X170.688Y-43.688
X170.688Y-47.879
X178.181Y-52.07
X178.181Y-52.87
X178.181Y-53.721
X193.366Y-61.637
X193.41Y-60.833
X194.546Y-58.808
X194.553Y-59.69
X194.553Y-60.579
X194.576Y-57.989
X195.315Y-57.404
X198.236Y-57.277
T2
X212.097Y-54.864
X212.097Y-54.864
X212.097Y-59.67
X212.097Y-59.67
X215.097Y-52.324
X215.097Y-52.324
X215.097Y-57.13
X215.097Y-57.13
T3
X62.89Y-54.742
X62.89Y-57.282
X65.43Y-54.742
X65.43Y-57.282
X67.97Y-54.742
X67.97Y-57.282
X78.791Y-56.007
X81.331Y-56.007
X83.871Y-56.007
X86.411Y-56.007
X88.951Y-56.007
X91.491Y-56.007
T0
M30
