G04 #@! TF.GenerationSoftware,KiCad,Pcbnew,7.0.1-0*
G04 #@! TF.CreationDate,2023-04-13T17:41:14+02:00*
G04 #@! TF.ProjectId,Remote,52656d6f-7465-42e6-9b69-6361645f7063,rev?*
G04 #@! TF.SameCoordinates,Original*
G04 #@! TF.FileFunction,Soldermask,Bot*
G04 #@! TF.FilePolarity,Negative*
%FSLAX46Y46*%
G04 Gerber Fmt 4.6, Leading zero omitted, Abs format (unit mm)*
G04 Created by KiCad (PCBNEW 7.0.1-0) date 2023-04-13 17:41:14*
%MOMM*%
%LPD*%
G01*
G04 APERTURE LIST*
G04 Aperture macros list*
%AMRoundRect*
0 Rectangle with rounded corners*
0 $1 Rounding radius*
0 $2 $3 $4 $5 $6 $7 $8 $9 X,Y pos of 4 corners*
0 Add a 4 corners polygon primitive as box body*
4,1,4,$2,$3,$4,$5,$6,$7,$8,$9,$2,$3,0*
0 Add four circle primitives for the rounded corners*
1,1,$1+$1,$2,$3*
1,1,$1+$1,$4,$5*
1,1,$1+$1,$6,$7*
1,1,$1+$1,$8,$9*
0 Add four rect primitives between the rounded corners*
20,1,$1+$1,$2,$3,$4,$5,0*
20,1,$1+$1,$4,$5,$6,$7,0*
20,1,$1+$1,$6,$7,$8,$9,0*
20,1,$1+$1,$8,$9,$2,$3,0*%
G04 Aperture macros list end*
%ADD10RoundRect,0.200000X2.500000X-0.300000X2.500000X0.300000X-2.500000X0.300000X-2.500000X-0.300000X0*%
%ADD11C,2.200000*%
%ADD12RoundRect,0.200000X4.000000X-0.300000X4.000000X0.300000X-4.000000X0.300000X-4.000000X-0.300000X0*%
%ADD13RoundRect,0.450000X0.450000X-0.262500X0.450000X0.262500X-0.450000X0.262500X-0.450000X-0.262500X0*%
%ADD14RoundRect,0.450000X-0.450000X0.262500X-0.450000X-0.262500X0.450000X-0.262500X0.450000X0.262500X0*%
%ADD15RoundRect,0.450000X0.475000X-0.250000X0.475000X0.250000X-0.475000X0.250000X-0.475000X-0.250000X0*%
%ADD16RoundRect,0.450000X-0.475000X0.250000X-0.475000X-0.250000X0.475000X-0.250000X0.475000X0.250000X0*%
%ADD17RoundRect,0.425000X-0.375000X0.225000X-0.375000X-0.225000X0.375000X-0.225000X0.375000X0.225000X0*%
%ADD18RoundRect,0.425000X0.375000X-0.225000X0.375000X0.225000X-0.375000X0.225000X-0.375000X-0.225000X0*%
%ADD19RoundRect,0.350000X0.150000X-0.512500X0.150000X0.512500X-0.150000X0.512500X-0.150000X-0.512500X0*%
%ADD20RoundRect,0.350000X-0.150000X0.875000X-0.150000X-0.875000X0.150000X-0.875000X0.150000X0.875000X0*%
%ADD21RoundRect,0.450000X-1.075000X0.375000X-1.075000X-0.375000X1.075000X-0.375000X1.075000X0.375000X0*%
%ADD22RoundRect,0.200000X0.275000X-0.800000X0.275000X0.800000X-0.275000X0.800000X-0.275000X-0.800000X0*%
%ADD23RoundRect,0.200000X0.800000X0.275000X-0.800000X0.275000X-0.800000X-0.275000X0.800000X-0.275000X0*%
%ADD24RoundRect,0.200000X-2.032000X-2.032000X2.032000X-2.032000X2.032000X2.032000X-2.032000X2.032000X0*%
%ADD25RoundRect,0.200000X-0.225000X-0.350000X0.225000X-0.350000X0.225000X0.350000X-0.225000X0.350000X0*%
%ADD26RoundRect,0.200000X0.850000X-0.850000X0.850000X0.850000X-0.850000X0.850000X-0.850000X-0.850000X0*%
%ADD27O,2.100000X2.100000*%
%ADD28RoundRect,0.200000X0.950000X-0.200000X0.950000X0.200000X-0.950000X0.200000X-0.950000X-0.200000X0*%
%ADD29RoundRect,0.350000X0.150000X-0.587500X0.150000X0.587500X-0.150000X0.587500X-0.150000X-0.587500X0*%
G04 APERTURE END LIST*
D10*
X217597000Y-57730000D03*
D11*
X215097000Y-57130000D03*
X215097000Y-57130000D03*
D10*
X217597000Y-56530000D03*
D12*
X216097000Y-60270000D03*
D11*
X212097000Y-59670000D03*
X212097000Y-59670000D03*
D12*
X216097000Y-59070000D03*
D10*
X217597000Y-52924000D03*
D11*
X215097000Y-52324000D03*
X215097000Y-52324000D03*
D10*
X217597000Y-51724000D03*
D12*
X216097000Y-55464000D03*
D11*
X212097000Y-54864000D03*
X212097000Y-54864000D03*
D12*
X216097000Y-54264000D03*
D13*
X161544000Y-68072000D03*
X161544000Y-66247000D03*
D14*
X169164000Y-66247000D03*
X169164000Y-68072000D03*
D15*
X127000000Y-45588000D03*
X127000000Y-43688000D03*
X120396000Y-45588000D03*
X120396000Y-43688000D03*
X147066000Y-57338000D03*
X147066000Y-55438000D03*
D16*
X133604000Y-43678400D03*
X133604000Y-45578400D03*
D15*
X147828000Y-45568800D03*
X147828000Y-43668800D03*
D16*
X169164000Y-43601600D03*
X169164000Y-45501600D03*
X167005000Y-43611200D03*
X167005000Y-45511200D03*
X162687000Y-43649600D03*
X162687000Y-45549600D03*
X160528000Y-43659200D03*
X160528000Y-45559200D03*
X169164000Y-47835200D03*
X169164000Y-49735200D03*
X167005000Y-47823000D03*
X167005000Y-49723000D03*
X164846000Y-47847400D03*
X164846000Y-49747400D03*
D17*
X145288000Y-43626000D03*
X145288000Y-46926000D03*
D18*
X142748000Y-46926000D03*
X142748000Y-43626000D03*
D14*
X149352000Y-55475500D03*
X149352000Y-57300500D03*
D13*
X119634000Y-56515000D03*
X119634000Y-54690000D03*
X121666000Y-56515000D03*
X121666000Y-54690000D03*
X123698000Y-56515000D03*
X123698000Y-54690000D03*
X125730000Y-56515000D03*
X125730000Y-54690000D03*
D16*
X162687000Y-47859600D03*
X162687000Y-49759600D03*
X160528000Y-47871800D03*
X160528000Y-49771800D03*
X158369000Y-47884000D03*
X158369000Y-49784000D03*
X141859000Y-63124000D03*
X141859000Y-65024000D03*
D19*
X124648000Y-46029500D03*
X123698000Y-46029500D03*
X122748000Y-46029500D03*
X122748000Y-43754500D03*
X124648000Y-43754500D03*
D20*
X119380000Y-59280000D03*
X120650000Y-59280000D03*
X121920000Y-59280000D03*
X123190000Y-59280000D03*
X124460000Y-59280000D03*
X125730000Y-59280000D03*
X127000000Y-59280000D03*
X128270000Y-59280000D03*
X129540000Y-59280000D03*
X130810000Y-59280000D03*
X132080000Y-59280000D03*
X133350000Y-59280000D03*
X134620000Y-59280000D03*
X135890000Y-59280000D03*
X135890000Y-68580000D03*
X134620000Y-68580000D03*
X133350000Y-68580000D03*
X132080000Y-68580000D03*
X130810000Y-68580000D03*
X129540000Y-68580000D03*
X128270000Y-68580000D03*
X127000000Y-68580000D03*
X125730000Y-68580000D03*
X124460000Y-68580000D03*
X123190000Y-68580000D03*
X121920000Y-68580000D03*
X120650000Y-68580000D03*
X119380000Y-68580000D03*
D21*
X136652000Y-43688000D03*
X136652000Y-46488000D03*
D22*
X151644000Y-59680000D03*
X150844000Y-59680000D03*
X150044000Y-59680000D03*
X149244000Y-59680000D03*
X148444000Y-59680000D03*
X147644000Y-59680000D03*
X146844000Y-59680000D03*
X146044000Y-59680000D03*
D23*
X144594000Y-61130000D03*
X144594000Y-61930000D03*
X144594000Y-62730000D03*
X144594000Y-63530000D03*
X144594000Y-64330000D03*
X144594000Y-65130000D03*
X144594000Y-65930000D03*
X144594000Y-66730000D03*
D22*
X146044000Y-68180000D03*
X146844000Y-68180000D03*
X147644000Y-68180000D03*
X148444000Y-68180000D03*
X149244000Y-68180000D03*
X150044000Y-68180000D03*
X150844000Y-68180000D03*
X151644000Y-68180000D03*
D23*
X153094000Y-66730000D03*
X153094000Y-65930000D03*
X153094000Y-65130000D03*
X153094000Y-64330000D03*
X153094000Y-63530000D03*
X153094000Y-62730000D03*
X153094000Y-61930000D03*
X153094000Y-61130000D03*
D17*
X140208000Y-43626000D03*
X140208000Y-46926000D03*
D24*
X43688000Y-69342000D03*
X43688000Y-42672000D03*
D25*
X150226000Y-47401000D03*
X151526000Y-47401000D03*
X150876000Y-49401000D03*
D13*
X127762000Y-56515000D03*
X127762000Y-54690000D03*
X129794000Y-56515000D03*
X129794000Y-54690000D03*
X149860000Y-45492900D03*
X149860000Y-43667900D03*
X164846000Y-45483300D03*
X164846000Y-43658300D03*
D14*
X151892000Y-43677500D03*
X151892000Y-45502500D03*
D26*
X67970400Y-57282000D03*
D27*
X67970400Y-54742000D03*
X65430400Y-57282000D03*
X65430400Y-54742000D03*
X62890400Y-57282000D03*
X62890400Y-54742000D03*
D26*
X91490800Y-56007000D03*
D27*
X88950800Y-56007000D03*
X86410800Y-56007000D03*
X83870800Y-56007000D03*
X81330800Y-56007000D03*
X78790800Y-56007000D03*
D28*
X156464000Y-66478000D03*
X156464000Y-65278000D03*
X156464000Y-64078000D03*
D29*
X163510000Y-64111500D03*
X161610000Y-64111500D03*
X162560000Y-62236500D03*
D13*
X163703000Y-68072000D03*
X163703000Y-66247000D03*
D29*
X169074500Y-64111500D03*
X167174500Y-64111500D03*
X168124500Y-62236500D03*
D13*
X167005000Y-68072000D03*
X167005000Y-66247000D03*
M02*
