G04 #@! TF.GenerationSoftware,KiCad,Pcbnew,7.0.1-0*
G04 #@! TF.CreationDate,2023-04-13T17:41:14+02:00*
G04 #@! TF.ProjectId,Remote,52656d6f-7465-42e6-9b69-6361645f7063,rev?*
G04 #@! TF.SameCoordinates,Original*
G04 #@! TF.FileFunction,Legend,Bot*
G04 #@! TF.FilePolarity,Positive*
%FSLAX46Y46*%
G04 Gerber Fmt 4.6, Leading zero omitted, Abs format (unit mm)*
G04 Created by KiCad (PCBNEW 7.0.1-0) date 2023-04-13 17:41:14*
%MOMM*%
%LPD*%
G01*
G04 APERTURE LIST*
G04 Aperture macros list*
%AMRoundRect*
0 Rectangle with rounded corners*
0 $1 Rounding radius*
0 $2 $3 $4 $5 $6 $7 $8 $9 X,Y pos of 4 corners*
0 Add a 4 corners polygon primitive as box body*
4,1,4,$2,$3,$4,$5,$6,$7,$8,$9,$2,$3,0*
0 Add four circle primitives for the rounded corners*
1,1,$1+$1,$2,$3*
1,1,$1+$1,$4,$5*
1,1,$1+$1,$6,$7*
1,1,$1+$1,$8,$9*
0 Add four rect primitives between the rounded corners*
20,1,$1+$1,$2,$3,$4,$5,0*
20,1,$1+$1,$4,$5,$6,$7,0*
20,1,$1+$1,$6,$7,$8,$9,0*
20,1,$1+$1,$8,$9,$2,$3,0*%
G04 Aperture macros list end*
%ADD10C,0.150000*%
%ADD11C,0.120000*%
%ADD12RoundRect,0.200000X2.500000X-0.300000X2.500000X0.300000X-2.500000X0.300000X-2.500000X-0.300000X0*%
%ADD13C,2.200000*%
%ADD14RoundRect,0.200000X4.000000X-0.300000X4.000000X0.300000X-4.000000X0.300000X-4.000000X-0.300000X0*%
%ADD15RoundRect,0.450000X0.450000X-0.262500X0.450000X0.262500X-0.450000X0.262500X-0.450000X-0.262500X0*%
%ADD16RoundRect,0.450000X-0.450000X0.262500X-0.450000X-0.262500X0.450000X-0.262500X0.450000X0.262500X0*%
%ADD17RoundRect,0.450000X0.475000X-0.250000X0.475000X0.250000X-0.475000X0.250000X-0.475000X-0.250000X0*%
%ADD18RoundRect,0.450000X-0.475000X0.250000X-0.475000X-0.250000X0.475000X-0.250000X0.475000X0.250000X0*%
%ADD19RoundRect,0.425000X-0.375000X0.225000X-0.375000X-0.225000X0.375000X-0.225000X0.375000X0.225000X0*%
%ADD20RoundRect,0.425000X0.375000X-0.225000X0.375000X0.225000X-0.375000X0.225000X-0.375000X-0.225000X0*%
%ADD21RoundRect,0.350000X0.150000X-0.512500X0.150000X0.512500X-0.150000X0.512500X-0.150000X-0.512500X0*%
%ADD22RoundRect,0.350000X-0.150000X0.875000X-0.150000X-0.875000X0.150000X-0.875000X0.150000X0.875000X0*%
%ADD23RoundRect,0.450000X-1.075000X0.375000X-1.075000X-0.375000X1.075000X-0.375000X1.075000X0.375000X0*%
%ADD24RoundRect,0.200000X0.275000X-0.800000X0.275000X0.800000X-0.275000X0.800000X-0.275000X-0.800000X0*%
%ADD25RoundRect,0.200000X0.800000X0.275000X-0.800000X0.275000X-0.800000X-0.275000X0.800000X-0.275000X0*%
%ADD26RoundRect,0.200000X-2.032000X-2.032000X2.032000X-2.032000X2.032000X2.032000X-2.032000X2.032000X0*%
%ADD27RoundRect,0.200000X-0.225000X-0.350000X0.225000X-0.350000X0.225000X0.350000X-0.225000X0.350000X0*%
%ADD28RoundRect,0.200000X0.850000X-0.850000X0.850000X0.850000X-0.850000X0.850000X-0.850000X-0.850000X0*%
%ADD29O,2.100000X2.100000*%
%ADD30RoundRect,0.200000X0.950000X-0.200000X0.950000X0.200000X-0.950000X0.200000X-0.950000X-0.200000X0*%
%ADD31RoundRect,0.350000X0.150000X-0.587500X0.150000X0.587500X-0.150000X0.587500X-0.150000X-0.587500X0*%
G04 APERTURE END LIST*
D10*
X162006619Y-69763333D02*
X161530428Y-69430000D01*
X162006619Y-69191905D02*
X161006619Y-69191905D01*
X161006619Y-69191905D02*
X161006619Y-69572857D01*
X161006619Y-69572857D02*
X161054238Y-69668095D01*
X161054238Y-69668095D02*
X161101857Y-69715714D01*
X161101857Y-69715714D02*
X161197095Y-69763333D01*
X161197095Y-69763333D02*
X161339952Y-69763333D01*
X161339952Y-69763333D02*
X161435190Y-69715714D01*
X161435190Y-69715714D02*
X161482809Y-69668095D01*
X161482809Y-69668095D02*
X161530428Y-69572857D01*
X161530428Y-69572857D02*
X161530428Y-69191905D01*
X162006619Y-70715714D02*
X162006619Y-70144286D01*
X162006619Y-70430000D02*
X161006619Y-70430000D01*
X161006619Y-70430000D02*
X161149476Y-70334762D01*
X161149476Y-70334762D02*
X161244714Y-70239524D01*
X161244714Y-70239524D02*
X161292333Y-70144286D01*
X127367380Y-41611333D02*
X127415000Y-41563714D01*
X127415000Y-41563714D02*
X127462619Y-41420857D01*
X127462619Y-41420857D02*
X127462619Y-41325619D01*
X127462619Y-41325619D02*
X127415000Y-41182762D01*
X127415000Y-41182762D02*
X127319761Y-41087524D01*
X127319761Y-41087524D02*
X127224523Y-41039905D01*
X127224523Y-41039905D02*
X127034047Y-40992286D01*
X127034047Y-40992286D02*
X126891190Y-40992286D01*
X126891190Y-40992286D02*
X126700714Y-41039905D01*
X126700714Y-41039905D02*
X126605476Y-41087524D01*
X126605476Y-41087524D02*
X126510238Y-41182762D01*
X126510238Y-41182762D02*
X126462619Y-41325619D01*
X126462619Y-41325619D02*
X126462619Y-41420857D01*
X126462619Y-41420857D02*
X126510238Y-41563714D01*
X126510238Y-41563714D02*
X126557857Y-41611333D01*
X126462619Y-41944667D02*
X126462619Y-42563714D01*
X126462619Y-42563714D02*
X126843571Y-42230381D01*
X126843571Y-42230381D02*
X126843571Y-42373238D01*
X126843571Y-42373238D02*
X126891190Y-42468476D01*
X126891190Y-42468476D02*
X126938809Y-42516095D01*
X126938809Y-42516095D02*
X127034047Y-42563714D01*
X127034047Y-42563714D02*
X127272142Y-42563714D01*
X127272142Y-42563714D02*
X127367380Y-42516095D01*
X127367380Y-42516095D02*
X127415000Y-42468476D01*
X127415000Y-42468476D02*
X127462619Y-42373238D01*
X127462619Y-42373238D02*
X127462619Y-42087524D01*
X127462619Y-42087524D02*
X127415000Y-41992286D01*
X127415000Y-41992286D02*
X127367380Y-41944667D01*
X120763380Y-41489333D02*
X120811000Y-41441714D01*
X120811000Y-41441714D02*
X120858619Y-41298857D01*
X120858619Y-41298857D02*
X120858619Y-41203619D01*
X120858619Y-41203619D02*
X120811000Y-41060762D01*
X120811000Y-41060762D02*
X120715761Y-40965524D01*
X120715761Y-40965524D02*
X120620523Y-40917905D01*
X120620523Y-40917905D02*
X120430047Y-40870286D01*
X120430047Y-40870286D02*
X120287190Y-40870286D01*
X120287190Y-40870286D02*
X120096714Y-40917905D01*
X120096714Y-40917905D02*
X120001476Y-40965524D01*
X120001476Y-40965524D02*
X119906238Y-41060762D01*
X119906238Y-41060762D02*
X119858619Y-41203619D01*
X119858619Y-41203619D02*
X119858619Y-41298857D01*
X119858619Y-41298857D02*
X119906238Y-41441714D01*
X119906238Y-41441714D02*
X119953857Y-41489333D01*
X120191952Y-42346476D02*
X120858619Y-42346476D01*
X119811000Y-42108381D02*
X120525285Y-41870286D01*
X120525285Y-41870286D02*
X120525285Y-42489333D01*
X145655380Y-56221333D02*
X145703000Y-56173714D01*
X145703000Y-56173714D02*
X145750619Y-56030857D01*
X145750619Y-56030857D02*
X145750619Y-55935619D01*
X145750619Y-55935619D02*
X145703000Y-55792762D01*
X145703000Y-55792762D02*
X145607761Y-55697524D01*
X145607761Y-55697524D02*
X145512523Y-55649905D01*
X145512523Y-55649905D02*
X145322047Y-55602286D01*
X145322047Y-55602286D02*
X145179190Y-55602286D01*
X145179190Y-55602286D02*
X144988714Y-55649905D01*
X144988714Y-55649905D02*
X144893476Y-55697524D01*
X144893476Y-55697524D02*
X144798238Y-55792762D01*
X144798238Y-55792762D02*
X144750619Y-55935619D01*
X144750619Y-55935619D02*
X144750619Y-56030857D01*
X144750619Y-56030857D02*
X144798238Y-56173714D01*
X144798238Y-56173714D02*
X144845857Y-56221333D01*
X144750619Y-57126095D02*
X144750619Y-56649905D01*
X144750619Y-56649905D02*
X145226809Y-56602286D01*
X145226809Y-56602286D02*
X145179190Y-56649905D01*
X145179190Y-56649905D02*
X145131571Y-56745143D01*
X145131571Y-56745143D02*
X145131571Y-56983238D01*
X145131571Y-56983238D02*
X145179190Y-57078476D01*
X145179190Y-57078476D02*
X145226809Y-57126095D01*
X145226809Y-57126095D02*
X145322047Y-57173714D01*
X145322047Y-57173714D02*
X145560142Y-57173714D01*
X145560142Y-57173714D02*
X145655380Y-57126095D01*
X145655380Y-57126095D02*
X145703000Y-57078476D01*
X145703000Y-57078476D02*
X145750619Y-56983238D01*
X145750619Y-56983238D02*
X145750619Y-56745143D01*
X145750619Y-56745143D02*
X145703000Y-56649905D01*
X145703000Y-56649905D02*
X145655380Y-56602286D01*
X133971380Y-41667733D02*
X134019000Y-41620114D01*
X134019000Y-41620114D02*
X134066619Y-41477257D01*
X134066619Y-41477257D02*
X134066619Y-41382019D01*
X134066619Y-41382019D02*
X134019000Y-41239162D01*
X134019000Y-41239162D02*
X133923761Y-41143924D01*
X133923761Y-41143924D02*
X133828523Y-41096305D01*
X133828523Y-41096305D02*
X133638047Y-41048686D01*
X133638047Y-41048686D02*
X133495190Y-41048686D01*
X133495190Y-41048686D02*
X133304714Y-41096305D01*
X133304714Y-41096305D02*
X133209476Y-41143924D01*
X133209476Y-41143924D02*
X133114238Y-41239162D01*
X133114238Y-41239162D02*
X133066619Y-41382019D01*
X133066619Y-41382019D02*
X133066619Y-41477257D01*
X133066619Y-41477257D02*
X133114238Y-41620114D01*
X133114238Y-41620114D02*
X133161857Y-41667733D01*
X133066619Y-42524876D02*
X133066619Y-42334400D01*
X133066619Y-42334400D02*
X133114238Y-42239162D01*
X133114238Y-42239162D02*
X133161857Y-42191543D01*
X133161857Y-42191543D02*
X133304714Y-42096305D01*
X133304714Y-42096305D02*
X133495190Y-42048686D01*
X133495190Y-42048686D02*
X133876142Y-42048686D01*
X133876142Y-42048686D02*
X133971380Y-42096305D01*
X133971380Y-42096305D02*
X134019000Y-42143924D01*
X134019000Y-42143924D02*
X134066619Y-42239162D01*
X134066619Y-42239162D02*
X134066619Y-42429638D01*
X134066619Y-42429638D02*
X134019000Y-42524876D01*
X134019000Y-42524876D02*
X133971380Y-42572495D01*
X133971380Y-42572495D02*
X133876142Y-42620114D01*
X133876142Y-42620114D02*
X133638047Y-42620114D01*
X133638047Y-42620114D02*
X133542809Y-42572495D01*
X133542809Y-42572495D02*
X133495190Y-42524876D01*
X133495190Y-42524876D02*
X133447571Y-42429638D01*
X133447571Y-42429638D02*
X133447571Y-42239162D01*
X133447571Y-42239162D02*
X133495190Y-42143924D01*
X133495190Y-42143924D02*
X133542809Y-42096305D01*
X133542809Y-42096305D02*
X133638047Y-42048686D01*
X148195380Y-41705133D02*
X148243000Y-41657514D01*
X148243000Y-41657514D02*
X148290619Y-41514657D01*
X148290619Y-41514657D02*
X148290619Y-41419419D01*
X148290619Y-41419419D02*
X148243000Y-41276562D01*
X148243000Y-41276562D02*
X148147761Y-41181324D01*
X148147761Y-41181324D02*
X148052523Y-41133705D01*
X148052523Y-41133705D02*
X147862047Y-41086086D01*
X147862047Y-41086086D02*
X147719190Y-41086086D01*
X147719190Y-41086086D02*
X147528714Y-41133705D01*
X147528714Y-41133705D02*
X147433476Y-41181324D01*
X147433476Y-41181324D02*
X147338238Y-41276562D01*
X147338238Y-41276562D02*
X147290619Y-41419419D01*
X147290619Y-41419419D02*
X147290619Y-41514657D01*
X147290619Y-41514657D02*
X147338238Y-41657514D01*
X147338238Y-41657514D02*
X147385857Y-41705133D01*
X147290619Y-42038467D02*
X147290619Y-42705133D01*
X147290619Y-42705133D02*
X148290619Y-42276562D01*
X169531380Y-41743333D02*
X169579000Y-41695714D01*
X169579000Y-41695714D02*
X169626619Y-41552857D01*
X169626619Y-41552857D02*
X169626619Y-41457619D01*
X169626619Y-41457619D02*
X169579000Y-41314762D01*
X169579000Y-41314762D02*
X169483761Y-41219524D01*
X169483761Y-41219524D02*
X169388523Y-41171905D01*
X169388523Y-41171905D02*
X169198047Y-41124286D01*
X169198047Y-41124286D02*
X169055190Y-41124286D01*
X169055190Y-41124286D02*
X168864714Y-41171905D01*
X168864714Y-41171905D02*
X168769476Y-41219524D01*
X168769476Y-41219524D02*
X168674238Y-41314762D01*
X168674238Y-41314762D02*
X168626619Y-41457619D01*
X168626619Y-41457619D02*
X168626619Y-41552857D01*
X168626619Y-41552857D02*
X168674238Y-41695714D01*
X168674238Y-41695714D02*
X168721857Y-41743333D01*
X169055190Y-42314762D02*
X169007571Y-42219524D01*
X169007571Y-42219524D02*
X168959952Y-42171905D01*
X168959952Y-42171905D02*
X168864714Y-42124286D01*
X168864714Y-42124286D02*
X168817095Y-42124286D01*
X168817095Y-42124286D02*
X168721857Y-42171905D01*
X168721857Y-42171905D02*
X168674238Y-42219524D01*
X168674238Y-42219524D02*
X168626619Y-42314762D01*
X168626619Y-42314762D02*
X168626619Y-42505238D01*
X168626619Y-42505238D02*
X168674238Y-42600476D01*
X168674238Y-42600476D02*
X168721857Y-42648095D01*
X168721857Y-42648095D02*
X168817095Y-42695714D01*
X168817095Y-42695714D02*
X168864714Y-42695714D01*
X168864714Y-42695714D02*
X168959952Y-42648095D01*
X168959952Y-42648095D02*
X169007571Y-42600476D01*
X169007571Y-42600476D02*
X169055190Y-42505238D01*
X169055190Y-42505238D02*
X169055190Y-42314762D01*
X169055190Y-42314762D02*
X169102809Y-42219524D01*
X169102809Y-42219524D02*
X169150428Y-42171905D01*
X169150428Y-42171905D02*
X169245666Y-42124286D01*
X169245666Y-42124286D02*
X169436142Y-42124286D01*
X169436142Y-42124286D02*
X169531380Y-42171905D01*
X169531380Y-42171905D02*
X169579000Y-42219524D01*
X169579000Y-42219524D02*
X169626619Y-42314762D01*
X169626619Y-42314762D02*
X169626619Y-42505238D01*
X169626619Y-42505238D02*
X169579000Y-42600476D01*
X169579000Y-42600476D02*
X169531380Y-42648095D01*
X169531380Y-42648095D02*
X169436142Y-42695714D01*
X169436142Y-42695714D02*
X169245666Y-42695714D01*
X169245666Y-42695714D02*
X169150428Y-42648095D01*
X169150428Y-42648095D02*
X169102809Y-42600476D01*
X169102809Y-42600476D02*
X169055190Y-42505238D01*
X167302380Y-41743333D02*
X167350000Y-41695714D01*
X167350000Y-41695714D02*
X167397619Y-41552857D01*
X167397619Y-41552857D02*
X167397619Y-41457619D01*
X167397619Y-41457619D02*
X167350000Y-41314762D01*
X167350000Y-41314762D02*
X167254761Y-41219524D01*
X167254761Y-41219524D02*
X167159523Y-41171905D01*
X167159523Y-41171905D02*
X166969047Y-41124286D01*
X166969047Y-41124286D02*
X166826190Y-41124286D01*
X166826190Y-41124286D02*
X166635714Y-41171905D01*
X166635714Y-41171905D02*
X166540476Y-41219524D01*
X166540476Y-41219524D02*
X166445238Y-41314762D01*
X166445238Y-41314762D02*
X166397619Y-41457619D01*
X166397619Y-41457619D02*
X166397619Y-41552857D01*
X166397619Y-41552857D02*
X166445238Y-41695714D01*
X166445238Y-41695714D02*
X166492857Y-41743333D01*
X167397619Y-42219524D02*
X167397619Y-42410000D01*
X167397619Y-42410000D02*
X167350000Y-42505238D01*
X167350000Y-42505238D02*
X167302380Y-42552857D01*
X167302380Y-42552857D02*
X167159523Y-42648095D01*
X167159523Y-42648095D02*
X166969047Y-42695714D01*
X166969047Y-42695714D02*
X166588095Y-42695714D01*
X166588095Y-42695714D02*
X166492857Y-42648095D01*
X166492857Y-42648095D02*
X166445238Y-42600476D01*
X166445238Y-42600476D02*
X166397619Y-42505238D01*
X166397619Y-42505238D02*
X166397619Y-42314762D01*
X166397619Y-42314762D02*
X166445238Y-42219524D01*
X166445238Y-42219524D02*
X166492857Y-42171905D01*
X166492857Y-42171905D02*
X166588095Y-42124286D01*
X166588095Y-42124286D02*
X166826190Y-42124286D01*
X166826190Y-42124286D02*
X166921428Y-42171905D01*
X166921428Y-42171905D02*
X166969047Y-42219524D01*
X166969047Y-42219524D02*
X167016666Y-42314762D01*
X167016666Y-42314762D02*
X167016666Y-42505238D01*
X167016666Y-42505238D02*
X166969047Y-42600476D01*
X166969047Y-42600476D02*
X166921428Y-42648095D01*
X166921428Y-42648095D02*
X166826190Y-42695714D01*
X163054380Y-40759142D02*
X163102000Y-40711523D01*
X163102000Y-40711523D02*
X163149619Y-40568666D01*
X163149619Y-40568666D02*
X163149619Y-40473428D01*
X163149619Y-40473428D02*
X163102000Y-40330571D01*
X163102000Y-40330571D02*
X163006761Y-40235333D01*
X163006761Y-40235333D02*
X162911523Y-40187714D01*
X162911523Y-40187714D02*
X162721047Y-40140095D01*
X162721047Y-40140095D02*
X162578190Y-40140095D01*
X162578190Y-40140095D02*
X162387714Y-40187714D01*
X162387714Y-40187714D02*
X162292476Y-40235333D01*
X162292476Y-40235333D02*
X162197238Y-40330571D01*
X162197238Y-40330571D02*
X162149619Y-40473428D01*
X162149619Y-40473428D02*
X162149619Y-40568666D01*
X162149619Y-40568666D02*
X162197238Y-40711523D01*
X162197238Y-40711523D02*
X162244857Y-40759142D01*
X163149619Y-41711523D02*
X163149619Y-41140095D01*
X163149619Y-41425809D02*
X162149619Y-41425809D01*
X162149619Y-41425809D02*
X162292476Y-41330571D01*
X162292476Y-41330571D02*
X162387714Y-41235333D01*
X162387714Y-41235333D02*
X162435333Y-41140095D01*
X162149619Y-42330571D02*
X162149619Y-42425809D01*
X162149619Y-42425809D02*
X162197238Y-42521047D01*
X162197238Y-42521047D02*
X162244857Y-42568666D01*
X162244857Y-42568666D02*
X162340095Y-42616285D01*
X162340095Y-42616285D02*
X162530571Y-42663904D01*
X162530571Y-42663904D02*
X162768666Y-42663904D01*
X162768666Y-42663904D02*
X162959142Y-42616285D01*
X162959142Y-42616285D02*
X163054380Y-42568666D01*
X163054380Y-42568666D02*
X163102000Y-42521047D01*
X163102000Y-42521047D02*
X163149619Y-42425809D01*
X163149619Y-42425809D02*
X163149619Y-42330571D01*
X163149619Y-42330571D02*
X163102000Y-42235333D01*
X163102000Y-42235333D02*
X163054380Y-42187714D01*
X163054380Y-42187714D02*
X162959142Y-42140095D01*
X162959142Y-42140095D02*
X162768666Y-42092476D01*
X162768666Y-42092476D02*
X162530571Y-42092476D01*
X162530571Y-42092476D02*
X162340095Y-42140095D01*
X162340095Y-42140095D02*
X162244857Y-42187714D01*
X162244857Y-42187714D02*
X162197238Y-42235333D01*
X162197238Y-42235333D02*
X162149619Y-42330571D01*
X160895380Y-40759142D02*
X160943000Y-40711523D01*
X160943000Y-40711523D02*
X160990619Y-40568666D01*
X160990619Y-40568666D02*
X160990619Y-40473428D01*
X160990619Y-40473428D02*
X160943000Y-40330571D01*
X160943000Y-40330571D02*
X160847761Y-40235333D01*
X160847761Y-40235333D02*
X160752523Y-40187714D01*
X160752523Y-40187714D02*
X160562047Y-40140095D01*
X160562047Y-40140095D02*
X160419190Y-40140095D01*
X160419190Y-40140095D02*
X160228714Y-40187714D01*
X160228714Y-40187714D02*
X160133476Y-40235333D01*
X160133476Y-40235333D02*
X160038238Y-40330571D01*
X160038238Y-40330571D02*
X159990619Y-40473428D01*
X159990619Y-40473428D02*
X159990619Y-40568666D01*
X159990619Y-40568666D02*
X160038238Y-40711523D01*
X160038238Y-40711523D02*
X160085857Y-40759142D01*
X160990619Y-41711523D02*
X160990619Y-41140095D01*
X160990619Y-41425809D02*
X159990619Y-41425809D01*
X159990619Y-41425809D02*
X160133476Y-41330571D01*
X160133476Y-41330571D02*
X160228714Y-41235333D01*
X160228714Y-41235333D02*
X160276333Y-41140095D01*
X160990619Y-42663904D02*
X160990619Y-42092476D01*
X160990619Y-42378190D02*
X159990619Y-42378190D01*
X159990619Y-42378190D02*
X160133476Y-42282952D01*
X160133476Y-42282952D02*
X160228714Y-42187714D01*
X160228714Y-42187714D02*
X160276333Y-42092476D01*
X169531380Y-51300142D02*
X169579000Y-51252523D01*
X169579000Y-51252523D02*
X169626619Y-51109666D01*
X169626619Y-51109666D02*
X169626619Y-51014428D01*
X169626619Y-51014428D02*
X169579000Y-50871571D01*
X169579000Y-50871571D02*
X169483761Y-50776333D01*
X169483761Y-50776333D02*
X169388523Y-50728714D01*
X169388523Y-50728714D02*
X169198047Y-50681095D01*
X169198047Y-50681095D02*
X169055190Y-50681095D01*
X169055190Y-50681095D02*
X168864714Y-50728714D01*
X168864714Y-50728714D02*
X168769476Y-50776333D01*
X168769476Y-50776333D02*
X168674238Y-50871571D01*
X168674238Y-50871571D02*
X168626619Y-51014428D01*
X168626619Y-51014428D02*
X168626619Y-51109666D01*
X168626619Y-51109666D02*
X168674238Y-51252523D01*
X168674238Y-51252523D02*
X168721857Y-51300142D01*
X169626619Y-52252523D02*
X169626619Y-51681095D01*
X169626619Y-51966809D02*
X168626619Y-51966809D01*
X168626619Y-51966809D02*
X168769476Y-51871571D01*
X168769476Y-51871571D02*
X168864714Y-51776333D01*
X168864714Y-51776333D02*
X168912333Y-51681095D01*
X168721857Y-52633476D02*
X168674238Y-52681095D01*
X168674238Y-52681095D02*
X168626619Y-52776333D01*
X168626619Y-52776333D02*
X168626619Y-53014428D01*
X168626619Y-53014428D02*
X168674238Y-53109666D01*
X168674238Y-53109666D02*
X168721857Y-53157285D01*
X168721857Y-53157285D02*
X168817095Y-53204904D01*
X168817095Y-53204904D02*
X168912333Y-53204904D01*
X168912333Y-53204904D02*
X169055190Y-53157285D01*
X169055190Y-53157285D02*
X169626619Y-52585857D01*
X169626619Y-52585857D02*
X169626619Y-53204904D01*
X167372380Y-51300142D02*
X167420000Y-51252523D01*
X167420000Y-51252523D02*
X167467619Y-51109666D01*
X167467619Y-51109666D02*
X167467619Y-51014428D01*
X167467619Y-51014428D02*
X167420000Y-50871571D01*
X167420000Y-50871571D02*
X167324761Y-50776333D01*
X167324761Y-50776333D02*
X167229523Y-50728714D01*
X167229523Y-50728714D02*
X167039047Y-50681095D01*
X167039047Y-50681095D02*
X166896190Y-50681095D01*
X166896190Y-50681095D02*
X166705714Y-50728714D01*
X166705714Y-50728714D02*
X166610476Y-50776333D01*
X166610476Y-50776333D02*
X166515238Y-50871571D01*
X166515238Y-50871571D02*
X166467619Y-51014428D01*
X166467619Y-51014428D02*
X166467619Y-51109666D01*
X166467619Y-51109666D02*
X166515238Y-51252523D01*
X166515238Y-51252523D02*
X166562857Y-51300142D01*
X167467619Y-52252523D02*
X167467619Y-51681095D01*
X167467619Y-51966809D02*
X166467619Y-51966809D01*
X166467619Y-51966809D02*
X166610476Y-51871571D01*
X166610476Y-51871571D02*
X166705714Y-51776333D01*
X166705714Y-51776333D02*
X166753333Y-51681095D01*
X166467619Y-52585857D02*
X166467619Y-53204904D01*
X166467619Y-53204904D02*
X166848571Y-52871571D01*
X166848571Y-52871571D02*
X166848571Y-53014428D01*
X166848571Y-53014428D02*
X166896190Y-53109666D01*
X166896190Y-53109666D02*
X166943809Y-53157285D01*
X166943809Y-53157285D02*
X167039047Y-53204904D01*
X167039047Y-53204904D02*
X167277142Y-53204904D01*
X167277142Y-53204904D02*
X167372380Y-53157285D01*
X167372380Y-53157285D02*
X167420000Y-53109666D01*
X167420000Y-53109666D02*
X167467619Y-53014428D01*
X167467619Y-53014428D02*
X167467619Y-52728714D01*
X167467619Y-52728714D02*
X167420000Y-52633476D01*
X167420000Y-52633476D02*
X167372380Y-52585857D01*
X165213380Y-51300142D02*
X165261000Y-51252523D01*
X165261000Y-51252523D02*
X165308619Y-51109666D01*
X165308619Y-51109666D02*
X165308619Y-51014428D01*
X165308619Y-51014428D02*
X165261000Y-50871571D01*
X165261000Y-50871571D02*
X165165761Y-50776333D01*
X165165761Y-50776333D02*
X165070523Y-50728714D01*
X165070523Y-50728714D02*
X164880047Y-50681095D01*
X164880047Y-50681095D02*
X164737190Y-50681095D01*
X164737190Y-50681095D02*
X164546714Y-50728714D01*
X164546714Y-50728714D02*
X164451476Y-50776333D01*
X164451476Y-50776333D02*
X164356238Y-50871571D01*
X164356238Y-50871571D02*
X164308619Y-51014428D01*
X164308619Y-51014428D02*
X164308619Y-51109666D01*
X164308619Y-51109666D02*
X164356238Y-51252523D01*
X164356238Y-51252523D02*
X164403857Y-51300142D01*
X165308619Y-52252523D02*
X165308619Y-51681095D01*
X165308619Y-51966809D02*
X164308619Y-51966809D01*
X164308619Y-51966809D02*
X164451476Y-51871571D01*
X164451476Y-51871571D02*
X164546714Y-51776333D01*
X164546714Y-51776333D02*
X164594333Y-51681095D01*
X164641952Y-53109666D02*
X165308619Y-53109666D01*
X164261000Y-52871571D02*
X164975285Y-52633476D01*
X164975285Y-52633476D02*
X164975285Y-53252523D01*
X143210619Y-41105905D02*
X142210619Y-41105905D01*
X142210619Y-41105905D02*
X142210619Y-41344000D01*
X142210619Y-41344000D02*
X142258238Y-41486857D01*
X142258238Y-41486857D02*
X142353476Y-41582095D01*
X142353476Y-41582095D02*
X142448714Y-41629714D01*
X142448714Y-41629714D02*
X142639190Y-41677333D01*
X142639190Y-41677333D02*
X142782047Y-41677333D01*
X142782047Y-41677333D02*
X142972523Y-41629714D01*
X142972523Y-41629714D02*
X143067761Y-41582095D01*
X143067761Y-41582095D02*
X143163000Y-41486857D01*
X143163000Y-41486857D02*
X143210619Y-41344000D01*
X143210619Y-41344000D02*
X143210619Y-41105905D01*
X142210619Y-42010667D02*
X142210619Y-42629714D01*
X142210619Y-42629714D02*
X142591571Y-42296381D01*
X142591571Y-42296381D02*
X142591571Y-42439238D01*
X142591571Y-42439238D02*
X142639190Y-42534476D01*
X142639190Y-42534476D02*
X142686809Y-42582095D01*
X142686809Y-42582095D02*
X142782047Y-42629714D01*
X142782047Y-42629714D02*
X143020142Y-42629714D01*
X143020142Y-42629714D02*
X143115380Y-42582095D01*
X143115380Y-42582095D02*
X143163000Y-42534476D01*
X143163000Y-42534476D02*
X143210619Y-42439238D01*
X143210619Y-42439238D02*
X143210619Y-42153524D01*
X143210619Y-42153524D02*
X143163000Y-42058286D01*
X143163000Y-42058286D02*
X143115380Y-42010667D01*
X145750619Y-41105905D02*
X144750619Y-41105905D01*
X144750619Y-41105905D02*
X144750619Y-41344000D01*
X144750619Y-41344000D02*
X144798238Y-41486857D01*
X144798238Y-41486857D02*
X144893476Y-41582095D01*
X144893476Y-41582095D02*
X144988714Y-41629714D01*
X144988714Y-41629714D02*
X145179190Y-41677333D01*
X145179190Y-41677333D02*
X145322047Y-41677333D01*
X145322047Y-41677333D02*
X145512523Y-41629714D01*
X145512523Y-41629714D02*
X145607761Y-41582095D01*
X145607761Y-41582095D02*
X145703000Y-41486857D01*
X145703000Y-41486857D02*
X145750619Y-41344000D01*
X145750619Y-41344000D02*
X145750619Y-41105905D01*
X145083952Y-42534476D02*
X145750619Y-42534476D01*
X144703000Y-42296381D02*
X145417285Y-42058286D01*
X145417285Y-42058286D02*
X145417285Y-42677333D01*
X151592619Y-56221333D02*
X151116428Y-55888000D01*
X151592619Y-55649905D02*
X150592619Y-55649905D01*
X150592619Y-55649905D02*
X150592619Y-56030857D01*
X150592619Y-56030857D02*
X150640238Y-56126095D01*
X150640238Y-56126095D02*
X150687857Y-56173714D01*
X150687857Y-56173714D02*
X150783095Y-56221333D01*
X150783095Y-56221333D02*
X150925952Y-56221333D01*
X150925952Y-56221333D02*
X151021190Y-56173714D01*
X151021190Y-56173714D02*
X151068809Y-56126095D01*
X151068809Y-56126095D02*
X151116428Y-56030857D01*
X151116428Y-56030857D02*
X151116428Y-55649905D01*
X150592619Y-56554667D02*
X150592619Y-57173714D01*
X150592619Y-57173714D02*
X150973571Y-56840381D01*
X150973571Y-56840381D02*
X150973571Y-56983238D01*
X150973571Y-56983238D02*
X151021190Y-57078476D01*
X151021190Y-57078476D02*
X151068809Y-57126095D01*
X151068809Y-57126095D02*
X151164047Y-57173714D01*
X151164047Y-57173714D02*
X151402142Y-57173714D01*
X151402142Y-57173714D02*
X151497380Y-57126095D01*
X151497380Y-57126095D02*
X151545000Y-57078476D01*
X151545000Y-57078476D02*
X151592619Y-56983238D01*
X151592619Y-56983238D02*
X151592619Y-56697524D01*
X151592619Y-56697524D02*
X151545000Y-56602286D01*
X151545000Y-56602286D02*
X151497380Y-56554667D01*
X120096619Y-52665333D02*
X119620428Y-52332000D01*
X120096619Y-52093905D02*
X119096619Y-52093905D01*
X119096619Y-52093905D02*
X119096619Y-52474857D01*
X119096619Y-52474857D02*
X119144238Y-52570095D01*
X119144238Y-52570095D02*
X119191857Y-52617714D01*
X119191857Y-52617714D02*
X119287095Y-52665333D01*
X119287095Y-52665333D02*
X119429952Y-52665333D01*
X119429952Y-52665333D02*
X119525190Y-52617714D01*
X119525190Y-52617714D02*
X119572809Y-52570095D01*
X119572809Y-52570095D02*
X119620428Y-52474857D01*
X119620428Y-52474857D02*
X119620428Y-52093905D01*
X119429952Y-53522476D02*
X120096619Y-53522476D01*
X119049000Y-53284381D02*
X119763285Y-53046286D01*
X119763285Y-53046286D02*
X119763285Y-53665333D01*
X122128619Y-52665333D02*
X121652428Y-52332000D01*
X122128619Y-52093905D02*
X121128619Y-52093905D01*
X121128619Y-52093905D02*
X121128619Y-52474857D01*
X121128619Y-52474857D02*
X121176238Y-52570095D01*
X121176238Y-52570095D02*
X121223857Y-52617714D01*
X121223857Y-52617714D02*
X121319095Y-52665333D01*
X121319095Y-52665333D02*
X121461952Y-52665333D01*
X121461952Y-52665333D02*
X121557190Y-52617714D01*
X121557190Y-52617714D02*
X121604809Y-52570095D01*
X121604809Y-52570095D02*
X121652428Y-52474857D01*
X121652428Y-52474857D02*
X121652428Y-52093905D01*
X121128619Y-53570095D02*
X121128619Y-53093905D01*
X121128619Y-53093905D02*
X121604809Y-53046286D01*
X121604809Y-53046286D02*
X121557190Y-53093905D01*
X121557190Y-53093905D02*
X121509571Y-53189143D01*
X121509571Y-53189143D02*
X121509571Y-53427238D01*
X121509571Y-53427238D02*
X121557190Y-53522476D01*
X121557190Y-53522476D02*
X121604809Y-53570095D01*
X121604809Y-53570095D02*
X121700047Y-53617714D01*
X121700047Y-53617714D02*
X121938142Y-53617714D01*
X121938142Y-53617714D02*
X122033380Y-53570095D01*
X122033380Y-53570095D02*
X122081000Y-53522476D01*
X122081000Y-53522476D02*
X122128619Y-53427238D01*
X122128619Y-53427238D02*
X122128619Y-53189143D01*
X122128619Y-53189143D02*
X122081000Y-53093905D01*
X122081000Y-53093905D02*
X122033380Y-53046286D01*
X124160619Y-52665333D02*
X123684428Y-52332000D01*
X124160619Y-52093905D02*
X123160619Y-52093905D01*
X123160619Y-52093905D02*
X123160619Y-52474857D01*
X123160619Y-52474857D02*
X123208238Y-52570095D01*
X123208238Y-52570095D02*
X123255857Y-52617714D01*
X123255857Y-52617714D02*
X123351095Y-52665333D01*
X123351095Y-52665333D02*
X123493952Y-52665333D01*
X123493952Y-52665333D02*
X123589190Y-52617714D01*
X123589190Y-52617714D02*
X123636809Y-52570095D01*
X123636809Y-52570095D02*
X123684428Y-52474857D01*
X123684428Y-52474857D02*
X123684428Y-52093905D01*
X123160619Y-53522476D02*
X123160619Y-53332000D01*
X123160619Y-53332000D02*
X123208238Y-53236762D01*
X123208238Y-53236762D02*
X123255857Y-53189143D01*
X123255857Y-53189143D02*
X123398714Y-53093905D01*
X123398714Y-53093905D02*
X123589190Y-53046286D01*
X123589190Y-53046286D02*
X123970142Y-53046286D01*
X123970142Y-53046286D02*
X124065380Y-53093905D01*
X124065380Y-53093905D02*
X124113000Y-53141524D01*
X124113000Y-53141524D02*
X124160619Y-53236762D01*
X124160619Y-53236762D02*
X124160619Y-53427238D01*
X124160619Y-53427238D02*
X124113000Y-53522476D01*
X124113000Y-53522476D02*
X124065380Y-53570095D01*
X124065380Y-53570095D02*
X123970142Y-53617714D01*
X123970142Y-53617714D02*
X123732047Y-53617714D01*
X123732047Y-53617714D02*
X123636809Y-53570095D01*
X123636809Y-53570095D02*
X123589190Y-53522476D01*
X123589190Y-53522476D02*
X123541571Y-53427238D01*
X123541571Y-53427238D02*
X123541571Y-53236762D01*
X123541571Y-53236762D02*
X123589190Y-53141524D01*
X123589190Y-53141524D02*
X123636809Y-53093905D01*
X123636809Y-53093905D02*
X123732047Y-53046286D01*
X126192619Y-52665333D02*
X125716428Y-52332000D01*
X126192619Y-52093905D02*
X125192619Y-52093905D01*
X125192619Y-52093905D02*
X125192619Y-52474857D01*
X125192619Y-52474857D02*
X125240238Y-52570095D01*
X125240238Y-52570095D02*
X125287857Y-52617714D01*
X125287857Y-52617714D02*
X125383095Y-52665333D01*
X125383095Y-52665333D02*
X125525952Y-52665333D01*
X125525952Y-52665333D02*
X125621190Y-52617714D01*
X125621190Y-52617714D02*
X125668809Y-52570095D01*
X125668809Y-52570095D02*
X125716428Y-52474857D01*
X125716428Y-52474857D02*
X125716428Y-52093905D01*
X125192619Y-52998667D02*
X125192619Y-53665333D01*
X125192619Y-53665333D02*
X126192619Y-53236762D01*
X163054380Y-51300142D02*
X163102000Y-51252523D01*
X163102000Y-51252523D02*
X163149619Y-51109666D01*
X163149619Y-51109666D02*
X163149619Y-51014428D01*
X163149619Y-51014428D02*
X163102000Y-50871571D01*
X163102000Y-50871571D02*
X163006761Y-50776333D01*
X163006761Y-50776333D02*
X162911523Y-50728714D01*
X162911523Y-50728714D02*
X162721047Y-50681095D01*
X162721047Y-50681095D02*
X162578190Y-50681095D01*
X162578190Y-50681095D02*
X162387714Y-50728714D01*
X162387714Y-50728714D02*
X162292476Y-50776333D01*
X162292476Y-50776333D02*
X162197238Y-50871571D01*
X162197238Y-50871571D02*
X162149619Y-51014428D01*
X162149619Y-51014428D02*
X162149619Y-51109666D01*
X162149619Y-51109666D02*
X162197238Y-51252523D01*
X162197238Y-51252523D02*
X162244857Y-51300142D01*
X163149619Y-52252523D02*
X163149619Y-51681095D01*
X163149619Y-51966809D02*
X162149619Y-51966809D01*
X162149619Y-51966809D02*
X162292476Y-51871571D01*
X162292476Y-51871571D02*
X162387714Y-51776333D01*
X162387714Y-51776333D02*
X162435333Y-51681095D01*
X162149619Y-53157285D02*
X162149619Y-52681095D01*
X162149619Y-52681095D02*
X162625809Y-52633476D01*
X162625809Y-52633476D02*
X162578190Y-52681095D01*
X162578190Y-52681095D02*
X162530571Y-52776333D01*
X162530571Y-52776333D02*
X162530571Y-53014428D01*
X162530571Y-53014428D02*
X162578190Y-53109666D01*
X162578190Y-53109666D02*
X162625809Y-53157285D01*
X162625809Y-53157285D02*
X162721047Y-53204904D01*
X162721047Y-53204904D02*
X162959142Y-53204904D01*
X162959142Y-53204904D02*
X163054380Y-53157285D01*
X163054380Y-53157285D02*
X163102000Y-53109666D01*
X163102000Y-53109666D02*
X163149619Y-53014428D01*
X163149619Y-53014428D02*
X163149619Y-52776333D01*
X163149619Y-52776333D02*
X163102000Y-52681095D01*
X163102000Y-52681095D02*
X163054380Y-52633476D01*
X160895380Y-51300142D02*
X160943000Y-51252523D01*
X160943000Y-51252523D02*
X160990619Y-51109666D01*
X160990619Y-51109666D02*
X160990619Y-51014428D01*
X160990619Y-51014428D02*
X160943000Y-50871571D01*
X160943000Y-50871571D02*
X160847761Y-50776333D01*
X160847761Y-50776333D02*
X160752523Y-50728714D01*
X160752523Y-50728714D02*
X160562047Y-50681095D01*
X160562047Y-50681095D02*
X160419190Y-50681095D01*
X160419190Y-50681095D02*
X160228714Y-50728714D01*
X160228714Y-50728714D02*
X160133476Y-50776333D01*
X160133476Y-50776333D02*
X160038238Y-50871571D01*
X160038238Y-50871571D02*
X159990619Y-51014428D01*
X159990619Y-51014428D02*
X159990619Y-51109666D01*
X159990619Y-51109666D02*
X160038238Y-51252523D01*
X160038238Y-51252523D02*
X160085857Y-51300142D01*
X160990619Y-52252523D02*
X160990619Y-51681095D01*
X160990619Y-51966809D02*
X159990619Y-51966809D01*
X159990619Y-51966809D02*
X160133476Y-51871571D01*
X160133476Y-51871571D02*
X160228714Y-51776333D01*
X160228714Y-51776333D02*
X160276333Y-51681095D01*
X159990619Y-53109666D02*
X159990619Y-52919190D01*
X159990619Y-52919190D02*
X160038238Y-52823952D01*
X160038238Y-52823952D02*
X160085857Y-52776333D01*
X160085857Y-52776333D02*
X160228714Y-52681095D01*
X160228714Y-52681095D02*
X160419190Y-52633476D01*
X160419190Y-52633476D02*
X160800142Y-52633476D01*
X160800142Y-52633476D02*
X160895380Y-52681095D01*
X160895380Y-52681095D02*
X160943000Y-52728714D01*
X160943000Y-52728714D02*
X160990619Y-52823952D01*
X160990619Y-52823952D02*
X160990619Y-53014428D01*
X160990619Y-53014428D02*
X160943000Y-53109666D01*
X160943000Y-53109666D02*
X160895380Y-53157285D01*
X160895380Y-53157285D02*
X160800142Y-53204904D01*
X160800142Y-53204904D02*
X160562047Y-53204904D01*
X160562047Y-53204904D02*
X160466809Y-53157285D01*
X160466809Y-53157285D02*
X160419190Y-53109666D01*
X160419190Y-53109666D02*
X160371571Y-53014428D01*
X160371571Y-53014428D02*
X160371571Y-52823952D01*
X160371571Y-52823952D02*
X160419190Y-52728714D01*
X160419190Y-52728714D02*
X160466809Y-52681095D01*
X160466809Y-52681095D02*
X160562047Y-52633476D01*
X158736380Y-51300142D02*
X158784000Y-51252523D01*
X158784000Y-51252523D02*
X158831619Y-51109666D01*
X158831619Y-51109666D02*
X158831619Y-51014428D01*
X158831619Y-51014428D02*
X158784000Y-50871571D01*
X158784000Y-50871571D02*
X158688761Y-50776333D01*
X158688761Y-50776333D02*
X158593523Y-50728714D01*
X158593523Y-50728714D02*
X158403047Y-50681095D01*
X158403047Y-50681095D02*
X158260190Y-50681095D01*
X158260190Y-50681095D02*
X158069714Y-50728714D01*
X158069714Y-50728714D02*
X157974476Y-50776333D01*
X157974476Y-50776333D02*
X157879238Y-50871571D01*
X157879238Y-50871571D02*
X157831619Y-51014428D01*
X157831619Y-51014428D02*
X157831619Y-51109666D01*
X157831619Y-51109666D02*
X157879238Y-51252523D01*
X157879238Y-51252523D02*
X157926857Y-51300142D01*
X158831619Y-52252523D02*
X158831619Y-51681095D01*
X158831619Y-51966809D02*
X157831619Y-51966809D01*
X157831619Y-51966809D02*
X157974476Y-51871571D01*
X157974476Y-51871571D02*
X158069714Y-51776333D01*
X158069714Y-51776333D02*
X158117333Y-51681095D01*
X157831619Y-52585857D02*
X157831619Y-53252523D01*
X157831619Y-53252523D02*
X158831619Y-52823952D01*
X140546380Y-63907333D02*
X140594000Y-63859714D01*
X140594000Y-63859714D02*
X140641619Y-63716857D01*
X140641619Y-63716857D02*
X140641619Y-63621619D01*
X140641619Y-63621619D02*
X140594000Y-63478762D01*
X140594000Y-63478762D02*
X140498761Y-63383524D01*
X140498761Y-63383524D02*
X140403523Y-63335905D01*
X140403523Y-63335905D02*
X140213047Y-63288286D01*
X140213047Y-63288286D02*
X140070190Y-63288286D01*
X140070190Y-63288286D02*
X139879714Y-63335905D01*
X139879714Y-63335905D02*
X139784476Y-63383524D01*
X139784476Y-63383524D02*
X139689238Y-63478762D01*
X139689238Y-63478762D02*
X139641619Y-63621619D01*
X139641619Y-63621619D02*
X139641619Y-63716857D01*
X139641619Y-63716857D02*
X139689238Y-63859714D01*
X139689238Y-63859714D02*
X139736857Y-63907333D01*
X140641619Y-64859714D02*
X140641619Y-64288286D01*
X140641619Y-64574000D02*
X139641619Y-64574000D01*
X139641619Y-64574000D02*
X139784476Y-64478762D01*
X139784476Y-64478762D02*
X139879714Y-64383524D01*
X139879714Y-64383524D02*
X139927333Y-64288286D01*
X123160619Y-40894095D02*
X123970142Y-40894095D01*
X123970142Y-40894095D02*
X124065380Y-40941714D01*
X124065380Y-40941714D02*
X124113000Y-40989333D01*
X124113000Y-40989333D02*
X124160619Y-41084571D01*
X124160619Y-41084571D02*
X124160619Y-41275047D01*
X124160619Y-41275047D02*
X124113000Y-41370285D01*
X124113000Y-41370285D02*
X124065380Y-41417904D01*
X124065380Y-41417904D02*
X123970142Y-41465523D01*
X123970142Y-41465523D02*
X123160619Y-41465523D01*
X123255857Y-41894095D02*
X123208238Y-41941714D01*
X123208238Y-41941714D02*
X123160619Y-42036952D01*
X123160619Y-42036952D02*
X123160619Y-42275047D01*
X123160619Y-42275047D02*
X123208238Y-42370285D01*
X123208238Y-42370285D02*
X123255857Y-42417904D01*
X123255857Y-42417904D02*
X123351095Y-42465523D01*
X123351095Y-42465523D02*
X123446333Y-42465523D01*
X123446333Y-42465523D02*
X123589190Y-42417904D01*
X123589190Y-42417904D02*
X124160619Y-41846476D01*
X124160619Y-41846476D02*
X124160619Y-42465523D01*
X117197619Y-63168095D02*
X118007142Y-63168095D01*
X118007142Y-63168095D02*
X118102380Y-63215714D01*
X118102380Y-63215714D02*
X118150000Y-63263333D01*
X118150000Y-63263333D02*
X118197619Y-63358571D01*
X118197619Y-63358571D02*
X118197619Y-63549047D01*
X118197619Y-63549047D02*
X118150000Y-63644285D01*
X118150000Y-63644285D02*
X118102380Y-63691904D01*
X118102380Y-63691904D02*
X118007142Y-63739523D01*
X118007142Y-63739523D02*
X117197619Y-63739523D01*
X117197619Y-64120476D02*
X117197619Y-64739523D01*
X117197619Y-64739523D02*
X117578571Y-64406190D01*
X117578571Y-64406190D02*
X117578571Y-64549047D01*
X117578571Y-64549047D02*
X117626190Y-64644285D01*
X117626190Y-64644285D02*
X117673809Y-64691904D01*
X117673809Y-64691904D02*
X117769047Y-64739523D01*
X117769047Y-64739523D02*
X118007142Y-64739523D01*
X118007142Y-64739523D02*
X118102380Y-64691904D01*
X118102380Y-64691904D02*
X118150000Y-64644285D01*
X118150000Y-64644285D02*
X118197619Y-64549047D01*
X118197619Y-64549047D02*
X118197619Y-64263333D01*
X118197619Y-64263333D02*
X118150000Y-64168095D01*
X118150000Y-64168095D02*
X118102380Y-64120476D01*
X137114619Y-41743333D02*
X137114619Y-41267143D01*
X137114619Y-41267143D02*
X136114619Y-41267143D01*
X137114619Y-42600476D02*
X137114619Y-42029048D01*
X137114619Y-42314762D02*
X136114619Y-42314762D01*
X136114619Y-42314762D02*
X136257476Y-42219524D01*
X136257476Y-42219524D02*
X136352714Y-42124286D01*
X136352714Y-42124286D02*
X136400333Y-42029048D01*
X152624619Y-57912095D02*
X153434142Y-57912095D01*
X153434142Y-57912095D02*
X153529380Y-57959714D01*
X153529380Y-57959714D02*
X153577000Y-58007333D01*
X153577000Y-58007333D02*
X153624619Y-58102571D01*
X153624619Y-58102571D02*
X153624619Y-58293047D01*
X153624619Y-58293047D02*
X153577000Y-58388285D01*
X153577000Y-58388285D02*
X153529380Y-58435904D01*
X153529380Y-58435904D02*
X153434142Y-58483523D01*
X153434142Y-58483523D02*
X152624619Y-58483523D01*
X153624619Y-59483523D02*
X153624619Y-58912095D01*
X153624619Y-59197809D02*
X152624619Y-59197809D01*
X152624619Y-59197809D02*
X152767476Y-59102571D01*
X152767476Y-59102571D02*
X152862714Y-59007333D01*
X152862714Y-59007333D02*
X152910333Y-58912095D01*
X140670619Y-41105905D02*
X139670619Y-41105905D01*
X139670619Y-41105905D02*
X139670619Y-41344000D01*
X139670619Y-41344000D02*
X139718238Y-41486857D01*
X139718238Y-41486857D02*
X139813476Y-41582095D01*
X139813476Y-41582095D02*
X139908714Y-41629714D01*
X139908714Y-41629714D02*
X140099190Y-41677333D01*
X140099190Y-41677333D02*
X140242047Y-41677333D01*
X140242047Y-41677333D02*
X140432523Y-41629714D01*
X140432523Y-41629714D02*
X140527761Y-41582095D01*
X140527761Y-41582095D02*
X140623000Y-41486857D01*
X140623000Y-41486857D02*
X140670619Y-41344000D01*
X140670619Y-41344000D02*
X140670619Y-41105905D01*
X139670619Y-42582095D02*
X139670619Y-42105905D01*
X139670619Y-42105905D02*
X140146809Y-42058286D01*
X140146809Y-42058286D02*
X140099190Y-42105905D01*
X140099190Y-42105905D02*
X140051571Y-42201143D01*
X140051571Y-42201143D02*
X140051571Y-42439238D01*
X140051571Y-42439238D02*
X140099190Y-42534476D01*
X140099190Y-42534476D02*
X140146809Y-42582095D01*
X140146809Y-42582095D02*
X140242047Y-42629714D01*
X140242047Y-42629714D02*
X140480142Y-42629714D01*
X140480142Y-42629714D02*
X140575380Y-42582095D01*
X140575380Y-42582095D02*
X140623000Y-42534476D01*
X140623000Y-42534476D02*
X140670619Y-42439238D01*
X140670619Y-42439238D02*
X140670619Y-42201143D01*
X140670619Y-42201143D02*
X140623000Y-42105905D01*
X140623000Y-42105905D02*
X140575380Y-42058286D01*
X44021333Y-72304739D02*
X44021333Y-73019024D01*
X44021333Y-73019024D02*
X44068952Y-73161881D01*
X44068952Y-73161881D02*
X44164190Y-73257120D01*
X44164190Y-73257120D02*
X44307047Y-73304739D01*
X44307047Y-73304739D02*
X44402285Y-73304739D01*
X43021333Y-73304739D02*
X43592761Y-73304739D01*
X43307047Y-73304739D02*
X43307047Y-72304739D01*
X43307047Y-72304739D02*
X43402285Y-72447596D01*
X43402285Y-72447596D02*
X43497523Y-72542834D01*
X43497523Y-72542834D02*
X43592761Y-72590453D01*
X44021333Y-45634739D02*
X44021333Y-46349024D01*
X44021333Y-46349024D02*
X44068952Y-46491881D01*
X44068952Y-46491881D02*
X44164190Y-46587120D01*
X44164190Y-46587120D02*
X44307047Y-46634739D01*
X44307047Y-46634739D02*
X44402285Y-46634739D01*
X43592761Y-45729977D02*
X43545142Y-45682358D01*
X43545142Y-45682358D02*
X43449904Y-45634739D01*
X43449904Y-45634739D02*
X43211809Y-45634739D01*
X43211809Y-45634739D02*
X43116571Y-45682358D01*
X43116571Y-45682358D02*
X43068952Y-45729977D01*
X43068952Y-45729977D02*
X43021333Y-45825215D01*
X43021333Y-45825215D02*
X43021333Y-45920453D01*
X43021333Y-45920453D02*
X43068952Y-46063310D01*
X43068952Y-46063310D02*
X43640380Y-46634739D01*
X43640380Y-46634739D02*
X43021333Y-46634739D01*
X149401857Y-47844761D02*
X149354238Y-47749523D01*
X149354238Y-47749523D02*
X149259000Y-47654285D01*
X149259000Y-47654285D02*
X149116142Y-47511428D01*
X149116142Y-47511428D02*
X149068523Y-47416190D01*
X149068523Y-47416190D02*
X149068523Y-47320952D01*
X149306619Y-47368571D02*
X149259000Y-47273333D01*
X149259000Y-47273333D02*
X149163761Y-47178095D01*
X149163761Y-47178095D02*
X148973285Y-47130476D01*
X148973285Y-47130476D02*
X148639952Y-47130476D01*
X148639952Y-47130476D02*
X148449476Y-47178095D01*
X148449476Y-47178095D02*
X148354238Y-47273333D01*
X148354238Y-47273333D02*
X148306619Y-47368571D01*
X148306619Y-47368571D02*
X148306619Y-47559047D01*
X148306619Y-47559047D02*
X148354238Y-47654285D01*
X148354238Y-47654285D02*
X148449476Y-47749523D01*
X148449476Y-47749523D02*
X148639952Y-47797142D01*
X148639952Y-47797142D02*
X148973285Y-47797142D01*
X148973285Y-47797142D02*
X149163761Y-47749523D01*
X149163761Y-47749523D02*
X149259000Y-47654285D01*
X149259000Y-47654285D02*
X149306619Y-47559047D01*
X149306619Y-47559047D02*
X149306619Y-47368571D01*
X149306619Y-48749523D02*
X149306619Y-48178095D01*
X149306619Y-48463809D02*
X148306619Y-48463809D01*
X148306619Y-48463809D02*
X148449476Y-48368571D01*
X148449476Y-48368571D02*
X148544714Y-48273333D01*
X148544714Y-48273333D02*
X148592333Y-48178095D01*
X128224619Y-52665333D02*
X127748428Y-52332000D01*
X128224619Y-52093905D02*
X127224619Y-52093905D01*
X127224619Y-52093905D02*
X127224619Y-52474857D01*
X127224619Y-52474857D02*
X127272238Y-52570095D01*
X127272238Y-52570095D02*
X127319857Y-52617714D01*
X127319857Y-52617714D02*
X127415095Y-52665333D01*
X127415095Y-52665333D02*
X127557952Y-52665333D01*
X127557952Y-52665333D02*
X127653190Y-52617714D01*
X127653190Y-52617714D02*
X127700809Y-52570095D01*
X127700809Y-52570095D02*
X127748428Y-52474857D01*
X127748428Y-52474857D02*
X127748428Y-52093905D01*
X127653190Y-53236762D02*
X127605571Y-53141524D01*
X127605571Y-53141524D02*
X127557952Y-53093905D01*
X127557952Y-53093905D02*
X127462714Y-53046286D01*
X127462714Y-53046286D02*
X127415095Y-53046286D01*
X127415095Y-53046286D02*
X127319857Y-53093905D01*
X127319857Y-53093905D02*
X127272238Y-53141524D01*
X127272238Y-53141524D02*
X127224619Y-53236762D01*
X127224619Y-53236762D02*
X127224619Y-53427238D01*
X127224619Y-53427238D02*
X127272238Y-53522476D01*
X127272238Y-53522476D02*
X127319857Y-53570095D01*
X127319857Y-53570095D02*
X127415095Y-53617714D01*
X127415095Y-53617714D02*
X127462714Y-53617714D01*
X127462714Y-53617714D02*
X127557952Y-53570095D01*
X127557952Y-53570095D02*
X127605571Y-53522476D01*
X127605571Y-53522476D02*
X127653190Y-53427238D01*
X127653190Y-53427238D02*
X127653190Y-53236762D01*
X127653190Y-53236762D02*
X127700809Y-53141524D01*
X127700809Y-53141524D02*
X127748428Y-53093905D01*
X127748428Y-53093905D02*
X127843666Y-53046286D01*
X127843666Y-53046286D02*
X128034142Y-53046286D01*
X128034142Y-53046286D02*
X128129380Y-53093905D01*
X128129380Y-53093905D02*
X128177000Y-53141524D01*
X128177000Y-53141524D02*
X128224619Y-53236762D01*
X128224619Y-53236762D02*
X128224619Y-53427238D01*
X128224619Y-53427238D02*
X128177000Y-53522476D01*
X128177000Y-53522476D02*
X128129380Y-53570095D01*
X128129380Y-53570095D02*
X128034142Y-53617714D01*
X128034142Y-53617714D02*
X127843666Y-53617714D01*
X127843666Y-53617714D02*
X127748428Y-53570095D01*
X127748428Y-53570095D02*
X127700809Y-53522476D01*
X127700809Y-53522476D02*
X127653190Y-53427238D01*
X130256619Y-52665333D02*
X129780428Y-52332000D01*
X130256619Y-52093905D02*
X129256619Y-52093905D01*
X129256619Y-52093905D02*
X129256619Y-52474857D01*
X129256619Y-52474857D02*
X129304238Y-52570095D01*
X129304238Y-52570095D02*
X129351857Y-52617714D01*
X129351857Y-52617714D02*
X129447095Y-52665333D01*
X129447095Y-52665333D02*
X129589952Y-52665333D01*
X129589952Y-52665333D02*
X129685190Y-52617714D01*
X129685190Y-52617714D02*
X129732809Y-52570095D01*
X129732809Y-52570095D02*
X129780428Y-52474857D01*
X129780428Y-52474857D02*
X129780428Y-52093905D01*
X130256619Y-53141524D02*
X130256619Y-53332000D01*
X130256619Y-53332000D02*
X130209000Y-53427238D01*
X130209000Y-53427238D02*
X130161380Y-53474857D01*
X130161380Y-53474857D02*
X130018523Y-53570095D01*
X130018523Y-53570095D02*
X129828047Y-53617714D01*
X129828047Y-53617714D02*
X129447095Y-53617714D01*
X129447095Y-53617714D02*
X129351857Y-53570095D01*
X129351857Y-53570095D02*
X129304238Y-53522476D01*
X129304238Y-53522476D02*
X129256619Y-53427238D01*
X129256619Y-53427238D02*
X129256619Y-53236762D01*
X129256619Y-53236762D02*
X129304238Y-53141524D01*
X129304238Y-53141524D02*
X129351857Y-53093905D01*
X129351857Y-53093905D02*
X129447095Y-53046286D01*
X129447095Y-53046286D02*
X129685190Y-53046286D01*
X129685190Y-53046286D02*
X129780428Y-53093905D01*
X129780428Y-53093905D02*
X129828047Y-53141524D01*
X129828047Y-53141524D02*
X129875666Y-53236762D01*
X129875666Y-53236762D02*
X129875666Y-53427238D01*
X129875666Y-53427238D02*
X129828047Y-53522476D01*
X129828047Y-53522476D02*
X129780428Y-53570095D01*
X129780428Y-53570095D02*
X129685190Y-53617714D01*
X150373419Y-40789842D02*
X149897228Y-40456509D01*
X150373419Y-40218414D02*
X149373419Y-40218414D01*
X149373419Y-40218414D02*
X149373419Y-40599366D01*
X149373419Y-40599366D02*
X149421038Y-40694604D01*
X149421038Y-40694604D02*
X149468657Y-40742223D01*
X149468657Y-40742223D02*
X149563895Y-40789842D01*
X149563895Y-40789842D02*
X149706752Y-40789842D01*
X149706752Y-40789842D02*
X149801990Y-40742223D01*
X149801990Y-40742223D02*
X149849609Y-40694604D01*
X149849609Y-40694604D02*
X149897228Y-40599366D01*
X149897228Y-40599366D02*
X149897228Y-40218414D01*
X150373419Y-41742223D02*
X150373419Y-41170795D01*
X150373419Y-41456509D02*
X149373419Y-41456509D01*
X149373419Y-41456509D02*
X149516276Y-41361271D01*
X149516276Y-41361271D02*
X149611514Y-41266033D01*
X149611514Y-41266033D02*
X149659133Y-41170795D01*
X149373419Y-42361271D02*
X149373419Y-42456509D01*
X149373419Y-42456509D02*
X149421038Y-42551747D01*
X149421038Y-42551747D02*
X149468657Y-42599366D01*
X149468657Y-42599366D02*
X149563895Y-42646985D01*
X149563895Y-42646985D02*
X149754371Y-42694604D01*
X149754371Y-42694604D02*
X149992466Y-42694604D01*
X149992466Y-42694604D02*
X150182942Y-42646985D01*
X150182942Y-42646985D02*
X150278180Y-42599366D01*
X150278180Y-42599366D02*
X150325800Y-42551747D01*
X150325800Y-42551747D02*
X150373419Y-42456509D01*
X150373419Y-42456509D02*
X150373419Y-42361271D01*
X150373419Y-42361271D02*
X150325800Y-42266033D01*
X150325800Y-42266033D02*
X150278180Y-42218414D01*
X150278180Y-42218414D02*
X150182942Y-42170795D01*
X150182942Y-42170795D02*
X149992466Y-42123176D01*
X149992466Y-42123176D02*
X149754371Y-42123176D01*
X149754371Y-42123176D02*
X149563895Y-42170795D01*
X149563895Y-42170795D02*
X149468657Y-42218414D01*
X149468657Y-42218414D02*
X149421038Y-42266033D01*
X149421038Y-42266033D02*
X149373419Y-42361271D01*
X165308619Y-40759142D02*
X164832428Y-40425809D01*
X165308619Y-40187714D02*
X164308619Y-40187714D01*
X164308619Y-40187714D02*
X164308619Y-40568666D01*
X164308619Y-40568666D02*
X164356238Y-40663904D01*
X164356238Y-40663904D02*
X164403857Y-40711523D01*
X164403857Y-40711523D02*
X164499095Y-40759142D01*
X164499095Y-40759142D02*
X164641952Y-40759142D01*
X164641952Y-40759142D02*
X164737190Y-40711523D01*
X164737190Y-40711523D02*
X164784809Y-40663904D01*
X164784809Y-40663904D02*
X164832428Y-40568666D01*
X164832428Y-40568666D02*
X164832428Y-40187714D01*
X165308619Y-41711523D02*
X165308619Y-41140095D01*
X165308619Y-41425809D02*
X164308619Y-41425809D01*
X164308619Y-41425809D02*
X164451476Y-41330571D01*
X164451476Y-41330571D02*
X164546714Y-41235333D01*
X164546714Y-41235333D02*
X164594333Y-41140095D01*
X165308619Y-42663904D02*
X165308619Y-42092476D01*
X165308619Y-42378190D02*
X164308619Y-42378190D01*
X164308619Y-42378190D02*
X164451476Y-42282952D01*
X164451476Y-42282952D02*
X164546714Y-42187714D01*
X164546714Y-42187714D02*
X164594333Y-42092476D01*
X152354619Y-40799442D02*
X151878428Y-40466109D01*
X152354619Y-40228014D02*
X151354619Y-40228014D01*
X151354619Y-40228014D02*
X151354619Y-40608966D01*
X151354619Y-40608966D02*
X151402238Y-40704204D01*
X151402238Y-40704204D02*
X151449857Y-40751823D01*
X151449857Y-40751823D02*
X151545095Y-40799442D01*
X151545095Y-40799442D02*
X151687952Y-40799442D01*
X151687952Y-40799442D02*
X151783190Y-40751823D01*
X151783190Y-40751823D02*
X151830809Y-40704204D01*
X151830809Y-40704204D02*
X151878428Y-40608966D01*
X151878428Y-40608966D02*
X151878428Y-40228014D01*
X152354619Y-41751823D02*
X152354619Y-41180395D01*
X152354619Y-41466109D02*
X151354619Y-41466109D01*
X151354619Y-41466109D02*
X151497476Y-41370871D01*
X151497476Y-41370871D02*
X151592714Y-41275633D01*
X151592714Y-41275633D02*
X151640333Y-41180395D01*
X151449857Y-42132776D02*
X151402238Y-42180395D01*
X151402238Y-42180395D02*
X151354619Y-42275633D01*
X151354619Y-42275633D02*
X151354619Y-42513728D01*
X151354619Y-42513728D02*
X151402238Y-42608966D01*
X151402238Y-42608966D02*
X151449857Y-42656585D01*
X151449857Y-42656585D02*
X151545095Y-42704204D01*
X151545095Y-42704204D02*
X151640333Y-42704204D01*
X151640333Y-42704204D02*
X151783190Y-42656585D01*
X151783190Y-42656585D02*
X152354619Y-42085157D01*
X152354619Y-42085157D02*
X152354619Y-42704204D01*
X69763019Y-55678666D02*
X70477304Y-55678666D01*
X70477304Y-55678666D02*
X70620161Y-55631047D01*
X70620161Y-55631047D02*
X70715400Y-55535809D01*
X70715400Y-55535809D02*
X70763019Y-55392952D01*
X70763019Y-55392952D02*
X70763019Y-55297714D01*
X69763019Y-56059619D02*
X69763019Y-56678666D01*
X69763019Y-56678666D02*
X70143971Y-56345333D01*
X70143971Y-56345333D02*
X70143971Y-56488190D01*
X70143971Y-56488190D02*
X70191590Y-56583428D01*
X70191590Y-56583428D02*
X70239209Y-56631047D01*
X70239209Y-56631047D02*
X70334447Y-56678666D01*
X70334447Y-56678666D02*
X70572542Y-56678666D01*
X70572542Y-56678666D02*
X70667780Y-56631047D01*
X70667780Y-56631047D02*
X70715400Y-56583428D01*
X70715400Y-56583428D02*
X70763019Y-56488190D01*
X70763019Y-56488190D02*
X70763019Y-56202476D01*
X70763019Y-56202476D02*
X70715400Y-56107238D01*
X70715400Y-56107238D02*
X70667780Y-56059619D01*
X93283419Y-55673666D02*
X93997704Y-55673666D01*
X93997704Y-55673666D02*
X94140561Y-55626047D01*
X94140561Y-55626047D02*
X94235800Y-55530809D01*
X94235800Y-55530809D02*
X94283419Y-55387952D01*
X94283419Y-55387952D02*
X94283419Y-55292714D01*
X93616752Y-56578428D02*
X94283419Y-56578428D01*
X93235800Y-56340333D02*
X93950085Y-56102238D01*
X93950085Y-56102238D02*
X93950085Y-56721285D01*
X158450428Y-64801809D02*
X158926619Y-64801809D01*
X157926619Y-64468476D02*
X158450428Y-64801809D01*
X158450428Y-64801809D02*
X157926619Y-65135142D01*
X158926619Y-65992285D02*
X158926619Y-65420857D01*
X158926619Y-65706571D02*
X157926619Y-65706571D01*
X157926619Y-65706571D02*
X158069476Y-65611333D01*
X158069476Y-65611333D02*
X158164714Y-65516095D01*
X158164714Y-65516095D02*
X158212333Y-65420857D01*
X164641857Y-61198761D02*
X164594238Y-61103523D01*
X164594238Y-61103523D02*
X164499000Y-61008285D01*
X164499000Y-61008285D02*
X164356142Y-60865428D01*
X164356142Y-60865428D02*
X164308523Y-60770190D01*
X164308523Y-60770190D02*
X164308523Y-60674952D01*
X164546619Y-60722571D02*
X164499000Y-60627333D01*
X164499000Y-60627333D02*
X164403761Y-60532095D01*
X164403761Y-60532095D02*
X164213285Y-60484476D01*
X164213285Y-60484476D02*
X163879952Y-60484476D01*
X163879952Y-60484476D02*
X163689476Y-60532095D01*
X163689476Y-60532095D02*
X163594238Y-60627333D01*
X163594238Y-60627333D02*
X163546619Y-60722571D01*
X163546619Y-60722571D02*
X163546619Y-60913047D01*
X163546619Y-60913047D02*
X163594238Y-61008285D01*
X163594238Y-61008285D02*
X163689476Y-61103523D01*
X163689476Y-61103523D02*
X163879952Y-61151142D01*
X163879952Y-61151142D02*
X164213285Y-61151142D01*
X164213285Y-61151142D02*
X164403761Y-61103523D01*
X164403761Y-61103523D02*
X164499000Y-61008285D01*
X164499000Y-61008285D02*
X164546619Y-60913047D01*
X164546619Y-60913047D02*
X164546619Y-60722571D01*
X163641857Y-61532095D02*
X163594238Y-61579714D01*
X163594238Y-61579714D02*
X163546619Y-61674952D01*
X163546619Y-61674952D02*
X163546619Y-61913047D01*
X163546619Y-61913047D02*
X163594238Y-62008285D01*
X163594238Y-62008285D02*
X163641857Y-62055904D01*
X163641857Y-62055904D02*
X163737095Y-62103523D01*
X163737095Y-62103523D02*
X163832333Y-62103523D01*
X163832333Y-62103523D02*
X163975190Y-62055904D01*
X163975190Y-62055904D02*
X164546619Y-61484476D01*
X164546619Y-61484476D02*
X164546619Y-62103523D01*
X164165619Y-69795142D02*
X163689428Y-69461809D01*
X164165619Y-69223714D02*
X163165619Y-69223714D01*
X163165619Y-69223714D02*
X163165619Y-69604666D01*
X163165619Y-69604666D02*
X163213238Y-69699904D01*
X163213238Y-69699904D02*
X163260857Y-69747523D01*
X163260857Y-69747523D02*
X163356095Y-69795142D01*
X163356095Y-69795142D02*
X163498952Y-69795142D01*
X163498952Y-69795142D02*
X163594190Y-69747523D01*
X163594190Y-69747523D02*
X163641809Y-69699904D01*
X163641809Y-69699904D02*
X163689428Y-69604666D01*
X163689428Y-69604666D02*
X163689428Y-69223714D01*
X164165619Y-70747523D02*
X164165619Y-70176095D01*
X164165619Y-70461809D02*
X163165619Y-70461809D01*
X163165619Y-70461809D02*
X163308476Y-70366571D01*
X163308476Y-70366571D02*
X163403714Y-70271333D01*
X163403714Y-70271333D02*
X163451333Y-70176095D01*
X163165619Y-71080857D02*
X163165619Y-71699904D01*
X163165619Y-71699904D02*
X163546571Y-71366571D01*
X163546571Y-71366571D02*
X163546571Y-71509428D01*
X163546571Y-71509428D02*
X163594190Y-71604666D01*
X163594190Y-71604666D02*
X163641809Y-71652285D01*
X163641809Y-71652285D02*
X163737047Y-71699904D01*
X163737047Y-71699904D02*
X163975142Y-71699904D01*
X163975142Y-71699904D02*
X164070380Y-71652285D01*
X164070380Y-71652285D02*
X164118000Y-71604666D01*
X164118000Y-71604666D02*
X164165619Y-71509428D01*
X164165619Y-71509428D02*
X164165619Y-71223714D01*
X164165619Y-71223714D02*
X164118000Y-71128476D01*
X164118000Y-71128476D02*
X164070380Y-71080857D01*
X170229857Y-61198761D02*
X170182238Y-61103523D01*
X170182238Y-61103523D02*
X170087000Y-61008285D01*
X170087000Y-61008285D02*
X169944142Y-60865428D01*
X169944142Y-60865428D02*
X169896523Y-60770190D01*
X169896523Y-60770190D02*
X169896523Y-60674952D01*
X170134619Y-60722571D02*
X170087000Y-60627333D01*
X170087000Y-60627333D02*
X169991761Y-60532095D01*
X169991761Y-60532095D02*
X169801285Y-60484476D01*
X169801285Y-60484476D02*
X169467952Y-60484476D01*
X169467952Y-60484476D02*
X169277476Y-60532095D01*
X169277476Y-60532095D02*
X169182238Y-60627333D01*
X169182238Y-60627333D02*
X169134619Y-60722571D01*
X169134619Y-60722571D02*
X169134619Y-60913047D01*
X169134619Y-60913047D02*
X169182238Y-61008285D01*
X169182238Y-61008285D02*
X169277476Y-61103523D01*
X169277476Y-61103523D02*
X169467952Y-61151142D01*
X169467952Y-61151142D02*
X169801285Y-61151142D01*
X169801285Y-61151142D02*
X169991761Y-61103523D01*
X169991761Y-61103523D02*
X170087000Y-61008285D01*
X170087000Y-61008285D02*
X170134619Y-60913047D01*
X170134619Y-60913047D02*
X170134619Y-60722571D01*
X169134619Y-61484476D02*
X169134619Y-62103523D01*
X169134619Y-62103523D02*
X169515571Y-61770190D01*
X169515571Y-61770190D02*
X169515571Y-61913047D01*
X169515571Y-61913047D02*
X169563190Y-62008285D01*
X169563190Y-62008285D02*
X169610809Y-62055904D01*
X169610809Y-62055904D02*
X169706047Y-62103523D01*
X169706047Y-62103523D02*
X169944142Y-62103523D01*
X169944142Y-62103523D02*
X170039380Y-62055904D01*
X170039380Y-62055904D02*
X170087000Y-62008285D01*
X170087000Y-62008285D02*
X170134619Y-61913047D01*
X170134619Y-61913047D02*
X170134619Y-61627333D01*
X170134619Y-61627333D02*
X170087000Y-61532095D01*
X170087000Y-61532095D02*
X170039380Y-61484476D01*
X167467619Y-69795142D02*
X166991428Y-69461809D01*
X167467619Y-69223714D02*
X166467619Y-69223714D01*
X166467619Y-69223714D02*
X166467619Y-69604666D01*
X166467619Y-69604666D02*
X166515238Y-69699904D01*
X166515238Y-69699904D02*
X166562857Y-69747523D01*
X166562857Y-69747523D02*
X166658095Y-69795142D01*
X166658095Y-69795142D02*
X166800952Y-69795142D01*
X166800952Y-69795142D02*
X166896190Y-69747523D01*
X166896190Y-69747523D02*
X166943809Y-69699904D01*
X166943809Y-69699904D02*
X166991428Y-69604666D01*
X166991428Y-69604666D02*
X166991428Y-69223714D01*
X167467619Y-70747523D02*
X167467619Y-70176095D01*
X167467619Y-70461809D02*
X166467619Y-70461809D01*
X166467619Y-70461809D02*
X166610476Y-70366571D01*
X166610476Y-70366571D02*
X166705714Y-70271333D01*
X166705714Y-70271333D02*
X166753333Y-70176095D01*
X166800952Y-71604666D02*
X167467619Y-71604666D01*
X166420000Y-71366571D02*
X167134285Y-71128476D01*
X167134285Y-71128476D02*
X167134285Y-71747523D01*
D11*
X160809000Y-67386564D02*
X160809000Y-66932436D01*
X162279000Y-67386564D02*
X162279000Y-66932436D01*
X169899000Y-66932436D02*
X169899000Y-67386564D01*
X168429000Y-66932436D02*
X168429000Y-67386564D01*
X126265000Y-44899252D02*
X126265000Y-44376748D01*
X127735000Y-44899252D02*
X127735000Y-44376748D01*
X119661000Y-44899252D02*
X119661000Y-44376748D01*
X121131000Y-44899252D02*
X121131000Y-44376748D01*
X146331000Y-56649252D02*
X146331000Y-56126748D01*
X147801000Y-56649252D02*
X147801000Y-56126748D01*
X134339000Y-44367148D02*
X134339000Y-44889652D01*
X132869000Y-44367148D02*
X132869000Y-44889652D01*
X147093000Y-44880052D02*
X147093000Y-44357548D01*
X148563000Y-44880052D02*
X148563000Y-44357548D01*
X169899000Y-44290348D02*
X169899000Y-44812852D01*
X168429000Y-44290348D02*
X168429000Y-44812852D01*
X167740000Y-44299948D02*
X167740000Y-44822452D01*
X166270000Y-44299948D02*
X166270000Y-44822452D01*
X163422000Y-44338348D02*
X163422000Y-44860852D01*
X161952000Y-44338348D02*
X161952000Y-44860852D01*
X161263000Y-44347948D02*
X161263000Y-44870452D01*
X159793000Y-44347948D02*
X159793000Y-44870452D01*
X169899000Y-48523948D02*
X169899000Y-49046452D01*
X168429000Y-48523948D02*
X168429000Y-49046452D01*
X167740000Y-48511748D02*
X167740000Y-49034252D01*
X166270000Y-48511748D02*
X166270000Y-49034252D01*
X165581000Y-48536148D02*
X165581000Y-49058652D01*
X164111000Y-48536148D02*
X164111000Y-49058652D01*
X146288000Y-42916000D02*
X146288000Y-46926000D01*
X144288000Y-42916000D02*
X146288000Y-42916000D01*
X144288000Y-42916000D02*
X144288000Y-46926000D01*
X141748000Y-47636000D02*
X141748000Y-43626000D01*
X143748000Y-47636000D02*
X141748000Y-47636000D01*
X143748000Y-47636000D02*
X143748000Y-43626000D01*
X150087000Y-56160936D02*
X150087000Y-56615064D01*
X148617000Y-56160936D02*
X148617000Y-56615064D01*
X118899000Y-55829564D02*
X118899000Y-55375436D01*
X120369000Y-55829564D02*
X120369000Y-55375436D01*
X120931000Y-55829564D02*
X120931000Y-55375436D01*
X122401000Y-55829564D02*
X122401000Y-55375436D01*
X122963000Y-55829564D02*
X122963000Y-55375436D01*
X124433000Y-55829564D02*
X124433000Y-55375436D01*
X124995000Y-55829564D02*
X124995000Y-55375436D01*
X126465000Y-55829564D02*
X126465000Y-55375436D01*
X163422000Y-48548348D02*
X163422000Y-49070852D01*
X161952000Y-48548348D02*
X161952000Y-49070852D01*
X161263000Y-48560548D02*
X161263000Y-49083052D01*
X159793000Y-48560548D02*
X159793000Y-49083052D01*
X159104000Y-48572748D02*
X159104000Y-49095252D01*
X157634000Y-48572748D02*
X157634000Y-49095252D01*
X142594000Y-63812748D02*
X142594000Y-64335252D01*
X141124000Y-63812748D02*
X141124000Y-64335252D01*
X122138000Y-44892000D02*
X122138000Y-45692000D01*
X122138000Y-44892000D02*
X122138000Y-44092000D01*
X125258000Y-44892000D02*
X125258000Y-46692000D01*
X125258000Y-44892000D02*
X125258000Y-44092000D01*
X136695000Y-60070000D02*
X136450000Y-60070000D01*
X118820000Y-60070000D02*
X118820000Y-58255000D01*
X118575000Y-60070000D02*
X118820000Y-60070000D01*
X136695000Y-63930000D02*
X136695000Y-60070000D01*
X136695000Y-63930000D02*
X136695000Y-67790000D01*
X118575000Y-63930000D02*
X118575000Y-60070000D01*
X118575000Y-63930000D02*
X118575000Y-67790000D01*
X136695000Y-67790000D02*
X136450000Y-67790000D01*
X118575000Y-67790000D02*
X118820000Y-67790000D01*
X138012000Y-44485936D02*
X138012000Y-45690064D01*
X135292000Y-44485936D02*
X135292000Y-45690064D01*
D10*
X145219000Y-60305000D02*
X145219000Y-60630000D01*
X145219000Y-60305000D02*
X145544000Y-60305000D01*
X145219000Y-67555000D02*
X145219000Y-67230000D01*
X145219000Y-67555000D02*
X145544000Y-67555000D01*
X152469000Y-60305000D02*
X152144000Y-60305000D01*
X152469000Y-60305000D02*
X152469000Y-60530000D01*
X152469000Y-60530000D02*
X153894000Y-60530000D01*
X152469000Y-67555000D02*
X152144000Y-67555000D01*
X152469000Y-67555000D02*
X152469000Y-67230000D01*
D11*
X141208000Y-42916000D02*
X141208000Y-46926000D01*
X139208000Y-42916000D02*
X141208000Y-42916000D01*
X139208000Y-42916000D02*
X139208000Y-46926000D01*
D10*
X46187360Y-71841360D02*
X46187360Y-66842640D01*
X46187360Y-66842640D02*
X41188640Y-66842640D01*
X41188640Y-71841360D02*
X46187360Y-71841360D01*
X41188640Y-66842640D02*
X41188640Y-71841360D01*
X41188640Y-40172640D02*
X41188640Y-45171360D01*
X41188640Y-45171360D02*
X46187360Y-45171360D01*
X46187360Y-40172640D02*
X41188640Y-40172640D01*
X46187360Y-45171360D02*
X46187360Y-40172640D01*
D11*
X152036000Y-47721000D02*
X152036000Y-49131000D01*
X151376000Y-49131000D02*
X152036000Y-49131000D01*
X149716000Y-49131000D02*
X149716000Y-47101000D01*
X149716000Y-49131000D02*
X150376000Y-49131000D01*
X127027000Y-55829564D02*
X127027000Y-55375436D01*
X128497000Y-55829564D02*
X128497000Y-55375436D01*
X129059000Y-55829564D02*
X129059000Y-55375436D01*
X130529000Y-55829564D02*
X130529000Y-55375436D01*
X149125000Y-44807464D02*
X149125000Y-44353336D01*
X150595000Y-44807464D02*
X150595000Y-44353336D01*
X164111000Y-44797864D02*
X164111000Y-44343736D01*
X165581000Y-44797864D02*
X165581000Y-44343736D01*
X152627000Y-44362936D02*
X152627000Y-44817064D01*
X151157000Y-44362936D02*
X151157000Y-44817064D01*
X61560400Y-58612000D02*
X61560400Y-53412000D01*
X66700400Y-58612000D02*
X61560400Y-58612000D01*
X66700400Y-58612000D02*
X66700400Y-56012000D01*
X67970400Y-58612000D02*
X69300400Y-58612000D01*
X69300400Y-58612000D02*
X69300400Y-57282000D01*
X66700400Y-56012000D02*
X69300400Y-56012000D01*
X69300400Y-56012000D02*
X69300400Y-53412000D01*
X69300400Y-53412000D02*
X61560400Y-53412000D01*
X77460800Y-57337000D02*
X77460800Y-54677000D01*
X90220800Y-57337000D02*
X77460800Y-57337000D01*
X90220800Y-57337000D02*
X90220800Y-54677000D01*
X91490800Y-57337000D02*
X92820800Y-57337000D01*
X92820800Y-57337000D02*
X92820800Y-56007000D01*
X90220800Y-54677000D02*
X77460800Y-54677000D01*
X155664000Y-67278000D02*
X155264000Y-67278000D01*
X157664000Y-67278000D02*
X155664000Y-67278000D01*
X155664000Y-67078000D02*
X155264000Y-67078000D01*
X155664000Y-67078000D02*
X157664000Y-67078000D01*
X157664000Y-67078000D02*
X157664000Y-66078000D01*
X155264000Y-66078000D02*
X155264000Y-67078000D01*
X155264000Y-66078000D02*
X154864000Y-66078000D01*
X157664000Y-64278000D02*
X157664000Y-63478000D01*
X155264000Y-63478000D02*
X155264000Y-64278000D01*
X155664000Y-63478000D02*
X155264000Y-63478000D01*
X157664000Y-63478000D02*
X155664000Y-63478000D01*
X161000000Y-63174000D02*
X161000000Y-63824000D01*
X161000000Y-63174000D02*
X161000000Y-62524000D01*
X164120000Y-63174000D02*
X164120000Y-64849000D01*
X164120000Y-63174000D02*
X164120000Y-62524000D01*
X162968000Y-67386564D02*
X162968000Y-66932436D01*
X164438000Y-67386564D02*
X164438000Y-66932436D01*
X166564500Y-63174000D02*
X166564500Y-63824000D01*
X166564500Y-63174000D02*
X166564500Y-62524000D01*
X169684500Y-63174000D02*
X169684500Y-64849000D01*
X169684500Y-63174000D02*
X169684500Y-62524000D01*
X166270000Y-67386564D02*
X166270000Y-66932436D01*
X167740000Y-67386564D02*
X167740000Y-66932436D01*
%LPC*%
D12*
X217597000Y-57730000D03*
D13*
X215097000Y-57130000D03*
X215097000Y-57130000D03*
D12*
X217597000Y-56530000D03*
D14*
X216097000Y-60270000D03*
D13*
X212097000Y-59670000D03*
X212097000Y-59670000D03*
D14*
X216097000Y-59070000D03*
D12*
X217597000Y-52924000D03*
D13*
X215097000Y-52324000D03*
X215097000Y-52324000D03*
D12*
X217597000Y-51724000D03*
D14*
X216097000Y-55464000D03*
D13*
X212097000Y-54864000D03*
X212097000Y-54864000D03*
D14*
X216097000Y-54264000D03*
D15*
X161544000Y-68072000D03*
X161544000Y-66247000D03*
D16*
X169164000Y-66247000D03*
X169164000Y-68072000D03*
D17*
X127000000Y-45588000D03*
X127000000Y-43688000D03*
X120396000Y-45588000D03*
X120396000Y-43688000D03*
X147066000Y-57338000D03*
X147066000Y-55438000D03*
D18*
X133604000Y-43678400D03*
X133604000Y-45578400D03*
D17*
X147828000Y-45568800D03*
X147828000Y-43668800D03*
D18*
X169164000Y-43601600D03*
X169164000Y-45501600D03*
X167005000Y-43611200D03*
X167005000Y-45511200D03*
X162687000Y-43649600D03*
X162687000Y-45549600D03*
X160528000Y-43659200D03*
X160528000Y-45559200D03*
X169164000Y-47835200D03*
X169164000Y-49735200D03*
X167005000Y-47823000D03*
X167005000Y-49723000D03*
X164846000Y-47847400D03*
X164846000Y-49747400D03*
D19*
X145288000Y-43626000D03*
X145288000Y-46926000D03*
D20*
X142748000Y-46926000D03*
X142748000Y-43626000D03*
D16*
X149352000Y-55475500D03*
X149352000Y-57300500D03*
D15*
X119634000Y-56515000D03*
X119634000Y-54690000D03*
X121666000Y-56515000D03*
X121666000Y-54690000D03*
X123698000Y-56515000D03*
X123698000Y-54690000D03*
X125730000Y-56515000D03*
X125730000Y-54690000D03*
D18*
X162687000Y-47859600D03*
X162687000Y-49759600D03*
X160528000Y-47871800D03*
X160528000Y-49771800D03*
X158369000Y-47884000D03*
X158369000Y-49784000D03*
X141859000Y-63124000D03*
X141859000Y-65024000D03*
D21*
X124648000Y-46029500D03*
X123698000Y-46029500D03*
X122748000Y-46029500D03*
X122748000Y-43754500D03*
X124648000Y-43754500D03*
D22*
X119380000Y-59280000D03*
X120650000Y-59280000D03*
X121920000Y-59280000D03*
X123190000Y-59280000D03*
X124460000Y-59280000D03*
X125730000Y-59280000D03*
X127000000Y-59280000D03*
X128270000Y-59280000D03*
X129540000Y-59280000D03*
X130810000Y-59280000D03*
X132080000Y-59280000D03*
X133350000Y-59280000D03*
X134620000Y-59280000D03*
X135890000Y-59280000D03*
X135890000Y-68580000D03*
X134620000Y-68580000D03*
X133350000Y-68580000D03*
X132080000Y-68580000D03*
X130810000Y-68580000D03*
X129540000Y-68580000D03*
X128270000Y-68580000D03*
X127000000Y-68580000D03*
X125730000Y-68580000D03*
X124460000Y-68580000D03*
X123190000Y-68580000D03*
X121920000Y-68580000D03*
X120650000Y-68580000D03*
X119380000Y-68580000D03*
D23*
X136652000Y-43688000D03*
X136652000Y-46488000D03*
D24*
X151644000Y-59680000D03*
X150844000Y-59680000D03*
X150044000Y-59680000D03*
X149244000Y-59680000D03*
X148444000Y-59680000D03*
X147644000Y-59680000D03*
X146844000Y-59680000D03*
X146044000Y-59680000D03*
D25*
X144594000Y-61130000D03*
X144594000Y-61930000D03*
X144594000Y-62730000D03*
X144594000Y-63530000D03*
X144594000Y-64330000D03*
X144594000Y-65130000D03*
X144594000Y-65930000D03*
X144594000Y-66730000D03*
D24*
X146044000Y-68180000D03*
X146844000Y-68180000D03*
X147644000Y-68180000D03*
X148444000Y-68180000D03*
X149244000Y-68180000D03*
X150044000Y-68180000D03*
X150844000Y-68180000D03*
X151644000Y-68180000D03*
D25*
X153094000Y-66730000D03*
X153094000Y-65930000D03*
X153094000Y-65130000D03*
X153094000Y-64330000D03*
X153094000Y-63530000D03*
X153094000Y-62730000D03*
X153094000Y-61930000D03*
X153094000Y-61130000D03*
D19*
X140208000Y-43626000D03*
X140208000Y-46926000D03*
D26*
X43688000Y-69342000D03*
X43688000Y-42672000D03*
D27*
X150226000Y-47401000D03*
X151526000Y-47401000D03*
X150876000Y-49401000D03*
D15*
X127762000Y-56515000D03*
X127762000Y-54690000D03*
X129794000Y-56515000D03*
X129794000Y-54690000D03*
X149860000Y-45492900D03*
X149860000Y-43667900D03*
X164846000Y-45483300D03*
X164846000Y-43658300D03*
D16*
X151892000Y-43677500D03*
X151892000Y-45502500D03*
D28*
X67970400Y-57282000D03*
D29*
X67970400Y-54742000D03*
X65430400Y-57282000D03*
X65430400Y-54742000D03*
X62890400Y-57282000D03*
X62890400Y-54742000D03*
D28*
X91490800Y-56007000D03*
D29*
X88950800Y-56007000D03*
X86410800Y-56007000D03*
X83870800Y-56007000D03*
X81330800Y-56007000D03*
X78790800Y-56007000D03*
D30*
X156464000Y-66478000D03*
X156464000Y-65278000D03*
X156464000Y-64078000D03*
D31*
X163510000Y-64111500D03*
X161610000Y-64111500D03*
X162560000Y-62236500D03*
D15*
X163703000Y-68072000D03*
X163703000Y-66247000D03*
D31*
X169074500Y-64111500D03*
X167174500Y-64111500D03*
X168124500Y-62236500D03*
D15*
X167005000Y-68072000D03*
X167005000Y-66247000D03*
M02*
